<svg width="72px" height="73px" viewBox="0 0 72 73" fill="none" xmlns="http://www.w3.org/2000/svg" transform="rotate(0) scale(1, 1)">
<circle cx="36" cy="36.6519" r="36" fill="#eeb736"/>
<path d="M21.2176 30.5649C22.2611 30.5649 22.9568 31.2606 22.9568 32.3041V42.7389C22.9568 43.7823 22.2611 44.478 21.2176 44.478C20.1742 44.478 19.4785 43.7823 19.4785 42.7389V32.3041C19.4785 31.2606 20.1742 30.5649 21.2176 30.5649Z" stroke="#0b0c0d" stroke-width="1.25" stroke-linecap="round" stroke-linejoin="round"/>
<path d="M50.7831 30.5649C51.8266 30.5649 52.5222 31.2606 52.5222 32.3041V42.7389C52.5222 43.7823 51.8266 44.478 50.7831 44.478C49.7396 44.478 49.0439 43.7823 49.0439 42.7389V32.3041C49.0439 31.2606 49.7396 30.5649 50.7831 30.5649Z" stroke="#0b0c0d" stroke-width="1.25" stroke-linecap="round" stroke-linejoin="round"/>
<path d="M35.9998 18.391C31.1302 18.391 26.9563 22.2171 26.4346 27.0866H45.3911C45.0433 22.2171 40.8693 18.391 35.9998 18.391Z" stroke="#0b0c0d" stroke-width="1.25" stroke-linecap="round" stroke-linejoin="round"/>
<path d="M26.4346 30.5649V45.3476C26.4346 46.7389 27.652 47.9562 29.0433 47.9562H29.9128V54.9128C29.9128 55.9562 30.6085 56.6519 31.652 56.6519C32.6954 56.6519 33.3911 55.9562 33.3911 54.9128V47.9562H38.6085V54.9128C38.6085 55.9562 39.3041 56.6519 40.3476 56.6519C41.3911 56.6519 42.0867 55.9562 42.0867 54.9128V47.9562H42.9563C44.3476 47.9562 45.565 46.7389 45.565 45.3476V30.5649H26.4346Z" stroke="#0b0c0d" stroke-width="1.25" stroke-linecap="round" stroke-linejoin="round"/>
<path d="M29.0439 16.6519L30.957 19.7823" stroke="#0b0c0d" stroke-width="1.25" stroke-linecap="round" stroke-linejoin="round"/>
<path d="M42.957 16.6519L41.0439 19.7823" stroke="#0b0c0d" stroke-width="1.25" stroke-linecap="round" stroke-linejoin="round"/>
<path d="M31.6528 24.4779C32.133 24.4779 32.5223 24.0886 32.5223 23.6083C32.5223 23.1281 32.133 22.7388 31.6528 22.7388C31.1725 22.7388 30.7832 23.1281 30.7832 23.6083C30.7832 24.0886 31.1725 24.4779 31.6528 24.4779Z" fill="#0b0c0d"/>
<path d="M40.3481 24.4779C40.8283 24.4779 41.2176 24.0886 41.2176 23.6083C41.2176 23.1281 40.8283 22.7388 40.3481 22.7388C39.8678 22.7388 39.4785 23.1281 39.4785 23.6083C39.4785 24.0886 39.8678 24.4779 40.3481 24.4779Z" fill="#0b0c0d"/>
</svg>