<?xml version="1.0" encoding="UTF-8"?>
<svg id="Layer_1" data-name="Layer 1" xmlns="http://www.w3.org/2000/svg" xmlns:xlink="http://www.w3.org/1999/xlink" viewBox="0 0 928.91 711.56">
  <defs>
    <style>
      .cls-1 {
        fill: url(#linear-gradient-2);
      }

      .cls-2 {
        fill: url(#linear-gradient-5);
      }

      .cls-3 {
        fill: none;
      }

      .cls-4 {
        fill: url(#linear-gradient-3);
      }

      .cls-5 {
        fill: url(#linear-gradient);
      }

      .cls-6 {
        fill: url(#linear-gradient-4);
      }
    </style>
    <linearGradient id="linear-gradient" x1="464.45" y1="51.06" x2="464.45" y2="469.6" gradientUnits="userSpaceOnUse">
      <stop offset="0" stop-color="#edc437"/>
      <stop offset="1" stop-color="#f73130"/>
    </linearGradient>
    <linearGradient id="linear-gradient-2" x1="432.01" y1="51.06" x2="432.01" y2="469.6" xlink:href="#linear-gradient"/>
    <linearGradient id="linear-gradient-3" x1="502.67" y1="51.06" x2="502.67" y2="469.6" xlink:href="#linear-gradient"/>
    <linearGradient id="linear-gradient-4" x1="437.77" y1="51.06" x2="437.77" y2="469.6" xlink:href="#linear-gradient"/>
    <linearGradient id="linear-gradient-5" x1="496.32" y1="51.06" x2="496.32" y2="469.6" xlink:href="#linear-gradient"/>
  </defs>
  <g>
    <g>
      <path d="m122.2,613.43c-26,0-44.56-21.22-44.56-47.57s18.57-46.33,44.56-46.33c11.67,0,20.69,4.06,27.05,10.96,3.71,3.89,4.25,11.14,5.84,16.27l4.24-1.42c-1.59-4.95-4.77-11.14-4.77-16.44v-6.72h24.75v88.41h-24.75v-7.25c0-5.31,3.18-11.67,4.6-16.62l-4.07-1.41c-1.59,5.13-2.12,12.38-5.66,16.44-6.37,7.25-15.39,11.67-27.23,11.67Zm1.77-22.99c12.38,0,21.75-11.32,21.93-24.58,0-13.44-7.6-23.34-21.93-23.34-12.38,0-21.57,9.9-21.57,23.34s9.19,24.58,21.57,24.58Z"/>
      <path d="m214.86,654.81l-24.76.18v-132.62l24.76-.18v6.37c0,5.3-3.18,11.49-4.95,16.45l4.25,1.41c1.59-4.95,2.3-12.38,6.01-16.09,6.37-6.9,15.56-10.96,27.23-10.96,26.52,0,45.09,20.51,44.38,46.86-.88,25.11-19.1,47.04-44.21,47.04-11.85,0-20.86-4.77-27.23-11.49-3.71-3.71-4.6-10.96-6.37-15.91l-4.24,1.42c1.77,4.95,5.13,11.14,5.13,16.44v51.1Zm5.31-89.12c0,13.44,8.49,24.58,23.34,24.58s23.52-11.14,23.52-24.58-8.67-23.34-23.52-23.34-23.34,9.9-23.34,23.34Z"/>
      <path d="m325.55,654.81l-24.76.18v-132.62l24.76-.18v6.37c0,5.3-3.18,11.49-4.95,16.45l4.25,1.41c1.59-4.95,2.3-12.38,6.01-16.09,6.37-6.9,15.56-10.96,27.23-10.96,26.52,0,45.09,20.51,44.38,46.86-.88,25.11-19.1,47.04-44.21,47.04-11.85,0-20.87-4.77-27.23-11.49-3.71-3.71-4.6-10.96-6.37-15.91l-4.24,1.42c1.77,4.95,5.13,11.14,5.13,16.44v51.1Zm5.31-89.12c0,13.44,8.49,24.58,23.34,24.58s23.52-11.14,23.52-24.58-8.67-23.34-23.52-23.34-23.34,9.9-23.34,23.34Z"/>
      <path d="m455.52,654.81h-12.38v-132.62h12.38v6.37c0,5.3-2.3,11.67-4.07,16.8l2.48.71c1.77-4.95,3.18-12.02,6.89-15.74,6.72-6.72,15.91-10.78,27.94-10.78,26.52,0,43.67,19.98,43.67,46.33s-17.15,47.57-43.67,47.57c-12.03,0-21.4-4.24-27.94-11.49-3.71-3.89-5.13-10.96-6.72-15.91l-2.65.88c1.77,4.95,4.07,11.49,4.07,16.8v51.1Zm0-88.95c0,19.45,11.32,35.72,33.24,35.72s31.3-16.27,31.3-35.72-9.55-34.48-31.3-34.48-33.24,15.03-33.24,34.48Z"/>
      <path d="m575.24,613.25c-15.91,0-31.3-10.43-31.3-30.42v-60.65h12.38v51.81c0,18.57,7.96,27.41,19.8,27.41,13.08,0,30.59-7.96,30.59-27.41v-51.81h12.38v88.41h-12.38v-5.13c.18-3.89,2.48-8.31,3.89-11.85l-2.47-1.06c-1.42,3.54-2.83,8.49-5.48,11.14-8.49,8.31-15.39,9.55-27.41,9.55Z"/>
      <path d="m633.24,482.4h12.56v106.81c0,7.07,1.95,9.55,9.37,9.55h12.56v11.85h-10.26c-17.69,0-24.23-5.84-24.23-21.4v-106.81Z"/>
      <path d="m720.06,613.43c-19.98,0-43.67-10.79-43.67-27.59h12.55c0,7.43,15.74,15.74,31.3,15.74,14.15,0,23.7-3.71,23.7-14.32,0-26.52-66.13-6.54-66.13-42.44,0-13.44,15.03-25.29,37.14-25.29,19.27,0,39.25,7.96,39.25,23.87h-12.56c0-7.78-12.02-12.02-26.7-12.02s-24.23,5.48-24.23,13.79c0,19.28,66.13,4.25,66.13,40.85,0,18.74-13.08,27.41-36.78,27.41Z"/>
      <path d="m763.91,565.86c0-26.35,18.39-46.33,44.21-46.33s43.32,21.04,43.15,44.74c0,1.77,0,6.01-.18,7.43h-74.44c0,12.38,10.96,29.89,33.95,29.89,14.85,0,23.87-8.84,25.99-16.27h12.73c-2.47,9.19-13.79,28.12-37.84,28.12-30.94,0-47.57-21.22-47.57-47.57Zm73.92-6.01c0-15.21-11.14-28.47-29.53-28.47s-31.65,14.68-31.65,28.47h61.18Z"/>
    </g>
    <g>
      <g>
        <path class="cls-5" d="m464.45,56.57l-176.04,101.63v203.27l176.04,101.63,176.04-101.63v-203.27l-176.04-101.63Zm115.52,203.98v65.99h0v25.21l-60.51,34.95v-18.65l11.79-13.37-11.79,6.81h0s-55,31.74-55,31.74l-115.52-66.7v-50.82h0v-12.96h0v-69.61l115.52-66.7,55,31.76,11.79,6.81-11.79-13.37v-18.66l60.51,34.92v25.24h0v67.42Z"/>
        <polygon class="cls-1" points="454.58 202.01 409.44 228.08 409.44 258.6 439.35 258.6 454.58 202.01"/>
        <polygon class="cls-4" points="485.9 310.98 519.45 291.61 519.45 277.67 494.25 277.67 485.9 310.98"/>
        <polygon class="cls-6" points="448.43 306.77 432.61 279.87 409.44 279.87 409.44 291.6 464.45 323.36 466.11 322.4 459.41 265.97 448.43 306.77"/>
        <polygon class="cls-2" points="479.72 256.4 519.45 256.4 519.45 228.07 473.19 201.36 479.72 256.4"/>
      </g>
      <polygon points="571.65 260.55 546.71 260.55 480.93 260.55 478.92 268.35 477.59 273.65 465.96 175.74 442.49 262.91 442.4 262.75 370.38 262.75 357.23 262.75 348.92 262.75 348.92 262.75 348.92 266.91 348.92 271.56 348.92 275.72 348.92 275.72 357.23 275.72 370.38 275.72 434.99 275.72 446.99 296.12 461 244.09 473 345.3 491.01 273.52 546.71 273.52 571.65 273.52 579.97 273.52 579.97 269.38 579.97 264.71 579.97 260.55 571.65 260.55"/>
    </g>
  </g>
  <rect class="cls-3" width="928.91" height="711.56"/>
</svg>