<svg width="101" height="78" viewBox="0 0 101 78" fill="none" xmlns="http://www.w3.org/2000/svg">
<path d="M5.91768 72.3125C2.53091 72.3125 0.113281 69.5689 0.113281 66.162C0.113281 62.7552 2.53221 60.1719 5.91768 60.1719C7.43781 60.1719 8.61276 60.6968 9.44121 61.5889C9.92448 62.0919 9.99482 63.0293 10.2019 63.6925L10.7542 63.5089C10.5471 62.8689 10.1329 62.0686 10.1329 61.3834V60.5145H13.3568V71.9453H10.1329V71.008C10.1329 70.3214 10.5471 69.4991 10.7321 68.8591L10.2019 68.6768C9.99482 69.3401 9.92578 70.2774 9.46466 70.8024C8.6349 71.7398 7.45996 72.3112 5.91768 72.3112V72.3125ZM6.14824 69.3401C7.76086 69.3401 8.98139 67.8765 9.00484 66.162C9.00484 64.4243 8.01487 63.1443 6.14824 63.1443C4.53562 63.1443 3.33852 64.4243 3.33852 66.162C3.33852 67.8997 4.53562 69.3401 6.14824 69.3401Z" fill="white"/>
<path d="M17.9874 77.6624L14.7622 77.6856V60.5388L17.9874 60.5155V61.3391C17.9874 62.0243 17.5732 62.8247 17.3427 63.466L17.8963 63.6483C18.1034 63.0083 18.1959 62.0476 18.6791 61.5679C19.5089 60.6758 20.706 60.1509 22.2261 60.1509C25.6806 60.1509 28.0995 62.8027 28.0071 66.2096C27.8924 69.4561 25.5191 72.2915 22.2483 72.2915C20.7047 72.2915 19.531 71.6748 18.7013 70.806C18.218 70.3263 18.1021 69.3889 17.8715 68.7489L17.3192 68.9325C17.5498 69.5725 17.9874 70.3728 17.9874 71.0581V77.665V77.6624ZM18.6791 66.1398C18.6791 67.8775 19.785 69.3178 21.7194 69.3178C23.6538 69.3178 24.7831 67.8775 24.7831 66.1398C24.7831 64.402 23.6538 63.122 21.7194 63.122C19.785 63.122 18.6791 64.402 18.6791 66.1398Z" fill="white"/>
<path d="M32.4059 77.6624L29.1807 77.6856V60.5388L32.4059 60.5155V61.3391C32.4059 62.0243 31.9917 62.8247 31.7611 63.466L32.3147 63.6483C32.5218 63.0083 32.6143 62.0476 33.0976 61.5679C33.9273 60.6758 35.1244 60.1509 36.6446 60.1509C40.0991 60.1509 42.518 62.8027 42.4255 66.2096C42.3109 69.4561 39.9376 72.2915 36.6667 72.2915C35.1231 72.2915 33.9482 71.6748 33.1197 70.806C32.6365 70.3263 32.5205 69.3889 32.29 68.7489L31.7377 68.9325C31.9682 69.5725 32.4059 70.3728 32.4059 71.0581V77.665V77.6624ZM33.0976 66.1398C33.0976 67.8775 34.2035 69.3178 36.1379 69.3178C38.0722 69.3178 39.2016 67.8775 39.2016 66.1398C39.2016 64.402 38.0722 63.122 36.1379 63.122C34.2035 63.122 33.0976 64.402 33.0976 66.1398Z" fill="white"/>
<path d="M49.3358 77.6625H47.7231V60.5157H49.3358V61.3393C49.3358 62.0245 49.0362 62.8481 48.8056 63.5114L49.1286 63.6032C49.3592 62.9632 49.5429 62.0491 50.0261 61.5681C50.9015 60.6993 52.0986 60.1743 53.6656 60.1743C57.1201 60.1743 59.3541 62.7576 59.3541 66.1645C59.3541 69.5714 57.1201 72.315 53.6656 72.315C52.0986 72.315 50.878 71.7668 50.0261 70.8294C49.5429 70.3264 49.3579 69.4123 49.1508 68.7723L48.8056 68.8861C49.0362 69.5261 49.3358 70.3717 49.3358 71.0582V77.6651V77.6625ZM49.3358 66.1619C49.3358 68.6766 50.8103 70.7803 53.6656 70.7803C56.5209 70.7803 57.7428 68.6766 57.7428 66.1619C57.7428 63.6471 56.4988 61.7039 53.6656 61.7039C50.8325 61.7039 49.3358 63.6471 49.3358 66.1619Z" fill="white"/>
<path d="M64.9307 72.2889C62.8582 72.2889 60.8535 70.9404 60.8535 68.3558V60.5142H62.4661V67.2128C62.4661 69.6138 63.503 70.7568 65.0453 70.7568C66.7491 70.7568 69.03 69.7276 69.03 67.2128V60.5142H70.6426V71.945H69.03V71.2817C69.0534 70.7788 69.353 70.2073 69.5367 69.7496L69.2149 69.6125C69.0299 70.0702 68.8463 70.7102 68.5011 71.0529C67.3952 72.1273 66.4964 72.2876 64.9307 72.2876V72.2889Z" fill="white"/>
<path d="M72.4858 55.3711H74.1219V69.1809C74.1219 70.095 74.3759 70.4157 75.3424 70.4157H76.9785V71.9478H75.642C73.3377 71.9478 72.4858 71.1927 72.4858 69.1809V55.3711Z" fill="white"/>
<path d="M83.7949 72.3125C81.1923 72.3125 78.1064 70.9174 78.1064 68.7453H79.7412C79.7412 69.706 81.7915 70.7804 83.8184 70.7804C85.6615 70.7804 86.9055 70.3007 86.9055 68.9289C86.9055 65.5001 78.2914 68.0833 78.2914 63.4417C78.2914 61.704 80.2492 60.1719 83.1293 60.1719C85.6394 60.1719 88.242 61.201 88.242 63.2581H86.6059C86.6059 62.2522 85.0402 61.704 83.128 61.704C81.2158 61.704 79.9718 62.4125 79.9718 63.487C79.9718 65.9797 88.5859 64.0365 88.5859 68.7686C88.5859 71.1915 86.8821 72.3125 83.7949 72.3125Z" fill="white"/>
<path d="M89.5068 66.162C89.5068 62.7552 91.9023 60.1719 95.2656 60.1719C98.629 60.1719 100.909 62.8922 100.886 65.9565C100.886 66.1853 100.886 66.7335 100.863 66.9171H91.1664C91.1664 68.5178 92.594 70.7817 95.5887 70.7817C97.523 70.7817 98.698 69.6387 98.9742 68.6781H100.632C100.311 69.8663 98.8361 72.3138 95.7033 72.3138C91.6731 72.3138 89.5068 69.5702 89.5068 66.1633V66.162ZM99.1357 65.385C99.1357 63.4184 97.6846 61.704 95.2891 61.704C92.8936 61.704 91.1664 63.602 91.1664 65.385H99.1357Z" fill="white"/>
<path d="M50.4994 0.313965L27.5684 13.4541V39.7355L50.4994 52.8756L73.4304 39.7355V13.4541L50.4994 0.313965ZM65.547 26.6872V35.2193V38.4788L57.665 42.9976V40.5863L59.2007 38.8576L57.665 39.7381L50.5007 43.8419L35.453 35.218V28.6473V26.9717V17.9716L50.5007 9.34769L57.665 13.4541L59.2007 14.3345L57.665 12.6059V10.1933L65.547 14.7082V17.9716V26.6885V26.6872Z" fill="url(#paint0_linear_500_7)"/>
<path d="M49.2139 19.1182L43.334 22.4888V26.4349H47.2301L49.2139 19.1182Z" fill="url(#paint1_linear_500_7)"/>
<path d="M53.2935 33.2076L57.6637 30.7032V28.9009H54.3811L53.2935 33.2076Z" fill="url(#paint2_linear_500_7)"/>
<path d="M48.4128 32.6634L46.3521 29.1854H43.334V30.702L50.4996 34.8083L50.7158 34.6842L49.8431 27.3882L48.4128 32.6634Z" fill="url(#paint3_linear_500_7)"/>
<path d="M52.4883 26.1505H57.6635V22.4876L51.6377 19.0342L52.4883 26.1505Z" fill="url(#paint4_linear_500_7)"/>
<path d="M64.4631 26.6871H61.2144H52.6458L52.384 27.6955L52.2108 28.3808L50.6958 15.7217L47.6386 26.9922L47.6269 26.9715H38.2456H36.5327H35.4502V27.5094V28.1106V28.6484H36.5327H38.2456H46.6617L48.2248 31.286L50.0498 24.5589L51.6129 37.6447L53.9589 28.364H61.2144H64.4631H65.5468V27.8287V27.2249V26.6871H64.4631Z" fill="white"/>
<defs>
<linearGradient id="paint0_linear_500_7" x1="50.4994" y1="-0.398442" x2="50.4994" y2="53.716" gradientUnits="userSpaceOnUse">
<stop stop-color="#EDC437"/>
<stop offset="1" stop-color="#F73130"/>
</linearGradient>
<linearGradient id="paint1_linear_500_7" x1="46.274" y1="-0.398677" x2="46.274" y2="53.7158" gradientUnits="userSpaceOnUse">
<stop stop-color="#EDC437"/>
<stop offset="1" stop-color="#F73130"/>
</linearGradient>
<linearGradient id="paint2_linear_500_7" x1="55.4779" y1="-0.398294" x2="55.4779" y2="53.7162" gradientUnits="userSpaceOnUse">
<stop stop-color="#EDC437"/>
<stop offset="1" stop-color="#F73130"/>
</linearGradient>
<linearGradient id="paint3_linear_500_7" x1="47.0243" y1="-0.398248" x2="47.0243" y2="53.7162" gradientUnits="userSpaceOnUse">
<stop stop-color="#EDC437"/>
<stop offset="1" stop-color="#F73130"/>
</linearGradient>
<linearGradient id="paint4_linear_500_7" x1="54.6506" y1="-0.398613" x2="54.6506" y2="53.7158" gradientUnits="userSpaceOnUse">
<stop stop-color="#EDC437"/>
<stop offset="1" stop-color="#F73130"/>
</linearGradient>
</defs>
</svg>
