<svg xmlns="http://www.w3.org/2000/svg" width="43" height="41" viewBox="0 0 43 41" fill="none">
  <path fill-rule="evenodd" clip-rule="evenodd" d="M0 19.0346C0.0276032 18.9394 0.0545706 18.8441 0.0815298 18.7488L0.0815401 18.7488C0.136503 18.5545 0.191432 18.3603 0.251647 18.1673C0.613391 16.9785 1.34473 15.9361 2.33942 15.1913C3.3341 14.4466 4.54033 14.0384 5.78286 14.026C6.10161 14.026 6.24505 13.9665 6.28615 13.6125C6.77351 9.24054 8.79675 5.71748 12.2812 3.06429C15.3706 0.715579 18.9079 -0.254101 22.7665 0.0562641C29.5426 0.601499 35.2004 5.75188 36.4251 12.4348C36.4998 12.845 36.5526 13.2593 36.5929 13.6746C36.6197 13.922 36.7028 14.0202 36.9796 14.026C40.0748 14.0957 42.395 16.1063 42.8195 19.1663C42.9178 19.8721 42.8978 20.5952 42.8779 21.3168V21.3169C42.8711 21.5618 42.8644 21.8065 42.8622 22.0502C42.8603 22.2714 42.8647 22.493 42.8692 22.7146V22.7147C42.8822 23.3705 42.8953 24.0269 42.7448 24.6757C42.1165 27.4002 39.8374 29.2456 37.0316 29.2977C36.5014 29.3077 35.9713 29.3052 35.4378 29.2977C34.5109 29.2859 33.9917 28.76 33.9917 27.8356C33.9917 26.5558 33.9967 25.276 34.0017 23.9962V23.9961C34.013 21.0766 34.0244 18.1572 33.9766 15.239C33.8994 10.4929 31.7956 6.81299 27.7122 4.40053C20.2995 0.0193559 10.7059 4.42905 9.10544 12.8936C8.95087 13.7015 8.87251 14.5221 8.87141 15.3447V27.7324C8.87141 28.7096 8.56272 29.1651 7.60814 29.2758C5.66123 29.5023 3.78897 29.2868 2.18849 28.0017C1.07007 27.1222 0.319668 25.8574 0.0838824 24.4543C0.0623328 24.3755 0.0342755 24.2986 0 24.2245V19.0346ZM21.4107 40.3916C21.2236 40.3916 21.0363 40.3944 20.8492 40.3972C20.4365 40.4033 20.024 40.4094 19.6131 40.3858C18.9163 40.348 18.2621 40.039 17.7902 39.525C17.3183 39.011 17.0664 38.3327 17.0882 37.6353C17.1151 36.9389 17.4088 36.2795 17.9085 35.7937C18.4082 35.3079 19.0756 35.0329 19.7725 35.0257C20.8736 35.0162 21.9749 35.0162 23.0766 35.0257C23.781 35.0311 24.4557 35.3103 24.9581 35.8042C25.4604 36.2981 25.751 36.9679 25.7684 37.6722C25.7797 38.3697 25.5181 39.044 25.0394 39.5514C24.5607 40.0587 23.9027 40.3591 23.2058 40.3883C22.7931 40.4103 22.3793 40.4047 21.9656 40.3992H21.9654H21.9653C21.7795 40.3967 21.5938 40.3942 21.4082 40.3942L21.4107 40.3916ZM5.72329 31.3178C6.67871 35.5001 10.2638 38.4042 14.5637 38.4713L14.8556 38.4738C15.234 38.4738 15.4238 38.4738 15.5196 38.3789C15.6162 38.2832 15.6172 38.0911 15.6197 37.7054C15.6158 37.6212 15.6208 37.5369 15.6348 37.4538C15.7221 37.0654 15.6097 36.9102 15.1777 36.9396C14.6629 36.9787 14.1454 36.959 13.6351 36.8809C10.6002 36.3918 8.56187 34.6907 7.46049 31.8387C7.41554 31.7227 7.39061 31.5902 7.36602 31.4595C7.325 31.2414 7.28491 31.0283 7.15432 30.9051C7.00094 30.76 6.75993 30.7862 6.51471 30.8128C6.3898 30.8264 6.2638 30.84 6.14773 30.8313C5.60585 30.7901 5.60501 30.8002 5.72329 31.3178Z" fill="black"/>
</svg>