<svg width="106" height="31" viewBox="0 0 106 31" fill="none" xmlns="http://www.w3.org/2000/svg">
<path d="M10.5573 9.47266C15.4234 9.47266 18.7755 12.1605 19.8569 16.6402H14.4502C13.9095 14.9603 12.5037 13.8404 10.4492 13.8404C7.63767 13.8404 5.79939 16.0802 5.79939 20C5.79939 23.9197 7.63767 26.0475 10.4492 26.0475C12.5037 26.0475 13.8013 25.0396 14.4502 23.2477H19.8569C18.7755 27.6154 15.5315 30.4153 10.5573 30.4153C4.82618 30.3033 0.825195 26.2715 0.825195 19.888C0.825195 13.5044 4.82618 9.47266 10.5573 9.47266Z" fill="#0B0C0D"/>
<path d="M42.0247 30.0792H37.0505V27.5034C35.861 29.1833 33.6983 30.3032 31.2112 30.3032C26.6696 30.3032 23.3174 27.2794 23.3174 21.6798V9.80859H28.2916V21.0078C28.2916 24.2556 30.0217 26.0475 32.617 26.0475C35.3203 26.0475 37.0505 24.2556 37.0505 21.0078V9.80859H42.0247V30.0792Z" fill="#0B0C0D"/>
<path d="M58.3539 9.47279C63.3281 9.47279 67.329 13.6165 67.329 19.8881C67.329 26.1597 63.3281 30.4154 58.3539 30.4154C55.3261 30.4154 53.0553 28.9595 51.8658 27.1676V30.0794H46.8916V2.86523H51.8658V12.7206C53.0553 10.9287 55.4342 9.47279 58.3539 9.47279ZM57.0563 13.9525C54.3529 13.9525 51.8658 16.0804 51.8658 20.0001C51.8658 23.9198 54.3529 26.0477 57.0563 26.0477C59.7596 26.0477 62.3549 23.8078 62.3549 20.0001C62.3549 15.9684 59.7596 13.9525 57.0563 13.9525Z" fill="#0B0C0D"/>
<path d="M75.9791 9.80859H71.0049V30.1912H75.9791V9.80859Z" fill="#0B0C0D"/>
<path d="M87.6597 23.8073L84.0913 30.0789H78.7927L85.1726 19.8876L78.6846 9.69629H84.3076L88.4167 15.9679L92.0933 9.69629H97.3919L90.9038 19.8876L97.3919 30.0789H91.6607L87.6597 23.8073Z" fill="#0B0C0D"/>
<path d="M73.3805 7.90545C75.2318 7.90545 76.7327 6.35109 76.7327 4.43368C76.7327 2.51628 75.2318 0.961914 73.3805 0.961914C71.5291 0.961914 70.0283 2.51628 70.0283 4.43368C70.0283 6.35109 71.5291 7.90545 73.3805 7.90545Z" fill="#0B0C0D"/>
<path d="M102.365 29.8556C104.216 29.8556 105.717 28.3013 105.717 26.3839C105.717 24.4665 104.216 22.9121 102.365 22.9121C100.514 22.9121 99.0127 24.4665 99.0127 26.3839C99.0127 28.3013 100.514 29.8556 102.365 29.8556Z" fill="#2ED06E"/>
</svg>
