<?xml version="1.0" encoding="utf-8"?>
<!-- Generator: Adobe Illustrator 27.3.1, SVG Export Plug-In . SVG Version: 6.00 Build 0)  -->
<svg version="1.1" id="Layer_1" xmlns="http://www.w3.org/2000/svg" xmlns:xlink="http://www.w3.org/1999/xlink" x="0px" y="0px"
	 viewBox="0 0 35 35" style="enable-background:new 0 0 35 35;" xml:space="preserve">
<style type="text/css">
	.st0{fill:#555555;}
	.st1{fill:#777777;}
	.st2{fill:#272727;}
	.st3{fill:#202020;}
	.st4{fill:#3F3F3F;}
</style>
<g>
	<path class="st0" d="M9.9,9.8L7.7,7.6l0,15.9l0,0.7c0,0.3,0.1,0.7,0.2,1.2l17.4,6.1l4.4-1.9l0,0L9.9,9.8"/>
	<path class="st1" d="M7.9,25.3L7.9,25.3C7.9,25.3,7.9,25.3,7.9,25.3C7.9,25.3,7.9,25.3,7.9,25.3L7.9,25.3z M29.7,29.6l-4.4,1.9
		L7.9,25.3c0.3,1.3,1.1,2.7,1.9,3.5l5.7,5.6l12.6,0L29.7,29.6L29.7,29.6L29.7,29.6z"/>
	<path class="st2" d="M0.9,17.8c-0.6,0.6-0.3,1.8,0.6,2.8l3.9,3.9l2.5,0.9c-0.1-0.4-0.2-0.8-0.2-1.2l0-0.7l0-15.9L0.9,17.8z"/>
	<path class="st3" d="M25.4,7.8c-0.4-0.1-0.8-0.2-1.2-0.2l-0.8,0H7.7l22,22l0,0l1.9-4.4L25.4,7.8"/>
	<path class="st4" d="M25.4,7.8C25.4,7.8,25.4,7.8,25.4,7.8L25.4,7.8C25.4,7.8,25.4,7.8,25.4,7.8L25.4,7.8z M28.9,9.6
		c-0.8-0.8-2.2-1.5-3.5-1.9l6.2,17.4l-1.9,4.4l0,0l4.7-1.5l0-12.9L28.9,9.6L28.9,9.6z"/>
	<path class="st0" d="M24.6,5.3l-3.9-3.9c-0.9-0.9-2.2-1.2-2.8-0.6L7.7,7.6h15.8l0.8,0c0.4,0,0.7,0.1,1.2,0.2L24.6,5.3L24.6,5.3z"/>
</g>
</svg>
