<svg width="72px" height="73px" viewBox="0 0 72 73" fill="none" xmlns="http://www.w3.org/2000/svg" transform="rotate(0) scale(1, 1)">
<circle cx="36" cy="36.6519" r="36" fill="#eeb736"/>
<path d="M18.9932 42.6248V24.4286C18.9932 23.6274 19.6545 22.9771 20.4693 22.9771H51.7594C52.5743 22.9771 53.2356 23.6274 53.2356 24.4286V28.5996" stroke="#0b0c0d" stroke-width="1.25" stroke-miterlimit="10"/>
<path d="M54.6394 28.5996H41.8629C41.0476 28.5996 40.3867 29.2495 40.3867 30.0511V49.5539C40.3867 50.3555 41.0476 51.0054 41.8629 51.0054H54.6394C55.4547 51.0054 56.1156 50.3555 56.1156 49.5539V30.0511C56.1156 29.2495 55.4547 28.5996 54.6394 28.5996Z" stroke="#0b0c0d" stroke-width="1.25" stroke-miterlimit="10"/>
<path d="M51.9326 48.2345H44.5684" stroke="#0b0c0d" stroke-width="1.25" stroke-miterlimit="10" stroke-linecap="round"/>
<path d="M40.2254 46.7865C40.1731 46.7923 40.2801 46.7958 40.2254 46.7958H32.0035C31.2339 46.7958 30.6094 46.1818 30.6094 45.425V44.2062C30.6094 43.3325 29.8898 42.6249 29.0012 42.6249H19.0141C17.413 42.6249 16.1152 43.901 16.1152 45.4753V46.6847C16.1152 49.0708 18.0827 51.0054 20.5093 51.0054H44.3507" stroke="#0b0c0d" stroke-width="1.25" stroke-miterlimit="10"/>
</svg>