<svg width="48" height="48" viewBox="0 0 48 48" fill="none" xmlns="http://www.w3.org/2000/svg">
<path d="M35.3407 32.9886L35.6234 33.1114L35.6867 33.0654V37.7063L35.5699 37.8679L29.6336 41.3024H29.2036L29.2016 34.8681L35.3407 32.9886ZM12.9774 33.2882L18.8204 35.0021L19.4615 35.0011L19.4605 41.3024H19.0301L12.9774 38.2983V33.2882ZM28.117 35.0011V41.3024H20.5472V35.0011H28.117ZM39.3483 30.483L39.3484 33.6471L36.8358 37.858V32.5939L36.8565 32.5877L37.8895 31.5115L39.3483 30.483ZM11.896 9.94194V15.0746L18.9757 12.9985H28.6071L35.3858 15.0746L35.4874 15.042L38.8219 17.3987L38.9309 17.6089L37.8778 17.7227V18.5644L35.3858 17.2552L28.6071 15.7027H18.9757L11.896 17.2552V22.3756L18.9757 22.1077H28.6071L35.3858 22.3756L35.4343 22.3518L38.7021 22.6529L38.9309 22.7031L37.8778 22.718V24.2152L38.9309 24.2302L38.7075 24.3381L35.5401 24.6077L35.3858 24.5375L28.6071 24.8111H18.9757V24.8045L11.896 24.5408V29.6654L18.9757 31.2173L28.6071 31.2154L35.4058 29.672L35.4874 29.5036L37.7397 28.3036L37.8778 28.3581V29.2096L38.9309 29.3244L38.7867 29.5558L35.4961 31.8777L35.4058 31.8385L28.6071 33.9207H18.9757L11.896 31.8446V36.9768L8.65186 32.8714V29.287L8.69597 29.3197L9.705 29.2096V28.3407L8.65186 27.7809V24.2124L8.82005 24.2283L9.705 24.2152V22.718L8.6793 22.7031L8.65186 22.7059V19.1388L9.705 18.5817V17.7227L8.6793 17.6121L8.65186 17.6318V14.0468L11.896 9.94194ZM12.9774 25.6633L17.8935 25.846L17.8943 25.8925L19.4626 25.8914V30.1338L19.0873 30.1348L12.9774 28.795V25.6633ZM28.117 25.8914V30.1327L20.5472 30.1338V25.8914H28.117ZM35.172 25.6287L35.3501 25.7091L35.6867 25.6795V28.171L34.668 28.7149L34.6583 28.7323L29.2016 29.9705L29.2005 25.8677L35.172 25.6287ZM39.3483 25.2285V28.2802L38.959 28.2392L38.9592 27.6223L37.6721 27.1143L36.8352 27.559V25.5822L38.9981 25.3987L39.3483 25.2285ZM36.8352 19.2387L38.9592 20.3541L38.959 19.2452L39.3484 19.5441L39.3483 21.687L38.9335 21.5966L38.8013 21.5761L36.8352 21.395V19.2387ZM29.1994 16.9461L35.0044 18.2773L35.6867 18.6353V21.289L35.2303 21.247L35.1547 21.2836L29.2005 21.0479L29.1994 16.9461ZM19.4647 16.7828L19.4636 21.0262L18.9757 21.0263L12.9774 21.2523V18.1249L19.0884 16.7839L19.4647 16.7828ZM28.117 16.7828V21.0262H20.5472V16.7828H28.117ZM36.8358 10.1283L39.3484 14.3396L39.3483 16.4465L36.8352 14.6698L36.8358 10.1283ZM29.6336 6.69775L35.5699 10.1294L35.6867 10.2918V13.8588L35.6708 13.8474L35.3775 13.9409L29.1994 12.0485L29.1984 6.69775H29.6336ZM19.4658 6.69775L19.4647 11.9166L18.8204 11.9171L12.9774 13.6295V9.69754L19.0301 6.69775H19.4658ZM28.117 6.69775V11.9166H20.5472V6.69775H28.117Z" fill="#0B0C0D"/>
</svg>
