<svg width="48" height="48" viewBox="0 0 48 48" fill="none" xmlns="http://www.w3.org/2000/svg">
<path d="M26.4999 6.00001C19.6297 6.00001 13.6885 9.96084 10.8229 15.7227H33.6326C35.2704 15.7275 36.8574 15.1543 38.1141 14.104C38.7645 13.5571 39.3741 12.9592 39.9326 12.2913L39.9341 12.2883C38.2937 10.3183 36.2397 8.73364 33.9179 7.64684C31.5961 6.56005 29.0635 5.99779 26.4999 6.00001ZM9.59786 18.9631C8.80071 21.9352 8.80071 25.0648 9.59786 28.0369H31.0354C32.2386 28.0369 33.3926 27.5589 34.2434 26.7081C35.0942 25.8572 35.5722 24.7033 35.5722 23.5C35.5722 22.2968 35.0942 21.1428 34.2434 20.292C33.3926 19.4411 32.2386 18.9631 31.0354 18.9631H9.59786ZM10.8229 31.2773C13.6899 37.0377 19.6312 41 26.5014 41C31.8987 41 36.7258 38.5544 39.9356 34.7117L39.9341 34.7088C39.3826 34.052 38.7741 33.4454 38.1156 32.896C36.8589 31.8457 35.2719 31.2725 33.6341 31.2773H10.8229Z" fill="black"/>
</svg>
