<svg width="48" height="48" viewBox="0 0 48 48" fill="none" xmlns="http://www.w3.org/2000/svg">
<path d="M33.3236 21.4772C32.2592 19.4826 30.5751 17.8882 28.5254 16.9342C26.4757 15.9803 24.1714 15.7187 21.9599 16.1887C19.7485 16.6588 17.7499 17.8351 16.2654 19.5403C14.7808 21.2454 13.8909 23.387 13.7298 25.6421C11.8908 25.8398 10.1975 26.735 8.99843 28.1433C7.79933 29.5516 7.18563 31.3659 7.28359 33.2129C7.38156 35.06 8.18375 36.7992 9.5251 38.0727C10.8664 39.3463 12.6449 40.0573 14.4945 40.0594H31.6308C33.9692 40.0608 36.2235 39.1877 37.9508 37.6115C39.6781 36.0354 40.7535 33.8702 40.9656 31.5415C41.1778 29.2129 40.5113 26.889 39.0972 25.0267C37.6831 23.1644 35.6237 21.8983 33.3236 21.4772ZM31.6308 38.4528H14.4945C13.0696 38.4561 11.6968 37.917 10.655 36.9449C9.61313 35.9728 8.98028 34.6406 8.88495 33.2189C8.78962 31.7971 9.23895 30.3924 10.1417 29.2899C11.0445 28.1874 12.333 27.4699 13.7456 27.2829C13.8589 28.7002 14.2611 30.0794 14.9276 31.3354C14.9758 31.4311 15.0427 31.5163 15.1244 31.5857C15.2061 31.6552 15.3008 31.7076 15.4031 31.7399C15.5053 31.7722 15.613 31.7837 15.7198 31.7737C15.8265 31.7637 15.9302 31.7324 16.0247 31.6817C16.1192 31.631 16.2025 31.5619 16.2699 31.4785C16.3372 31.3951 16.3872 31.299 16.4169 31.1959C16.4465 31.0929 16.4552 30.985 16.4425 30.8785C16.4297 30.772 16.3958 30.6692 16.3427 30.576C15.281 28.5912 15.0168 26.276 15.6041 24.103C16.1914 21.93 17.5859 20.0631 19.5029 18.8834C21.4199 17.7036 23.7149 17.2999 25.9194 17.7548C28.1239 18.2096 30.0717 19.4886 31.3652 21.3308C30.0816 21.3662 28.8189 21.6649 27.6555 22.2084C26.492 22.7519 25.4526 23.5286 24.6017 24.4903C24.5293 24.5689 24.4733 24.6613 24.437 24.7619C24.4006 24.8624 24.3848 24.9693 24.3903 25.0761C24.3958 25.1829 24.4226 25.2875 24.4691 25.3838C24.5156 25.4801 24.5809 25.5661 24.6611 25.6369C24.7412 25.7076 24.8347 25.7617 24.9361 25.7958C25.0374 25.8299 25.1446 25.8435 25.2512 25.8357C25.3579 25.8279 25.4619 25.7988 25.5572 25.7503C25.6525 25.7017 25.7371 25.6347 25.8061 25.553C26.6642 24.5796 27.7525 23.8369 28.9717 23.3925C30.1908 22.9482 31.5018 22.8165 32.785 23.0094C34.0682 23.2023 35.2825 23.7137 36.3171 24.4968C37.3517 25.28 38.1736 26.3099 38.7075 27.4925C39.2415 28.6751 39.4706 29.9727 39.3739 31.2667C39.2772 32.5606 38.8578 33.8097 38.154 34.8998C37.4501 35.9899 36.4843 36.8863 35.3448 37.5069C34.2053 38.1276 32.9284 38.4528 31.6308 38.4528Z" fill="#0B0C0D"/>
<path d="M41.1734 17.8439C41.12 17.7514 41.049 17.6704 40.9644 17.6054C40.8797 17.5404 40.7831 17.4928 40.68 17.4652C40.5769 17.4375 40.4694 17.4305 40.3636 17.4445C40.2578 17.4585 40.1557 17.4932 40.0633 17.5466L36.8289 19.4142C36.7339 19.4662 36.6502 19.5366 36.5829 19.6213C36.5155 19.7061 36.4657 19.8034 36.4364 19.9077C36.4072 20.0119 36.3991 20.1209 36.4126 20.2284C36.4261 20.3358 36.4609 20.4394 36.515 20.5332C36.5691 20.627 36.6414 20.709 36.7276 20.7744C36.8139 20.8399 36.9123 20.8874 37.0172 20.9143C37.1221 20.9412 37.2313 20.9468 37.3384 20.9309C37.4455 20.9149 37.5483 20.8778 37.6408 20.8215L40.8753 18.9539C41.062 18.8462 41.1983 18.6688 41.2542 18.4606C41.3101 18.2525 41.281 18.0306 41.1734 17.8439Z" fill="#0B0C0D"/>
<path d="M31.289 15.2923C31.3814 15.3457 31.4834 15.3804 31.5892 15.3944C31.695 15.4084 31.8025 15.4013 31.9056 15.3737C32.0087 15.3461 32.1053 15.2984 32.19 15.2335C32.2746 15.1685 32.3457 15.0875 32.399 14.995L34.2666 11.7605C34.3725 11.574 34.4003 11.3532 34.344 11.1463C34.2878 10.9393 34.152 10.763 33.9663 10.6558C33.7806 10.5485 33.56 10.5191 33.3526 10.5738C33.1453 10.6285 32.9679 10.7629 32.8593 10.9478L30.9917 14.1823C30.8839 14.3689 30.8547 14.5907 30.9105 14.7989C30.9662 15.007 31.1024 15.1845 31.289 15.2923Z" fill="#0B0C0D"/>
<path d="M24.1408 13.37C24.3563 13.3699 24.563 13.2843 24.7154 13.1319C24.8678 12.9795 24.9534 12.7728 24.9535 12.5573V8.82202C24.9547 8.71452 24.9346 8.60784 24.8943 8.50816C24.854 8.40849 24.7943 8.31779 24.7188 8.24134C24.6432 8.16488 24.5532 8.10418 24.454 8.06276C24.3548 8.02133 24.2483 8 24.1408 8C24.0333 8 23.9269 8.02133 23.8277 8.06276C23.7285 8.10418 23.6384 8.16488 23.5629 8.24134C23.4873 8.31779 23.4276 8.40849 23.3873 8.50816C23.3471 8.60784 23.3269 8.71452 23.3282 8.82202V12.5573C23.3282 12.7728 23.4138 12.9795 23.5662 13.1319C23.7186 13.2843 23.9252 13.3699 24.1408 13.37Z" fill="#0B0C0D"/>
<path d="M15.878 14.9821C15.9867 15.167 16.164 15.3015 16.3714 15.3562C16.5787 15.4109 16.7993 15.3814 16.985 15.2742C17.1707 15.1669 17.3065 14.9906 17.3628 14.7837C17.419 14.5767 17.3912 14.3559 17.2854 14.1694L15.4177 10.9349C15.3648 10.8417 15.2939 10.7598 15.2092 10.6941C15.1245 10.6284 15.0277 10.58 14.9242 10.5519C14.8207 10.5238 14.7127 10.5164 14.6064 10.5302C14.5001 10.544 14.3975 10.5787 14.3047 10.6323C14.2118 10.686 14.1305 10.7574 14.0654 10.8426C14.0003 10.9278 13.9527 11.025 13.9253 11.1287C13.898 11.2324 13.8914 11.3405 13.906 11.4467C13.9206 11.5529 13.9561 11.6552 14.0104 11.7476L15.878 14.9821Z" fill="#0B0C0D"/>
<path d="M11.4587 19.4171L8.2242 17.5495C8.13175 17.4952 8.02947 17.4597 7.92325 17.4451C7.81702 17.4305 7.70896 17.437 7.60529 17.4644C7.50161 17.4917 7.40437 17.5393 7.31918 17.6044C7.23399 17.6696 7.16252 17.7509 7.1089 17.8437C7.05528 17.9366 7.02057 18.0391 7.00676 18.1455C6.99296 18.2518 7.00033 18.3598 7.02846 18.4633C7.05659 18.5667 7.10492 18.6636 7.17066 18.7483C7.2364 18.833 7.31826 18.9039 7.41151 18.9568L10.6463 20.8244C10.7388 20.8787 10.841 20.9142 10.9473 20.9288C11.0535 20.9434 11.1615 20.9369 11.2652 20.9095C11.3689 20.8822 11.4661 20.8346 11.5513 20.7695C11.6365 20.7043 11.708 20.623 11.7616 20.5302C11.8152 20.4373 11.8499 20.3348 11.8637 20.2284C11.8776 20.1221 11.8702 20.0141 11.842 19.9106C11.8139 19.8072 11.7656 19.7103 11.6998 19.6256C11.6341 19.5409 11.5519 19.47 11.4587 19.4171Z" fill="#0B0C0D"/>
</svg>
