<svg width="64" height="64" viewBox="0 0 64 64" fill="none" xmlns="http://www.w3.org/2000/svg">
<path fill-rule="evenodd" clip-rule="evenodd" d="M30.6954 14.2619C31.1202 14.3845 31.5694 14.4501 32.0341 14.4501C32.5004 14.4501 32.9511 14.384 33.3772 14.2606L47.8923 39.4008C47.5674 39.7106 47.281 40.0715 47.046 40.4803C46.8125 40.8866 46.6446 41.3132 46.5393 41.7474H17.5293C17.424 41.3134 17.2561 40.887 17.0224 40.4803C16.7865 40.0742 16.5008 39.7153 16.1775 39.4069L30.6954 14.2619ZM28.5766 12.9852C28.6214 13.0316 28.6672 13.0771 28.7139 13.1216L14.1955 38.2674C14.1327 38.2492 14.0696 38.2323 14.0062 38.2166V25.3884C15.2295 25.0843 16.3318 24.304 17.0084 23.1269C17.6842 21.9514 17.8095 20.6103 17.4634 19.4016L28.5766 12.9852ZM36.6422 11.0174C36.7714 10.5822 36.8407 10.1211 36.8407 9.64352C36.8407 6.98543 34.6922 4.83691 32.0341 4.83691C29.376 4.83691 27.2275 6.98543 27.2275 9.64352C27.2275 10.1187 27.2961 10.5775 27.4241 11.0108L16.3314 17.4153C16.0202 17.0867 15.6571 16.7965 15.2455 16.5574C12.9455 15.2353 9.99815 16.0203 8.67599 18.3203C7.35383 20.6203 8.13886 23.5676 10.4389 24.8898C10.8496 25.1259 11.2809 25.2948 11.7199 25.3999V38.2104C11.286 38.3157 10.8595 38.4836 10.4529 38.7174C8.15283 40.0533 7.36779 42.9869 8.68996 45.2869C10.0121 47.5869 12.9457 48.372 15.2595 47.0498C15.6667 46.8133 16.0264 46.5267 16.3353 46.2024L27.422 52.6035C27.2954 53.0346 27.2275 53.491 27.2275 53.9635C27.2275 56.6216 29.376 58.7701 32.0341 58.7701C34.6922 58.7701 36.8407 56.6079 36.8407 53.9635C36.8407 53.434 36.7555 52.9247 36.5979 52.4485L47.62 46.0848C47.9531 46.4589 48.351 46.7866 48.8089 47.0498C51.1089 48.372 54.0563 47.5869 55.3784 45.2869C56.7144 42.9869 55.9293 40.0533 53.6156 38.7174C53.2093 38.4839 52.7829 38.3161 52.3488 38.2108V25.3998C52.7877 25.2947 53.2189 25.1258 53.6295 24.8898C55.9295 23.5539 56.7146 20.6203 55.3924 18.3203C54.0565 16.0203 51.1229 15.2353 48.8229 16.5574C48.4092 16.7977 48.0445 17.0897 47.7322 17.4204L36.6422 11.0174ZM35.3576 13.1185C35.4015 13.0766 35.4446 13.0338 35.4868 12.9902L46.6031 19.4084C46.2594 20.6153 46.3855 21.9536 47.06 23.1269C47.7367 24.3041 48.8391 25.0844 50.0626 25.3885V38.2153C50.0002 38.2306 49.9381 38.2471 49.8764 38.2649L35.3576 13.1185ZM46.6328 44.3488L35.5887 50.7253C34.7102 49.7612 33.4438 49.1569 32.0341 49.1569C30.6728 49.1569 29.4452 49.7204 28.5713 50.6273L17.4733 44.2196C17.4912 44.1579 17.5078 44.0959 17.5232 44.0336H46.544C46.57 44.1396 46.5996 44.2448 46.6328 44.3488Z" fill="#0B0C0D"/>
</svg>
