<svg width="107" height="32" viewBox="0 0 107 32" fill="none" xmlns="http://www.w3.org/2000/svg">
<path d="M11.0036 9.86328C15.8697 9.86328 19.2218 12.5511 20.3032 17.0308H14.8964C14.3558 15.3509 12.95 14.231 10.8955 14.231C8.08396 14.231 6.24568 16.4708 6.24568 20.3906C6.24568 24.3103 8.08396 26.4382 10.8955 26.4382C12.95 26.4382 14.2476 25.4302 14.8964 23.6384H20.3032C19.2218 28.0061 15.9778 30.8059 11.0036 30.8059C5.27246 30.6939 1.27148 26.6622 1.27148 20.2786C1.27148 13.895 5.27246 9.86328 11.0036 9.86328Z" fill="white"/>
<path d="M42.471 30.4699H37.4968V27.894C36.3073 29.5739 34.1446 30.6938 31.6575 30.6938C27.1158 30.6938 23.7637 27.6701 23.7637 22.0704V10.1992H28.7379V21.3985C28.7379 24.6463 30.468 26.4381 33.0632 26.4381C35.7666 26.4381 37.4968 24.6463 37.4968 21.3985V10.1992H42.471V30.4699Z" fill="white"/>
<path d="M58.8002 9.86342C63.7744 9.86342 67.7753 14.0071 67.7753 20.2787C67.7753 26.5503 63.7744 30.806 58.8002 30.806C55.7724 30.806 53.5016 29.3501 52.3121 27.5582V30.47H47.3379V3.25586H52.3121V13.1112C53.5016 11.3193 55.8805 9.86342 58.8002 9.86342ZM57.5025 14.3431C54.7992 14.3431 52.3121 16.471 52.3121 20.3907C52.3121 24.3105 54.7992 26.4383 57.5025 26.4383C60.2059 26.4383 62.8011 24.1985 62.8011 20.3907C62.8011 16.359 60.2059 14.3431 57.5025 14.3431Z" fill="white"/>
<path d="M76.4254 10.1992H71.4512V30.5819H76.4254V10.1992Z" fill="white"/>
<path d="M88.106 24.198L84.5376 30.4696H79.239L85.6189 20.2782L79.1309 10.0869H84.7539L88.863 16.3585L92.5395 10.0869H97.8381L91.3501 20.2782L97.8381 30.4696H92.107L88.106 24.198Z" fill="white"/>
<path d="M73.8268 8.29608C75.6781 8.29608 77.179 6.74171 77.179 4.82431C77.179 2.9069 75.6781 1.35254 73.8268 1.35254C71.9754 1.35254 70.4746 2.9069 70.4746 4.82431C70.4746 6.74171 71.9754 8.29608 73.8268 8.29608Z" fill="white"/>
<path d="M102.811 30.2463C104.663 30.2463 106.163 28.6919 106.163 26.7745C106.163 24.8571 104.663 23.3027 102.811 23.3027C100.96 23.3027 99.459 24.8571 99.459 26.7745C99.459 28.6919 100.96 30.2463 102.811 30.2463Z" fill="#2ED06E"/>
</svg>
