<svg width="48" height="48" viewBox="0 0 48 48" fill="none" xmlns="http://www.w3.org/2000/svg">
<path d="M20.6121 33.0686L32.591 26.2316L27.1489 23.0983L15.178 29.9914L20.6121 33.0686ZM33.1419 19.0843L27.6941 15.951V22.1547L33.143 25.2891L33.1419 19.0843ZM33.6858 11.874L28.2392 15.0074L33.6858 18.1407L39.1314 15.0062L33.6858 11.874ZM16.9107 27.7353L20.0715 25.9156V12.2485L14.6226 15.3841V29.0512L16.9107 27.7353ZM14.0774 8.1727L8.63079 11.3072L14.0774 14.4416L19.5207 11.3072L14.0774 8.1727ZM8.08452 12.2497V33.3812L20.0681 40.2777V34.0122L13.8014 30.4666C13.7808 30.4518 13.7648 30.4357 13.743 30.422C13.727 30.4071 13.7087 30.3956 13.6926 30.383L13.6915 30.3796C13.6743 30.3624 13.6594 30.3441 13.6468 30.3235L13.6457 30.3223C13.6297 30.3075 13.6171 30.2903 13.6056 30.2708L13.6045 30.2697H13.601C13.5919 30.2525 13.5827 30.2296 13.5735 30.2067L13.5724 30.2021C13.5644 30.1849 13.5552 30.1655 13.5472 30.1437L13.5461 30.1403C13.5415 30.1174 13.5369 30.0887 13.5346 30.0601V30.0578C13.5312 30.0406 13.5277 30.02 13.5254 29.9994V29.9983V15.3864L10.3681 13.5655L8.08452 12.2497ZM33.143 33.3801V27.1707L21.1595 34.0122V40.2766L33.143 33.3801ZM39.6753 22.1547V15.951L34.2287 19.0855V25.2891L39.6753 22.1547ZM40.7473 14.8654C40.7599 14.9089 40.7679 14.9581 40.7679 15.0096V22.4684C40.7679 22.67 40.6591 22.8452 40.4965 22.9391L40.4942 22.9403L34.2321 26.5466V33.6939C34.2321 33.8943 34.1233 34.0695 33.9618 34.1646L33.9596 34.1657L20.8858 41.6898C20.8583 41.7047 20.8262 41.7184 20.793 41.7276L20.7896 41.7287L20.7552 41.7436C20.714 41.7562 20.6659 41.7631 20.6166 41.7631C20.5674 41.7631 20.5193 41.7562 20.4735 41.7425L20.4769 41.7436C20.4597 41.739 20.446 41.7333 20.4323 41.7253L20.4334 41.7264C20.3979 41.7138 20.3681 41.7024 20.3395 41.6886L20.3441 41.6909L7.27371 34.1668C7.1088 34.0706 7 33.8954 7 33.695V11.3083C7 11.2579 7.00802 11.2087 7.02176 11.1629L7.02061 11.1663C7.02519 11.1491 7.0355 11.1377 7.04123 11.1205C7.05153 11.0873 7.06299 11.0598 7.07558 11.0335L7.07444 11.0369C7.0836 11.0186 7.09505 11.0025 7.10765 10.9888L7.15575 10.9235L7.20957 10.8846C7.23019 10.8674 7.24851 10.8502 7.26913 10.8353H7.27027L13.8072 7.07329C13.885 7.02749 13.979 7 14.0786 7C14.1782 7 14.2721 7.02749 14.3523 7.07444L14.35 7.07329L20.8892 10.8353C20.911 10.8502 20.9293 10.8663 20.9476 10.8834L21.0026 10.9224C21.0209 10.943 21.0312 10.9659 21.0507 10.9876C21.0644 11.0014 21.0759 11.0174 21.0862 11.0346L21.0873 11.0357C21.0988 11.0587 21.1102 11.0861 21.1205 11.1148L21.1217 11.1193L21.14 11.1652C21.1526 11.2052 21.1606 11.2522 21.1606 11.3003C21.1606 11.3026 21.1606 11.3049 21.1606 11.3072V25.288L26.6073 22.1535V15.0062C26.6073 15.0051 26.6073 15.0039 26.6073 15.0039C26.6073 14.9547 26.6141 14.9066 26.6267 14.8608L26.6256 14.8642C26.6302 14.8493 26.6405 14.8356 26.6439 14.8184C26.6554 14.784 26.6668 14.7566 26.6806 14.7291L26.6783 14.7337C26.6886 14.7165 26.7046 14.705 26.7149 14.6856C26.7321 14.6638 26.7458 14.642 26.763 14.6237C26.779 14.6088 26.7962 14.5951 26.8145 14.5836L26.8157 14.5825C26.8363 14.5676 26.8535 14.5493 26.8752 14.5367H26.8764L33.4133 10.7735C33.4912 10.7277 33.5851 10.7002 33.6847 10.7002C33.7843 10.7002 33.8782 10.7277 33.9584 10.7746L33.9561 10.7735L40.493 14.5367C40.5159 14.5516 40.532 14.5676 40.5537 14.5813C40.5709 14.5962 40.5904 14.6077 40.6064 14.6214C40.6247 14.642 40.6385 14.6649 40.6556 14.6856C40.6682 14.6993 40.6797 14.7153 40.69 14.7314L40.6911 14.7325C40.7049 14.7577 40.7163 14.7863 40.7255 14.8161L40.7266 14.8195C40.7358 14.8333 40.7427 14.8482 40.7484 14.8642L40.7473 14.8654Z" fill="#0B0C0D"/>
</svg>
