<svg width="25" height="13" viewBox="0 0 25 13" fill="none" xmlns="http://www.w3.org/2000/svg">
<path d="M21.3274 7.80222H20.7764C14.4788 7.80222 8.18113 7.80222 1.88349 7.80222C1.70822 7.80751 1.53281 7.79949 1.35869 7.7782C1.14191 7.74177 0.944743 7.62684 0.802453 7.45396C0.660163 7.28107 0.582031 7.06152 0.582031 6.83456C0.582031 6.60761 0.660163 6.38805 0.802453 6.21517C0.944743 6.04229 1.14191 5.92736 1.35869 5.89093C1.53278 5.86926 1.70822 5.86123 1.88349 5.86691H21.2435C21.2675 5.82507 21.2915 5.78324 21.3185 5.74218C21.1685 5.61357 21.0088 5.49658 20.8686 5.3548C19.945 4.41117 19.0248 3.46391 18.1082 2.51305C17.956 2.36562 17.8547 2.17077 17.8198 1.95827C17.7848 1.74576 17.8182 1.52729 17.9147 1.33621C18.0067 1.15036 18.1569 1.00226 18.3409 0.916133C18.5249 0.830003 18.7318 0.810942 18.9276 0.862068C19.1178 0.914933 19.2919 1.01676 19.4337 1.15802C21.0456 2.79738 22.651 4.44293 24.2499 6.09469C24.6952 6.55411 24.6997 7.10185 24.2499 7.5667C22.6425 9.22878 21.0291 10.8844 19.4097 12.5336C19.0131 12.938 18.4298 12.9302 18.0699 12.5467C17.7101 12.1632 17.7161 11.5651 18.1059 11.1522C19.1495 10.0621 20.1999 8.97596 21.3274 7.80222Z" fill="black"/>
</svg>
