<svg width="118" height="69" viewBox="0 0 118 69" fill="none" xmlns="http://www.w3.org/2000/svg">
<path d="M99.1764 29.0482L98.6632 27.547L98.1499 25.8479L97.8731 25.2948L97.4382 24.7418L96.9641 24.3069L96.5292 23.9517L95.9363 23.5168L95.1462 23.0427L94.4749 22.7267L93.6848 22.4106L92.3416 22.0554L90.9586 21.8184H88.9044L88.2331 21.8974L86.534 22.1344L85.0726 22.2532H83.8476L83.0183 22.1742L80.6088 22.0162H79.1474L79.1082 21.8582L77.0148 21.8974L69.9828 22.5295L67.9677 22.6875H66.4266L65.5177 22.6483L61.2511 22.6091L59.7897 22.5699H57.9724L57.5376 22.5307L53.8639 22.4915L52.7577 22.4523H51.8488L49.3994 22.4915L47.9772 22.5307L44.2239 22.6887H40.5502L38.8511 22.8076L37.3101 22.9656H36.836L36.441 22.9264H35.2956L33.8342 23.0054L31.1479 23.2425L28.3825 23.2816L25.8541 23.4397L23.9187 23.6369L22.1804 23.7557L21.3903 23.8745L20.7582 24.0718L20.2841 24.3486L19.8891 24.7038L19.5339 25.2171L19.2178 25.8492L18.9808 26.5205L18.8228 27.2714L18.6647 28.5748L18.5459 30.3522V35.2509L18.6647 36.278L18.9018 37.7792L19.1786 39.2014L19.6919 41.4137L20.0869 42.8359L20.3638 43.5869L20.6798 44.219L20.9959 44.7322L21.3511 45.1273L21.7462 45.4825L22.181 45.7985L22.8523 46.1538L23.8005 46.4698L24.9066 46.7069L26.2498 46.9041L28.3831 47.1809H30.7534L33.2028 46.8649L35.0599 46.6677L55.5237 46.6285L56.5111 46.5893H61.0937L63.0292 46.6285H70.6534L72.9846 46.5495L75.3941 46.3914L77.9224 46.1544L80.964 45.7992L82.5443 45.6412L86.692 45.4041L91.3537 45.1273L92.3808 45.0084L92.9339 44.8504L94.1589 44.5736L94.949 44.3365L95.4231 44.0995L95.8181 43.7834L96.253 43.4282L96.5691 43.1122L97.0431 42.5591L97.3984 42.085L97.8332 41.3739L98.3073 40.3468L98.5842 39.5175L98.8212 38.5302L98.9792 37.345V36.6737L98.94 36.4765V35.9234L99.0589 34.5802L99.2169 33.2769L99.4539 31.8547V30.1562L99.1771 29.0501L99.1764 29.0482ZM41.6563 33.749L41.6171 34.0259V35.6061L41.578 35.883L41.4989 36.9101L41.4199 37.4234L41.1039 38.6484L40.8669 39.2413L40.6298 39.6761L40.2348 40.1894L39.8795 40.5844L39.3265 40.9795L38.6944 41.3347L38.0623 41.5326C37.7507 41.5844 37.4428 41.6148 37.1306 41.6533C35.9871 41.7943 34.8424 41.7791 33.7641 41.3537C33.6067 41.2918 33.3324 41.2437 33.2034 41.1375C33.2034 41.1375 32.8128 40.8253 32.8084 40.8215C32.7142 40.7463 32.632 40.5566 32.486 40.5497C32.3431 40.5434 32.2907 40.6925 32.2161 40.7836C32.1074 40.9163 31.955 41.0054 31.8027 41.0806C31.0069 41.4738 30.072 41.6078 29.1934 41.6489C28.9254 41.6615 28.6549 41.6514 28.3863 41.6514C28.2124 41.6514 28.0019 41.6849 27.8307 41.6514L27.2378 41.5326L26.4085 41.2955L25.8156 41.0585C24.8447 40.5478 23.9755 39.9865 23.59 38.8917C23.2796 38.0118 23.2815 36.9784 23.2132 36.0549C23.1734 35.5183 23.205 34.962 23.2082 34.4216L23.2474 28.3775L23.2866 28.3384H26.3282L26.7232 28.3775L26.8022 28.4566V31.5778L26.7631 33.8293L26.8022 35.1725L26.8414 35.6858L26.8022 35.8046V36.2787L26.8813 36.7919L27.0393 37.2268L27.2763 37.5428L27.6714 37.7799L28.1846 38.0169L28.5399 38.0959L29.251 38.1351L29.725 38.0163L30.1201 37.7792L30.3571 37.5024L30.5151 37.1073L30.5543 36.9101L30.6333 35.5271L30.6725 32.9197V32.5645L30.7117 32.1296L30.7907 28.4161L30.8299 28.3371H32.2129L33.754 28.4161L33.991 28.4951L34.0302 29.1272V31.1815L33.991 33.275V35.9613L34.1098 36.7123L34.307 37.1863L34.5441 37.5814L35.0573 38.0946L35.3734 38.2527L35.5706 38.2919H36.6767L37.0718 38.0946L37.427 37.8178L37.6242 37.5409L37.9011 36.5536L38.0591 35.4083L38.0983 34.3811V33.3938C38.0983 33.3938 38.0844 31.8395 38.0945 31.4406C38.1103 30.7934 38.1109 30.1455 38.0964 29.4982C38.0939 29.3965 38.1072 28.3421 38.1072 28.3421L40.7847 28.2587L41.3378 28.2979L41.5748 28.4167L41.6538 28.6538V33.7497L41.6563 33.749ZM56.9105 37.0827C56.9131 37.5915 56.8998 38.1003 56.8657 38.6085L56.7866 38.8456L56.5894 38.9638C56.4143 39.0687 56.0831 38.9916 55.9017 38.9853C55.4561 38.9695 55.0098 38.9581 54.5642 38.9492C53.1951 38.9239 51.8336 38.9562 50.4658 39.0036L50.5448 39.5168L50.584 39.9909V41.1363L50.4259 41.4523C50.0821 41.659 49.5992 41.5737 49.206 41.5806C48.5986 41.5806 47.9911 41.6154 47.3843 41.6103L47.2263 41.4523L47.1075 41.1363L47.0683 40.8594L47.0291 39.6344V38.9631H44.856C44.5469 38.5763 44.5886 38.082 44.6151 37.6187C44.6423 37.1509 44.5791 36.7034 44.5791 36.2376L44.6581 36.1586L44.8952 36.1194L45.5664 36.0802H46.4356C46.4356 36.0802 46.9096 36.0884 46.9185 36.0897C46.8679 35.8204 47.0215 31.1366 47.0329 30.6562C47.043 30.215 47.0531 29.7726 47.0139 29.3333C46.9861 29.0248 46.9975 28.7922 47.2655 28.6133L48.0556 28.5343L49.4386 28.4951H52.8759L56.3916 28.5343C56.3916 28.5343 56.6267 28.6519 56.6286 28.6525C56.877 28.7764 56.8271 29.5905 56.8366 29.8155C56.86 30.3832 56.8587 30.9615 56.6684 31.4969L56.5496 31.6549C55.6533 31.6366 54.7564 31.5683 53.862 31.5715C52.7368 31.5753 51.546 31.464 50.4291 31.5848C50.5511 31.5715 50.584 35.6314 50.584 36.0789L54.4555 35.9999L55.4826 35.9209L56.6678 35.9999L56.865 36.1579L56.9042 36.2761C56.9731 36.4835 56.908 36.8646 56.9093 37.0814L56.9105 37.0827ZM79.2656 40.5048C79.2656 40.5048 79.1474 40.898 79.1468 40.8999C79.0267 41.2804 78.3219 41.1476 78.0596 41.1432C77.4262 41.1325 76.7739 41.0952 76.1444 41.1767L75.8675 41.0977L75.7885 40.9397L75.7095 40.0307L75.5907 38.4505V35.3293L75.5515 35.2502L75.5123 33.9861L75.4333 32.9987L75.2752 32.3667L74.9592 31.8534L74.6432 31.5374L74.2083 31.3401L73.5762 31.2611L73.0629 31.3003L72.5099 31.4975L72.1546 31.7738L71.7994 32.129L71.5624 32.524L71.4435 33.0373L71.4043 38.252L71.4435 40.8196L71.3639 41.0566C70.9107 41.3398 70.3209 41.2747 69.8121 41.2873C69.5422 41.2943 68.4044 41.4593 68.2831 41.0958L68.2439 40.977L68.1649 40.068L68.0859 38.4088V36.5125L68.1251 36.0777L68.0859 35.8008L68.0467 33.3913L68.0075 32.8382L67.8887 32.4431L67.6516 32.0481L67.3356 31.7712L66.9405 31.574L66.5056 31.4552H65.8344L65.3211 31.6132L64.8079 31.9293L64.4128 32.3243L64.0576 32.9564L63.7807 33.6277L63.7017 33.9045V37.46L63.7409 38.9612L63.7801 40.0282L63.8193 40.4631V40.9763L63.7004 41.3316L63.5424 41.4504L63.2656 41.4896L62.2384 41.4504H60.7372L60.6184 41.2924C60.6184 41.2924 60.5413 40.9846 60.5394 40.9763C60.3877 40.3683 60.5337 39.5232 60.5267 38.8923C60.5179 38.07 60.5084 37.2483 60.4995 36.4259C60.4711 33.8331 60.4572 31.2428 60.4212 28.6506L60.4603 28.5716L60.6576 28.5324C60.9527 28.4736 61.32 28.5419 61.6196 28.5368C62.2776 28.5255 62.9242 28.4528 63.581 28.4534L63.6998 28.5722L63.7788 29.0463L64.3319 28.7303L64.7269 28.533L65.6751 28.217L65.9121 28.1778H67.2155L68.0056 28.3358L68.7167 28.6127L69.3488 28.9679L69.7837 29.3232L69.9809 29.5602L70.1389 29.4812L70.3759 29.2043L70.771 28.9275L71.4423 28.5722L72.4694 28.217L73.2595 28.0982H74.4447L74.9187 28.217L75.5116 28.2562L76.1437 28.4142L76.815 28.7303L77.4471 29.1253L77.9212 29.5602L78.356 30.1531L78.7909 30.9824L78.9489 31.4565L79.028 32.0885C79.1462 34.0967 79.1778 36.1244 79.2252 38.1326V39.8708L79.2644 40.068V40.5029L79.2656 40.5048ZM93.7645 31.4583L93.7253 38.0163L93.6861 39.4385L93.6071 39.8335L93.3701 39.9915L93.1728 40.0307L92.3435 39.9915L91.9883 40.1104L91.6723 40.3474L90.9612 41.0585L90.5661 41.2955L89.9732 41.6116L89.4201 41.8088L88.7489 41.9668L88.0776 42.0458H86.7344L86.0233 41.9668L85.3912 41.7696L84.7199 41.4928L84.0878 41.0977L83.5746 40.6236L83.2193 40.2286L82.9425 39.8335L82.6656 39.2804L82.4684 38.6875L82.3104 37.9764L82.2314 37.0675L82.1922 36.0802L82.153 35.6851V33.9861L82.1138 33.433V30.8256L82.1928 28.7321L82.232 28.4553L82.2712 28.4161L82.7453 28.4553L85.3128 28.4945L85.4317 28.6133L85.3128 31.4185V32.7219L85.2736 33.1568V36.2382L85.3925 37.3052L85.5113 37.7792L85.7483 38.1743L86.0644 38.4511L86.6965 38.7672L86.9335 38.8462H87.9606L88.9088 38.491L89.5017 38.1357L89.8967 37.6225L90.2918 36.9904L90.3708 36.5163V35.5682L90.41 34.5012V32.5114C90.41 31.7516 90.4877 30.995 90.4877 30.2353C90.4877 29.6531 90.3455 29.1771 90.6072 28.6544L90.7652 28.5356C91.2936 28.4768 91.8259 28.4932 92.3556 28.5103C92.695 28.521 93.1634 28.466 93.4908 28.5754L93.688 28.6544L93.767 28.7334V31.459L93.7645 31.4583Z" fill="#0B0C0D"/>
</svg>
