<svg width="29" height="28" viewBox="0 0 29 28" fill="none" xmlns="http://www.w3.org/2000/svg">
<path d="M0.120181 13.9199C0.165896 7.87767 4.16193 2.27269 9.78778 0.362628C10.1137 0.252317 10.4457 0.156916 10.7816 0.0734373C11.4772 -0.10147 11.7316 0.0148033 12.0546 0.653811C12.4302 1.43328 13.0034 2.10074 13.7172 2.58971C14.705 3.25356 15.7714 3.45133 16.9282 3.11145C17.7232 2.87791 18.077 3.08661 18.2201 3.88959C18.5699 5.8891 19.6054 7.35295 21.5751 7.98103C22.2469 8.19469 23.0052 8.16587 23.7267 8.19171C24.3468 8.21457 24.7095 8.48985 24.7314 9.09308C24.797 10.8819 25.7093 12.1043 27.3043 12.8158C27.8469 13.0573 28.0377 13.4121 28.0487 13.9597C28.1779 20.4382 23.2099 26.4606 16.8467 27.7296C9.54032 29.1875 2.4367 24.5992 0.614092 17.586C0.409196 16.7976 0.115108 14.5843 0.120181 13.9199ZM14.9277 13.9954C14.9277 15.3569 16.0447 16.4909 17.3694 16.475C18.003 16.4391 18.5988 16.1621 19.0347 15.7009C19.4706 15.2396 19.7134 14.6291 19.7134 13.9945C19.7134 13.3599 19.4706 12.7493 19.0347 12.2881C18.5988 11.8268 18.003 11.5498 17.3694 11.514C16.0397 11.5 14.9277 12.633 14.9277 13.9954ZM9.16367 21.3574C10.5222 21.3574 11.6481 20.2573 11.6481 18.9207C11.6387 18.2751 11.3764 17.6591 10.9177 17.2048C10.4589 16.7506 9.84034 16.4943 9.19475 16.4912C8.54916 16.4881 7.9281 16.7383 7.46499 17.1881C7.00187 17.6379 6.73366 18.2514 6.71796 18.8968C6.68417 20.2345 7.80019 21.3555 9.16367 21.3574ZM9.98156 11.511C10.4154 11.5174 10.8341 11.3519 11.1464 11.0506C11.4586 10.7494 11.639 10.3368 11.6481 9.90302C11.6621 9.05233 10.876 8.24935 10.0134 8.23444C9.15075 8.21954 8.3746 8.98177 8.36864 9.87022C8.36317 10.0847 8.40091 10.2982 8.47961 10.4978C8.55832 10.6975 8.67638 10.8792 8.82677 11.0323C8.97716 11.1854 9.15681 11.3067 9.35503 11.3889C9.55325 11.4711 9.76697 11.5126 9.98156 11.511ZM14.9277 21.3902C14.9256 21.6043 14.9657 21.8167 15.0457 22.0152C15.1258 22.2138 15.2442 22.3946 15.3942 22.5474C15.5441 22.7001 15.7228 22.8218 15.9198 22.9055C16.1169 22.9891 16.3285 23.0331 16.5426 23.035C17.4042 23.035 18.1913 22.2399 18.1903 21.3823C18.1807 20.9495 18.0025 20.5375 17.6936 20.2342C17.3847 19.9309 16.9695 19.7601 16.5366 19.7584C16.3227 19.7558 16.1104 19.7964 15.9125 19.8778C15.7146 19.9592 15.5352 20.0796 15.3849 20.232C15.2347 20.3844 15.1168 20.5655 15.0382 20.7645C14.9596 20.9635 14.922 21.1763 14.9277 21.3902ZM22.2082 16.5117C21.9929 16.5273 21.7912 16.6226 21.6425 16.779C21.4938 16.9354 21.4088 17.1417 21.4042 17.3574C21.4141 17.7818 21.8246 18.1783 22.241 18.1674C22.4558 18.1523 22.6573 18.0573 22.8057 17.9012C22.9541 17.745 23.0388 17.539 23.043 17.3237C23.03 16.8914 22.6266 16.4988 22.2062 16.5117H22.2082ZM5.88416 13.2253C5.45683 13.2104 5.06528 13.5959 5.05733 14.0402C5.05398 14.257 5.13504 14.4666 5.28339 14.6248C5.43174 14.783 5.63576 14.8773 5.85236 14.8879C6.26578 14.8988 6.67522 14.5003 6.68615 14.0759C6.68101 13.8602 6.59625 13.6539 6.4482 13.4969C6.30015 13.3399 6.09925 13.2431 5.88416 13.2253Z" fill="#2ED06E"/>
</svg>
