<svg width="158" height="54" viewBox="0 0 158 54" fill="none" xmlns="http://www.w3.org/2000/svg">
<path d="M22.2226 36.7381C25.4713 36.7381 28.4317 35.6102 30.6738 33.5752L32.2389 32.1666L39.2897 39.1681L37.6113 40.7508C33.5775 44.5349 28.097 46.6244 22.2201 46.6244C9.57292 46.6244 0.00195312 36.9122 0.00195312 24.084C0.00195312 11.2011 9.34896 1.82422 22.2201 1.82422C27.9889 1.82422 33.4128 3.91375 37.4981 7.638L39.2357 9.22074L32.293 16.2274L30.7304 14.8708C28.4317 12.8358 25.4147 11.7625 22.2226 11.7625C14.8938 11.7625 9.80201 16.8486 9.80201 24.1385C9.80201 31.4285 15.0612 36.7381 22.2226 36.7381Z" fill="white"/>
<path d="M21.8841 16.7383C23.8585 16.7383 25.7521 17.5302 27.1483 18.9397C28.5444 20.3492 29.3287 22.261 29.3287 24.2544C29.3287 26.2477 28.5444 28.1595 27.1483 29.569C25.7521 30.9786 23.8585 31.7704 21.8841 31.7704C19.9097 31.7704 18.0161 30.9786 16.6199 29.569C15.2238 28.1595 14.4395 26.2477 14.4395 24.2544C14.4395 22.261 15.2238 20.3492 16.6199 18.9397C18.0161 17.5302 19.9097 16.7383 21.8841 16.7383Z" fill="#FF3D2E"/>
<path d="M53.1678 39.0192L51.3926 38.5901L52.0741 32.4062H58.8133V34.2488H53.9166L53.5969 37.1094C53.7708 37.0028 54.0232 36.8962 54.3541 36.7897C54.6907 36.6775 55.0693 36.6214 55.4899 36.6214C56.0733 36.6214 56.5949 36.7167 57.0548 36.9074C57.5148 37.0925 57.9046 37.3618 58.2243 37.7151C58.5496 38.0685 58.7936 38.5004 58.9563 39.0108C59.1246 39.5156 59.2087 40.0877 59.2087 40.7272C59.2087 41.2881 59.1246 41.8153 58.9563 42.3089C58.7936 42.7969 58.544 43.2316 58.2075 43.613C57.8709 43.9888 57.4475 44.2861 56.9371 44.5048C56.4266 44.7179 55.8265 44.8245 55.1366 44.8245C54.6149 44.8245 54.1129 44.7488 53.6306 44.5974C53.1538 44.4403 52.7247 44.2131 52.3433 43.9159C51.9619 43.613 51.6562 43.2428 51.4262 42.8053C51.2019 42.3678 51.0785 41.8658 51.056 41.2993H53.252C53.2912 41.6751 53.3922 41.9948 53.5548 42.2584C53.7175 42.522 53.9306 42.724 54.1943 42.8642C54.4635 43.0044 54.7748 43.0745 55.1282 43.0745C55.4479 43.0745 55.7227 43.0156 55.9527 42.8978C56.1883 42.7744 56.3818 42.6034 56.5332 42.3846C56.6846 42.1659 56.7968 41.9079 56.8697 41.6106C56.9427 41.3133 56.9791 40.988 56.9791 40.6346C56.9791 40.2925 56.9371 39.9812 56.8529 39.7007C56.7688 39.4147 56.6398 39.1679 56.4659 38.9603C56.292 38.7528 56.0733 38.5929 55.8096 38.4808C55.5516 38.3686 55.2487 38.3125 54.901 38.3125C54.4354 38.3125 54.0765 38.3826 53.8241 38.5228C53.5773 38.6631 53.3585 38.8285 53.1678 39.0192ZM70.2516 42.9062V44.6562H61.956V43.1587L65.9355 38.8594C66.3506 38.3882 66.6787 37.9788 66.9199 37.631C67.1611 37.2833 67.3322 36.9691 67.4331 36.6887C67.5397 36.4026 67.593 36.1306 67.593 35.8726C67.593 35.4968 67.5257 35.1687 67.3911 34.8882C67.2564 34.6022 67.0601 34.3806 66.8021 34.2236C66.5497 34.0665 66.2384 33.988 65.8682 33.988C65.4588 33.988 65.1082 34.0833 64.8165 34.274C64.5305 34.4591 64.3117 34.7171 64.1603 35.0481C64.0145 35.379 63.9415 35.7576 63.9415 36.1839H61.712C61.712 35.4603 61.8802 34.8013 62.2168 34.2067C62.5533 33.6066 63.0357 33.127 63.6639 32.768C64.2921 32.4091 65.0381 32.2296 65.9019 32.2296C66.7432 32.2296 67.4556 32.3698 68.0389 32.6502C68.6222 32.9251 69.0653 33.3177 69.3682 33.8281C69.6711 34.3385 69.8226 34.9471 69.8226 35.6538C69.8226 36.0465 69.758 36.4335 69.629 36.8149C69.5 37.1963 69.3177 37.5749 69.0822 37.9507C68.8522 38.3209 68.5774 38.6967 68.2576 39.0781C67.9379 39.4595 67.5818 39.8494 67.1891 40.2476L64.7997 42.9062H70.2516ZM78.6741 32.4062H83.1248C84.0559 32.4062 84.8552 32.5465 85.5226 32.8269C86.1901 33.1074 86.7033 33.5224 87.0623 34.0721C87.4213 34.6218 87.6008 35.2977 87.6008 36.0998C87.6008 36.7336 87.4886 37.2833 87.2642 37.7488C87.0399 38.2143 86.723 38.6042 86.3135 38.9183C85.9097 39.2324 85.4329 39.4792 84.8832 39.6587L84.1597 40.0288H80.2306L80.2137 38.2031H83.15C83.6268 38.2031 84.0222 38.119 84.3363 37.9507C84.6504 37.7825 84.886 37.5497 85.0431 37.2524C85.2057 36.9551 85.2871 36.6158 85.2871 36.2344C85.2871 35.8249 85.2085 35.4716 85.0515 35.1743C84.8944 34.8714 84.656 34.6386 84.3363 34.476C84.0166 34.3133 83.6128 34.232 83.1248 34.232H80.9878V44.6562H78.6741V32.4062ZM85.5899 44.6562L82.7546 39.1707L85.2029 39.1623L88.0719 44.5385V44.6562H85.5899ZM98.8961 42.8389V44.6562H92.3841V42.8389H98.8961ZM93.0908 32.4062V44.6562H90.7771V32.4062H93.0908ZM98.0464 37.4627V39.238H92.3841V37.4627H98.0464ZM98.8709 32.4062V34.232H92.3841V32.4062H98.8709ZM105.96 42.2584L109.014 32.4062H111.58L107.255 44.6562H105.547L105.96 42.2584ZM103.141 32.4062L106.178 42.2584L106.616 44.6562H104.891L100.583 32.4062H103.141ZM116.456 32.4062V44.6562H114.142V32.4062H116.456ZM128.222 42.8389V44.6562H121.71V42.8389H128.222ZM122.417 32.4062V44.6562H120.103V32.4062H122.417ZM127.372 37.4627V39.238H121.71V37.4627H127.372ZM128.197 32.4062V34.232H121.71V32.4062H128.197ZM133.99 42.3089L136.43 32.4062H137.751L137.835 34.4928L135.227 44.6562H133.83L133.99 42.3089ZM132.45 32.4062L134.453 42.2752V44.6562H132.93L130.153 32.4062H132.45ZM140.367 42.2332L142.336 32.4062H144.641L141.865 44.6562H140.342L140.367 42.2332ZM138.382 32.4062L140.822 42.3425L140.965 44.6562H139.568L136.968 34.4844L137.069 32.4062H138.382ZM153.665 41.476C153.665 41.2404 153.629 41.03 153.556 40.845C153.488 40.6542 153.362 40.4832 153.177 40.3317C152.997 40.1747 152.742 40.0232 152.411 39.8774C152.086 39.726 151.665 39.5689 151.149 39.4062C150.577 39.2268 150.044 39.0248 149.551 38.8005C149.057 38.5761 148.622 38.3153 148.247 38.018C147.877 37.7208 147.588 37.3786 147.38 36.9916C147.173 36.599 147.069 36.1446 147.069 35.6286C147.069 35.1238 147.175 34.6639 147.389 34.2488C147.607 33.8337 147.916 33.4776 148.314 33.1803C148.712 32.8774 149.181 32.6446 149.719 32.482C150.263 32.3193 150.863 32.238 151.52 32.238C152.428 32.238 153.213 32.4034 153.875 32.7344C154.543 33.0653 155.059 33.514 155.423 34.0805C155.788 34.647 155.97 35.2837 155.97 35.9904H153.665C153.665 35.609 153.584 35.2724 153.421 34.9808C153.264 34.6891 153.023 34.4591 152.697 34.2909C152.378 34.1226 151.974 34.0385 151.486 34.0385C151.015 34.0385 150.622 34.1086 150.308 34.2488C149.999 34.389 149.767 34.5797 149.61 34.8209C149.458 35.0621 149.383 35.3313 149.383 35.6286C149.383 35.853 149.436 36.0549 149.542 36.2344C149.649 36.4083 149.809 36.5737 150.022 36.7308C150.235 36.8822 150.499 37.0252 150.813 37.1599C151.133 37.2889 151.503 37.4179 151.923 37.5469C152.596 37.7488 153.185 37.9732 153.69 38.22C154.201 38.4667 154.624 38.7472 154.961 39.0613C155.303 39.3754 155.558 39.7288 155.726 40.1214C155.9 40.514 155.987 40.9599 155.987 41.4591C155.987 41.9864 155.883 42.4575 155.676 42.8726C155.468 43.2877 155.171 43.641 154.784 43.9327C154.397 44.2244 153.931 44.4459 153.387 44.5974C152.849 44.7488 152.246 44.8245 151.578 44.8245C150.984 44.8245 150.395 44.746 149.812 44.5889C149.234 44.4263 148.709 44.1851 148.238 43.8654C147.767 43.5401 147.391 43.1306 147.111 42.637C146.83 42.1378 146.69 41.5545 146.69 40.887H149.012C149.012 41.274 149.074 41.605 149.197 41.8798C149.326 42.149 149.506 42.3706 149.736 42.5445C149.971 42.7127 150.246 42.8361 150.56 42.9147C150.874 42.9932 151.214 43.0325 151.578 43.0325C152.05 43.0325 152.437 42.9679 152.739 42.8389C153.048 42.7043 153.278 42.5192 153.429 42.2837C153.586 42.0481 153.665 41.7788 153.665 41.476Z" fill="white"/>
<path d="M59.6609 0.214844L62.5474 7.1548L70.0397 7.75545L64.3314 12.6452L66.0753 19.9564L59.6609 16.0385L53.2465 19.9564L54.9905 12.6452L49.2822 7.75545L56.7744 7.1548L59.6609 0.214844Z" fill="#FF3D2E"/>
<path d="M81.4812 0.214844L84.3677 7.1548L91.86 7.75545L86.1517 12.6452L87.8956 19.9564L81.4812 16.0385L75.0668 19.9564L76.8108 12.6452L71.1025 7.75545L78.5947 7.1548L81.4812 0.214844Z" fill="#FF3D2E"/>
<path d="M103.298 0.214844L106.184 7.1548L113.676 7.75545L107.968 12.6452L109.712 19.9564L103.298 16.0385L96.8832 19.9564L98.6272 12.6452L92.9189 7.75545L100.411 7.1548L103.298 0.214844Z" fill="#FF3D2E"/>
<path d="M125.118 0.214844L128.004 7.1548L135.497 7.75545L129.788 12.6452L131.532 19.9564L125.118 16.0385L118.704 19.9564L120.448 12.6452L114.739 7.75545L122.231 7.1548L125.118 0.214844Z" fill="#FF3D2E"/>
<path d="M146.938 0.214844L149.825 7.1548L157.317 7.75545L151.609 12.6452L153.353 19.9564L146.938 16.0385L140.524 19.9564L142.268 12.6452L136.56 7.75545L144.052 7.1548L146.938 0.214844Z" fill="#FF3D2E"/>
</svg>
