<svg color="inherit" viewBox="0 0 32 32" class="lc-1mpchac" xmlns="http://www.w3.org/2000/svg"><g id="emoji-smile" stroke="none" stroke-width="2" fill="none" fill-rule="evenodd" transform="translate(7, 7)"><path stroke="currentColor" id="changeable" stroke-linecap="round" stroke-linejoin="round" d="M0,9 C0,12.2153905 1.71539025,15.1865338 4.5,16.7942289 C7.28460967,18.4019241 10.7153903,18.4019241 13.5,16.7942289 C16.2846097,15.1865338 18,12.2153905 18,9 C18,5.78460984 16.2846098,2.81346659 13.5,1.2057714 C10.7153903,-0.401923799 7.28460966,-0.401923799 4.5,1.2057714 C1.71539023,2.81346659 0,5.78460984 0,9"></path><path stroke="currentColor" stroke-linecap="round" stroke-linejoin="round" d="M6,7.00000019 L6.01,7.00000019 M12,7.00000019 L12.01,7.00000019"></path><path d="M6.5,12.0000002 C7.15831134,12.6718864 8.05935933,13.0505104 9,13.0505104 C9.94064067,13.0505104 10.8416887,12.6718864 11.5,12.0000002" stroke="currentColor" stroke-linecap="round" stroke-linejoin="round"></path></g></svg>