<svg width="149" height="29" viewBox="0 0 149 29" fill="none" xmlns="http://www.w3.org/2000/svg">
<g clip-path="url(#clip0_10806_9847)">
<path d="M21.645 12.2094H25.792C29.1298 12.2094 31.4562 14.4852 31.4562 17.4184V17.469C31.4562 20.4022 29.1804 22.678 25.792 22.678H21.645V12.2094ZM25.792 20.5539C27.7138 20.5539 28.9781 19.2896 28.9781 17.469V17.4184C28.9781 15.5978 27.7138 14.2829 25.792 14.2829H24.022V20.5539H25.792Z" fill="white"/>
<path d="M33.4795 12.2093H41.5206V14.2322H35.8564V16.3563H40.8632V18.3792H35.8564V20.5539H41.6217V22.5768H33.5301L33.4795 12.2093Z" fill="white"/>
<path d="M42.9365 21.1102L44.3526 19.4918C45.3135 20.2504 46.3249 20.7561 47.5387 20.7561C48.4996 20.7561 49.0559 20.3516 49.0559 19.7953V19.7447C49.0559 19.1378 48.6513 18.8344 46.9318 18.4298C44.8077 17.8735 43.3917 17.3172 43.3917 15.2437V15.1931C43.3917 13.3219 44.9089 12.0576 47.1341 12.0576C48.6513 12.0576 50.0167 12.5127 51.0788 13.3725L49.865 15.1425C48.9547 14.4851 47.9938 14.1311 47.0835 14.1311C46.1732 14.1311 45.718 14.5357 45.718 15.0414V14.9908C45.718 15.6483 46.1732 15.9011 47.9938 16.3563C50.1685 16.9126 51.3316 17.6712 51.3316 19.4413V19.4918C51.3316 21.5653 49.7133 22.7285 47.4375 22.7285C45.8192 22.7285 44.2008 22.1722 42.9365 21.1102Z" fill="white"/>
<path d="M53.4556 12.2093H55.7819V22.6273H53.4556V12.2093Z" fill="white"/>
<path d="M58.0073 17.4183C58.0073 14.4345 60.3337 12.007 63.5704 12.007C65.4921 12.007 66.6047 12.5127 67.7173 13.4736L66.2507 15.2437C65.4416 14.5862 64.7335 14.1817 63.4692 14.1817C61.7497 14.1817 60.4348 15.6483 60.4348 17.4183V17.4689C60.4348 19.3907 61.7497 20.8067 63.6715 20.8067C64.5312 20.8067 65.2898 20.6044 65.8967 20.1493V18.6827H63.5198V16.7103H68.1219V21.2113C67.0093 22.1216 65.5427 22.8802 63.5704 22.8802C60.2325 22.7285 58.0073 20.5033 58.0073 17.4183Z" fill="white"/>
<path d="M70.3467 12.2093H72.5213L77.4775 18.5815V12.2093H79.7533V22.6273H77.7809L72.6225 16.0023V22.6273H70.3467V12.2093Z" fill="white"/>
<path d="M82.3326 12.2094H87.1876C88.5531 12.2094 89.5645 12.614 90.2726 13.2714C90.8794 13.8783 91.1829 14.6874 91.1829 15.6483V15.6989C91.1829 17.3678 90.2726 18.4298 88.9071 18.9356L91.4863 22.6274H88.7554L86.4796 19.2896H86.429H84.6084V22.6274H82.2314V12.2094H82.3326ZM87.0359 17.2161C88.1991 17.2161 88.8059 16.6092 88.8059 15.7495V15.6989C88.8059 14.738 88.1485 14.2323 86.9853 14.2323H84.6589V17.2161H87.0359Z" fill="url(#paint0_linear_10806_9847)"/>
<path d="M93.1553 18.1264V12.1587H95.4816V18.0252C95.4816 19.7447 96.3414 20.5539 97.7574 20.5539C99.1735 20.5539 100.033 19.6941 100.033 18.0252V12.1082H102.36V17.9746C102.36 21.1102 100.539 22.6779 97.7068 22.6779C94.8748 22.6779 93.1553 21.1607 93.1553 18.1264Z" fill="url(#paint1_linear_10806_9847)"/>
<path d="M104.028 21.1102L105.444 19.4918C106.405 20.2504 107.417 20.7561 108.63 20.7561C109.591 20.7561 110.148 20.3516 110.148 19.7953V19.7447C110.148 19.1378 109.743 18.8344 108.024 18.4298C105.9 17.8735 104.483 17.3172 104.483 15.2437V15.1931C104.483 13.3219 106.001 12.0576 108.226 12.0576C109.743 12.0576 111.109 12.5127 112.171 13.3725L110.957 15.1425C110.047 14.4851 109.086 14.1311 108.175 14.1311C107.265 14.1311 106.81 14.5357 106.81 15.0414V14.9908C106.81 15.6483 107.265 15.9011 109.086 16.3563C111.26 16.9126 112.423 17.6712 112.423 19.4412V19.4918C112.423 21.5653 110.805 22.7285 108.529 22.7285C106.962 22.7285 105.293 22.1722 104.028 21.1102Z" fill="url(#paint2_linear_10806_9847)"/>
<path d="M114.447 12.2093H116.773V16.3563H121.072V12.2093H123.398V22.6273H121.072V18.4804H116.773V22.6273H114.447V12.2093Z" fill="url(#paint3_linear_10806_9847)"/>
<path d="M8.29397 18.0758C8.2434 18.0758 8.2434 18.0252 8.29397 18.0758L8.04111 17.9241L7.99054 17.8735L2.02292 13.6254C2.02292 13.6254 1.97235 13.6254 1.97235 13.5748L1.8712 13.4736L1.82063 13.4231H1.71948L0 12.2093L3.38839 12.715C3.54011 12.715 3.59068 12.7656 3.7424 12.8162C3.79298 12.8162 3.89412 12.8668 3.89412 12.8668C4.04584 12.9173 4.09641 12.9679 4.19756 13.0185C4.29871 13.069 4.34928 13.1196 4.45043 13.1702C4.501 13.2208 4.60214 13.2713 4.60214 13.3219C4.65272 13.3725 4.70329 13.3725 4.75386 13.4231C4.85501 13.4736 4.90558 13.5242 4.90558 13.5748C5.0573 13.7265 5.15845 13.8782 5.31017 13.9794L7.99054 17.7723L8.04111 17.8229L8.29397 18.0758Z" fill="#2AD2FF"/>
<path d="M8.29418 23.9422L8.04132 23.5377L7.99074 23.4871L0.0507812 12.2093L1.77026 13.4231L2.0737 13.6254L8.04132 17.8735H8.09189L8.29418 18.0252C8.29418 18.0252 8.34476 18.0252 8.34476 18.0758L8.59762 17.8735L16.6387 12.2093L8.54705 23.5377L8.49647 23.5882L8.29418 23.9422Z" fill="url(#paint4_linear_10806_9847)"/>
<path d="M8.29385 16.154L8.04099 15.7494L7.99041 15.6988L6.01807 12.9679L7.99041 13.3725H8.04099L8.29385 13.4231L8.54672 13.3725L10.4685 12.9173L8.54672 15.7494V15.8L8.29385 16.154Z" fill="#2AD2FF"/>
<path d="M16.6886 12.1587L14.1599 12.5127L13.199 12.6645C12.4404 12.7656 11.7324 13.1702 11.2773 13.8276L8.5969 17.6712L8.54632 17.7218L8.29346 18.0758L8.5969 17.7723L8.64747 17.7218L8.29346 18.0758L15.1208 13.2208L16.6886 12.1587Z" fill="#2AD2FF"/>
<path d="M9.55821 4.1682C9.55821 6.39341 5.71466 7.55659 5.71466 9.93352C5.66408 10.4898 5.8158 11.0461 6.06867 11.5519C6.06867 11.5519 4.60205 10.1358 4.60205 8.61862C4.60205 7.10143 6.01809 4.82565 6.01809 4.82565C6.01809 5.83711 6.42268 6.14054 6.82726 6.19112H6.87784C7.33299 6.19112 7.58586 5.83711 7.58586 5.33138C7.58586 4.82565 7.02956 4.31992 7.02956 3.30845C7.02956 2.34757 8.24331 0.779804 8.24331 0.779804C9.10305 1.79126 9.55821 2.95444 9.55821 4.1682Z" fill="#2AF4FF"/>
<path d="M8.49614 12.2599C7.28238 12.2599 6.37207 11.299 6.37207 10.1358V10.0852C6.37207 7.50601 9.96275 7.25315 9.96275 3.76361C10.0639 3.91533 11.0248 5.23023 11.0248 6.64627C11.0248 8.41633 9.35588 8.87148 9.35588 9.73122C9.35588 10.0852 9.5076 10.3381 10.0133 10.3381C10.0639 10.3381 10.1145 10.3381 10.165 10.2875C11.1259 9.88294 11.7834 8.97263 11.834 7.9106C11.834 7.96117 12.3397 12.2599 8.49614 12.2599Z" fill="#2AF4FF"/>
<path d="M10.0641 10.3381C10.1147 10.3381 10.1652 10.3381 10.2158 10.2875C9.71007 10.4392 7.83887 10.8944 7.83887 9.57951C7.83887 7.96117 10.6204 7.60716 10.6204 6.24169C10.6204 5.38195 10.4181 4.52221 9.96293 3.76361C10.0641 3.91533 11.025 5.23023 11.025 6.64627C11.025 8.41633 9.35606 8.87148 9.35606 9.73123C9.40663 10.0852 9.60892 10.3381 10.0641 10.3381Z" fill="#2AD2FF"/>
<path d="M8.54712 5.07851C8.54712 6.34284 6.92878 6.24169 6.82764 6.19112H6.97936C7.43451 6.19112 7.68738 5.83711 7.68738 5.33138C7.68738 4.82564 7.13107 4.31991 7.13107 3.30845C7.13107 2.34757 8.34483 0.779804 8.34483 0.779804C7.94024 1.43725 7.73795 2.14528 7.68738 2.8533C7.68738 4.01648 8.54712 4.11762 8.54712 5.07851Z" fill="#2AD2FF"/>
<path d="M7.53546 27.1789L6.42285 26.4203H7.78832L8.24348 25.0549L8.64806 26.4203H10.0135L8.90093 27.1789L9.30551 28.4938L8.19291 27.6846L7.02973 28.4938L7.53546 27.1789Z" fill="#2AD2FF"/>
<path d="M13.3514 27.1789L12.2388 26.4203H13.6042L14.0594 25.0549L14.464 26.4203H15.8295L14.7168 27.1789L15.1214 28.4938L14.0088 27.6846L12.8456 28.4938L13.3514 27.1789Z" fill="#2AD2FF"/>
<path d="M1.76983 27.1789L0.657227 26.4203H2.0227L2.47785 25.0549L2.88244 26.4203H4.24791L3.1353 27.1789L3.53989 28.4938L2.42728 27.6846L1.31468 28.4938L1.76983 27.1789Z" fill="#2AD2FF"/>
</g>
<defs>
<linearGradient id="paint0_linear_10806_9847" x1="81.2503" y1="0.729296" x2="123.833" y2="0.729296" gradientUnits="userSpaceOnUse">
<stop offset="0.73" stop-color="#2AF4FF"/>
<stop offset="0.884" stop-color="#2AF4FF"/>
</linearGradient>
<linearGradient id="paint1_linear_10806_9847" x1="81.2504" y1="0.729236" x2="123.833" y2="0.729236" gradientUnits="userSpaceOnUse">
<stop offset="0.73" stop-color="#2AF4FF"/>
<stop offset="0.884" stop-color="#2AF4FF"/>
</linearGradient>
<linearGradient id="paint2_linear_10806_9847" x1="81.2502" y1="0.729234" x2="123.833" y2="0.729234" gradientUnits="userSpaceOnUse">
<stop offset="0.73" stop-color="#2AF4FF"/>
<stop offset="0.884" stop-color="#2AF4FF"/>
</linearGradient>
<linearGradient id="paint3_linear_10806_9847" x1="81.2507" y1="0.729235" x2="123.833" y2="0.729235" gradientUnits="userSpaceOnUse">
<stop offset="0.73" stop-color="#2AF4FF"/>
<stop offset="0.884" stop-color="#2AF4FF"/>
</linearGradient>
<linearGradient id="paint4_linear_10806_9847" x1="0.000208255" y1="23.9635" x2="0.000208255" y2="17.7562" gradientUnits="userSpaceOnUse">
<stop offset="0.73" stop-color="#2AF4FF"/>
<stop offset="0.884" stop-color="#2AF4FF"/>
</linearGradient>
<clipPath id="clip0_10806_9847">
<rect width="148" height="28" fill="white" transform="translate(0.305664 0.768066)"/>
</clipPath>
</defs>
</svg>
