<svg width="163" height="54" viewBox="0 0 163 54" fill="none" xmlns="http://www.w3.org/2000/svg">
<path d="M58.5512 37.5469H59.8048C60.2479 37.5469 60.6125 37.4712 60.8986 37.3197C61.1903 37.1627 61.4062 36.9495 61.5464 36.6803C61.6923 36.4054 61.7652 36.0885 61.7652 35.7296C61.7652 35.3762 61.7007 35.0705 61.5717 34.8125C61.4427 34.5489 61.2463 34.347 60.9827 34.2067C60.7247 34.0609 60.3938 33.988 59.9899 33.988C59.6646 33.988 59.3645 34.0525 59.0897 34.1815C58.8205 34.3105 58.6045 34.4956 58.4419 34.7368C58.2848 34.9724 58.2063 35.2556 58.2063 35.5865H55.9767C55.9767 34.9247 56.1506 34.3441 56.4983 33.8449C56.8517 33.3401 57.3285 32.9447 57.9286 32.6587C58.5288 32.3726 59.1991 32.2296 59.9395 32.2296C60.7471 32.2296 61.4539 32.3642 62.0596 32.6334C62.671 32.897 63.145 33.2869 63.4815 33.8029C63.8237 34.3189 63.9947 34.9583 63.9947 35.7212C63.9947 36.0857 63.9078 36.4503 63.7339 36.8149C63.5657 37.1739 63.3161 37.4992 62.9851 37.7909C62.6598 38.0769 62.2588 38.3097 61.782 38.4892C61.3108 38.6631 60.7696 38.75 60.1582 38.75H58.5512V37.5469ZM58.5512 39.2632V38.0769H60.1582C60.8481 38.0769 61.4455 38.1583 61.9503 38.3209C62.4607 38.478 62.8814 38.7023 63.2123 38.994C63.5432 39.28 63.7872 39.6138 63.9443 39.9952C64.1069 40.3766 64.1883 40.7861 64.1883 41.2236C64.1883 41.7957 64.0817 42.3061 63.8685 42.7548C63.6554 43.1979 63.3553 43.5737 62.9683 43.8822C62.5869 44.1907 62.1382 44.4263 61.6221 44.5889C61.1061 44.746 60.548 44.8245 59.9479 44.8245C59.4262 44.8245 58.9186 44.7544 58.425 44.6142C57.9371 44.4683 57.4967 44.2524 57.1041 43.9663C56.7115 43.6747 56.4002 43.3101 56.1702 42.8726C55.9403 42.4295 55.8253 41.9163 55.8253 41.3329H58.0548C58.0548 41.6695 58.1362 41.9696 58.2988 42.2332C58.4671 42.4968 58.6971 42.7043 58.9887 42.8558C59.286 43.0016 59.6197 43.0745 59.9899 43.0745C60.3994 43.0745 60.75 43.0016 61.0416 42.8558C61.3389 42.7043 61.5661 42.4912 61.7231 42.2163C61.8802 41.9359 61.9587 41.6022 61.9587 41.2151C61.9587 40.7552 61.8717 40.3822 61.6979 40.0962C61.524 39.8101 61.2744 39.5998 60.9491 39.4651C60.6294 39.3305 60.2479 39.2632 59.8048 39.2632H58.5512ZM75.4079 42.9062V44.6562H67.1122V43.1587L71.0918 38.8594C71.5068 38.3882 71.835 37.9788 72.0762 37.631C72.3173 37.2833 72.4884 36.9691 72.5894 36.6887C72.6959 36.4026 72.7492 36.1306 72.7492 35.8726C72.7492 35.4968 72.6819 35.1687 72.5473 34.8882C72.4127 34.6022 72.2164 34.3806 71.9584 34.2236C71.706 34.0665 71.3947 33.988 71.0245 33.988C70.615 33.988 70.2645 34.0833 69.9728 34.274C69.6867 34.4591 69.468 34.7171 69.3165 35.0481C69.1707 35.379 69.0978 35.7576 69.0978 36.1839H66.8682C66.8682 35.4603 67.0365 34.8013 67.373 34.2067C67.7096 33.6066 68.1919 33.127 68.8201 32.768C69.4484 32.4091 70.1943 32.2296 71.0581 32.2296C71.8995 32.2296 72.6118 32.3698 73.1951 32.6502C73.7785 32.9251 74.2216 33.3177 74.5245 33.8281C74.8274 34.3385 74.9788 34.9471 74.9788 35.6538C74.9788 36.0465 74.9143 36.4335 74.7853 36.8149C74.6563 37.1963 74.474 37.5749 74.2384 37.9507C74.0084 38.3209 73.7336 38.6967 73.4139 39.0781C73.0942 39.4595 72.738 39.8494 72.3454 40.2476L69.956 42.9062H75.4079ZM83.8303 32.4062H88.281C89.2121 32.4062 90.0114 32.5465 90.6789 32.8269C91.3464 33.1074 91.8596 33.5224 92.2185 34.0721C92.5775 34.6218 92.757 35.2977 92.757 36.0998C92.757 36.7336 92.6448 37.2833 92.4205 37.7488C92.1961 38.2143 91.8792 38.6042 91.4698 38.9183C91.0659 39.2324 90.5891 39.4792 90.0395 39.6587L89.3159 40.0288H85.3868L85.37 38.2031H88.3063C88.7831 38.2031 89.1785 38.119 89.4926 37.9507C89.8067 37.7825 90.0423 37.5497 90.1993 37.2524C90.362 36.9551 90.4433 36.6158 90.4433 36.2344C90.4433 35.8249 90.3648 35.4716 90.2077 35.1743C90.0507 34.8714 89.8123 34.6386 89.4926 34.476C89.1729 34.3133 88.769 34.232 88.281 34.232H86.144V44.6562H83.8303V32.4062ZM90.7462 44.6562L87.9109 39.1707L90.3592 39.1623L93.2282 44.5385V44.6562H90.7462ZM104.052 42.8389V44.6562H97.5403V42.8389H104.052ZM98.2471 32.4062V44.6562H95.9334V32.4062H98.2471ZM103.203 37.4627V39.238H97.5403V37.4627H103.203ZM104.027 32.4062V34.232H97.5403V32.4062H104.027ZM111.116 42.2584L114.17 32.4062H116.736L112.411 44.6562H110.703L111.116 42.2584ZM108.297 32.4062L111.335 42.2584L111.772 44.6562H110.047L105.74 32.4062H108.297ZM121.612 32.4062V44.6562H119.298V32.4062H121.612ZM133.378 42.8389V44.6562H126.866V42.8389H133.378ZM127.573 32.4062V44.6562H125.259V32.4062H127.573ZM132.529 37.4627V39.238H126.866V37.4627H132.529ZM133.353 32.4062V34.232H126.866V32.4062H133.353ZM139.146 42.3089L141.586 32.4062H142.907L142.991 34.4928L140.383 44.6562H138.986L139.146 42.3089ZM137.606 32.4062L139.609 42.2752V44.6562H138.086L135.31 32.4062H137.606ZM145.523 42.2332L147.492 32.4062H149.797L147.021 44.6562H145.498L145.523 42.2332ZM143.538 32.4062L145.978 42.3425L146.121 44.6562H144.724L142.124 34.4844L142.225 32.4062H143.538ZM158.821 41.476C158.821 41.2404 158.785 41.03 158.712 40.845C158.645 40.6542 158.518 40.4832 158.333 40.3317C158.154 40.1747 157.899 40.0232 157.568 39.8774C157.242 39.726 156.822 39.5689 156.306 39.4062C155.733 39.2268 155.201 39.0248 154.707 38.8005C154.213 38.5761 153.779 38.3153 153.403 38.018C153.033 37.7208 152.744 37.3786 152.536 36.9916C152.329 36.599 152.225 36.1446 152.225 35.6286C152.225 35.1238 152.332 34.6639 152.545 34.2488C152.764 33.8337 153.072 33.4776 153.47 33.1803C153.868 32.8774 154.337 32.6446 154.875 32.482C155.419 32.3193 156.02 32.238 156.676 32.238C157.584 32.238 158.37 32.4034 159.032 32.7344C159.699 33.0653 160.215 33.514 160.58 34.0805C160.944 34.647 161.127 35.2837 161.127 35.9904H158.821C158.821 35.609 158.74 35.2724 158.577 34.9808C158.42 34.6891 158.179 34.4591 157.854 34.2909C157.534 34.1226 157.13 34.0385 156.642 34.0385C156.171 34.0385 155.778 34.1086 155.464 34.2488C155.156 34.389 154.923 34.5797 154.766 34.8209C154.614 35.0621 154.539 35.3313 154.539 35.6286C154.539 35.853 154.592 36.0549 154.699 36.2344C154.805 36.4083 154.965 36.5737 155.178 36.7308C155.391 36.8822 155.655 37.0252 155.969 37.1599C156.289 37.2889 156.659 37.4179 157.08 37.5469C157.753 37.7488 158.342 37.9732 158.846 38.22C159.357 38.4667 159.78 38.7472 160.117 39.0613C160.459 39.3754 160.714 39.7288 160.883 40.1214C161.056 40.514 161.143 40.9599 161.143 41.4591C161.143 41.9864 161.04 42.4575 160.832 42.8726C160.625 43.2877 160.327 43.641 159.94 43.9327C159.553 44.2244 159.088 44.4459 158.544 44.5974C158.005 44.7488 157.402 44.8245 156.735 44.8245C156.14 44.8245 155.551 44.746 154.968 44.5889C154.39 44.4263 153.866 44.1851 153.395 43.8654C152.923 43.5401 152.548 43.1306 152.267 42.637C151.987 42.1378 151.846 41.5545 151.846 40.887H154.169C154.169 41.274 154.23 41.605 154.354 41.8798C154.483 42.149 154.662 42.3706 154.892 42.5445C155.128 42.7127 155.403 42.8361 155.717 42.9147C156.031 42.9932 156.37 43.0325 156.735 43.0325C157.206 43.0325 157.593 42.9679 157.896 42.8389C158.204 42.7043 158.434 42.5192 158.586 42.2837C158.743 42.0481 158.821 41.7788 158.821 41.476Z" fill="white"/>
<path d="M64.8133 0.214844L67.6997 7.1548L75.192 7.75545L69.4837 12.6452L71.2277 19.9564L64.8133 16.0385L58.3988 19.9564L60.1428 12.6452L54.4345 7.75545L61.9268 7.1548L64.8133 0.214844Z" fill="#4D88E6"/>
<path d="M86.6336 0.214844L89.5201 7.1548L97.0123 7.75545L91.304 12.6452L93.048 19.9564L86.6336 16.0385L80.2191 19.9564L81.9631 12.6452L76.2548 7.75545L83.7471 7.1548L86.6336 0.214844Z" fill="#4D88E6"/>
<path d="M108.454 0.214844L111.34 7.1548L118.833 7.75545L113.124 12.6452L114.868 19.9564L108.454 16.0385L102.039 19.9564L103.783 12.6452L98.0751 7.75545L105.567 7.1548L108.454 0.214844Z" fill="#4D88E6"/>
<path d="M130.274 0.214844L133.161 7.1548L140.653 7.75545L134.945 12.6452L136.689 19.9564L130.274 16.0385L123.86 19.9564L125.604 12.6452L119.895 7.75545L127.388 7.1548L130.274 0.214844Z" fill="#4D88E6"/>
<path d="M152.087 0.214844L154.973 7.1548L162.465 7.75545L156.757 12.6452L158.501 19.9564L152.087 16.0385L145.672 19.9564L147.416 12.6452L141.708 7.75545L149.2 7.1548L152.087 0.214844Z" fill="#4D88E6"/>
<path d="M18.3733 17.9802C18.3733 17.9802 15.8836 17.7416 15.8836 19.8413V29.2421H32.2163V32.0576C32.2246 32.2456 32.1912 32.4331 32.1184 32.6078C32.0456 32.7825 31.935 32.9405 31.7938 33.0712C31.6527 33.202 31.4842 33.3026 31.2996 33.3664C31.1149 33.4302 30.9182 33.4558 30.7224 33.4415H15.8836V45.6578H33.7101C33.7101 45.6578 44.5156 44.0831 44.6152 33.4415V17.9802H18.3733ZM44.1173 2.99609H11.9498C0.297803 5.6207 0.0488281 14.783 0.0488281 14.783V45.7055H12.3979V17.5507C12.3979 15.1647 14.8877 14.7352 14.8877 14.7352H44.0675L44.1173 2.99609Z" fill="#4385F6"/>
</svg>
