<svg color="inherit" viewBox="0 0 32 32" aria-hidden="true" class="eh4tvav0 lc-m031z5" xmlns="http://www.w3.org/2000/svg"><path d="M9.05674797,7.10056554 L9.13703813,7.13553157 L25.4390381,15.1015316 L25.5284558,15.1506535 L25.6286153,15.2222405 C25.7452987,15.313793 25.8339182,15.4266828 25.895416,15.5505399 L25.9423517,15.6622033 L25.9751927,15.7773803 L25.9891204,15.8509608 L25.998657,15.9475578 L25.9972397,16.0748669 L25.9800642,16.201216 L25.9701282,16.2435678 C25.9550365,16.3071288 25.9331784,16.3694784 25.9050831,16.4294253 L25.8937351,16.4490792 C25.8488724,16.5422577 25.7878083,16.6290528 25.7112518,16.7055442 L25.609137,16.7931281 L25.539527,16.8424479 L25.4390381,16.8984684 L9.05674797,24.8994345 C8.4880852,25.1179893 7.84373932,24.9716543 7.42618713,24.5298922 C7.02348961,24.1049956 6.89354829,23.48994 7.08502271,22.9526995 L9.44381329,15.9994998 L7.08997091,9.06153122 C6.90991684,8.5560159 7.00409914,7.99707209 7.33051276,7.58090053 L7.4252609,7.47108641 C7.84373932,7.02834566 8.4880852,6.8820107 9.05674797,7.10056554 Z M20.6761421,16.9994644 L11.2161421,16.9994644 L9.33681329,22.5404998 L20.6761421,16.9994644 Z M9.33581329,9.45749977 L11.2161421,14.9994644 L20.6761421,14.9994644 L9.33581329,9.45749977 Z"></path></svg>