<svg width="148" height="29" viewBox="0 0 148 29" fill="none" xmlns="http://www.w3.org/2000/svg">
<g clip-path="url(#clip0_10806_9801)">
<mask id="mask0_10806_9801" style="mask-type:luminance" maskUnits="userSpaceOnUse" x="0" y="0" width="148" height="29">
<path d="M148 0.768066H0V28.7681H148V0.768066Z" fill="white"/>
</mask>
<g mask="url(#mask0_10806_9801)">
<path fill-rule="evenodd" clip-rule="evenodd" d="M3.20508 7.78838C5.50848 7.88788 7.93602 7.80259 10.1981 7.80259C12.0325 7.80259 15.5359 7.12029 15.5911 9.52256C15.6325 11.9817 12.1704 11.3136 10.3222 11.3136C8.01875 11.3136 5.4809 11.1999 3.20508 11.3278V14.9526C5.53607 15.0237 7.96362 14.9526 10.3222 14.9526C12.6118 14.9526 15.5635 14.2276 15.5911 16.9711C15.6187 20.3257 14.9428 23.5951 17.991 25.5567C18.2531 25.7273 18.9151 26.0258 19.2324 26.0969C19.9358 26.2248 20.7909 26.2532 21.3703 26.1253C23.1633 25.8978 24.8185 23.9647 25.1771 22.2021C25.5357 20.3968 25.0943 16.5588 25.2598 14.4266H37.4941L37.5355 10.7593H25.2598C25.053 7.20557 26.5978 7.77417 29.9356 7.77417C32.4735 7.77417 35.0252 7.78838 37.5493 7.77417L37.5355 4.13521C35.9493 4.10678 26.9288 4.02149 26.0047 4.16364C24.446 4.40529 23.2185 5.30081 22.4461 6.48063C21.3841 8.1011 21.5358 9.38042 21.5358 11.5695V20.4678C21.5496 21.4629 21.5358 22.3869 20.5841 22.5006C18.2393 22.7848 19.9633 17.8097 19.0668 15.0663C18.6807 13.8865 18.2255 13.5737 18.0599 13.1331C18.3358 12.465 20.984 9.32354 17.8669 5.82675C17.3427 5.24395 16.8324 4.83173 15.9083 4.47636C14.2531 3.85092 11.7014 4.12099 9.72911 4.12099C7.60499 4.12099 5.32918 4.04992 3.21887 4.13521L3.20508 7.78838Z" fill="#9C46FF"/>
<path d="M48.8318 15.0424H45.2499V21.3998H43.2285V5.68438H48.2767C49.9943 5.68438 51.3139 6.08734 52.2356 6.89326C53.1642 7.69918 53.6285 8.87205 53.6285 10.412C53.6285 11.3906 53.3702 12.2432 52.8535 12.9701C52.3438 13.6968 51.6316 14.2401 50.717 14.5999L54.2988 21.2703V21.3998H52.1413L48.8318 15.0424ZM45.2499 13.3478H48.3395C49.338 13.3478 50.1305 13.0816 50.717 12.5491C51.3104 12.0166 51.6072 11.3042 51.6072 10.412C51.6072 9.44052 51.3244 8.69579 50.7589 8.17772C50.2002 7.6596 49.3903 7.39695 48.329 7.38976H45.2499V13.3478ZM58.2577 21.3998H56.3202V9.72118H58.2577V21.3998ZM56.1631 6.62342C56.1631 6.29961 56.2573 6.02617 56.4458 5.80311C56.6413 5.58003 56.9276 5.46851 57.3046 5.46851C57.6817 5.46851 57.968 5.58003 58.1634 5.80311C58.3589 6.02617 58.4567 6.29961 58.4567 6.62342C58.4567 6.94722 58.3589 7.21706 58.1634 7.43293C57.968 7.64881 57.6817 7.75675 57.3046 7.75675C56.9276 7.75675 56.6413 7.64881 56.4458 7.43293C56.2573 7.21706 56.1631 6.94722 56.1631 6.62342ZM60.9074 15.4634C60.9074 13.6429 61.3159 12.1965 62.1328 11.1244C62.9497 10.045 64.032 9.50529 65.3795 9.50529C66.762 9.50529 67.8408 10.009 68.6158 11.0164L68.71 9.72118H70.48V21.1192C70.48 22.6303 70.0436 23.8212 69.1708 24.6919C68.3051 25.5625 67.139 25.9979 65.6728 25.9979C64.8559 25.9979 64.0564 25.818 63.2744 25.4582C62.4924 25.0984 61.8954 24.6055 61.4835 23.9795L62.4889 22.7814C63.3198 23.8391 64.3357 24.3681 65.5366 24.3681C66.4792 24.3681 67.2124 24.0946 67.736 23.5477C68.2667 23.0009 68.532 22.2309 68.532 21.238V20.2341C67.757 21.1552 66.6992 21.6157 65.3586 21.6157C64.032 21.6157 62.9567 21.0652 62.1328 19.9643C61.3159 18.8633 60.9074 17.363 60.9074 15.4634ZM62.8555 15.69C62.8555 17.0069 63.1173 18.043 63.6409 18.7986C64.1647 19.547 64.8978 19.9211 65.8403 19.9211C67.0622 19.9211 67.9595 19.3491 68.532 18.205V12.8729C67.9385 11.7576 67.0483 11.1999 65.8613 11.1999C64.9187 11.1999 64.1821 11.5777 63.6514 12.3332C63.1208 13.0888 62.8555 14.2077 62.8555 15.69ZM75.3503 11.1351C76.209 10.0486 77.3258 9.50529 78.7014 9.50529C81.0966 9.50529 82.3042 10.8977 82.3256 13.6824V21.3998H80.388V13.6716C80.3809 12.8297 80.1921 12.2073 79.8225 11.8043C79.4593 11.4014 78.8902 11.1999 78.1151 11.1999C77.4867 11.1999 76.9347 11.3726 76.46 11.718C75.9852 12.0634 75.6156 12.5167 75.3503 13.078V21.3998H73.4127V4.82089H75.3503V11.1351ZM87.8552 6.89326V9.72118H89.9708V11.2646H87.8552V18.5071C87.8552 18.9749 87.9496 19.3275 88.1377 19.565C88.3264 19.7952 88.6474 19.9103 89.1014 19.9103C89.3252 19.9103 89.632 19.8671 90.023 19.7808V21.3998C89.5133 21.5437 89.0178 21.6157 88.5359 21.6157C87.6701 21.6157 87.0173 21.3459 86.5776 20.8062C86.1379 20.2665 85.9176 19.5002 85.9176 18.5071V11.2646H83.8542V9.72118H85.9176V6.89326H87.8552ZM100.957 14.4596H94.5581V21.3998H92.5469V5.68438H101.994V7.38976H94.5581V12.7649H100.957V14.4596ZM106.204 21.3998H104.267V9.72118H106.204V21.3998ZM104.109 6.62342C104.109 6.29961 104.204 6.02617 104.393 5.80311C104.588 5.58003 104.875 5.46851 105.251 5.46851C105.628 5.46851 105.915 5.58003 106.11 5.80311C106.306 6.02617 106.403 6.29961 106.403 6.62342C106.403 6.94722 106.306 7.21706 106.11 7.43293C105.915 7.64881 105.628 7.75675 105.251 7.75675C104.875 7.75675 104.588 7.64881 104.393 7.43293C104.204 7.21706 104.109 6.94722 104.109 6.62342ZM114.793 11.5129C114.5 11.4626 114.181 11.4374 113.84 11.4374C112.568 11.4374 111.706 11.995 111.253 13.1104V21.3998H109.315V9.72118H111.2L111.231 11.0703C111.867 10.027 112.768 9.50529 113.934 9.50529C114.311 9.50529 114.597 9.55569 114.793 9.65641V11.5129ZM118.405 9.72118L118.458 11.0164C119.289 10.009 120.41 9.50529 121.82 9.50529C123.405 9.50529 124.483 10.1313 125.056 11.3834C125.434 10.8221 125.922 10.3688 126.523 10.0234C127.13 9.678 127.846 9.50529 128.67 9.50529C131.155 9.50529 132.419 10.8617 132.461 13.5745V21.3998H130.524V13.6932C130.524 12.8585 130.338 12.2361 129.968 11.8259C129.598 11.4086 128.977 11.1999 128.104 11.1999C127.385 11.1999 126.788 11.423 126.313 11.8691C125.838 12.308 125.562 12.9017 125.486 13.65V21.3998H123.538V13.7472C123.538 12.049 122.731 11.1999 121.118 11.1999C119.848 11.1999 118.978 11.7576 118.511 12.8729V21.3998H116.573V9.72118H118.405ZM141.992 18.3021C141.992 17.7624 141.792 17.3451 141.395 17.05C141.004 16.7478 140.316 16.4888 139.331 16.2729C138.354 16.057 137.575 15.798 136.996 15.4957C136.424 15.1935 135.997 14.8338 135.718 14.4164C135.445 13.9991 135.31 13.5025 135.31 12.9269C135.31 11.9698 135.701 11.1603 136.483 10.4983C137.272 9.83628 138.277 9.50529 139.499 9.50529C140.783 9.50529 141.824 9.84711 142.62 10.5307C143.423 11.2143 143.824 12.0886 143.824 13.1535H141.877C141.877 12.6067 141.649 12.1354 141.195 11.7395C140.748 11.3438 140.183 11.1459 139.499 11.1459C138.794 11.1459 138.242 11.3042 137.844 11.6208C137.446 11.9375 137.247 12.3512 137.247 12.8621C137.247 13.3442 137.432 13.7076 137.802 13.9523C138.172 14.1969 138.839 14.4308 139.803 14.6538C140.773 14.8769 141.559 15.1432 142.159 15.4526C142.76 15.762 143.203 16.1361 143.489 16.5751C143.783 17.0069 143.929 17.5358 143.929 18.1618C143.929 19.2051 143.524 20.0435 142.714 20.6767C141.905 21.3027 140.854 21.6157 139.562 21.6157C138.654 21.6157 137.851 21.4502 137.153 21.1192C136.455 20.7882 135.907 20.3277 135.508 19.7376C135.117 19.1404 134.922 18.4964 134.922 17.8056H136.86C136.895 18.4748 137.153 19.0072 137.635 19.403C138.124 19.7916 138.766 19.9859 139.562 19.9859C140.295 19.9859 140.881 19.8348 141.321 19.5325C141.768 19.2231 141.992 18.813 141.992 18.3021Z" fill="#9C46FF"/>
</g>
</g>
<defs>
<clipPath id="clip0_10806_9801">
<rect width="148" height="28" fill="white" transform="translate(0 0.768066)"/>
</clipPath>
</defs>
</svg>
