<svg width="24" height="24" viewBox="0 0 24 24" fill="none" xmlns="http://www.w3.org/2000/svg">
<path d="M13.4154 22.8977H8.84766V8.96499H13.2135V10.8765C13.2654 10.8302 13.3138 10.7804 13.3582 10.7276C14.1223 9.55932 15.2562 8.90836 16.6602 8.69359C17.8828 8.50636 19.101 8.59564 20.2609 9.0461C21.6378 9.58074 22.3722 10.624 22.7545 11.9315C23.0148 12.8217 23.1093 13.7359 23.1163 14.6522C23.1368 17.3381 23.1287 20.0241 23.1309 22.7126C23.1309 22.7539 23.125 22.7947 23.1206 22.8513H18.5394V22.5631C18.5394 20.2853 18.5469 18.0074 18.5297 15.7296C18.528 15.2034 18.4769 14.6785 18.3768 14.1609C18.0896 12.7197 17.0684 12.2733 15.7228 12.4264C14.4176 12.5794 13.7086 13.3028 13.5267 14.6006C13.4594 15.072 13.4238 15.5468 13.4203 16.0224C13.4089 18.2069 13.4154 20.3914 13.4154 22.5758V22.8977Z" fill="white"/>
<path d="M1.37891 22.892V8.96484H5.94289V22.892H1.37891Z" fill="white"/>
<path d="M6.30864 4.50893C6.31188 5.89756 5.12066 7.04183 3.67025 7.04387C2.21228 7.04387 0.996229 5.89297 1.00001 4.50638C1.00379 3.14274 2.20256 2.00663 3.64595 2C4.35119 1.99919 5.02789 2.26305 5.52722 2.73355C6.02656 3.20405 6.30764 3.84266 6.30864 4.50893Z" fill="white"/>
</svg>
