<svg width="72px" height="73px" viewBox="0 0 72 73" fill="none" xmlns="http://www.w3.org/2000/svg" transform="rotate(0) scale(1, 1)">
<circle cx="36" cy="36.6519" r="36" fill="#eeb736"/>
<path d="M36.8688 25.3475C41.0428 24.4779 43.8254 20.8258 43.8254 16.6519C39.6515 17.5214 36.8688 21.1736 36.8688 25.3475ZM47.3036 37.5214C47.3036 34.391 49.0428 31.6084 51.6515 30.0432C49.9123 28.1301 47.3036 27.0866 44.6949 27.0866C41.5645 27.0866 40.1732 28.8258 36.8688 28.8258C33.5645 28.8258 32.1732 27.0866 29.0428 27.0866C25.9123 27.0866 19.4775 28.8258 19.4775 38.391C19.4775 47.9562 26.0862 56.6519 29.0428 56.6519C33.0428 56.6519 33.9123 54.9127 36.8688 54.9127C39.8254 54.9127 40.6949 56.6519 44.6949 56.6519C46.9558 56.6519 50.4341 51.6084 52.521 45.3475C49.3906 44.1301 47.3036 40.9997 47.3036 37.5214Z" stroke="#0b0c0d" stroke-width="1.25" stroke-linecap="round" stroke-linejoin="round"/>
</svg>