<svg width="118" height="69" viewBox="0 0 118 69" fill="none" xmlns="http://www.w3.org/2000/svg">
<path d="M59.2936 46.7432C59.0198 46.7432 58.8306 46.9423 58.8306 47.1977C58.8306 47.453 59.0097 47.647 59.2885 47.647C59.5674 47.647 59.7617 47.4496 59.7617 47.1977C59.7549 46.9423 59.5792 46.7432 59.2919 46.7432" fill="#0B0C0D"/>
<path d="M64.3192 46.7432C64.0438 46.7432 63.8545 46.9423 63.8545 47.1977C63.8545 47.453 64.037 47.647 64.3141 47.647C64.5913 47.647 64.7856 47.4496 64.7856 47.1977C64.7789 46.9423 64.6014 46.7432 64.3209 46.7432" fill="#0B0C0D"/>
<path d="M27.4444 48.9249C27.321 49.4832 27.2129 50.0075 27.1301 50.5096H27.1183C27.049 50.0126 26.9577 49.5019 26.8411 48.9606L26.3899 46.8516H25.5162L25.0228 48.9249C24.896 49.5036 24.7659 50.0483 24.6949 50.5301H24.678C24.6037 50.0756 24.4989 49.4917 24.3806 48.9317L23.9497 46.8533H23.0625L24.1778 51.4374H25.0752L25.6024 49.2823C25.7376 48.7598 25.8238 48.3172 25.9066 47.8235H25.9201C25.9725 48.3206 26.0553 48.7581 26.1685 49.2823L26.6417 51.4374H27.534L28.7541 46.8533H27.9125L27.441 48.9266L27.4444 48.9249Z" fill="#0B0C0D"/>
<path d="M31.1285 48.0502C30.9207 48.0502 30.7247 48.1047 30.5658 48.2C30.3934 48.2885 30.2515 48.4247 30.1501 48.5813H30.1383V46.6084H29.3018V51.4376H30.1383V49.4579C30.1383 49.3626 30.1416 49.2741 30.1704 49.2077C30.2599 48.9524 30.4881 48.7396 30.8142 48.7396C31.2739 48.7396 31.4479 49.0971 31.4479 49.5805V51.4376H32.2794V49.4835C32.2794 48.423 31.6913 48.0502 31.1285 48.0502Z" fill="#0B0C0D"/>
<path d="M37.1274 48.7579H37.1021L37.0751 48.123H36.3501C36.3704 48.4226 36.3788 48.7409 36.3788 49.1903V51.4355H37.2069V49.7197C37.2069 49.6278 37.2204 49.5375 37.2373 49.4627C37.3116 49.0899 37.5803 48.8311 37.9741 48.8311C38.0806 48.8311 38.1532 48.8464 38.2225 48.8584V48.0685C38.1532 48.0549 38.1059 48.0498 38.0248 48.0498C37.6733 48.0498 37.2897 48.2881 37.1258 48.7579" fill="#0B0C0D"/>
<path d="M45.935 47.4672C46.3153 47.4672 46.6093 47.5523 46.829 47.6443L47.0064 46.9787C46.8357 46.8919 46.4488 46.7744 45.9012 46.7744C44.5104 46.7744 43.4678 47.6868 43.4678 49.195C43.4678 50.5874 44.3499 51.5083 45.7931 51.5083C46.3372 51.5083 46.7698 51.4011 46.9676 51.2972L46.8307 50.6402C46.6161 50.7406 46.2646 50.8087 45.93 50.8087C44.9312 50.8087 44.3398 50.1635 44.3398 49.1558C44.3398 48.0528 45.0107 47.4672 45.935 47.4672Z" fill="#0B0C0D"/>
<path d="M48.3076 48.7579H48.2772L48.2484 48.123H47.5269C47.5471 48.4226 47.5573 48.7409 47.5573 49.1903V51.4355H48.3887V49.7197C48.3887 49.6278 48.4022 49.5375 48.4141 49.4627C48.4884 49.0899 48.7588 48.8311 49.1593 48.8311C49.259 48.8311 49.3334 48.8464 49.3993 48.8584V48.0685C49.3334 48.0549 49.286 48.0498 49.2032 48.0498C48.8517 48.0498 48.4681 48.2881 48.3076 48.7579Z" fill="#0B0C0D"/>
<path d="M57.5263 47.2734L56.7151 47.5118V48.1228H56.2437V48.7476H56.7151V50.3085C56.7151 50.7426 56.7979 51.0422 56.9737 51.2294C57.1292 51.403 57.3826 51.5103 57.6868 51.5103C57.9505 51.5103 58.1651 51.4694 58.2884 51.4252L58.2715 50.7868C58.1769 50.8124 58.1025 50.8243 57.9488 50.8243C57.6311 50.8243 57.5246 50.6132 57.5246 50.2149V48.7493H58.3138V48.1245H57.5246V47.2751L57.5263 47.2734Z" fill="#0B0C0D"/>
<path d="M59.7147 48.1221H58.8765V51.4346H59.7147V48.1221Z" fill="#0B0C0D"/>
<path d="M62.0647 49.8039C61.9751 50.1018 61.9008 50.3622 61.8433 50.6329H61.8214C61.7605 50.3639 61.6929 50.0967 61.5949 49.8039L61.0643 48.1221H60.1636L61.3871 51.4346H62.205L63.4606 48.1221H62.5835L62.0647 49.8039Z" fill="#0B0C0D"/>
<path d="M64.7369 48.1221H63.9004V51.4346H64.7369V48.1221Z" fill="#0B0C0D"/>
<path d="M66.5163 47.2734L65.7034 47.5118V48.1228H65.2319V48.7476H65.7034V50.3085C65.7034 50.7426 65.7845 51.0422 65.9637 51.2294C66.1174 51.403 66.3726 51.5103 66.6785 51.5103C66.9421 51.5103 67.1584 51.4694 67.2801 51.4252L67.2666 50.7868C67.1719 50.8124 67.0976 50.8243 66.9438 50.8243C66.6261 50.8243 66.5196 50.6132 66.5196 50.2149V48.7493H67.3105V48.1245H66.5196V47.2751L66.5163 47.2734Z" fill="#0B0C0D"/>
<path d="M69.404 49.8897C69.3432 50.1076 69.284 50.3527 69.2283 50.5434H69.2097C69.1607 50.3527 69.0965 50.1008 69.0255 49.8965L68.4307 48.1211H67.5215L68.7213 51.1613C68.7636 51.2413 68.7703 51.2923 68.7703 51.3247C68.7703 51.3655 68.7484 51.4115 68.7162 51.4745C68.603 51.7026 68.4188 51.8949 68.2617 51.9988C68.0961 52.1213 67.9169 52.1962 67.7767 52.232L67.9676 52.9367C68.1772 52.9112 68.5135 52.8005 68.8362 52.5094C69.2266 52.169 69.5325 51.6192 69.9837 50.3833L70.8083 48.1211H69.9144L69.4006 49.8897H69.404Z" fill="#0B0C0D"/>
<path d="M75.6144 48.6849H73.6896V46.8516H72.8564V51.4357H73.6896V49.4168H75.6144V51.4357H76.4424V46.8516H75.6144V48.6849Z" fill="#0B0C0D"/>
<path d="M93.2488 48.0498C92.7012 48.0498 92.343 48.3613 92.201 48.6201H92.1791L92.1385 48.123H91.4102C91.4287 48.4073 91.4355 48.7307 91.4355 49.1086V51.4372H92.272V49.4916C92.272 49.3929 92.2804 49.2958 92.3092 49.2175C92.3971 48.9673 92.6252 48.7307 92.9581 48.7307C93.4093 48.7307 93.5834 49.0899 93.5834 49.5665V51.4372H94.4131V49.4729C94.4131 48.4243 93.8216 48.0515 93.2488 48.0515" fill="#0B0C0D"/>
<path d="M96.3546 49.4558C95.9338 49.3078 95.7784 49.2039 95.7784 48.9945C95.7784 48.7852 95.9423 48.649 96.2397 48.649C96.5371 48.649 96.794 48.7579 96.9325 48.8379L97.0982 48.2473C96.9089 48.1434 96.5878 48.0498 96.2245 48.0498C95.4606 48.0498 94.979 48.5043 94.979 49.0899C94.974 49.478 95.241 49.832 95.8848 50.0533C96.2921 50.198 96.4239 50.3138 96.4239 50.5368C96.4239 50.7597 96.2617 50.9061 95.8983 50.9061C95.5975 50.9061 95.2393 50.7853 95.0517 50.6678L94.8945 51.2738C95.1345 51.41 95.4944 51.5104 95.8916 51.5104C96.7653 51.5104 97.23 51.0696 97.23 50.467C97.2232 49.9801 96.9461 49.6737 96.3529 49.4558" fill="#0B0C0D"/>
<path d="M79.0351 50.2729C79.0351 50.3291 79.0318 50.3955 79.0115 50.4585C78.9354 50.6951 78.6955 50.9129 78.3626 50.9129C78.0989 50.9129 77.8894 50.7614 77.8894 50.4363C77.8894 49.9342 78.4487 49.8048 79.0351 49.8184V50.2729ZM79.8463 49.4439C79.8463 48.7239 79.5421 48.0498 78.491 48.0498C77.9705 48.0498 77.5463 48.1945 77.2996 48.3409L77.4635 48.8839C77.6883 48.7392 78.0229 48.6388 78.3473 48.6388C78.9304 48.6388 79.0149 49.0013 79.0149 49.2175V49.272C77.8015 49.2669 77.0664 49.689 77.0664 50.5248C77.0664 51.0287 77.4365 51.5104 78.0989 51.5104C78.5248 51.5104 78.8695 51.3266 79.0723 51.0696H79.0909L79.145 51.4355H79.8936C79.8598 51.2296 79.8463 50.9402 79.8463 50.6406V49.4422V49.4439Z" fill="#0B0C0D"/>
<path d="M82.1107 50.8633C81.7592 50.8633 81.4617 50.6148 81.3789 50.2778C81.3603 50.2029 81.3536 50.1297 81.3536 50.048V49.5356C81.3536 49.4692 81.3671 49.3909 81.3874 49.3245C81.4668 48.9585 81.7845 48.7049 82.1292 48.7049C82.6616 48.7049 82.9455 49.1815 82.9455 49.7688C82.9455 50.4208 82.6328 50.8633 82.109 50.8633M82.4047 48.0479C81.9079 48.0479 81.5192 48.2589 81.2792 48.6317H81.264L81.2235 48.121H80.4951C80.5069 48.436 80.5188 48.79 80.5188 49.2258V52.7817H81.3502V51.0693H81.3637C81.5327 51.3348 81.8791 51.5102 82.2915 51.5102C83.0384 51.5102 83.7887 50.9331 83.7887 49.7348C83.7887 48.7032 83.1618 48.0496 82.403 48.0496" fill="#0B0C0D"/>
<path d="M85.857 50.8633C85.5072 50.8633 85.2098 50.6148 85.1287 50.2778C85.1101 50.2029 85.1033 50.1297 85.1033 50.048V49.5356C85.1033 49.4692 85.1152 49.3909 85.1354 49.3245C85.2149 48.9585 85.5359 48.7049 85.879 48.7049C86.4113 48.7049 86.6952 49.1815 86.6952 49.7688C86.6952 50.4208 86.3826 50.8633 85.857 50.8633ZM86.1561 48.0479C85.6576 48.0479 85.2689 48.2589 85.029 48.6317H85.0154L84.9732 48.121H84.2432C84.2584 48.436 84.2753 48.79 84.2753 49.2258V52.7817H85.105V51.0693H85.1168C85.2858 51.3348 85.6306 51.5102 86.0446 51.5102C86.7898 51.5102 87.5418 50.9331 87.5418 49.7348C87.5418 48.7032 86.9132 48.0496 86.1578 48.0496" fill="#0B0C0D"/>
<path d="M88.742 49.4286C88.7775 49.0899 88.9921 48.6201 89.5075 48.6201C90.0584 48.6201 90.197 49.1222 90.1886 49.4286H88.742ZM89.5532 48.0498C88.4987 48.0498 87.9478 48.9128 87.9478 49.8303C87.9478 50.8432 88.573 51.5104 89.641 51.5104C90.1125 51.5104 90.5063 51.4134 90.7868 51.2994L90.6685 50.7223C90.4184 50.8193 90.1412 50.8721 89.7559 50.8721C89.2304 50.8721 88.7623 50.6134 88.742 50.0142H90.9439C90.9575 49.9393 90.971 49.8184 90.971 49.6601C90.971 48.9316 90.6229 48.0498 89.5515 48.0498" fill="#0B0C0D"/>
<path d="M33.5479 49.4286C33.58 49.0899 33.798 48.6201 34.3134 48.6201C34.8643 48.6201 34.9978 49.1222 34.9944 49.4286H33.5479ZM34.3574 48.0498C33.3045 48.0498 32.752 48.9128 32.752 49.8303C32.752 50.8432 33.3772 51.5104 34.4452 51.5104C34.9167 51.5104 35.3105 51.4134 35.5927 51.2994L35.471 50.7223C35.2226 50.8193 34.9438 50.8721 34.5618 50.8721C34.0329 50.8721 33.5682 50.6134 33.5479 50.0142H35.7515C35.7667 49.9393 35.7752 49.8184 35.7752 49.6601C35.7752 48.9316 35.4338 48.0498 34.3574 48.0498Z" fill="#0B0C0D"/>
<path d="M39.2432 49.4286C39.277 49.0899 39.4933 48.6201 40.0053 48.6201C40.5579 48.6201 40.6948 49.1222 40.6864 49.4286H39.2432ZM40.0527 48.0498C38.9999 48.0498 38.4473 48.9128 38.4473 49.8303C38.4473 50.8432 39.0742 51.5104 40.1405 51.5104C40.6137 51.5104 41.0041 51.4134 41.2914 51.2994L41.1663 50.7223C40.9179 50.8193 40.6408 50.8721 40.2588 50.8721C39.7316 50.8721 39.2652 50.6134 39.2432 50.0142H41.4468C41.4587 49.9393 41.4705 49.8184 41.4705 49.6601C41.4705 48.9316 41.1258 48.0498 40.0527 48.0498Z" fill="#0B0C0D"/>
<path d="M50.4233 49.4286C50.4538 49.0899 50.6718 48.6201 51.1855 48.6201C51.7381 48.6201 51.875 49.1222 51.8648 49.4286H50.4233ZM51.2311 48.0498C50.1783 48.0498 49.624 48.9128 49.624 49.8303C49.624 50.8432 50.251 51.5104 51.319 51.5104C51.7905 51.5104 52.1825 51.4134 52.4664 51.2994L52.3448 50.7223C52.0947 50.8193 51.8175 50.8721 51.4339 50.8721C50.9067 50.8721 50.4402 50.6134 50.4233 50.0142H52.6236C52.6354 49.9393 52.6472 49.8184 52.6472 49.6601C52.6472 48.9316 52.3059 48.0498 51.2311 48.0498Z" fill="#0B0C0D"/>
<path d="M54.9946 50.2729C54.9946 50.3291 54.9861 50.3955 54.9658 50.4585C54.8932 50.6951 54.6498 50.9129 54.3169 50.9129C54.0533 50.9129 53.8437 50.7614 53.8437 50.4363C53.8437 49.9342 54.4048 49.8048 54.9946 49.8184V50.2729ZM55.8007 49.4439C55.8007 48.7239 55.4998 48.0498 54.447 48.0498C53.9266 48.0498 53.5007 48.1945 53.2574 48.3409L53.4196 48.8839C53.641 48.7392 53.9806 48.6388 54.3051 48.6388C54.8864 48.6388 54.976 49.0013 54.976 49.2175V49.272C53.7593 49.2669 53.0225 49.689 53.0225 50.5248C53.0225 51.0287 53.3942 51.5104 54.0567 51.5104C54.4808 51.5104 54.8273 51.3266 55.0284 51.0696H55.0486L55.101 51.4355H55.853C55.8159 51.2296 55.8023 50.9402 55.8023 50.6406V49.4422L55.8007 49.4439Z" fill="#0B0C0D"/>
<path d="M49.5326 24.3067C49.896 24.2335 50.2796 24.2914 50.5246 24.4139C50.7696 24.5314 50.9437 24.7595 50.9995 25.0387C51.0096 25.0846 51.013 25.1323 51.0214 25.1799C51.0586 25.6225 50.8693 26.0634 50.5026 26.5077C50.1714 26.9145 49.8098 27.163 49.4177 27.2022C49.3315 27.2124 49.2504 27.209 49.1625 27.1971C48.9564 27.1664 48.7688 27.0422 48.5728 26.8617C48.4156 26.7153 48.3227 26.5111 48.2736 26.2813C48.2618 26.2217 48.25 26.1621 48.25 26.1008C48.2145 25.7451 48.3091 25.3825 48.5119 25.0404C48.7519 24.6369 49.1118 24.3969 49.5343 24.3084" fill="#0B0C0D"/>
<path d="M97.9282 47.7093H97.6899V47.5391H98.3743V47.7093H98.1327V48.431H97.9282V47.7093Z" fill="#0B0C0D"/>
<path d="M99.2227 48.0889C99.2194 47.985 99.216 47.8523 99.216 47.7229H99.2109C99.1856 47.837 99.1467 47.9663 99.1129 48.0685L99.003 48.4174H98.8493L98.7529 48.0736C98.7259 47.9663 98.6955 47.8404 98.6718 47.7229C98.6651 47.8455 98.6617 47.9833 98.6549 48.0923L98.6363 48.431H98.4521L98.5079 47.5391H98.7783L98.8611 47.837C98.8898 47.9408 98.9152 48.0548 98.9371 48.157H98.9439C98.9676 48.0548 98.998 47.9357 99.0284 47.837L99.123 47.5391H99.3833L99.4323 48.431H99.2346L99.221 48.0889H99.2227Z" fill="#0B0C0D"/>
<path d="M106.236 32.9343C103.961 31.6968 102.979 30.6584 103.631 29.5094C104.01 28.8405 104.684 28.6771 105.24 28.7026C106.026 28.7349 106.376 29.009 106.753 29.8618C106.802 29.9656 106.869 30.0133 106.95 29.9997C107.238 29.9605 107.402 29.649 107.375 29.2065C107.346 28.8149 107.212 28.4405 106.964 28.1766C106.467 27.6472 105.845 27.4004 105.056 27.4004C103.579 27.4004 102.423 28.4081 102.158 29.586C101.686 31.6525 103.674 32.8424 105.01 33.5676C106.501 34.3795 107.86 35.8264 107.079 37.3942C106.119 39.3211 104.177 39.876 102.05 39.5373C99.1685 39.0759 99.2935 37.3329 99.5064 36.9907C99.8157 36.4937 99.8343 35.6868 99.5166 35.5217C98.7815 35.1336 98.2965 35.8536 98.1697 36.555C98.0481 37.2512 98.1697 39.9713 101.725 40.7731C103.488 41.168 107.486 41.0607 108.892 38.7032C110.433 36.109 108.588 34.2127 106.236 32.9343Z" fill="#0B0C0D"/>
<path d="M47.0065 43.939C46.7074 43.8471 45.1256 43.2258 44.3837 41.6342C43.6216 39.995 43.2853 37.8808 43.2853 35.4279C43.2853 33.9351 43.4171 32.129 43.745 29.9059C44.3297 25.8921 45.6241 22.823 45.6241 20.382C45.6241 19.25 45.467 18.1384 44.742 17.5512C44.1962 17.1001 43.2718 16.8209 42.4505 16.8005C40.328 16.7426 37.2304 18.5912 34.6347 22.8757C32.9955 25.5771 30.846 31.6303 30.5131 33.7376C30.3728 32.7708 29.9824 27.7917 28.7437 23.9413C26.6246 17.3316 23.8667 16.0907 22.4472 16.1247C19.9107 16.1894 17.3505 19.5479 16.2858 23.6724C15.6487 26.1355 15.1063 29.1637 14.7598 32.9103C13.9707 31.3051 13.4012 30.2004 13.0243 29.608C11.8921 27.8428 10.7717 26.7738 9.61073 26.6325C9.32683 26.5985 8.92801 26.5747 8.62045 26.7772C8.53088 26.8351 8.41259 26.8964 8.37034 27.0615C8.32472 27.2164 8.38893 27.3951 8.60017 27.487C9.37752 27.8241 10.672 29.0871 11.8786 31.5452C12.7489 33.3138 13.2271 34.8645 13.6732 36.3267C14.3053 38.4119 14.6585 40.315 15.74 40.2759C16.1354 40.2605 16.4497 40.1567 16.59 39.8809C16.808 39.4401 16.7556 38.4647 16.7353 37.9659C16.7049 37.2476 16.5292 34.9241 16.519 33.5316C16.5021 30.8915 16.7979 27.6641 17.5414 24.263C18.0061 22.1353 19.8126 17.9291 21.8101 17.9478C24.5984 17.878 25.9301 21.5071 26.9034 25.1193C27.6115 27.7611 28.399 31.9435 29.1628 36.439C29.2169 36.9106 29.3234 37.2834 29.5076 37.5642C29.6901 37.8417 29.9841 38.0034 30.3052 37.9983C30.3255 37.9983 30.3525 37.9983 30.3779 37.9949C30.7801 37.971 31.1282 37.7395 31.358 37.36C31.5862 36.9804 31.7197 36.5191 31.8498 35.8739C32.7522 31.506 33.2068 28.6037 35.9157 23.6332C36.7082 22.1778 37.3403 21.4016 38.3356 20.5658C39.3293 19.73 40.3973 19.2636 41.151 19.1683C42.1007 19.0491 43.3631 19.1325 43.5591 21.4663C43.7433 23.6707 41.9621 28.6395 41.6579 33.7427C41.4788 36.7233 41.4923 41.0759 43.2752 43.682C44.23 45.0676 45.6495 45.4625 46.8257 45.1698C47.0082 45.1238 47.1704 44.9961 47.2802 44.8497C47.3867 44.7033 47.4678 44.5178 47.412 44.3033C47.363 44.1246 47.2109 44.0071 47.0065 43.939Z" fill="#0B0C0D"/>
<path d="M101.34 44.1771C101.237 44.143 101.129 44.1294 101.002 44.1311C100.83 44.1311 100.533 44.0579 100.176 43.8417C99.4578 43.4145 98.6365 42.2297 97.7949 40.3147C97.1967 38.9512 96.7185 37.6082 96.3771 36.2822C95.6775 33.5654 95.2567 31.1006 95.1012 28.8928C94.7937 24.5317 95.5457 21.2073 97.288 18.8667C97.9893 17.9186 98.6247 17.4624 99.1451 17.4317C99.4966 17.4113 99.7282 17.5253 99.9276 17.842C100.132 18.1586 100.279 18.6948 100.326 19.4437C100.389 20.4974 100.494 22.9861 99.5913 25.9428C99.0725 27.6502 98.3272 29.572 97.1612 31.6419C96.9719 31.9823 96.8317 32.2394 96.8536 32.5339C96.8655 32.6854 97.0007 32.8488 97.195 32.8522C97.4079 32.859 97.5735 32.619 97.7307 32.3313C98.9069 30.2801 99.6623 28.8519 100.036 28.0519C101.851 24.1913 102.702 21.1732 102.542 18.9484C102.476 17.973 102.233 17.2257 101.783 16.727C101.34 16.2231 100.691 16.0138 99.9174 16.0733C98.7936 16.1585 97.6547 16.7832 96.5224 17.9339C93.9555 20.5366 92.9111 24.8023 93.3218 30.6903C93.4215 32.0879 93.609 33.4275 93.8862 34.7144C92.3028 37.8125 90.552 39.3632 88.7692 39.4908C87.8955 39.547 87.032 39.2645 86.4168 38.5274C85.8034 37.7954 85.4418 36.7554 85.3454 35.3749C85.3032 34.7791 85.3083 34.1118 85.3911 33.4241C85.5432 32.0828 85.9031 31.087 86.3847 30.3601C86.8326 29.686 87.8955 29.012 88.5529 29.5533C89.0886 29.9941 88.7354 31.024 88.4295 31.4989C87.7823 32.4998 87.5271 32.8232 86.863 33.3696C86.6365 33.5569 86.4168 33.6607 86.28 33.8105C86.1465 33.9535 86.0687 34.059 86.0535 34.3093C86.0501 34.408 86.1346 34.5204 86.2225 34.568C86.4219 34.6821 86.7345 34.5561 86.9576 34.471C87.9445 34.1016 88.9973 33.3407 89.9538 31.5959C90.5503 30.5065 90.8816 28.3719 89.5938 27.6961C87.4358 26.5625 85.6293 28.3651 84.9111 29.4835C84.0865 30.7721 83.495 32.8096 83.5575 34.7399C83.5677 35.1366 83.6082 35.5196 83.6623 35.8906C83.3632 36.277 83.0134 36.7281 82.8681 36.8881C82.2935 37.4975 81.7662 37.7818 81.5736 37.7733C81.5094 37.7733 81.3843 37.7222 81.3302 37.6661C81.0447 37.3597 80.9754 36.8898 80.9754 35.8992C80.972 35.6608 81.0632 34.8761 81.1883 33.9314C81.2728 33.2641 81.3387 32.7824 81.3387 32.4487C81.3353 32.2972 81.3286 32.1764 81.2812 32.0623C81.1393 31.6436 80.8757 31.4138 80.4008 31.4138C79.9986 31.4104 79.6302 31.5636 79.3159 32.0896C77.6361 34.8999 76.5191 36.5017 75.8296 37.2405C74.8698 38.2652 74.1076 38.6925 73.6649 38.7265C73.4283 38.7453 73.2711 38.6534 73.19 38.4967C72.9484 38.0286 73.0396 37.2371 73.0869 36.9222C73.3421 35.2063 73.9217 33.5739 74.7616 32.1253C75.7451 30.4282 76.9145 29.463 78.0062 29.3081C78.7802 29.2009 79.5237 29.6248 80.2284 30.5882C80.3163 30.7312 80.416 30.7925 80.536 30.7772C80.9247 30.721 81.0666 30.3346 80.9754 29.6145C80.9483 29.4103 80.8841 29.1941 80.7844 28.9762C80.3636 28.0349 79.86 27.4595 78.7143 27.4953C76.8368 27.5531 75.0303 29.3354 73.3404 32.0845C71.8584 34.4948 71.0979 36.4779 71.0996 38.0695C71.0996 38.7163 71.2331 39.2287 71.5424 39.5964C71.8465 39.959 72.3096 40.136 72.8672 40.1309C73.9572 40.1224 75.1959 39.3002 76.6695 37.7529C77.5567 36.8252 78.2445 35.9689 78.7413 35.1791C78.7481 35.3493 78.7498 35.5179 78.765 35.6881C78.8393 36.4694 78.9813 37.2507 79.4731 37.9197C79.762 38.3146 80.5022 38.7793 81.3066 38.781C82.2563 38.781 83.4122 38.0082 84.0206 37.3222C84.2656 38.015 84.6036 38.6227 85.0311 39.113C85.942 40.1649 87.1655 40.645 88.6137 40.5394C89.9724 40.4322 91.3699 39.787 92.6695 38.5036C93.2711 37.9078 93.8372 37.1162 94.3053 36.3673C94.503 37.072 94.7311 37.758 94.9897 38.4236C95.958 40.9377 97.2001 42.7795 98.6956 43.9898C99.5034 44.6452 100.25 44.9754 100.942 44.9243C101.019 44.9209 101.097 44.9073 101.175 44.8903C101.29 44.8648 101.376 44.8324 101.452 44.7797C101.528 44.732 101.616 44.6197 101.606 44.4818C101.606 44.4579 101.601 44.4307 101.59 44.4035C101.546 44.2707 101.437 44.2009 101.344 44.1703" fill="#0B0C0D"/>
<path d="M72.2061 44.179C71.9323 44.0326 71.6518 43.9611 71.356 43.6769C71.0586 43.3926 70.7308 42.8904 70.4553 41.8555C70.3303 41.3584 70.1731 40.5567 70.141 39.503C70.1106 38.4595 70.2086 37.1744 70.5618 35.7053C71.1026 33.4737 71.9712 31.5587 71.9407 30.2616C71.9323 29.8259 71.7988 29.4344 71.4862 29.1654C71.1414 28.8675 70.6412 28.7296 70.0751 28.7484C68.6826 28.796 66.8085 29.7629 65.3518 31.9809C64.1486 33.8227 63.5234 35.4858 63.1955 36.616C63.1313 34.3589 63.4896 31.877 64.2618 29.1603C64.779 27.3423 66.3303 23.4885 67.3054 21.325C67.6923 20.4568 67.9847 19.7998 68.1756 19.3385C68.2787 19.1138 68.3497 18.9367 68.4004 18.8057C68.4258 18.741 68.4443 18.6916 68.4579 18.6474C68.4714 18.598 68.4849 18.5844 68.4866 18.5027L68.4748 18.4329C68.3058 17.929 67.8749 17.6533 67.3493 17.6686C67.2411 17.6686 67.0992 17.7077 66.9927 17.7401C66.3928 17.929 65.9044 18.5605 65.3755 19.7674C64.8364 21.0015 63.4913 24.6647 62.915 27.0359C62.4131 29.1143 62.0734 30.9868 61.896 32.6703C61.8808 32.7094 61.869 32.7537 61.8571 32.8133C61.4532 34.6364 60.1892 36.6297 59.449 37.3122C58.3388 38.3353 57.286 38.8187 56.0929 38.8187C55.6366 38.8187 55.2057 38.7319 54.8964 38.417C54.5618 38.0851 54.2255 37.4944 54.1664 36.7216C54.0667 35.5045 54.3151 34.0559 54.9336 32.5596C55.3189 31.62 55.8985 30.8115 56.3531 30.3621C56.8094 29.9144 57.362 29.6573 57.7997 29.7408C57.9399 29.7663 58.1985 29.9297 58.4317 30.2429C58.7072 30.6055 59.0401 30.8489 59.4135 30.9C59.4642 30.9068 59.5115 30.9068 59.5589 30.9068C59.8495 30.9068 60.1115 30.8217 60.2703 30.631C60.4342 30.4387 60.4782 30.1867 60.4511 29.894C60.4478 29.7918 60.4292 29.688 60.4038 29.5739C60.3007 29.0769 60.0608 28.6684 59.6738 28.396C59.2952 28.1219 58.79 27.9977 58.2002 27.9994C56.316 28.0062 54.3523 29.8786 53.3553 31.5485C52.5914 32.8337 52.1791 34.2193 52.0185 35.4007C51.7718 36.3811 51.5403 37.3718 51.0908 38.0016C50.3354 39.0672 49.5513 39.52 48.9886 39.5694C48.6725 39.5966 48.4478 39.5115 48.2366 39.297C48.0304 39.0792 47.8513 38.7098 47.7313 38.1787C47.3426 35.9181 47.9949 33.6508 48.4039 32.4132C48.8669 31.014 49.2387 30.2344 49.2488 29.8105C49.2556 29.7203 49.2488 29.6216 49.242 29.5297C49.2116 29.0752 48.9717 28.7075 48.5796 28.5696C48.3548 28.4777 48.1368 28.4403 47.9239 28.4607C47.5572 28.493 47.253 28.7296 47.0215 29.082C46.6396 29.6556 46.3844 30.2242 46.2137 30.7689C45.6409 32.575 45.0697 35.0943 45.6747 37.5301C46.0025 38.8511 46.7224 39.7175 47.6417 40.1635C48.054 40.3626 48.6962 40.4631 49.2454 40.3558C50.7292 40.0596 51.7499 38.9106 52.2822 38.3132C52.4782 38.7966 52.7486 39.1966 53.1035 39.5064C53.6375 39.9745 54.3506 40.2043 55.182 40.2043H55.1922C56.3633 40.2043 57.7017 39.7294 58.9623 38.8272C60.1351 37.9914 61.0477 36.9667 61.749 35.9386C61.7828 36.8646 61.8926 37.6289 62.0498 38.3966C62.1224 38.7387 62.2711 39.1609 62.4722 39.389C62.67 39.6154 62.8508 39.7652 63.1482 39.7396C63.3206 39.7226 63.4456 39.6545 63.5436 39.5609C63.7447 39.3651 63.8005 39.0451 63.9256 38.5038C64.1959 37.3344 65.411 34.3112 66.3793 32.815C67.2259 31.5026 68.2517 30.7349 69.2099 30.7195C69.4127 30.7161 69.6154 30.7757 69.7304 30.9153C69.8436 31.0515 69.9534 31.4328 69.9703 31.8515C70.0328 33.8193 68.8854 37.474 68.9817 40.7337C69.0071 41.6155 69.1288 42.4683 69.3805 43.2632C69.8453 44.6914 70.7764 45.374 71.7261 45.3314C71.9171 45.3246 72.1064 45.2531 72.2466 45.134C72.3818 45.0199 72.5102 44.8599 72.5085 44.6403C72.5018 44.4514 72.3767 44.2829 72.201 44.1841" fill="#0B0C0D"/>
<path d="M108.85 27.9545H108.924C109.012 27.9545 109.078 27.9255 109.078 27.8557C109.078 27.791 109.036 27.7502 108.934 27.7502C108.895 27.7502 108.863 27.7553 108.848 27.7587V27.9545H108.85ZM108.845 28.3341H108.689V27.6617C108.752 27.6498 108.838 27.6378 108.948 27.6378C109.075 27.6378 109.13 27.6566 109.181 27.6889C109.218 27.7179 109.247 27.774 109.247 27.8336C109.247 27.9119 109.191 27.9715 109.107 27.9919V28.0021C109.171 28.0243 109.208 28.0787 109.23 28.1689C109.249 28.2711 109.259 28.3136 109.279 28.3341H109.112C109.09 28.3102 109.078 28.2489 109.061 28.174C109.046 28.0992 109.005 28.0668 108.917 28.0668H108.845V28.3341ZM108.948 27.4421C108.654 27.4421 108.432 27.6889 108.432 27.9834C108.432 28.2779 108.652 28.5247 108.958 28.5247C109.249 28.5281 109.467 28.2847 109.467 27.9834C109.467 27.6821 109.249 27.4421 108.951 27.4421H108.946H108.948ZM108.96 27.3076C109.343 27.3076 109.642 27.6072 109.642 27.9834C109.642 28.3596 109.343 28.6643 108.953 28.6643C108.563 28.6643 108.262 28.3681 108.262 27.9834C108.262 27.5987 108.568 27.3076 108.953 27.3076H108.96Z" fill="#0B0C0D"/>
</svg>
