<svg width="72px" height="73px" viewBox="0 0 72 73" fill="none" xmlns="http://www.w3.org/2000/svg" transform="rotate(0) scale(1, 1)">
<g clip-path="url(#clip0_693_1817)">
<path d="M36 72.6519C55.8823 72.6519 72 56.5342 72 36.6519C72 16.7697 55.8823 0.651917 36 0.651917C16.1177 0.651917 0 16.7697 0 36.6519C0 56.5342 16.1177 72.6519 36 72.6519Z" fill="#eeb736"/>
</g>
<path d="M24.4858 21.0552C23.4227 21.2844 22.3198 21.3349 21.3271 21.8674C19.2045 23.0154 17.8255 24.8221 16.7155 26.9213C14.508 31.0726 13.5333 35.585 12.9449 40.1949C12.62 42.7435 12.4811 45.3065 12.9305 47.8641C13.0929 48.79 13.2915 49.7304 13.8546 50.4668C15.0531 52.0317 16.2191 52.3891 18.163 51.8133C20.5095 51.1184 22.4498 49.6817 24.2999 48.133C25.3323 47.2703 26.3106 46.3407 27.3791 45.5285C29.527 43.8932 32.0467 43.2543 34.6801 43.0016C37.8659 42.6875 40.9812 43.0016 43.9738 44.1784C45.6795 44.8534 46.9574 46.1458 48.3057 47.3262C50.3056 49.0644 52.365 50.7195 54.8901 51.6581C58.0398 52.8331 59.8917 51.4776 60.5685 48.5897C61.0901 46.357 61.0613 44.1098 60.8862 41.8193C60.6726 39.0147 60.2026 36.2355 59.4819 33.5166C58.6462 30.3579 57.5506 27.3184 55.5381 24.6561C53.6736 22.1887 51.3669 20.9397 48.21 21.214C45.8636 21.4198 43.602 21.9992 41.362 22.6219C38.0301 23.5514 34.7866 23.3439 31.5142 22.4215C29.2382 21.7826 26.9333 21.2537 24.567 21.0588" stroke="#000000" stroke-width="1.17041" stroke-linecap="round" stroke-linejoin="round"/>
<path d="M25.0259 39.1047C26.5529 38.9964 27.4229 38.1318 27.6232 36.6644C27.7225 35.9334 28.1268 35.7475 28.726 35.6753C29.3369 35.6189 29.9055 35.3391 30.3228 34.8894C30.7402 34.4398 30.9769 33.852 30.9876 33.2386C31.0255 32.1845 29.957 30.7459 28.726 30.7965C28.069 30.8236 27.7387 30.4896 27.6286 29.811C27.4481 28.728 26.9951 27.793 25.8363 27.4645C24.1613 26.9989 22.8509 28.0782 22.6127 29.6305C22.4936 30.4084 22.212 30.7676 21.4178 30.8109C19.9847 30.8903 19.2519 31.8939 19.1959 33.2386C19.1825 33.8353 19.3947 34.4152 19.7903 34.8622C20.1858 35.3093 20.7354 35.5906 21.3294 35.65C22.1398 35.7312 22.5098 35.9767 22.6163 36.8431C22.7787 38.1444 23.6325 38.8935 24.9356 39.1029" stroke="#000000" stroke-width="1.17041" stroke-linecap="round" stroke-linejoin="round"/>
<path d="M43.3687 35.3883C44.541 35.3883 45.4913 34.438 45.4913 33.2657C45.4913 32.0934 44.541 31.1431 43.3687 31.1431C42.1964 31.1431 41.2461 32.0934 41.2461 33.2657C41.2461 34.438 42.1964 35.3883 43.3687 35.3883Z" stroke="#000000" stroke-width="1.17041" stroke-linecap="round" stroke-linejoin="round"/>
<path d="M52.2125 35.3883C53.3848 35.3883 54.3351 34.438 54.3351 33.2657C54.3351 32.0934 53.3848 31.1431 52.2125 31.1431C51.0402 31.1431 50.0898 32.0934 50.0898 33.2657C50.0898 34.438 51.0402 35.3883 52.2125 35.3883Z" stroke="#000000" stroke-width="1.17041" stroke-linecap="round" stroke-linejoin="round"/>
<path d="M47.7828 30.986C48.9551 30.986 49.9054 30.0357 49.9054 28.8634C49.9054 27.6911 48.9551 26.7408 47.7828 26.7408C46.6105 26.7408 45.6602 27.6911 45.6602 28.8634C45.6602 30.0357 46.6105 30.986 47.7828 30.986Z" stroke="#000000" stroke-width="1.17041" stroke-linecap="round" stroke-linejoin="round"/>
<path d="M47.7828 39.7257C48.9551 39.7257 49.9054 38.7754 49.9054 37.6031C49.9054 36.4308 48.9551 35.4805 47.7828 35.4805C46.6105 35.4805 45.6602 36.4308 45.6602 37.6031C45.6602 38.7754 46.6105 39.7257 47.7828 39.7257Z" stroke="#000000" stroke-width="1.17041" stroke-linecap="round" stroke-linejoin="round"/>
<defs>
<clipPath id="clip0_693_1817">
<rect width="72" height="73" fill="#ffffff"/>
</clipPath>
</defs>
</svg>