<svg width="48" height="48" viewBox="0 0 48 48" fill="none" xmlns="http://www.w3.org/2000/svg">
<path d="M32.9245 21.7398C32.7999 20.1282 32.4206 18.5741 31.893 17.0517C30.8001 13.6523 29.0463 10.6438 26.5759 8.05518C25.9514 7.40045 25.2567 6.80057 24.8211 5.9857C24.5455 5.47027 24.2831 4.94777 24.0146 4.4283L23.8445 4C23.8158 4.09824 23.7976 4.13323 23.7966 4.16856C23.7747 5.01539 23.2943 5.5897 22.696 6.12566C22.0233 6.72891 21.397 7.38363 20.7505 8.01581C20.0875 8.88653 19.4249 9.75725 18.7626 10.6276C18.2262 11.6117 17.6906 12.5958 17.1549 13.5799L16.0803 16.4791L16.0479 16.5242C15.4564 18.4648 15.1646 20.4599 15.0211 22.4752C14.9672 23.2326 15.0285 24.001 15.0713 24.7624C15.1323 25.8508 15.3216 26.9207 15.6056 27.9738C16.6372 31.7998 18.7306 34.9735 21.5924 37.6698C22.1243 38.1707 22.6701 38.6263 23.2253 39.103C23.3203 38.7784 23.3961 38.4537 23.4823 38.129C23.5686 37.8057 23.6558 37.4841 23.7141 37.1597C23.6555 37.4841 23.5898 37.8057 23.5248 38.129L23.2465 39.103L23.4951 39.9445L23.7256 41.2512L23.8354 42.6149C23.8344 42.8917 23.8232 43.1693 23.8401 43.4459C23.8441 43.5165 23.9371 43.5818 23.989 43.6498L24.4525 43.8123L24.9356 44L24.8528 42.7878L24.8491 41.5941L25.0158 39.7756L25.1368 39.3796L25.4827 38.7673C25.9099 38.4241 26.3684 38.1125 26.7575 37.7307C27.4616 37.0396 28.164 36.3398 28.794 35.5831C29.6116 34.6017 30.315 33.5305 30.8796 32.3815C31.2576 31.6131 31.6134 30.8292 31.9078 30.0261C32.1672 29.3182 32.3279 28.5743 32.5324 27.8462C32.5506 27.7938 32.5748 27.7423 32.5863 27.6888C33.0088 25.7236 33.0798 23.7386 32.9245 21.7398Z" fill="#0B0C0D"/>
</svg>
