<svg width="48" height="48" viewBox="0 0 48 48" fill="none" xmlns="http://www.w3.org/2000/svg">
<path d="M20.2634 28.6901C20.2747 28.6901 20.2634 33.8395 20.2634 33.862C20.2747 35.1353 18.6884 35.4034 17.9624 35.4257H13.3603V34.4428L13.4939 34.4431C14.2495 34.4448 17.9525 34.4527 17.9624 34.4428C18.9007 34.3534 18.789 33.8843 18.789 33.7278V33.348H15.6949C14.2538 33.3257 13.3377 32.7001 13.3267 31.974C13.3267 31.9072 13.3603 28.7346 13.3267 28.7011H14.7788V31.8736C14.7678 32.0524 14.8346 32.4545 15.639 32.4655C16.0411 32.4768 18.7778 32.4655 18.8001 32.4655V28.6901H20.2634ZM33.802 26.6792C33.936 26.6792 34.0589 26.6792 34.2041 26.7017C35.4216 26.8692 36.0472 27.4055 36.0472 28.288V31.7507C36.0472 32.4655 35.7791 32.8453 35.1758 33.0911L36.6168 34.387H34.9189L33.7572 33.348L32.5843 33.4151H31.0318C30.7637 33.4151 30.4843 33.3815 30.1716 33.2922C29.2445 33.0466 28.7976 32.5549 28.7976 31.7507V28.288C28.7976 27.4055 29.412 26.8692 30.6408 26.7017C30.7637 26.6792 30.9089 26.6792 31.0318 26.6792H33.802ZM11.4277 26.6682C11.8602 26.8053 12.0834 27.0521 12.1069 27.5496L12.109 27.6401V33.3928H10.6569V27.6288L8.40041 32.6555C8.13253 33.2586 7.77502 33.4709 7.06 33.4709C6.37771 33.4709 6.02095 33.2775 5.75672 32.7353L5.71958 32.6555L3.46335 27.6288V33.3928H2V27.6401C2 27.0815 2.22332 26.8134 2.69249 26.6682C3.76146 26.3335 4.50689 26.604 4.84803 27.2986L4.88188 27.3719L7.0267 32.3205L9.23836 27.3719C9.57334 26.6234 10.3219 26.3219 11.4277 26.6682ZM27.9264 26.6569V27.6288H23.7599C23.7151 27.6288 23.6593 27.6401 23.6147 27.6401C23.1007 27.6846 22.9445 27.774 22.8774 28.0757C22.8699 28.1054 22.8674 28.1302 22.8665 28.1567L22.8661 28.1986V28.8576C22.8661 28.9021 22.8661 28.947 22.8774 28.9915C22.9408 29.3608 23.1933 29.5408 23.7199 29.5597L23.8157 29.5613H25.5805C26.0161 29.5613 26.463 29.6284 26.8316 29.7736C27.4772 30.017 27.832 30.3907 27.8676 30.7808L27.8705 30.8459V31.9182C27.8705 32.4322 27.5576 32.823 26.9322 33.1134C26.5904 33.2743 26.167 33.3719 25.7275 33.3898L25.5805 33.3928H21.3918V32.4209H25.413C25.4689 32.4209 25.5137 32.4097 25.5695 32.4097C25.8486 32.3874 26.061 32.3205 26.1839 32.2086C26.3109 32.1109 26.378 31.9962 26.3928 31.9016L26.3959 31.8624V31.0134C26.3959 30.913 26.3624 30.8347 26.2843 30.7453C26.1391 30.5778 25.949 30.4997 25.4801 30.4549C25.4353 30.4438 25.3795 30.4438 25.3236 30.4438H23.8157C23.6705 30.4438 23.5363 30.4326 23.3911 30.4326C22.1927 30.3031 21.4532 29.7769 21.4053 29.1465L21.4028 29.0809V28.2319C21.4028 27.4836 21.7826 27.0592 22.6538 26.7798C22.9133 26.7073 23.1917 26.6635 23.7042 26.6576L23.8268 26.6569H27.9264ZM38.4154 26.6569V31.6949C38.4154 32.1881 38.714 32.4035 39.4987 32.4199L39.5993 32.4209H43.4196V33.3928H39.6216C39.4877 33.3928 39.3425 33.3816 39.2085 33.3703C37.7461 33.262 37.0085 32.7335 36.9651 31.785L36.9631 31.6949V26.6569H38.4154ZM44.5925 32.4209V32.5884H44.3021V33.3928H44.0898V32.5884H43.7993V32.4209H44.5925ZM45.1062 32.4209L45.3633 33.0911L45.6202 32.4209H45.9106V33.3928H45.7206V32.6555H45.7096L45.4302 33.3928H45.285L45.0058 32.6555V33.3928H44.8048V32.4209H45.1062ZM33.6456 27.6511H31.4339C30.786 27.6511 30.3726 27.9305 30.3726 28.3661V31.6613C30.3726 31.7172 30.3839 31.762 30.3949 31.8178C30.4843 32.2199 30.8641 32.4432 31.4339 32.4432H32.763L31.5456 31.3486H33.2435L34.3045 32.298C34.4945 32.1976 34.6285 32.0411 34.6733 31.8401C34.6843 31.7843 34.6843 31.7394 34.6843 31.6949V28.3661C34.6843 28.3326 34.6843 28.288 34.6733 28.2432C34.5839 27.8634 34.2041 27.6511 33.6456 27.6511ZM32.3945 13.275C32.562 13.3754 32.7408 13.5877 32.9083 13.6548C33.1877 13.6771 33.4668 13.6881 33.7462 13.7106C34.2712 13.8336 34.7627 13.934 35.1758 14.1685C37.1083 15.2967 38.3483 16.4473 39.51 18.3463C39.7445 18.7483 39.8787 19.184 40.0685 19.6196C40.3477 20.2675 40.6606 20.9377 40.9846 21.5634C41.1408 21.8538 41.2414 22.1778 41.4425 22.4234C41.5319 22.5353 41.7552 22.5686 41.8781 22.6244C42.2579 22.8144 42.6935 22.9596 43.051 23.1942C43.6877 23.5963 44.3133 24.0767 44.8829 24.5682C45.0743 24.7214 45.2003 24.9484 45.3589 25.1367L45.4415 25.2271V25.3278L44.9052 25.484C44.5144 25.5846 44.1679 25.5624 43.7883 25.6627C43.5648 25.7188 43.2743 25.808 43.0285 25.8415C43.0285 25.8528 43.0398 25.8528 43.051 25.8638C43.1962 26.2661 43.9781 26.6124 44.3244 26.8582C44.7116 27.1362 45.0812 27.4671 45.3861 27.8353L45.4973 27.9751L45.8325 28.3103C45.886 28.3996 45.9109 28.5104 45.9589 28.6027L46 28.6678V28.6901C45.8548 28.6343 45.7654 28.5001 45.6538 28.4107C45.4079 28.2319 45.1621 28.0309 44.9052 27.8747C44.4918 27.6065 44.0004 27.4613 43.5537 27.1932C43.3079 27.0367 43.0733 26.8582 42.85 26.6792C42.6377 26.523 42.4031 26.2213 42.2579 25.998C42.1908 25.8751 42.1685 25.7298 42.0791 25.6405C42.1127 25.4282 42.3696 25.4282 42.537 25.3613C43.1291 25.1044 43.8106 25.0261 44.7041 25.0484C44.6819 24.8138 44.1233 24.5346 43.9446 24.4117C43.576 24.1548 43.2073 23.8757 42.8164 23.6521C42.6154 23.5292 42.2689 23.4288 42.0569 23.3394C41.7552 23.2165 41.085 23.0936 40.9062 22.859C40.5822 22.4234 40.3477 21.8873 40.1243 21.3511C39.8898 20.8261 39.5881 20.2675 39.3537 19.7202C39.2418 19.4521 39.186 19.2175 39.0521 18.9607C38.2254 17.3856 37.0302 16.0675 35.5558 15.1404C35.0754 14.8275 34.5391 14.5483 33.9472 14.3696C33.6599 14.2833 33.3235 14.3122 33.008 14.2729L32.8524 14.2467H32.6291C32.4281 14.1908 32.2603 13.9788 32.0928 13.8669C31.7466 13.6323 31.4003 13.476 30.998 13.2973C30.8418 13.2415 30.4285 13.085 30.2832 13.1966C30.1939 13.2302 30.1603 13.2637 30.1268 13.3531C30.0487 13.4871 30.1268 13.6881 30.1826 13.811C30.3503 14.1685 30.5849 14.3808 30.797 14.6823C30.987 14.9394 31.2103 15.2408 31.3555 15.5425C31.6462 16.1679 31.7689 16.8606 32.037 17.486C32.1487 17.7206 32.2939 17.9888 32.4503 18.1898C32.5733 18.3575 32.7853 18.4915 32.8524 18.7038C32.9976 18.9271 32.6514 19.6644 32.5733 19.899C32.2826 20.8148 32.3497 22.0884 32.6737 22.8815C32.8079 23.1942 32.9308 23.5627 33.288 23.6521C33.3103 23.6298 33.2993 23.6411 33.3439 23.6186C33.411 23.0155 33.4445 22.4234 33.6456 21.9432C33.7795 21.6415 34.0141 21.4292 34.1816 21.1723C34.3045 21.2507 34.3045 21.4517 34.3606 21.5857C34.5055 21.9319 34.662 22.3117 34.8408 22.6579C35.2206 23.373 35.6339 24.0655 36.0918 24.6911C36.2593 24.9144 36.4829 25.1603 36.6839 25.3613C36.7464 25.4238 36.8233 25.4648 36.8859 25.5303L36.9298 25.5846H36.9631V25.6069C36.6168 25.4953 36.4045 25.149 36.1476 24.948C35.6339 24.5682 35.0308 23.9873 34.6956 23.4398C34.5913 23.2389 34.487 23.0378 34.3861 22.8334L34.2377 22.524V22.5017C34.1706 22.5911 34.1928 22.6805 34.1593 22.8032C34.0141 23.373 34.1257 23.9984 33.6233 24.2107C33.0424 24.4453 32.6291 23.8309 32.4503 23.5517C31.8695 22.6134 31.7243 21.0607 32.1151 19.7984C32.2045 19.5192 32.2158 19.184 32.3722 18.9607C32.3497 18.7596 32.1822 18.7038 32.0928 18.5809C31.9364 18.3686 31.8024 18.1227 31.6795 17.8884C31.4449 17.4302 31.2887 16.8829 31.0987 16.3802C31.0206 16.1792 31.0093 15.9894 30.9199 15.7994C30.786 15.509 30.5514 15.2185 30.3614 14.9617C30.0935 14.5929 29.3449 13.8781 29.6466 13.1521C30.1158 11.9904 31.7579 12.8727 32.3945 13.275ZM33.3103 15.3415C33.411 15.4308 33.5449 15.4867 33.6233 15.5983C33.6791 15.6764 33.6901 15.7548 33.7462 15.8217C33.7462 16.0731 33.6919 16.2431 33.5669 16.3477L33.5226 16.3802L33.4891 16.4138C33.411 16.235 33.3216 16.0562 33.2435 15.8775C33.1542 15.7525 33.0361 15.6488 32.9468 15.5208L32.886 15.4196H32.8524V15.3973C32.9976 15.3638 33.1318 15.3415 33.3103 15.3415Z" fill="#0B0C0D"/>
</svg>
