<svg width="25" height="13" viewBox="0 0 25 13" fill="none" xmlns="http://www.w3.org/2000/svg">
<path d="M20.8626 7.8237H20.3116C14.0139 7.8237 7.71628 7.8237 1.41865 7.8237C1.24338 7.829 1.06797 7.82097 0.893843 7.79969C0.677065 7.76326 0.4799 7.64832 0.33761 7.47544C0.19532 7.30256 0.117188 7.083 0.117188 6.85605C0.117188 6.62909 0.19532 6.40954 0.33761 6.23666C0.4799 6.06377 0.677065 5.94884 0.893843 5.91241C1.06794 5.89074 1.24338 5.88271 1.41865 5.88839H20.7786C20.8026 5.84656 20.8266 5.80472 20.8536 5.76366C20.7037 5.63505 20.544 5.51807 20.4038 5.37629C19.4801 4.43265 18.56 3.4854 17.6433 2.53453C17.4911 2.3871 17.3899 2.19226 17.3549 1.97975C17.32 1.76725 17.3534 1.54877 17.4499 1.35769C17.5418 1.17185 17.6921 1.02375 17.8761 0.937617C18.0601 0.851487 18.2669 0.832427 18.4628 0.883552C18.6529 0.936417 18.827 1.03824 18.9688 1.1795C20.5807 2.81886 22.1861 4.46442 23.785 6.11617C24.2303 6.57559 24.2348 7.12333 23.785 7.58818C22.1776 9.25026 20.5642 10.9059 18.9448 12.5551C18.5482 12.9595 17.9649 12.9517 17.6051 12.5682C17.2452 12.1847 17.2512 11.5866 17.6411 11.1737C18.6847 10.0836 19.735 8.99744 20.8626 7.8237Z" fill="#2ED06E"/>
</svg>
