<svg width="48" height="48" viewBox="0 0 48 48" fill="none" xmlns="http://www.w3.org/2000/svg">
<path d="M23.8469 7L8.6875 15.75V33.25L23.8469 42L39.0135 33.25V15.75L23.8469 7ZM32.5969 31.1938C32.5108 32.2554 31.6285 33.0837 30.5523 33.0837C30.4867 33.0837 30.4225 33.0808 30.3583 33.075H30.3671C30.3554 33.075 30.3423 33.075 30.3292 33.075C29.2981 33.075 28.3735 32.6185 27.7465 31.8981L27.7435 31.8938L18.9935 21.4798V31.1923V31.2127C18.9935 32.2379 18.1652 33.0692 17.14 33.0735H17.0233C15.9879 33.0648 15.1508 32.2277 15.1421 31.1938V17.8062C15.2135 16.749 16.09 15.9177 17.159 15.9177C17.2188 15.9177 17.2785 15.9206 17.3369 15.925H17.3296H17.3865C18.4248 15.925 19.3581 16.38 19.9954 17.1033L19.9983 17.1077L28.7046 27.5217V17.8077C28.7133 16.7723 29.5504 15.9352 30.5844 15.9265H30.6952C31.7306 15.9352 32.5677 16.7723 32.5765 17.8062V31.1952L32.5969 31.1938Z" fill="#0B0C0D"/>
</svg>
