<svg width="118" height="41" viewBox="0 0 118 41" fill="none" xmlns="http://www.w3.org/2000/svg">
<path d="M28.9402 3.00586C27.9446 2.5231 26.9105 2.12252 25.8482 1.80823C-2.14486 5.74446 -0.00956115 23.4375 4.37811 32.9747C6.10994 35.1466 8.28427 36.9339 10.7599 38.2207C13.2356 39.5075 15.9572 40.265 18.748 40.444C9.66995 31.9927 -4.7807 11.3454 28.9402 3.02184" fill="#9BCB3C"/>
<path d="M25.8469 1.79133C21.7754 0.573604 17.4172 0.672472 13.4064 2.07355C9.39556 3.47463 5.94138 6.10482 3.54636 9.58149C1.15134 13.0582 -0.0595759 17.1999 0.0897826 21.4042C0.239141 25.6085 1.74098 29.656 4.37681 32.9578C-0.0108609 23.4207 -2.14616 5.72756 25.8469 1.79133Z" fill="#007AA5"/>
<path d="M29.8721 3.48509C29.5653 3.31342 29.2545 3.15374 28.9396 2.99805C-4.78125 11.3216 9.6694 31.9689 18.7475 40.4202C19.1713 40.4481 19.5992 40.4641 20.0351 40.4641C20.873 40.464 21.7101 40.4134 22.5418 40.3124C13.9884 33.2982 -4.76511 12.1081 29.8721 3.48509Z" fill="white"/>
<path d="M32.8765 5.54834C31.9401 4.77377 30.935 4.08433 29.8733 3.4884C-4.76384 12.1114 13.9897 33.3016 22.543 40.3157C26.2896 39.8538 29.8259 38.3474 32.7392 35.9723C20.3593 25.9521 7.64031 11.8439 32.8603 5.54834" fill="#098AC4"/>
<path d="M40.0401 20.7379C40.047 17.8409 39.4086 14.9781 38.1703 12.3528C36.932 9.72743 35.1242 7.40409 32.8753 5.54785C7.65533 11.8434 20.3622 25.9516 32.7543 35.9718C35.0277 34.1209 36.8584 31.7948 38.1147 29.1608C39.3709 26.5268 40.0216 23.6502 40.0199 20.7379" fill="#DFDFDE"/>
<path d="M51.7702 34.3617C50.1152 34.3617 48.8397 33.0163 48.8437 31.2638C48.8261 30.4761 49.1215 29.713 49.6663 29.1383C50.2112 28.5636 50.9622 28.2231 51.7581 28.1898C53.3525 28.1898 54.6644 29.615 54.6644 31.3117C54.68 31.7007 54.6172 32.0888 54.4797 32.4536C54.3421 32.8183 54.1326 33.1524 53.8632 33.4362C53.5939 33.7201 53.2701 33.9481 52.9108 34.107C52.5514 34.2659 52.1637 34.3524 51.7702 34.3617ZM51.7702 26.0221C51.0737 26.02 50.3836 26.1536 49.7392 26.4153C49.0949 26.677 48.509 27.0616 48.015 27.5472C47.521 28.0329 47.1285 28.61 46.86 29.2456C46.5915 29.8812 46.4522 30.5629 46.4501 31.2518C46.448 31.9407 46.5831 32.6232 46.8477 33.2604C47.1123 33.8977 47.5012 34.4771 47.9922 34.9657C48.4832 35.4543 49.0667 35.8424 49.7094 36.108C50.3521 36.3736 51.0414 36.5113 51.7379 36.5134C53.1446 36.5177 54.4954 35.969 55.4931 34.9883C56.4908 34.0075 57.0537 32.675 57.058 31.2837C57.0623 29.8925 56.5076 28.5566 55.5159 27.5698C54.5243 26.5831 53.1769 26.0264 51.7702 26.0221Z" fill="#098AC4"/>
<path d="M69.6296 26.0424C69.0033 26.0002 68.3766 26.1192 67.8107 26.3879C67.2447 26.6566 66.7588 27.0657 66.4004 27.5754C66.0949 27.0975 65.6708 26.7049 65.1684 26.4351C64.666 26.1654 64.1021 26.0274 63.5304 26.0344C63.0284 25.9988 62.5251 26.0836 62.0634 26.2817C61.6017 26.4798 61.1951 26.7853 60.8785 27.1722V26.3458H58.6866V36.2063H61.0762V31.296C61.0762 29.1084 61.6373 28.2021 62.9734 28.2021C64.3095 28.2021 64.9674 29.1123 64.9634 30.7691V36.2103H67.357V31.3C67.357 29.1523 67.9787 28.2061 69.3753 28.2061C70.6306 28.2061 71.2684 29.0764 71.2644 30.7731V36.2143H73.658V30.4856C73.658 27.6432 72.1928 26.0424 69.6215 26.0424" fill="#098AC4"/>
<path d="M80.6788 34.4186C80.2806 34.4136 79.8875 34.3298 79.5225 34.1723C79.1575 34.0147 78.828 33.7866 78.5535 33.5013C78.2789 33.2161 78.0648 32.8794 77.9238 32.511C77.7827 32.1427 77.7176 31.7502 77.7321 31.3566C77.7321 29.5841 79.0117 28.2228 80.6869 28.2268C82.362 28.2308 83.6133 29.5123 83.6133 31.2888C83.6133 33.0653 82.3701 34.4186 80.6788 34.4186ZM83.6739 27.632C83.2658 27.1426 82.7554 26.7464 82.1778 26.4708C81.6001 26.1951 80.9689 26.0465 80.3276 26.0352C77.5021 26.0352 75.3425 28.2787 75.3385 31.2249C75.3385 34.2789 77.385 36.5105 80.1823 36.5145C81.5007 36.483 82.7535 35.9395 83.6698 35.0015V36.1991H85.8657V26.3385H83.6698L83.6739 27.632Z" fill="#098AC4"/>
<path d="M93.2413 26.0723C92.7327 26.0677 92.2289 26.1687 91.7623 26.3688C91.2958 26.5689 90.8769 26.8637 90.5328 27.234V26.3877H88.2966V36.2482H90.6902V31.5734C90.6902 30.4117 90.7507 29.9566 90.9485 29.4456C91.1036 29.0941 91.3577 28.7943 91.6806 28.5819C92.0034 28.3695 92.3813 28.2536 92.769 28.248C94.1252 28.248 94.7872 29.274 94.7872 31.4058V36.2562H97.1809V30.9347C97.1809 29.5295 97.0638 28.8588 96.6642 28.0723C96.331 27.4668 95.8385 26.9617 95.2388 26.6103C94.639 26.259 93.9545 26.0744 93.2574 26.0763" fill="#098AC4"/>
<path d="M103.976 34.4248C102.325 34.4248 101.054 33.0835 101.054 31.3269C101.036 30.539 101.332 29.7758 101.878 29.2016C102.424 28.6274 103.176 28.2882 103.972 28.257C105.563 28.257 106.878 29.6782 106.874 31.3748C106.891 31.7643 106.828 32.153 106.69 32.5182C106.553 32.8835 106.343 33.2179 106.073 33.5019C105.803 33.786 105.479 34.0139 105.119 34.1723C104.759 34.3308 104.37 34.4166 103.976 34.4248ZM103.976 26.0853C102.926 26.0805 101.899 26.3839 101.024 26.9571C100.148 27.5303 99.4649 28.3474 99.0595 29.305C98.6541 30.2626 98.5452 31.3177 98.7464 32.3366C98.9477 33.3555 99.4501 34.2924 100.19 35.0288C100.93 35.7651 101.874 36.2677 102.903 36.473C103.932 36.6782 105 36.5769 105.97 36.1818C106.941 35.7867 107.772 35.1156 108.356 34.2535C108.941 33.3914 109.254 32.3771 109.256 31.3389C109.261 30.6502 109.129 29.9673 108.866 29.3296C108.602 28.6919 108.214 28.1121 107.723 27.6236C107.232 27.1351 106.649 26.7477 106.005 26.4836C105.362 26.2196 104.673 26.0842 103.976 26.0853Z" fill="#098AC4"/>
<path d="M110.903 26.415L110.889 36.2755L113.287 36.2788L113.301 26.4183L110.903 26.415Z" fill="#098AC4"/>
<path d="M115.534 23.1524L115.516 36.2865L117.905 36.2898L117.924 23.1557L115.534 23.1524Z" fill="#098AC4"/>
<path d="M112.091 22.995C111.842 22.9942 111.599 23.0664 111.391 23.2024C111.184 23.3385 111.022 23.5322 110.926 23.7593C110.83 23.9864 110.804 24.2365 110.851 24.4782C110.899 24.7198 111.017 24.9421 111.193 25.117C111.368 25.2919 111.591 25.4116 111.835 25.4609C112.079 25.5102 112.332 25.4869 112.563 25.3939C112.793 25.301 112.991 25.1426 113.13 24.9387C113.27 24.7349 113.345 24.4947 113.347 24.2485C113.347 23.9189 113.215 23.6027 112.979 23.3692C112.744 23.1357 112.425 23.004 112.091 23.003" fill="#098AC4"/>
<path d="M108.036 16.3853C106.385 16.3853 105.11 15.04 105.114 13.2874C105.114 11.6107 106.434 10.2095 108.028 10.2135C109.622 10.2175 110.934 11.6387 110.934 13.3353C110.95 13.7246 110.887 14.1131 110.749 14.4781C110.611 14.8431 110.402 15.1774 110.132 15.4613C109.862 15.7452 109.538 15.9731 109.178 16.1318C108.818 16.2904 108.43 16.3766 108.036 16.3853ZM99.0791 16.0979H90.8568V13.4671C90.8971 11.3912 92.9113 10.2734 94.8932 10.2973C96.6895 10.2973 97.6865 11.0319 98.4171 12.2535C98.9176 13.0519 99.075 13.9102 99.075 15.4472L99.0791 16.0979ZM117.405 16.2416C117.808 15.4432 117.921 14.7845 117.925 13.3832V8.37313H115.536V12.9122C115.536 15.04 114.874 16.1258 113.518 16.1059H112.799C112.685 16.1004 112.571 16.1181 112.464 16.1578C113.026 15.302 113.326 14.3039 113.328 13.2834C113.332 12.5952 113.199 11.913 112.935 11.276C112.672 10.639 112.283 10.0598 111.793 9.57189C111.302 9.08394 110.718 8.69682 110.076 8.43285C109.433 8.16888 108.744 8.03326 108.048 8.0338C106.641 8.03482 105.291 8.58596 104.293 9.56708C103.295 10.5482 102.73 11.8797 102.72 13.2715C102.721 14.2937 103.026 15.2932 103.596 16.1458C103.488 16.1039 103.372 16.0862 103.257 16.0939H101.356V15.539C101.416 14.3373 101.249 13.135 100.863 11.994C100.032 9.62665 97.8843 8.02581 94.869 8.00186C93.1616 8.00186 91.4784 8.61664 90.6913 9.64661V5.08362H88.4792V16.1099H87.3289V18.2217L108.032 18.2456H113.998C114.697 18.2498 115.383 18.0663 115.985 17.7148C116.586 17.3633 117.08 16.8568 117.413 16.2496" fill="#098AC4"/>
<path d="M116.736 7.34374C116.985 7.34453 117.229 7.27215 117.437 7.13577C117.644 6.99939 117.807 6.80514 117.902 6.57762C117.998 6.3501 118.024 6.09953 117.976 5.85766C117.928 5.61579 117.808 5.39348 117.632 5.21889C117.456 5.0443 117.232 4.92527 116.987 4.87689C116.743 4.8285 116.489 4.85294 116.259 4.94709C116.029 5.04125 115.832 5.20089 115.693 5.4058C115.555 5.61071 115.481 5.85168 115.481 6.0982C115.481 6.42784 115.613 6.74405 115.848 6.97752C116.083 7.21099 116.403 7.34269 116.736 7.34374Z" fill="#098AC4"/>
<path d="M108.047 7.33288C108.297 7.33367 108.54 7.26129 108.748 7.12491C108.956 6.98853 109.118 6.79428 109.214 6.56676C109.31 6.33923 109.335 6.08867 109.287 5.8468C109.239 5.60492 109.119 5.38262 108.943 5.20802C108.767 5.03343 108.543 4.91441 108.299 4.86602C108.054 4.81764 107.801 4.84207 107.57 4.93623C107.34 5.03038 107.143 5.19002 107.005 5.39494C106.866 5.59985 106.792 5.84082 106.792 6.08733C106.792 6.41698 106.924 6.73319 107.159 6.96666C107.395 7.20013 107.714 7.33182 108.047 7.33288Z" fill="#098AC4"/>
<path d="M51.8003 10.4601C52.0495 10.4609 52.2934 10.3885 52.501 10.2521C52.7087 10.1157 52.8707 9.92148 52.9667 9.69395C53.0626 9.46643 53.0881 9.21587 53.04 8.97399C52.9919 8.73212 52.8722 8.50981 52.6963 8.33522C52.5203 8.16063 52.2959 8.0416 52.0515 7.99322C51.8071 7.94484 51.5537 7.96927 51.3233 8.06342C51.093 8.15758 50.896 8.31722 50.7575 8.52213C50.6189 8.72705 50.5449 8.96802 50.5449 9.21453C50.5449 9.54418 50.6771 9.86038 50.9124 10.0939C51.1477 10.3273 51.467 10.459 51.8003 10.4601Z" fill="#098AC4"/>
<path d="M69.1225 16.332C67.4676 16.332 66.1961 14.9866 66.1961 13.2341C66.1784 12.4464 66.4738 11.6833 67.0187 11.1086C67.5635 10.5339 68.3145 10.1934 69.1104 10.1601C70.725 10.1601 72.0207 11.5853 72.0207 13.282C72.0364 13.6713 71.9734 14.0598 71.8356 14.4248C71.6979 14.7898 71.488 15.124 71.2182 15.4079C70.9484 15.6918 70.6241 15.9198 70.2643 16.0784C69.9045 16.2371 69.5164 16.3233 69.1225 16.332ZM85.6721 16.0805H81.6357C81.2393 16.0839 80.8462 16.008 80.4802 15.8575C80.1142 15.707 79.7827 15.4849 79.5056 15.2045C79.2285 14.9241 79.0115 14.5913 78.8678 14.2259C78.724 13.8606 78.6563 13.4702 78.6688 13.0784C78.6515 12.6957 78.714 12.3136 78.8524 11.9558C78.9907 11.5979 79.2019 11.2721 79.473 10.9984C79.744 10.7248 80.0691 10.5091 80.4279 10.3649C80.7867 10.2207 81.1717 10.151 81.559 10.1601C81.9386 10.1312 82.3192 10.2037 82.6608 10.3701C83.0024 10.5366 83.2924 10.7909 83.5005 11.1063L85.2201 9.50942C84.7452 9.0268 84.1763 8.64456 83.5476 8.38585C82.919 8.12715 82.2438 7.99738 81.563 8.0044C80.6054 8.0012 79.6651 8.25602 78.8429 8.74148C78.0207 9.22694 77.3478 9.92471 76.8963 10.7599C76.4448 11.595 76.2318 12.536 76.2803 13.4819C76.3287 14.4277 76.6368 15.3426 77.1713 16.1284C77.0501 16.0901 76.9229 16.0739 76.7959 16.0805H75.0481C74.8267 16.0891 74.6058 16.0543 74.3979 15.9783C74.1901 15.9023 73.9996 15.7864 73.8371 15.6373C74.2501 14.838 74.449 13.9474 74.4147 13.0504C74.3804 12.1535 74.1142 11.2802 73.6415 10.514C73.1687 9.74781 72.5052 9.11429 71.7143 8.67398C70.9235 8.23367 70.0316 8.00127 69.1241 7.99897C68.2165 7.99667 67.3235 8.22456 66.5304 8.66086C65.7372 9.09717 65.0705 9.72732 64.5937 10.4911C64.117 11.2549 63.8463 12.1268 63.8074 13.0236C63.7685 13.9204 63.9627 14.812 64.3716 15.6134C64.2066 15.7664 64.0123 15.8852 63.8002 15.9627C63.588 16.0402 63.3623 16.0748 63.1364 16.0645H61.2635V5.04224H58.8698V18.1723H63.6127C64.4341 18.1849 65.2319 17.901 65.857 17.3739C66.7885 18.0828 67.9309 18.4673 69.1064 18.4673C70.2818 18.4673 71.4242 18.0828 72.3558 17.3739C72.9692 17.8996 73.7604 18.1776 74.5718 18.1524H85.6802L85.6721 16.0805Z" fill="#098AC4"/>
<path d="M54.0691 11.2918L54.0408 11.3157C54.4649 11.8769 54.693 12.5593 54.6907 13.2599C54.7064 13.6491 54.6436 14.0374 54.5061 14.4024C54.3686 14.7674 54.1591 15.1017 53.8898 15.3859C53.6205 15.67 53.2968 15.8984 52.9374 16.0577C52.578 16.217 52.1902 16.3041 51.7965 16.3139C50.1416 16.3139 48.866 14.9685 48.8701 13.212C48.8709 12.5291 49.093 11.8646 49.5038 11.3157L47.8246 9.74282C47.1541 10.499 46.7184 11.4305 46.57 12.4255C46.4215 13.4206 46.5665 14.4368 46.9877 15.3523C47.4088 16.2678 48.0881 17.0437 48.9441 17.5868C49.8001 18.1299 50.7963 18.4171 51.8133 18.4141C52.8303 18.411 53.8247 18.1177 54.6773 17.5695C55.5299 17.0212 56.2044 16.2413 56.6199 15.3232C57.0354 14.4052 57.1741 13.3881 57.0195 12.394C56.8649 11.3998 56.4235 10.471 55.7483 9.71887L54.0691 11.2918Z" fill="#098AC4"/>
</svg>
