<svg width="14" height="14" viewBox="0 0 14 14" fill="none" xmlns="http://www.w3.org/2000/svg">
<path d="M9.46755 13.9619C8.39264 13.9465 7.45457 13.606 6.57723 13.0736C5.34523 12.3259 4.34157 11.3234 3.42374 10.2275C2.66341 9.32056 1.99255 8.35536 1.52453 7.2602C1.17675 6.44683 0.960955 5.6039 1.00589 4.7128C1.06379 3.56339 1.50266 2.58807 2.37555 1.82207C2.59337 1.63098 2.81429 1.44339 3.03831 1.25931C3.46018 0.914367 3.91403 0.902626 4.28934 1.29008C4.94158 1.96337 5.45899 2.73504 5.74321 3.63829C5.89139 4.10834 5.78369 4.55045 5.41122 4.89337C5.15332 5.12981 4.88044 5.35087 4.60473 5.56666C4.17719 5.90189 4.02982 6.25007 4.20229 6.77032C4.32283 7.14 4.49134 7.49226 4.70352 7.81811C5.31081 8.73229 6.01973 9.56428 6.92136 10.2068C7.1412 10.3631 7.40274 10.4724 7.65943 10.5627C8.0315 10.6943 8.35782 10.5748 8.63677 10.3048C8.84487 10.1023 9.05054 9.89789 9.27079 9.71004C9.8963 9.17723 10.3234 9.11812 11.0323 9.53959C11.7271 9.9458 12.3388 10.4798 12.8352 11.1133C13.1996 11.5821 13.1538 12.0267 12.7137 12.4182C12.2222 12.8562 11.7566 13.3275 11.1348 13.5996C10.6089 13.8307 10.0419 13.9539 9.46755 13.9619Z" fill="white"/>
</svg>
