<?xml version="1.0" encoding="utf-8"?>
<!-- Generator: Adobe Illustrator 27.3.1, SVG Export Plug-In . SVG Version: 6.00 Build 0)  -->
<svg version="1.1" id="Layer_1" xmlns="http://www.w3.org/2000/svg" xmlns:xlink="http://www.w3.org/1999/xlink" x="0px" y="0px"
	 viewBox="0 0 35 35" style="enable-background:new 0 0 35 35;" xml:space="preserve">
<g>
	<path d="M27.4,11.8c1-4.4,0.6-7.9-1.4-9c-0.4-0.3-1-0.4-1.5-0.4v0c-1.9,0-4.4,1.4-6.9,3.7c-2.5-2.3-5-3.7-6.9-3.7v0
		C10,2.4,9.4,2.5,9,2.8c-1.9,1.1-2.4,4.6-1.4,9c-4.3,1.3-7.1,3.5-7.1,5.7c0,2.3,2.8,4.4,7.1,5.7c-1,4.4-0.6,7.9,1.4,9
		c0.5,0.3,1,0.4,1.6,0.4c1.9,0,4.4-1.4,6.9-3.7c2.5,2.3,5,3.7,6.9,3.7c0.6,0,1.1-0.1,1.6-0.4c1.9-1.1,2.4-4.6,1.4-9
		c4.3-1.3,7.1-3.5,7.1-5.7C34.5,15.2,31.7,13.1,27.4,11.8z M24.4,3.9L24.4,3.9c0.3,0,0.6,0.1,0.8,0.2c0.9,0.5,1.4,2.6,1,5.2
		c-0.1,0.7-0.2,1.3-0.4,2c-1.4-0.3-2.8-0.6-4.4-0.8c-0.9-1.3-1.9-2.4-2.9-3.5C20.8,5.1,23,3.9,24.4,3.9z M11.4,21.1
		c0.3,0.6,0.7,1.1,1,1.6c-1-0.1-1.9-0.3-2.8-0.5c0.3-0.9,0.6-1.8,0.9-2.7C10.7,19.9,11,20.5,11.4,21.1z M9.5,12.9
		c0.9-0.2,1.9-0.4,2.9-0.5c-0.3,0.5-0.7,1.1-1,1.6c-0.3,0.6-0.6,1.1-0.9,1.7C10.1,14.7,9.8,13.8,9.5,12.9z M11.3,17.5
		c0.4-0.9,0.9-1.9,1.4-2.8c0.5-0.9,1.1-1.8,1.7-2.6c1-0.1,2.1-0.1,3.1-0.1c1,0,2.1,0,3.1,0.1c0.6,0.8,1.1,1.7,1.7,2.6
		c0.5,0.9,1,1.8,1.4,2.8c-0.4,0.9-0.9,1.9-1.4,2.8c-0.5,0.9-1.1,1.8-1.7,2.6c-1,0.1-2.1,0.1-3.1,0.1c-1,0-2.1,0-3.1-0.1
		c-0.6-0.8-1.1-1.7-1.7-2.6C12.2,19.4,11.7,18.5,11.3,17.5z M23.6,21c0.3-0.6,0.6-1.1,0.9-1.7h0c0.4,0.9,0.7,1.8,1,2.8
		c-0.9,0.2-1.9,0.4-2.9,0.6C23,22.1,23.3,21.6,23.6,21z M23.6,14c-0.3-0.6-0.7-1.1-1-1.6c1,0.1,1.9,0.3,2.8,0.5h0
		c-0.3,0.9-0.6,1.8-0.9,2.7C24.3,15.1,24,14.5,23.6,14z M19.4,10.5c-0.6,0-1.3,0-1.9,0c-0.7,0-1.3,0-1.9,0c0.6-0.8,1.2-1.5,1.9-2.2
		C18.1,8.9,18.8,9.7,19.4,10.5z M9.8,4.1C10,4,10.2,3.9,10.6,3.9v0c1.4,0,3.6,1.1,5.8,3.2c-1,1-1.9,2.2-2.9,3.5
		c-1.6,0.2-3.1,0.4-4.4,0.8c-0.2-0.7-0.3-1.4-0.4-2C8.4,6.7,8.8,4.7,9.8,4.1z M8,21.7c-0.7-0.2-1.3-0.5-1.9-0.7v0
		c-2.5-1-4-2.4-4-3.5c0-1.1,1.6-2.5,4-3.5c0.6-0.3,1.2-0.5,1.9-0.7c0.4,1.4,0.9,2.8,1.6,4.2C8.9,19,8.4,20.4,8,21.7z M10.6,31.1
		c-0.3,0-0.6-0.1-0.8-0.2c-0.9-0.5-1.4-2.6-1-5.2c0.1-0.7,0.2-1.3,0.4-2c1.4,0.3,2.8,0.6,4.4,0.8c0.9,1.3,1.9,2.4,2.9,3.5
		C14.2,30,12,31.1,10.6,31.1z M17.5,26.8c-0.6-0.7-1.3-1.4-1.9-2.2c0.6,0,1.3,0,1.9,0c0.7,0,1.3,0,1.9,0
		C18.8,25.3,18.2,26.1,17.5,26.8z M25.2,30.9c-0.2,0.1-0.5,0.2-0.8,0.2c-1.4,0-3.6-1.1-5.8-3.2c1-1,1.9-2.2,2.9-3.5
		c1.6-0.2,3.1-0.4,4.4-0.8c0.2,0.7,0.3,1.4,0.4,2v0C26.6,28.3,26.2,30.3,25.2,30.9z M28.9,21L28.9,21c-0.6,0.3-1.2,0.5-1.9,0.7
		c-0.4-1.4-0.9-2.8-1.6-4.2c0.6-1.4,1.2-2.9,1.5-4.2c0.7,0.2,1.3,0.5,1.9,0.7c2.5,1,4,2.4,4,3.5C33,18.6,31.4,20,28.9,21z"/>
	<polygon points="34.5,17.5 34.5,17.5 34.5,17.5 	"/>
	<path d="M17.5,20.7c1.8,0,3.2-1.4,3.2-3.2c0-1.8-1.4-3.2-3.2-3.2c-1.8,0-3.2,1.4-3.2,3.2C14.3,19.3,15.7,20.7,17.5,20.7z"/>
</g>
</svg>
