<svg width="48" height="48" viewBox="0 0 48 48" fill="none" xmlns="http://www.w3.org/2000/svg">
<path d="M41.76 26.4734C41.7591 26.4745 41.7596 26.4746 41.76 26.4748L41.7592 30.0143C41.7595 30.3692 41.3333 30.7585 40.3684 31.2614C38.4728 32.2494 28.6532 36.2869 26.5627 37.3767C24.4722 38.4667 23.3108 38.4562 21.6593 37.6667C20.0079 36.8772 9.55815 32.6562 7.67573 31.7564C6.73501 31.3069 6.24023 30.9273 6.24023 30.5687V26.9784L6.24244 27.0262C6.2783 27.3763 6.75797 27.7484 7.67615 28.1874C9.55842 29.0866 20.0078 33.3083 21.6593 34.0973C23.3107 34.8867 24.472 34.8974 26.5624 33.8073C28.653 32.7175 38.4722 28.6799 40.3677 27.6923C41.3073 27.2026 41.7637 26.8186 41.76 26.4734ZM41.76 20.6641C41.7591 20.6649 41.7596 20.6651 41.76 20.6652L41.7592 24.2051C41.7595 24.5599 41.3333 24.9492 40.3684 25.4521C38.4728 26.4402 28.6532 30.4776 26.5627 31.5679C24.4722 32.6575 23.3108 32.6469 21.6593 31.8574C20.0078 31.0684 9.55815 26.8469 7.67573 25.9471C6.73501 25.4976 6.24023 25.1185 6.24023 24.7598V21.1692L6.24244 21.217C6.2783 21.5672 6.75797 21.9393 7.67615 22.3781C9.55842 23.2774 20.0078 27.499 21.6593 28.288C23.3107 29.0774 24.472 29.0881 26.5624 27.9984C28.653 26.9082 38.4722 22.8709 40.3677 21.883C41.3073 21.3933 41.7637 21.0093 41.76 20.6641ZM41.76 14.6402C41.7596 14.64 41.7591 14.6405 41.76 14.6402L41.7592 18.1806C41.7595 18.5351 41.3333 18.9245 40.3684 19.4274C38.4728 20.4153 28.6532 24.4529 26.5627 25.5432C24.4722 26.633 23.3108 26.6223 21.6593 25.8328C20.0078 25.0437 9.55815 20.8221 7.67573 19.9228C6.73501 19.4728 6.24023 19.0936 6.24023 18.7354V15.1445L6.24251 15.1923C6.27837 15.5425 6.75804 15.9146 7.67629 16.3533C9.55842 17.2528 20.0079 21.4741 21.6593 22.2636C23.3107 23.0527 24.472 23.0634 26.5624 21.9736C28.653 20.8839 38.4722 16.8463 40.3677 15.8584C41.3066 15.369 41.763 14.9852 41.76 14.6402ZM26.8882 16.7288L24.4208 20.3462L18.7214 17.9824L26.8882 16.7288ZM31.9498 12.8153L36.7833 14.7254L31.9539 16.6336L31.4296 16.8387L26.6024 14.9306L31.9498 12.8153ZM16.5191 13.28C18.9298 13.28 20.8841 14.0376 20.8841 14.9719C20.8841 15.9065 18.9298 16.664 16.5191 16.664C14.1083 16.664 12.154 15.9064 12.154 14.9719C12.154 14.0376 14.1083 13.28 16.5191 13.28ZM21.8144 9.76965L24.2779 10.7331L26.6003 9.97278L25.9726 11.4789L28.3406 12.3657L25.2868 12.6827L24.6031 14.3277L23.499 12.4921L19.9727 12.1751L22.6039 11.2262L21.8144 9.76965Z" fill="#0B0C0D"/>
</svg>
