<svg width="126" height="101" viewBox="0 0 126 101" fill="none" xmlns="http://www.w3.org/2000/svg">
<path d="M18.6253 60.7257V59.8345C16.6444 59.662 16.4433 59.432 16.4433 57.1319V45.8906C16.4433 43.5331 16.6444 43.3319 18.6253 43.1306V42.268H11.1035V43.1306C13.0844 43.3319 13.2854 43.5331 13.2854 45.8906V57.1319C13.2854 59.432 13.0557 59.662 11.1035 59.8345V60.7257H18.6253ZM32.8083 46.4369C32.5786 44.7693 32.3776 43.5906 32.2916 42.5555C31.545 42.2969 30.2532 41.8943 28.7892 41.8943C24.9995 41.8943 22.875 44.2518 22.875 47.1556C22.875 50.0306 25.1717 51.5832 27.4397 52.9056C29.4207 54.0557 30.6265 55.1769 30.6265 56.9307C30.6265 58.7994 29.5354 60.0357 27.7843 60.0357C25.143 60.0357 23.8225 57.1319 23.3344 55.4356L22.387 55.6944C22.5879 57.3044 22.9037 59.4032 23.1621 60.1507C23.5928 60.3232 24.0808 60.5532 24.8273 60.7544C25.545 60.9557 26.3775 61.0994 27.325 61.0994C31.1145 61.0994 33.6121 58.7131 33.6121 55.5794C33.6121 52.6469 31.4016 51.0944 28.9612 49.7431C26.8083 48.5357 25.6886 47.5868 25.6886 45.8044C25.6886 44.1943 26.7508 42.9294 28.3297 42.9294C30.5403 42.9294 31.3154 44.8268 31.8896 46.6094L32.8083 46.4369ZM51.3312 46.6094C51.1876 44.9707 51.0729 42.7569 51.0442 41.5493H50.3838C49.982 42.0955 49.6661 42.268 49.0058 42.268H39.1012C38.3834 42.268 38.0391 42.1243 37.6658 41.5493H37.0054C36.9767 43.0156 36.8045 44.9418 36.6896 46.6956H37.6083C37.8954 45.5169 38.1825 44.6256 38.5558 44.1368C38.9576 43.5331 39.5031 43.3319 41.2256 43.3319H42.4314V57.1032C42.4314 59.4607 42.2018 59.662 39.9912 59.8345V60.7257H48.1158V59.8345C45.7904 59.662 45.5894 59.4607 45.5894 57.1032V43.3319H46.9962C48.3742 43.3319 49.0058 43.4756 49.4652 44.0506C49.8383 44.5393 50.1254 45.3157 50.4125 46.6956L51.3312 46.6094ZM71.3124 64.3194C69.5038 63.3995 67.2931 61.9906 65.2835 60.5244C68.298 59.3745 70.6235 56.1256 70.6235 51.2957C70.6235 45.6606 67.1497 41.8943 62.7571 41.8943C57.1015 41.8943 54.4029 46.8394 54.4029 51.6694C54.4029 54.4869 55.2928 56.8445 56.7282 58.5119C58.0777 60.122 60.2595 60.9844 61.5801 61.0419C64.9104 63.6582 66.719 64.4633 67.5229 64.6933C68.3555 64.9233 69.8769 65.1245 71.1115 64.952L71.3124 64.3194ZM61.9246 59.9782C59.4269 59.202 58.0489 55.4931 58.0489 50.9793C58.0489 46.1206 59.714 42.9581 62.2117 42.9581C65.2262 42.9581 66.9773 46.3794 66.9773 52.1581C66.9773 56.557 65.7142 59.087 64.3362 59.8057C64.1351 59.662 63.9055 59.4895 63.7046 59.3456L61.9246 59.9782ZM83.3107 50.6632C85.0907 50.2606 87.2438 49.0819 87.2438 46.4369C87.2438 45.0857 86.6696 43.9356 85.6936 43.2456C84.7174 42.5555 83.4256 42.268 81.3873 42.268H74.0664V43.1306C76.0474 43.3319 76.2196 43.5331 76.2196 45.8331V57.0744C76.2196 59.432 76.0187 59.662 73.9229 59.8345V60.7257H80.2102C82.3633 60.7257 84.3442 60.3519 85.7509 59.5182C87.2151 58.6269 88.2487 57.1894 88.2487 55.2344C88.2487 52.5319 86.1816 51.1519 83.3107 50.7493V50.6632ZM79.3202 50.4043V44.9132C79.3202 44.1081 79.4063 43.7344 79.636 43.5619C79.8369 43.4181 80.2389 43.3031 80.8418 43.3031C82.5931 43.3031 83.9136 44.5106 83.9136 46.8681C83.9136 49.2831 82.794 50.4043 80.1527 50.4043H79.3202ZM79.3202 51.4682H80.0953C83.0524 51.4682 84.7174 52.7619 84.7174 55.4931C84.7174 58.4544 82.9662 59.6332 81.2149 59.6332C79.7795 59.662 79.3202 59.0295 79.3202 57.0744V51.4682Z" fill="white"/>
<path d="M45.3174 72.5968C44.925 73.4401 44.4561 73.9385 43.7576 73.9385C42.6667 73.9385 41.8723 72.7405 41.8723 71.0155C41.8723 69.578 42.5614 68.2747 43.7192 68.2747C44.3987 68.2747 44.9059 68.6101 45.1834 69.6068L45.4896 69.5302C45.4323 69.0413 45.3843 68.6293 45.3174 68.1117C45.0781 68.0542 44.5136 67.9105 43.9203 67.9105C41.9585 67.9105 40.6665 69.2522 40.6665 71.2072C40.6665 72.7118 41.5183 74.3122 43.681 74.3122C44.2552 74.3122 44.9441 74.1494 45.1738 74.0919C45.3174 73.766 45.5088 73.1143 45.6236 72.7022L45.3174 72.5968ZM49.8821 73.1239C49.5663 73.4114 49.2696 73.536 48.8965 73.536C48.2552 73.536 47.6523 72.9898 47.6332 71.8493C48.5901 71.811 49.7003 71.7247 49.8343 71.696C50.0352 71.6576 50.083 71.5713 50.083 71.351C50.083 70.6035 49.4801 69.8559 48.6668 69.8559H48.6572C48.1787 69.8559 47.7003 70.1148 47.3461 70.4885C46.9825 70.8526 46.6572 71.4851 46.6572 72.2613C46.6572 73.3539 47.3366 74.3026 48.5041 74.3026C48.8677 74.3026 49.5185 74.1014 50.0448 73.3443L49.8821 73.1239ZM48.4849 70.2105C48.8869 70.2105 49.107 70.6993 49.0974 71.1881C49.0974 71.351 49.0496 71.3989 48.8965 71.4085C48.4849 71.4181 48.1021 71.4276 47.681 71.4372C47.7576 70.7185 48.1021 70.2105 48.4754 70.2105H48.4849ZM52.5826 70.8239V69.8368C52.1137 70.0189 51.616 70.1339 51.0802 70.2105V70.4596C51.5395 70.5555 51.5777 70.5939 51.5777 71.1305V73.2293C51.5777 73.8044 51.5204 73.8523 51.0131 73.9098V74.1876H53.2908V73.9098C52.6304 73.8523 52.5826 73.8139 52.5826 73.2198V71.3222C52.7548 70.9101 52.9558 70.7951 53.1377 70.7951C53.2811 70.7951 53.3864 70.8622 53.5204 70.9867C53.5778 71.0442 53.6639 71.0635 53.7884 71.0155C53.9893 70.9294 54.1807 70.6897 54.1807 70.4118C54.1807 70.1243 53.951 69.8559 53.6353 69.8559C53.2429 69.8559 52.8888 70.2968 52.6113 70.8239H52.5826ZM57.6827 73.8619L57.5871 73.5743C57.4626 73.6318 57.3095 73.6989 57.0989 73.6989C56.8693 73.6989 56.5918 73.5551 56.5918 72.8173V70.383H57.4722C57.5966 70.316 57.6158 70.0668 57.5296 69.9709H56.5918V68.6581L56.4578 68.6101L55.5775 69.2905V69.9709H55.2233L54.9746 70.2776L55.0128 70.383H55.5775V73.1334C55.5775 73.948 55.9602 74.3026 56.5918 74.3026C56.6875 74.3026 56.8215 74.2739 56.9746 74.1972L57.6827 73.8619ZM59.5073 69.2234C59.8424 69.2234 60.0911 68.9551 60.0911 68.6293C60.0911 68.2938 59.8424 68.0351 59.5169 68.0351C59.2011 68.0351 58.9427 68.2938 58.9427 68.6293C58.9427 68.9551 59.2011 69.2234 59.5073 69.2234ZM60.6557 74.1876V73.9098C60.1294 73.8523 60.072 73.8044 60.072 73.1718V69.8464C59.5744 70.0189 59.0384 70.1434 58.5504 70.2201V70.4693C59.0289 70.5555 59.0671 70.5746 59.0671 71.1592V73.1718C59.0671 73.8044 59.0097 73.8523 58.4929 73.9098V74.1876H60.6557ZM66.1548 74.1876V73.9001C65.6285 73.8426 65.5806 73.7851 65.5806 73.2102V69.8559C65.0543 69.9518 64.4419 69.9709 63.9155 69.9709H63.0926V69.7314C63.0926 69.2138 63.1404 68.7635 63.2457 68.4856C63.3317 68.1789 63.4848 67.9872 63.7528 67.9872C64.2313 67.9872 64.5472 68.4663 64.6906 68.6485C64.7768 68.7538 64.8917 68.7731 65.0448 68.6772C65.1692 68.6006 65.2841 68.4663 65.3126 68.3706C65.3606 68.2363 65.3414 68.083 65.2266 67.9297C65.0735 67.7476 64.729 67.5271 64.2217 67.5176C63.7815 67.5464 63.3414 67.7285 62.9394 68.0638C62.5663 68.3706 62.3652 68.706 62.2504 68.9838C62.1452 69.2427 62.0877 69.5014 62.0877 69.7984V69.9709H61.7241L61.4657 70.2873L61.5135 70.383H62.0877V73.2198C62.0877 73.7755 62.0303 73.8426 61.5423 73.9001V74.1876H63.6093V73.9001C63.1595 73.8426 63.0926 73.7755 63.0926 73.2198V70.383H64.1261C64.5472 70.383 64.5759 70.4693 64.5759 70.9964V73.2102C64.5759 73.7851 64.5184 73.8522 64.107 73.9001V74.1876H66.1548ZM70.283 73.1239C69.9672 73.4114 69.6705 73.536 69.2974 73.536C68.6561 73.536 68.0532 72.9898 68.0341 71.8493C68.991 71.811 70.1012 71.7247 70.2352 71.696C70.4361 71.6576 70.4839 71.5713 70.4839 71.351C70.4839 70.6035 69.881 69.8559 69.0676 69.8559H69.0581C68.5796 69.8559 68.1012 70.1148 67.747 70.4885C67.3834 70.8526 67.0581 71.4851 67.0581 72.2613C67.0581 73.3539 67.7375 74.3026 68.905 74.3026C69.2686 74.3026 69.9194 74.1014 70.4457 73.3443L70.283 73.1239ZM68.8858 70.2105C69.2877 70.2105 69.5079 70.6993 69.4983 71.1881C69.4983 71.351 69.4505 71.3989 69.2974 71.4085C68.8858 71.4181 68.503 71.4276 68.0819 71.4372C68.1585 70.7185 68.503 70.2105 68.8763 70.2105H68.8858ZM75.9477 73.6605L75.6799 73.6318C75.3928 73.5935 75.3448 73.5455 75.3448 73.0759V67.5176C74.943 67.6517 74.2731 67.786 73.7276 67.8435V68.1117C74.3017 68.1597 74.3305 68.2076 74.3305 68.7538V69.923C74.1679 69.8751 74.0052 69.8559 73.9094 69.8559C72.5792 69.8559 71.5457 70.9294 71.5457 72.2231C71.5457 73.6126 72.541 74.3026 73.2779 74.3026C73.4023 74.3026 73.565 74.2739 73.8041 74.111L74.3305 73.766V74.3026C74.943 74.0919 75.7086 73.9769 75.9477 73.9385V73.6605ZM74.3305 73.4498C74.1486 73.5743 73.9668 73.6414 73.7563 73.6414C73.2874 73.6414 72.6845 73.1143 72.6845 71.9643C72.675 70.5171 73.3639 70.2298 73.6606 70.2298C73.9095 70.2298 74.1774 70.3735 74.3305 70.7089V73.4498ZM84.0075 69.4822C83.9596 68.9359 83.9214 68.1981 83.9117 67.7955H83.6917C83.5577 67.9776 83.4524 68.0351 83.2323 68.0351H79.9308C79.6915 68.0351 79.5767 67.9872 79.4523 67.7955H79.2323C79.2226 68.2842 79.1652 68.9263 79.127 69.5109H79.4332C79.5288 69.1181 79.6246 68.8209 79.749 68.6581C79.883 68.4567 80.0648 68.3897 80.639 68.3897H81.0408V72.9802C81.0408 73.766 80.9643 73.833 80.2274 73.8905V74.1876H82.9357V73.8905C82.1605 73.833 82.0935 73.766 82.0935 72.9802V68.3897H82.5625C83.0217 68.3897 83.2323 68.4376 83.3854 68.6293C83.5099 68.7922 83.6055 69.0509 83.7012 69.5109L84.0075 69.4822ZM87.3831 73.1239C87.0673 73.4114 86.7706 73.536 86.3973 73.536C85.7562 73.536 85.1533 72.9898 85.1342 71.8493C86.0911 71.811 87.2013 71.7247 87.3351 71.696C87.5362 71.6576 87.584 71.5713 87.584 71.351C87.584 70.6035 86.9811 69.8559 86.1677 69.8559H86.1581C85.6797 69.8559 85.2011 70.1148 84.8471 70.4885C84.4835 70.8526 84.158 71.4851 84.158 72.2613C84.158 73.3539 84.8375 74.3026 86.005 74.3026C86.3686 74.3026 87.0195 74.1014 87.5457 73.3443L87.3831 73.1239ZM85.9859 70.2105C86.3878 70.2105 86.6079 70.6993 86.5984 71.1881C86.5984 71.351 86.5504 71.3989 86.3973 71.4085C85.9859 71.4181 85.6031 71.4276 85.182 71.4372C85.2586 70.7185 85.6031 70.2105 85.9762 70.2105H85.9859ZM91.213 71.0442C91.1939 70.8814 91.0886 70.2393 91.012 70.0284C90.8015 69.9326 90.5526 69.8464 90.1699 69.8559C89.2417 69.8559 88.6866 70.4501 88.6866 71.1689C88.6866 71.8972 89.3373 72.2518 89.8253 72.5202C90.3326 72.7789 90.5239 73.028 90.5239 73.373C90.5239 73.718 90.2846 73.9672 89.9689 73.9672C89.433 73.9672 89.0215 73.3539 88.8301 72.7597L88.5622 72.8173C88.5717 73.1527 88.6482 73.7948 88.7057 73.9769C88.8875 74.1206 89.3373 74.3026 89.835 74.3026C90.5622 74.3026 91.3948 73.8522 91.3948 72.9323C91.3948 72.2327 90.8971 71.8972 90.1986 71.5522C89.7679 71.3414 89.5095 71.121 89.5095 70.7664C89.5095 70.4405 89.7392 70.1818 90.0359 70.1818C90.4379 70.1818 90.7153 70.5171 90.9546 71.1401L91.213 71.0442ZM94.9314 73.8619L94.8358 73.5743C94.7113 73.6318 94.5582 73.6989 94.3476 73.6989C94.118 73.6989 93.8405 73.5551 93.8405 72.8173V70.383H94.7209C94.8453 70.316 94.8644 70.0668 94.7784 69.9709H93.8405V68.6581L93.7065 68.6101L92.8262 69.2905V69.9709H92.472L92.2233 70.2776L92.2615 70.383H92.8262V73.1334C92.8262 73.948 93.2089 74.3026 93.8405 74.3026C93.9362 74.3026 94.0702 74.2739 94.2233 74.1972L94.9314 73.8619ZM98.8835 73.1239C98.5677 73.4114 98.271 73.536 97.8977 73.536C97.2566 73.536 96.6537 72.9898 96.6346 71.8493C97.5915 71.811 98.7017 71.7247 98.8357 71.696C99.0366 71.6576 99.0844 71.5713 99.0844 71.351C99.0844 70.6035 98.4815 69.8559 97.6681 69.8559H97.6586C97.1801 69.8559 96.7015 70.1148 96.3475 70.4885C95.9839 70.8526 95.6585 71.4851 95.6585 72.2613C95.6585 73.3539 96.3379 74.3026 97.5055 74.3026C97.8691 74.3026 98.5199 74.1014 99.0461 73.3443L98.8835 73.1239ZM97.4863 70.2105C97.8883 70.2105 98.1083 70.6993 98.0988 71.1881C98.0988 71.351 98.051 71.3989 97.8977 71.4085C97.4863 71.4181 97.1035 71.4276 96.6824 71.4372C96.759 70.7185 97.1035 70.2105 97.4768 70.2105H97.4863ZM101.584 70.8239V69.8368C101.115 70.0189 100.618 70.1339 100.082 70.2105V70.4596C100.541 70.5555 100.579 70.5939 100.579 71.1305V73.2293C100.579 73.8044 100.522 73.8523 100.015 73.9098V74.1876H102.292V73.9098C101.632 73.8523 101.584 73.8139 101.584 73.2198V71.3222C101.756 70.9101 101.957 70.7951 102.139 70.7951C102.283 70.7951 102.388 70.8622 102.522 70.9867C102.579 71.0442 102.666 71.0635 102.79 71.0155C102.991 70.9294 103.182 70.6897 103.182 70.4118C103.182 70.1243 102.953 69.8559 102.637 69.8559C102.244 69.8559 101.89 70.2968 101.613 70.8239H101.584Z" fill="white"/>
<path d="M48.2104 38.934H37.5015C43.9951 28.8562 68.4889 8.70068 114.514 8.70068C76.418 15.546 54.4382 31.7083 48.2104 38.934Z" fill="white"/>
<path d="M34.6503 68.3696H30.2073C29.3337 72.1726 28.111 82.2656 30.2073 92.214C30.2073 80.6227 33.1693 71.4881 34.6503 68.3696Z" fill="white"/>
</svg>
