<svg width="88" height="89" viewBox="0 0 88 89" fill="none" xmlns="http://www.w3.org/2000/svg">
<g clip-path="url(#clip0_2666_2291)">
<mask id="mask0_2666_2291" style="mask-type:luminance" maskUnits="userSpaceOnUse" x="0" y="0" width="88" height="89">
<path d="M0 0.834473H88V88.9533H0V0.834473Z" fill="white"/>
</mask>
<g mask="url(#mask0_2666_2291)">
<path fill-rule="evenodd" clip-rule="evenodd" d="M44 0.834473H0V44.8938C0 53.608 2.58056 62.1264 7.41534 69.372C12.2501 76.6175 19.122 82.2647 27.1619 85.5994C35.2018 88.9339 44.0488 89.8063 52.584 88.1067C61.1191 86.4066 68.9592 82.2104 75.1127 76.0486C81.2662 69.8868 85.4568 62.0361 87.1545 53.4895C88.8518 44.9427 87.9809 36.0839 84.6507 28.0331C81.3204 19.9823 75.6808 13.1011 68.4451 8.25982C61.2093 3.41851 52.7024 0.834473 44 0.834473ZM44.24 86.1882C66.9161 86.1882 85.2987 67.7808 85.2987 45.0742C85.2987 22.3675 66.9161 3.96007 44.24 3.96007C21.5639 3.96007 3.18133 22.3675 3.18133 45.0742C3.18133 67.7808 21.5639 86.1882 44.24 86.1882ZM12.9855 14.0583H2.6216C2.56462 14.0532 2.51133 14.0279 2.47122 13.987C2.43078 13.9458 2.40598 13.8917 2.40109 13.8341V3.46305C2.40606 3.40527 2.43089 3.35112 2.47122 3.31012C2.51154 3.26911 2.56479 3.24386 2.6216 3.2388H12.9855C13.0425 3.24393 13.0958 3.26921 13.1358 3.31012C13.1762 3.35112 13.2011 3.40527 13.206 3.46305V13.8901C13.1918 13.9385 13.1628 13.981 13.123 14.0112C13.0835 14.0414 13.0352 14.058 12.9855 14.0583Z" fill="white"/>
<path d="M7.08348 5.70312H4.56233V6.54464H7.08348V5.70312ZM7.38362 7.68717H4.56233V8.8292H7.38362V7.68717ZM7.98353 9.30963H4.50195V10.1512H7.98353V9.30963ZM7.62337 10.7525H4.50195V11.594H7.62337V10.7525ZM10.4448 11.6542L9.6044 10.8127L8.82402 11.6542V5.76358H10.4448V11.6542ZM23.8322 37.0618C23.8322 38.4316 22.7248 39.543 21.3527 39.543H17.1018C15.7333 39.543 14.6243 38.4316 14.6243 37.0618C14.6243 35.6889 15.7333 34.581 17.1018 34.581H21.3527C22.7248 34.581 23.8322 35.6889 23.8322 37.0618ZM73.9557 33.9736C74.0127 33.9736 74.0769 33.9675 74.109 33.9113C74.1355 33.8895 74.1396 33.8604 74.1396 33.8288C74.1396 33.7763 74.109 33.735 74.0652 33.7095C74.0169 33.6917 73.9782 33.6917 73.8875 33.6917H73.8386V33.9736H73.9557Z" fill="white"/>
<path fill-rule="evenodd" clip-rule="evenodd" d="M73.29 34.0442C73.29 33.669 73.5925 33.3677 73.9683 33.3677C74.3475 33.3677 74.6465 33.669 74.6465 34.0442C74.6465 34.4179 74.3475 34.7202 73.9683 34.7202C73.5925 34.7202 73.29 34.4179 73.29 34.0442ZM73.8878 33.537C74.0171 33.537 74.0747 33.5415 74.1424 33.5624C74.3119 33.6175 74.3247 33.776 74.3247 33.8316C74.3247 33.8448 74.3211 33.8759 74.314 33.9111C74.3069 33.9488 74.2865 34.0269 74.2 34.0784C74.1968 34.0798 74.1937 34.0814 74.1906 34.083L74.1852 34.0862L74.1803 34.0891C74.1746 34.0925 74.1683 34.0964 74.1587 34.1013L74.3791 34.5015H74.1627L73.9657 34.1288H73.8389V34.5015H73.6464V33.537H73.8878Z" fill="white"/>
<path d="M36.1887 49.6985C36.1648 49.7837 36.1468 49.8752 36.1345 49.9731H38.0388V49.9239C38.0294 49.7548 37.9942 49.5904 37.9333 49.4308C37.8746 49.2711 37.7809 49.1396 37.6519 49.0363C37.5229 48.933 37.347 48.8813 37.1243 48.8813C36.9765 48.8813 36.8406 48.9131 36.7162 48.9764C36.592 49.0375 36.4853 49.1291 36.3962 49.2512C36.3071 49.3732 36.238 49.5223 36.1887 49.6985ZM50.7289 49.6985C50.7051 49.7837 50.687 49.8752 50.6747 49.9731H52.5789V49.9239C52.5696 49.7548 52.5344 49.5904 52.4734 49.4308C52.4148 49.2711 52.321 49.1396 52.1921 49.0363C52.0631 48.933 51.8873 48.8813 51.6645 48.8813C51.5168 48.8813 51.3807 48.9131 51.2565 48.9764C51.1322 49.0375 51.0255 49.1291 50.9364 49.2512C50.8473 49.3732 50.7781 49.5223 50.7289 49.6985ZM56.2263 49.2089C56.2895 49.2791 56.3433 49.3572 56.3881 49.4431V51.1859C56.3779 51.2057 56.3674 51.2252 56.3564 51.2446C56.272 51.3948 56.1595 51.5157 56.0188 51.6074C55.8804 51.6989 55.7034 51.7447 55.4877 51.7447C55.3119 51.7447 55.1606 51.7095 55.034 51.639C54.9073 51.5662 54.803 51.4665 54.721 51.3397C54.6389 51.2129 54.578 51.0662 54.5381 50.8994C54.5005 50.7327 54.4818 50.5543 54.4818 50.3641V50.2901C54.4818 50.0999 54.5005 49.9215 54.5381 49.7548C54.578 49.5858 54.6389 49.4378 54.721 49.311C54.803 49.1819 54.9073 49.0809 55.034 49.0081C55.163 48.933 55.3165 48.8954 55.4947 48.8954C55.6589 48.8954 55.8007 48.9236 55.9203 48.98C56.0423 49.0363 56.1443 49.1127 56.2263 49.2089ZM25.1657 56.0709V58.0784H26.3756C26.6406 58.0784 26.8551 58.0361 27.0193 57.9516C27.1835 57.8671 27.3031 57.7497 27.378 57.5994C27.4555 57.4491 27.4941 57.2777 27.4941 57.0852C27.4941 56.9091 27.4555 56.7436 27.378 56.5886C27.3031 56.4337 27.1835 56.3091 27.0193 56.2153C26.8551 56.119 26.6406 56.0709 26.3756 56.0709H25.1657ZM31.7816 58.6982V58.7793C31.7816 58.9695 31.8039 59.149 31.8484 59.3181C31.893 59.4849 31.9598 59.6327 32.0489 59.7619C32.1404 59.891 32.2541 59.9932 32.3901 60.0683C32.5261 60.1411 32.6843 60.1775 32.8649 60.1775C33.0431 60.1775 33.1991 60.1411 33.3327 60.0683C33.4687 59.9932 33.5812 59.891 33.6704 59.7619C33.7594 59.6327 33.8263 59.4849 33.8709 59.3181C33.9178 59.149 33.9412 58.9695 33.9412 58.7793V58.6982C33.9412 58.5104 33.9178 58.3331 33.8709 58.1664C33.8263 57.9974 33.7583 57.8483 33.6669 57.7191C33.5777 57.5877 33.4652 57.4844 33.3292 57.4092C33.1955 57.3341 33.0385 57.2965 32.8579 57.2965C32.6797 57.2965 32.5226 57.3341 32.3866 57.4092C32.253 57.4844 32.1404 57.5877 32.0489 57.7191C31.9598 57.8483 31.893 57.9974 31.8484 58.1664C31.8039 58.3331 31.7816 58.5104 31.7816 58.6982ZM38.3904 58.1136C38.3667 58.1989 38.3486 58.2904 38.3363 58.3883H40.2406V58.3391C40.2311 58.17 40.196 58.0056 40.135 57.8459C40.0764 57.6863 39.9826 57.5548 39.8536 57.4515C39.7247 57.3482 39.5488 57.2965 39.3261 57.2965C39.1783 57.2965 39.0424 57.3282 38.9181 57.3916C38.7938 57.4527 38.6871 57.5442 38.598 57.6664C38.5089 57.7884 38.4397 57.9375 38.3904 58.1136ZM51.3233 58.7793V58.6982C51.3233 58.5104 51.3456 58.3331 51.3902 58.1664C51.4347 57.9974 51.5015 57.8483 51.5906 57.7191C51.6821 57.5877 51.7946 57.4844 51.9283 57.4092C52.0642 57.3341 52.2214 57.2965 52.3996 57.2965C52.5801 57.2965 52.7373 57.3341 52.8709 57.4092C53.0069 57.4844 53.1194 57.5877 53.2085 57.7191C53.3 57.8483 53.368 57.9974 53.4126 58.1664C53.4595 58.3331 53.4829 58.5104 53.4829 58.6982V58.7793C53.4829 58.9695 53.4595 59.149 53.4126 59.3181C53.368 59.4849 53.3012 59.6327 53.212 59.7619C53.123 59.891 53.0104 59.9932 52.8744 60.0683C52.7408 60.1411 52.5848 60.1775 52.4066 60.1775C52.2261 60.1775 52.0678 60.1411 51.9318 60.0683C51.7957 59.9932 51.6821 59.891 51.5906 59.7619C51.5015 59.6327 51.4347 59.4849 51.3902 59.3181C51.3456 59.149 51.3233 58.9695 51.3233 58.7793ZM61.1786 59.571C61.1562 59.6154 61.1282 59.6602 61.0942 59.7055C61.005 59.8276 60.8843 59.9309 60.7319 60.0155C60.5795 60.1 60.4036 60.1422 60.2043 60.1422C60.0449 60.1422 59.9101 60.1141 59.7998 60.0577C59.692 59.999 59.611 59.9203 59.5572 59.8217C59.5032 59.7231 59.4762 59.614 59.4762 59.4942C59.4762 59.3768 59.502 59.2747 59.5536 59.1878C59.6052 59.0985 59.6802 59.0246 59.7788 58.9659C59.8772 58.9072 59.9991 58.8638 60.1445 58.8356C60.2899 58.8051 60.4552 58.7899 60.6405 58.7899H61.1786V59.571ZM18.9619 65.9619L18.4126 65.2878L19.6127 64.8682L18.9619 65.9619ZM24.1313 70.7485L23.4525 70.2053L24.5375 69.542L24.1313 70.7485ZM48.5054 77.6977L48.856 77.6522C49.0374 77.6287 49.1836 77.5712 49.2948 77.4799C49.4058 77.3873 49.4826 77.2685 49.5253 77.1232C49.569 76.9767 49.5789 76.8109 49.5549 76.6258L49.5349 76.4704C49.516 76.3248 49.4819 76.1978 49.4324 76.0894C49.3827 75.9798 49.3192 75.8905 49.2416 75.8212C49.1639 75.7508 49.0736 75.7015 48.9707 75.6734C48.869 75.6452 48.7553 75.6392 48.6297 75.6555L48.2478 75.7051L48.5054 77.6977ZM65.3457 69.2548L65.2436 69.1247C65.1493 69.0048 65.0535 68.9085 64.9561 68.8358C64.8596 68.7624 64.7633 68.7128 64.667 68.6871C64.5707 68.6615 64.4758 68.6593 64.3822 68.6807C64.2895 68.7014 64.2004 68.7455 64.1147 68.813C64.0318 68.8784 63.9694 68.9537 63.9275 69.039C63.8865 69.1236 63.8668 69.2161 63.8681 69.3165C63.8705 69.4163 63.895 69.5225 63.9417 69.6351C63.9883 69.7477 64.0588 69.8639 64.1531 69.9839L64.2553 70.1139C64.3503 70.2348 64.4472 70.3317 64.5462 70.4045C64.6446 70.4764 64.7427 70.5254 64.8406 70.5513C64.9387 70.5756 65.0337 70.5777 65.1254 70.5578C65.218 70.5371 65.3059 70.494 65.3888 70.4287C65.4753 70.3605 65.5396 70.2836 65.5815 70.1983C65.6234 70.1131 65.6427 70.021 65.6395 69.9219C65.6365 69.8212 65.6107 69.7153 65.5621 69.6042C65.5128 69.4922 65.4408 69.3757 65.3457 69.2548ZM67.2538 67.354L66.5486 66.6406L66.9786 66.2144C67.0727 66.1211 67.1658 66.0627 67.258 66.039C67.3493 66.0146 67.4355 66.0168 67.5166 66.0454C67.5985 66.0732 67.6704 66.1184 67.7323 66.1809C67.8 66.2494 67.8464 66.3239 67.8717 66.4046C67.8978 66.4844 67.8966 66.5682 67.8679 66.6561C67.8393 66.7439 67.7779 66.8345 67.6837 66.9278L67.2538 67.354ZM71.6065 61.9104L70.7951 61.3799L71.0729 60.9538C71.144 60.8447 71.2193 60.767 71.2985 60.7206C71.3773 60.6726 71.4583 60.6526 71.5413 60.6606C71.6243 60.6686 71.707 60.6996 71.7895 60.7535C71.8631 60.8016 71.9191 60.8628 71.9576 60.937C71.9961 61.0112 72.0113 61.0941 72.0034 61.1856C71.9945 61.2766 71.9567 61.3732 71.8901 61.4754L71.6065 61.9104Z" fill="white"/>
<path fill-rule="evenodd" clip-rule="evenodd" d="M79.8362 45.0139C79.8362 64.766 63.8456 80.7784 44.12 80.7784C24.3945 80.7784 8.40381 64.766 8.40381 45.0139C8.40381 25.2618 24.3945 9.24951 44.12 9.24951C63.8456 9.24951 79.8362 25.2618 79.8362 45.0139ZM39.7055 39.5397L38.839 38.1888H42.7665L40.6922 34.8374L36.8813 40.8928L35.1436 40.8948L39.7799 33.6245C39.9774 33.3313 40.3165 33.1519 40.6887 33.1519C41.0523 33.1519 41.3857 33.3247 41.5838 33.6117L46.2363 40.8948L44.5002 40.8928L43.682 39.5397H39.7055ZM63.7241 39.5402L62.8484 40.8932H56.1414C55.9388 40.8932 55.7458 40.8121 55.6043 40.6684C55.4674 40.5337 55.3868 40.3487 55.3868 40.1605V33.2262H56.8608V39.5402H63.7241ZM32.5046 38.4099C33.9383 38.4099 35.0911 37.2496 35.0911 35.8191C35.0911 34.3865 33.9383 33.2262 32.5046 33.2262H26.0619V40.8932H27.5348V34.5808H32.4053C33.0901 34.5808 33.6435 35.1339 33.6435 35.8191C33.6435 36.5012 33.0901 37.0615 32.4053 37.0615L28.2542 37.0599L32.6507 40.8932H34.7876L31.8336 38.4099H32.5046ZM13.1743 37.0615C13.1743 39.1802 14.8886 40.8932 17.0031 40.8932L21.4546 40.8952C23.5716 40.8952 25.2772 39.1802 25.2772 37.0615C25.2772 34.9437 23.5716 33.2262 21.4546 33.2262H17.0031C14.8886 33.2262 13.1743 34.9437 13.1743 37.0615ZM49.3125 40.8932C47.1944 40.8932 45.4776 39.1802 45.4776 37.0615C45.4776 34.9437 47.1944 33.2262 49.3125 33.2262H54.5989L53.7278 34.5808H49.4117C48.0371 34.5808 46.9312 35.6886 46.9312 37.0615C46.9312 38.4313 48.0371 39.5426 49.4117 39.5426H54.715L53.8541 40.8932H49.3125ZM64.9327 37.738C65.226 38.781 66.1817 39.5426 67.3145 39.5426H72.6254L71.7604 40.8932H67.2178C65.1049 40.8932 63.3905 39.1802 63.3905 37.0615C63.3905 34.9437 65.1049 33.2262 67.2178 33.2262H72.4977L71.6346 34.5808H67.3145C66.1817 34.5808 65.223 35.3414 64.9327 36.3865H72.0903L71.2212 37.738H64.9327ZM73.968 34.9067C74.4462 34.9067 74.827 34.5249 74.827 34.0487C74.827 33.5721 74.4462 33.1826 73.968 33.1826C73.492 33.1826 73.1066 33.5721 73.1066 34.0487C73.1066 34.5249 73.492 34.9067 73.968 34.9067ZM46.3922 52.2269H47.0429V48.9163H47.8202V48.4161H47.0429V48.0851C47.0429 47.8315 47.1038 47.6424 47.2257 47.518C47.35 47.3912 47.5517 47.3279 47.8307 47.3279C47.9995 47.3279 48.1543 47.3478 48.295 47.3877C48.438 47.4253 48.5634 47.4652 48.6713 47.5074L48.7803 46.958C48.6092 46.897 48.4427 46.8465 48.2809 46.8066C48.1191 46.7643 47.9538 46.7432 47.785 46.7432C47.4989 46.7432 47.2515 46.7948 47.0429 46.8982C46.8341 47.0015 46.6735 47.1529 46.561 47.3525C46.4484 47.5521 46.3922 47.7963 46.3922 48.0851V48.4161H45.7907V48.9163H46.3922V52.2269ZM49.1004 48.4161V52.2269H48.4497V48.4161H49.1004ZM34.8029 50.5963H34.1276C34.09 50.8358 34.0268 51.0412 33.9376 51.2126C33.851 51.384 33.7219 51.5154 33.5508 51.6071C33.3796 51.6986 33.1498 51.7444 32.8614 51.7444C32.6339 51.7444 32.437 51.6974 32.2705 51.6036C32.1041 51.5072 31.9669 51.3758 31.859 51.209C31.7511 51.0423 31.6702 50.8486 31.6163 50.6279C31.5647 50.4073 31.5389 50.1713 31.5389 49.92V49.4023C31.5389 49.1299 31.5682 48.8822 31.6268 48.6592C31.6855 48.4361 31.7722 48.2447 31.8871 48.0851C32.0044 47.9254 32.1486 47.8021 32.3198 47.7152C32.4933 47.6284 32.6938 47.585 32.9212 47.585C33.1861 47.585 33.4007 47.632 33.5649 47.7258C33.729 47.8197 33.8556 47.9536 33.9447 48.1274C34.0338 48.2987 34.0948 48.5042 34.1276 48.7437H34.8029C34.7677 48.4055 34.6751 48.1086 34.525 47.8526C34.3773 47.5943 34.1698 47.3924 33.9025 47.2469C33.6352 47.1013 33.3081 47.0285 32.9212 47.0285C32.6046 47.0285 32.3198 47.0848 32.0665 47.1975C31.8132 47.3102 31.5964 47.471 31.4158 47.6801C31.2376 47.889 31.1004 48.1402 31.0043 48.4337C30.9105 48.7249 30.8636 49.0501 30.8636 49.4093V49.92C30.8636 50.2793 30.9105 50.6056 31.0043 50.8991C31.1004 51.1903 31.2365 51.4404 31.4123 51.6493C31.5881 51.8559 31.798 52.0156 32.0419 52.1283C32.2881 52.241 32.5612 52.2973 32.8614 52.2973C33.2717 52.2973 33.6141 52.2234 33.8884 52.0754C34.1627 51.9252 34.375 51.7221 34.525 51.4662C34.6751 51.2103 34.7677 50.9203 34.8029 50.5963ZM37.2087 52.2973C36.9437 52.2973 36.7034 52.2527 36.4877 52.1635C36.2743 52.0719 36.0902 51.944 35.9354 51.7796C35.7831 51.6153 35.6658 51.4204 35.5838 51.1949C35.5017 50.9695 35.4606 50.7231 35.4606 50.4554V50.3074C35.4606 49.9975 35.5063 49.7216 35.5978 49.4798C35.6893 49.2355 35.8135 49.029 35.9706 48.8599C36.1277 48.6909 36.3059 48.5629 36.5052 48.476C36.7045 48.3892 36.9109 48.3457 37.1243 48.3457C37.3963 48.3457 37.6307 48.3927 37.8277 48.4866C38.027 48.5805 38.19 48.712 38.3166 48.881C38.4432 49.0478 38.537 49.245 38.598 49.4728C38.6589 49.6982 38.6895 49.9446 38.6895 50.2123V50.5046H36.1155C36.1195 50.6672 36.144 50.821 36.1887 50.966C36.2402 51.1234 36.3142 51.2619 36.4103 51.3817C36.5087 51.5014 36.6272 51.5953 36.7655 51.6634C36.9062 51.7315 37.0657 51.7655 37.2439 51.7655C37.4736 51.7655 37.6683 51.7185 37.8277 51.6246C37.9871 51.5308 38.1267 51.4051 38.2463 51.2478L38.6402 51.5613C38.5582 51.6857 38.4538 51.8043 38.3272 51.917C38.2005 52.0297 38.0446 52.1213 37.8594 52.1917C37.6765 52.2622 37.4596 52.2973 37.2087 52.2973ZM40.0998 52.2269V49.5177C40.1455 49.4111 40.2053 49.3186 40.2792 49.2403C40.3589 49.1558 40.4562 49.09 40.5712 49.0431C40.6861 48.9961 40.8185 48.9726 40.9686 48.9726C41.0296 48.9726 41.0835 48.975 41.1304 48.9796C41.1796 48.982 41.2313 48.9891 41.2851 49.0008L41.2886 48.395C41.2652 48.3833 41.223 48.3727 41.1621 48.3633C41.1011 48.3515 41.0472 48.3457 41.0003 48.3457C40.7939 48.3457 40.6157 48.3903 40.4656 48.4796C40.3179 48.5665 40.196 48.6885 40.0998 48.8458L40.0951 48.8535L40.0822 48.4161H39.4492V52.2269H40.0998ZM43.6593 48.4161V48.9163H42.9488V51.2831C42.9488 51.4122 42.9687 51.5096 43.0086 51.5754C43.0485 51.6411 43.1 51.6845 43.1634 51.7057C43.2267 51.7268 43.2947 51.7373 43.3674 51.7373C43.4213 51.7373 43.4775 51.7326 43.5361 51.7233C43.5971 51.7115 43.6429 51.7022 43.6733 51.6951L43.6769 52.2269C43.6253 52.2434 43.5573 52.2586 43.4729 52.2727C43.3908 52.2891 43.2912 52.2973 43.1739 52.2973C43.0145 52.2973 42.8679 52.2657 42.7342 52.2022C42.6006 52.1389 42.4939 52.0332 42.4141 51.8853C42.3368 51.735 42.2981 51.5331 42.2981 51.2795V48.9163H41.6017V48.4161H42.2981V47.4898H42.9488V48.4161H43.6593ZM45.1295 48.4161V52.2269H44.4753V48.4161H45.1295ZM44.521 47.1377C44.4577 47.2105 44.426 47.2997 44.426 47.4053C44.426 47.5063 44.4577 47.5932 44.521 47.666C44.5867 47.7364 44.6828 47.7716 44.8094 47.7716C44.9337 47.7716 45.0286 47.7364 45.0943 47.666C45.1623 47.5932 45.1963 47.5063 45.1963 47.4053C45.1963 47.2997 45.1623 47.2105 45.0943 47.1377C45.0286 47.0649 44.9337 47.0285 44.8094 47.0285C44.6828 47.0285 44.5867 47.0649 44.521 47.1377ZM51.7489 52.2973C51.484 52.2973 51.2435 52.2527 51.0278 52.1635C50.8144 52.0719 50.6304 51.944 50.4757 51.7796C50.3232 51.6153 50.206 51.4204 50.1239 51.1949C50.0419 50.9695 50.0008 50.7231 50.0008 50.4554V50.3074C50.0008 49.9975 50.0466 49.7216 50.138 49.4798C50.2294 49.2355 50.3537 49.029 50.5108 48.8599C50.6679 48.6909 50.8461 48.5629 51.0454 48.476C51.2448 48.3892 51.4511 48.3457 51.6644 48.3457C51.9364 48.3457 52.171 48.3927 52.3679 48.4866C52.5672 48.5805 52.7302 48.712 52.8568 48.881C52.9835 49.0478 53.0772 49.245 53.1382 49.4728C53.1992 49.6982 53.2296 49.9446 53.2296 50.2123V50.5046H50.6556C50.6597 50.6672 50.6841 50.821 50.7289 50.966C50.7805 51.1234 50.8543 51.2619 50.9505 51.3817C51.049 51.5014 51.1673 51.5953 51.3058 51.6634C51.4464 51.7315 51.6058 51.7655 51.784 51.7655C52.0139 51.7655 52.2085 51.7185 52.3679 51.6246C52.5274 51.5308 52.6669 51.4051 52.7864 51.2478L53.1804 51.5613C53.0983 51.6857 52.9939 51.8043 52.8674 51.917C52.7408 52.0297 52.5848 52.1213 52.3996 52.1917C52.2166 52.2622 51.9998 52.2973 51.7489 52.2973ZM55.959 52.1741C56.138 52.0902 56.2894 51.9707 56.4131 51.8153L56.4443 52.2269H57.0423V46.8172H56.3881V48.8003C56.2692 48.6578 56.1261 48.5486 55.959 48.4725C55.7808 48.3879 55.5721 48.3457 55.3329 48.3457C55.1055 48.3457 54.8991 48.3927 54.7139 48.4866C54.531 48.5782 54.3727 48.7096 54.2391 48.881C54.1078 49.0524 54.0058 49.2579 53.9331 49.4973C53.8628 49.7346 53.8276 49.9986 53.8276 50.2898V50.3638C53.8276 50.6409 53.8628 50.898 53.9331 51.1351C54.0058 51.3699 54.1078 51.5742 54.2391 51.7479C54.3727 51.9217 54.531 52.0567 54.7139 52.153C54.8991 52.2492 55.1031 52.2973 55.3259 52.2973C55.5674 52.2973 55.7784 52.2562 55.959 52.1741ZM26.3756 58.631H25.1657V60.6421H24.4869V55.5141H26.3756C26.7626 55.5141 27.0896 55.581 27.3569 55.7148C27.6242 55.8487 27.8271 56.0342 27.9654 56.2713C28.1038 56.5061 28.1729 56.775 28.1729 57.0779C28.1729 57.4065 28.1038 57.6871 27.9654 57.9196C27.8271 58.152 27.6242 58.3293 27.3569 58.4514C27.0896 58.5712 26.7626 58.631 26.3756 58.631ZM29.5833 60.6421V57.9329C29.6291 57.8262 29.6888 57.7338 29.7627 57.6555C29.8425 57.571 29.9398 57.5051 30.0546 57.4583C30.1696 57.4113 30.302 57.3878 30.4521 57.3878C30.513 57.3878 30.567 57.3901 30.6139 57.3948C30.6632 57.3972 30.7147 57.4042 30.7687 57.416L30.7722 56.8101C30.7487 56.7984 30.7065 56.7878 30.6456 56.7785C30.5846 56.7667 30.5306 56.7609 30.4837 56.7609C30.2774 56.7609 30.0993 56.8055 29.9491 56.8947C29.8015 56.9815 29.6795 57.1037 29.5833 57.261L29.5786 57.2687L29.5658 56.8313H28.9326V60.6421H29.5833ZM31.131 58.779V58.6979C31.131 58.4232 31.1708 58.1685 31.2506 57.9337C31.3302 57.6965 31.4451 57.4911 31.5952 57.3174C31.7453 57.1412 31.927 57.0051 32.1404 56.9087C32.3537 56.8101 32.5929 56.7609 32.8579 56.7609C33.1252 56.7609 33.3655 56.8101 33.5789 56.9087C33.7946 57.0051 33.9775 57.1412 34.1276 57.3174C34.28 57.4911 34.3961 57.6965 34.4758 57.9337C34.5556 58.1685 34.5954 58.4232 34.5954 58.6979V58.779C34.5954 59.0536 34.5556 59.3084 34.4758 59.5432C34.3961 59.778 34.28 59.9835 34.1276 60.1595C33.9775 60.3333 33.7958 60.4695 33.5825 60.5681C33.3714 60.6644 33.1323 60.7125 32.8649 60.7125C32.5976 60.7125 32.3572 60.6644 32.1439 60.5681C31.9305 60.4695 31.7476 60.3333 31.5952 60.1595C31.4451 59.9835 31.3302 59.778 31.2506 59.5432C31.1708 59.3084 31.131 59.0536 31.131 58.779ZM36.3821 60.6421H35.7314V57.3315H35.13V56.8313H35.7314V56.4298C35.7314 56.1551 35.7807 55.9238 35.8792 55.736C35.98 55.5458 36.1242 55.4025 36.3118 55.3063C36.4994 55.2077 36.7221 55.1584 36.9801 55.1584C37.0551 55.1584 37.1301 55.163 37.2052 55.1725C37.2825 55.1819 37.3576 55.1959 37.4303 55.2147L37.3951 55.7465C37.3459 55.7348 37.2896 55.7265 37.2263 55.7219C37.1654 55.7172 37.1044 55.7148 37.0434 55.7148C36.905 55.7148 36.7855 55.743 36.6846 55.7993C36.5862 55.8533 36.5111 55.9332 36.4595 56.0388C36.408 56.1445 36.3821 56.2748 36.3821 56.4298V56.8313H37.1911V57.3315H36.3821V60.6421ZM39.4104 60.7125C39.1455 60.7125 38.9051 60.6679 38.6895 60.5787C38.4761 60.4871 38.292 60.3591 38.1373 60.1948C37.9848 60.0304 37.8675 59.8355 37.7855 59.6101C37.7034 59.3847 37.6624 59.1381 37.6624 58.8705V58.7226C37.6624 58.4127 37.7082 58.1368 37.7996 57.895C37.891 57.6507 38.0153 57.4442 38.1724 57.2751C38.3295 57.106 38.5077 56.978 38.7071 56.8912C38.9063 56.8043 39.1127 56.7609 39.3261 56.7609C39.5981 56.7609 39.8325 56.8078 40.0295 56.9017C40.2288 56.9956 40.3917 57.1271 40.5184 57.2962C40.645 57.4629 40.7388 57.6601 40.7998 57.8879C40.8608 58.1133 40.8912 58.3598 40.8912 58.6275V58.9198H38.3172C38.3214 59.0824 38.3457 59.2361 38.3904 59.3812C38.4421 59.5386 38.5159 59.6771 38.612 59.7968C38.7106 59.9165 38.8289 60.0104 38.9673 60.0786C39.108 60.1467 39.2674 60.1807 39.4456 60.1807C39.6754 60.1807 39.8701 60.1337 40.0295 60.0398C40.189 59.9459 40.3285 59.8203 40.448 59.663L40.8419 59.9764C40.7599 60.1009 40.6556 60.2195 40.5289 60.3322C40.4023 60.4449 40.2464 60.5364 40.0611 60.6068C39.8782 60.6773 39.6613 60.7125 39.4104 60.7125ZM43.8668 59.6313C43.8668 59.5373 43.8457 59.4504 43.8035 59.3706C43.7636 59.2885 43.6804 59.2145 43.5537 59.1487C43.4295 59.0807 43.2419 59.022 42.991 58.9727C42.78 58.9281 42.5888 58.8752 42.4177 58.8141C42.2489 58.7532 42.1046 58.6791 41.9851 58.5923C41.8678 58.5054 41.7776 58.4032 41.7143 58.2859C41.6509 58.1685 41.6192 58.0311 41.6192 57.8738C41.6192 57.7235 41.6522 57.5814 41.7178 57.4477C41.7857 57.3138 41.8807 57.1952 42.0027 57.0919C42.1269 56.9886 42.2758 56.9076 42.4493 56.8489C42.6229 56.7902 42.8163 56.7609 43.0297 56.7609C43.3345 56.7609 43.5948 56.8149 43.8105 56.9228C44.0262 57.0309 44.1916 57.1753 44.3064 57.356C44.4213 57.5345 44.4788 57.7329 44.4788 57.9513H43.8281C43.8281 57.8456 43.7965 57.7435 43.7332 57.6449C43.6722 57.5439 43.5819 57.4605 43.4623 57.3948C43.3451 57.3291 43.2009 57.2962 43.0297 57.2962C42.8491 57.2962 42.7026 57.3244 42.5901 57.3807C42.4798 57.4347 42.3989 57.504 42.3474 57.5885C42.2981 57.6731 42.2735 57.7623 42.2735 57.8562C42.2735 57.9266 42.2852 57.9901 42.3086 58.0464C42.3344 58.1004 42.379 58.1509 42.4423 58.1978C42.5057 58.2424 42.5947 58.2847 42.7096 58.3246C42.8245 58.3646 42.9711 58.4045 43.1493 58.4444C43.4612 58.5148 43.7179 58.5993 43.9196 58.6979C44.1212 58.7965 44.2713 58.9175 44.3698 59.0607C44.4682 59.204 44.5174 59.3777 44.5174 59.582C44.5174 59.7486 44.4823 59.9013 44.4119 60.0398C44.344 60.1784 44.2443 60.2981 44.113 60.399C43.9841 60.4977 43.8293 60.5752 43.6487 60.6315C43.4705 60.6855 43.27 60.7125 43.0473 60.7125C42.7119 60.7125 42.4282 60.6527 42.1961 60.5329C41.9639 60.4131 41.7881 60.2581 41.6685 60.068C41.5489 59.8778 41.4892 59.6771 41.4892 59.4658H42.1434C42.1527 59.6442 42.2044 59.7863 42.2981 59.8919C42.3919 59.9952 42.5068 60.0691 42.6428 60.1138C42.7788 60.156 42.9136 60.1772 43.0473 60.1772C43.2255 60.1772 43.3744 60.1537 43.494 60.1068C43.6159 60.0598 43.7085 59.9952 43.7718 59.9131C43.8352 59.8309 43.8668 59.7369 43.8668 59.6313ZM47.588 59.6313C47.588 59.5373 47.5669 59.4504 47.5247 59.3706C47.4848 59.2885 47.4016 59.2145 47.275 59.1487C47.1507 59.0807 46.9631 59.022 46.7122 58.9727C46.5012 58.9281 46.3101 58.8752 46.1389 58.8141C45.9701 58.7532 45.8259 58.6791 45.7063 58.5923C45.5891 58.5054 45.4988 58.4032 45.4354 58.2859C45.3722 58.1685 45.3405 58.0311 45.3405 57.8738C45.3405 57.7235 45.3733 57.5814 45.439 57.4477C45.507 57.3138 45.6019 57.1952 45.7239 57.0919C45.8482 56.9886 45.9971 56.9076 46.1706 56.8489C46.344 56.7902 46.5376 56.7609 46.7509 56.7609C47.0557 56.7609 47.316 56.8149 47.5317 56.9228C47.7475 57.0309 47.9127 57.1753 48.0277 57.356C48.1426 57.5345 48.2 57.7329 48.2 57.9513H47.5493C47.5493 57.8456 47.5177 57.7435 47.4543 57.6449C47.3934 57.5439 47.3031 57.4605 47.1836 57.3948C47.0663 57.3291 46.9221 57.2962 46.7509 57.2962C46.5704 57.2962 46.4238 57.3244 46.3112 57.3807C46.201 57.4347 46.1202 57.504 46.0686 57.5885C46.0193 57.6731 45.9947 57.7623 45.9947 57.8562C45.9947 57.9266 46.0064 57.9901 46.0299 58.0464C46.0557 58.1004 46.1002 58.1509 46.1636 58.1978C46.2268 58.2424 46.316 58.2847 46.4308 58.3246C46.5457 58.3646 46.6923 58.4045 46.8705 58.4444C47.1823 58.5148 47.4391 58.5993 47.6407 58.6979C47.8424 58.7965 47.9925 58.9175 48.0909 59.0607C48.1895 59.204 48.2387 59.3777 48.2387 59.582C48.2387 59.7486 48.2035 59.9013 48.1332 60.0398C48.0652 60.1784 47.9655 60.2981 47.8342 60.399C47.7052 60.4977 47.5505 60.5752 47.37 60.6315C47.1918 60.6855 46.9913 60.7125 46.7685 60.7125C46.4332 60.7125 46.1495 60.6527 45.9173 60.5329C45.6852 60.4131 45.5094 60.2581 45.3898 60.068C45.2702 59.8778 45.2103 59.6771 45.2103 59.4658H45.8645C45.874 59.6442 45.9255 59.7863 46.0193 59.8919C46.1131 59.9952 46.228 60.0691 46.364 60.1138C46.5 60.156 46.6348 60.1772 46.7685 60.1772C46.9467 60.1772 47.0956 60.1537 47.2152 60.1068C47.3371 60.0598 47.4297 59.9952 47.4931 59.9131C47.5563 59.8309 47.588 59.7369 47.588 59.6313ZM49.8003 56.8313V60.6421H49.1461V56.8313H49.8003ZM49.1919 55.5529C49.1285 55.6256 49.0969 55.7148 49.0969 55.8205C49.0969 55.9215 49.1285 56.0083 49.1919 56.0811C49.2576 56.1515 49.3536 56.1868 49.4803 56.1868C49.6045 56.1868 49.6995 56.1515 49.7651 56.0811C49.8332 56.0083 49.8671 55.9215 49.8671 55.8205C49.8671 55.7148 49.8332 55.6256 49.7651 55.5529C49.6995 55.4801 49.6045 55.4437 49.4803 55.4437C49.3536 55.4437 49.2576 55.4801 49.1919 55.5529ZM50.6726 58.6979V58.779C50.6726 59.0536 50.7125 59.3084 50.7922 59.5432C50.8719 59.778 50.9868 59.9835 51.1369 60.1595C51.2893 60.3333 51.4722 60.4695 51.6856 60.5681C51.899 60.6644 52.1393 60.7125 52.4066 60.7125C52.6739 60.7125 52.9131 60.6644 53.1241 60.5681C53.3375 60.4695 53.5192 60.3333 53.6693 60.1595C53.8217 59.9835 53.9377 59.778 54.0175 59.5432C54.0972 59.3084 54.1371 59.0536 54.1371 58.779V58.6979C54.1371 58.4232 54.0972 58.1685 54.0175 57.9337C53.9377 57.6965 53.8217 57.4911 53.6693 57.3174C53.5192 57.1412 53.3364 57.0051 53.1206 56.9087C52.9072 56.8101 52.6668 56.7609 52.3996 56.7609C52.1346 56.7609 51.8954 56.8101 51.682 56.9087C51.4686 57.0051 51.2869 57.1412 51.1369 57.3174C50.9868 57.4911 50.8719 57.6965 50.7922 57.9337C50.7125 58.1685 50.6726 58.4232 50.6726 58.6979ZM55.6038 57.9226V60.6421H54.9531V56.8313H55.5686L55.5891 57.3054L55.6001 57.2917L55.6108 57.2786C55.7468 57.1142 55.9086 56.9874 56.0962 56.8983C56.2861 56.8066 56.496 56.7609 56.7258 56.7609C56.9134 56.7609 57.0822 56.7867 57.2322 56.8383C57.3823 56.8877 57.5101 56.9675 57.6156 57.0779C57.7235 57.1882 57.8055 57.3315 57.8618 57.5075C57.9181 57.6813 57.9462 57.8937 57.9462 58.145V60.6421H57.292V58.1379C57.292 57.9384 57.2627 57.7787 57.2041 57.659C57.1454 57.5369 57.0599 57.4488 56.9473 57.3948C56.8348 57.3385 56.6965 57.3103 56.5323 57.3103C56.3705 57.3103 56.2228 57.3443 56.0892 57.4124C55.9578 57.4806 55.8441 57.5744 55.748 57.6941C55.6931 57.7643 55.645 57.8404 55.6038 57.9226ZM61.1933 60.2393C61.1614 60.2726 61.1284 60.3048 61.0942 60.3357C60.9746 60.4436 60.8315 60.534 60.6651 60.6068C60.5009 60.6773 60.3156 60.7125 60.1094 60.7125C59.8514 60.7125 59.6251 60.6621 59.4305 60.5611C59.2382 60.4601 59.0881 60.3251 58.9803 60.156C58.8748 59.9846 58.822 59.7933 58.822 59.582C58.822 59.3777 58.8619 59.1981 58.9416 59.0431C59.0213 58.8858 59.1363 58.7555 59.2863 58.6522C59.4363 58.5465 59.6169 58.4667 59.8279 58.4127C60.039 58.3587 60.2746 58.3317 60.5349 58.3317H61.1786V58.0287C61.1786 57.8785 61.1481 57.7482 61.0871 57.6378C61.0285 57.5251 60.9394 57.4383 60.8198 57.3772C60.7002 57.3161 60.5525 57.2856 60.3766 57.2856C60.2125 57.2856 60.0683 57.3138 59.944 57.3701C59.822 57.4265 59.7259 57.5005 59.6556 57.592C59.5876 57.6837 59.5536 57.7823 59.5536 57.8879H58.9029C58.9029 57.7517 58.9381 57.6167 59.0084 57.4828C59.0788 57.3491 59.1796 57.2281 59.3109 57.1201C59.4446 57.0097 59.604 56.9228 59.7892 56.8595C59.9768 56.7938 60.1856 56.7609 60.4153 56.7609C60.692 56.7609 60.9359 56.8078 61.1469 56.9017C61.3603 56.9956 61.5268 57.1377 61.6464 57.3279C61.7682 57.5157 61.8292 57.7517 61.8292 58.0358V59.8108C61.8292 59.9377 61.8398 60.0727 61.8609 60.2159C61.8843 60.3591 61.9184 60.4824 61.9629 60.5857V60.6421H61.2841C61.2512 60.5669 61.2255 60.4672 61.2067 60.3427C61.2015 60.3075 61.197 60.273 61.1933 60.2393ZM63.5597 60.6421V55.2323H62.9056V60.6421H63.5597ZM18.0058 62.1012L16.4876 63.0937C16.3953 63.1541 16.306 63.1879 16.2198 63.1952C16.1345 63.2019 16.0562 63.1858 15.9847 63.147C15.9148 63.1086 15.8555 63.052 15.8068 62.9773C15.7568 62.9007 15.726 62.8233 15.7144 62.7454C15.7034 62.6685 15.716 62.5943 15.7522 62.5231C15.7882 62.4518 15.8515 62.3866 15.9418 62.3275L15.7563 62.0429C15.6159 62.1347 15.5184 62.2398 15.464 62.3581C15.4095 62.4764 15.393 62.6015 15.4145 62.7332C15.4361 62.865 15.4898 62.9967 15.5756 63.1284C15.6615 63.2602 15.7625 63.3603 15.8785 63.4288C15.9963 63.4977 16.1226 63.5294 16.2576 63.5238C16.3926 63.5183 16.5308 63.4693 16.6722 63.3768L18.1904 62.3844L18.0058 62.1012ZM20.0303 64.7185L19.8424 64.4879L17.2415 65.3518L17.4605 65.6205L18.1335 65.3852L18.8105 66.216L18.4456 66.8294L18.6658 67.0995L20.0303 64.7185ZM20.3175 68.7347L21.4464 66.246L21.7076 66.5049L20.7389 68.5188L22.745 67.5331L23.0062 67.792L20.5312 68.9466L20.3175 68.7347ZM24.9144 69.3077L24.6822 69.1219L22.3212 70.5146L22.5918 70.7312L23.2002 70.3593L24.0368 71.0287L23.809 71.7053L24.081 71.923L24.9144 69.3077ZM29.6893 74.2622C29.6849 74.3116 29.6691 74.3628 29.6416 74.416C29.6034 74.49 29.551 74.5442 29.4845 74.5785C29.4189 74.6133 29.3422 74.6264 29.2543 74.6179C29.1663 74.6093 29.0696 74.5778 28.9645 74.5233C28.8916 74.4855 28.8256 74.4409 28.7666 74.3891C28.709 74.3369 28.6632 74.2787 28.6289 74.2147C28.5957 74.1513 28.5783 74.0841 28.5766 74.0131C28.5754 73.9412 28.5951 73.8661 28.6355 73.7879L28.3356 73.6326C28.2769 73.7463 28.2497 73.8591 28.2539 73.9709C28.2597 74.0824 28.2887 74.1886 28.3408 74.2896C28.394 74.3911 28.4635 74.4826 28.5494 74.5641C28.6364 74.6462 28.7325 74.7145 28.8377 74.7689C28.9574 74.8309 29.073 74.8729 29.1844 74.8949C29.2974 74.9164 29.4025 74.9186 29.4997 74.9016C29.5969 74.8845 29.6837 74.8481 29.76 74.7925C29.8362 74.7369 29.8983 74.6626 29.9463 74.5698C29.9921 74.4811 30.0179 74.3941 30.0237 74.3086C30.0312 74.2226 30.0185 74.1361 29.9856 74.0489C29.9543 73.9613 29.9034 73.8708 29.8328 73.7775C29.7622 73.6841 29.6717 73.5858 29.5615 73.4824C29.4812 73.4078 29.4145 73.3389 29.3614 73.2757C29.3093 73.213 29.2699 73.1536 29.2435 73.0976C29.218 73.0421 29.2048 72.9897 29.2039 72.9404C29.2046 72.8905 29.2173 72.8416 29.2421 72.7936C29.2787 72.7226 29.3279 72.6682 29.3898 72.6302C29.4527 72.5927 29.5274 72.5759 29.6139 72.5797C29.7003 72.5835 29.7972 72.6132 29.9045 72.6687C30.018 72.7275 30.1018 72.7953 30.1557 72.8722C30.2103 72.948 30.2386 73.0288 30.2406 73.1144C30.2431 73.1989 30.2223 73.284 30.1781 73.3695L30.478 73.5248C30.5394 73.4059 30.5658 73.2781 30.5572 73.1416C30.5491 73.0038 30.5018 72.8716 30.4155 72.745C30.3307 72.6179 30.2029 72.51 30.0321 72.4216C29.9155 72.3612 29.8017 72.3221 29.6908 72.3043C29.5799 72.2865 29.4755 72.2879 29.3777 72.3086C29.2815 72.3289 29.1958 72.3671 29.1205 72.4233C29.0453 72.4795 28.9847 72.5519 28.939 72.6406C28.8932 72.7292 28.8697 72.8168 28.8686 72.9035C28.8673 72.9901 28.8854 73.0767 28.9224 73.1633C28.9596 73.2499 29.0126 73.3376 29.0817 73.4262C29.1513 73.5138 29.2337 73.6034 29.3289 73.695C29.4201 73.7818 29.4927 73.8584 29.5468 73.9248C29.6021 73.9917 29.6408 74.0521 29.6631 74.106C29.6865 74.1604 29.6952 74.2125 29.6893 74.2622ZM33.0428 76.2084L32.9426 76.466L31.4267 75.8752L32.3556 73.4857L33.8551 74.0702L33.7542 74.3296L32.5711 73.8684L32.2725 74.6363L33.305 75.0387L33.2048 75.2964L32.1724 74.894L31.8431 75.7408L33.0428 76.2084ZM38.8608 77.8949L39.3071 75.3559L39.2569 75.3471L38.2796 75.5324L38.2288 75.822L38.9162 75.7001L38.5404 77.8385L38.8608 77.8949ZM42.6419 75.6776L42.4665 78.2497L42.1419 78.2275L42.2896 76.0613L41.6189 76.2555L41.6389 75.9621L42.591 75.6742L42.6419 75.6776ZM48.8915 77.926C49.0682 77.9031 49.2234 77.8552 49.357 77.7822C49.4916 77.708 49.6022 77.6125 49.6888 77.4959C49.7766 77.3792 49.8377 77.244 49.8722 77.0904C49.9066 76.9356 49.9118 76.7662 49.8881 76.5822L49.8684 76.4303C49.8446 76.2464 49.7965 76.0845 49.724 75.9448C49.6514 75.8038 49.5584 75.688 49.445 75.5974C49.3326 75.5054 49.2043 75.441 49.0601 75.4041C48.9156 75.3659 48.7603 75.3577 48.594 75.3792L47.8754 75.4725L48.2043 78.0152L48.8915 77.926ZM53.2908 76.731L53.355 76.9998L51.7729 77.3789L51.1771 74.8852L52.742 74.5103L52.8067 74.7809L51.5719 75.0768L51.7634 75.8783L52.8408 75.6202L52.9052 75.889L51.8276 76.1472L52.0388 77.0309L53.2908 76.731ZM55.9127 76.134L54.165 74.0344L54.5113 73.9113L55.9017 75.6602L55.887 73.4226L56.2334 73.2995L56.1962 76.0333L55.9127 76.134ZM59.954 74.0397L60.0733 74.2891L58.6064 74.9932L57.4996 72.681L58.9508 71.9845L59.0708 72.2355L57.9258 72.785L58.2816 73.5282L59.2807 73.0487L59.4 73.298L58.4009 73.7775L58.7931 74.5969L59.954 74.0397ZM63.116 72.454L62.9709 72.2189L61.9384 72.8571L60.7385 70.9106L60.4497 71.0891L61.7946 73.2708L63.116 72.454ZM65.5097 68.9192L65.6097 69.0465C65.7286 69.1978 65.8163 69.3483 65.8727 69.498C65.9292 69.6477 65.955 69.7925 65.95 69.9324C65.9451 70.0722 65.9102 70.2035 65.8455 70.3262C65.7817 70.4481 65.6886 70.5574 65.566 70.654C65.4472 70.7476 65.3205 70.8115 65.1863 70.8456C65.0529 70.879 64.9168 70.8824 64.778 70.8557C64.6402 70.8284 64.5043 70.7704 64.3705 70.6817C64.2366 70.593 64.1102 70.473 63.9913 70.3217L63.8912 70.1943C63.7724 70.043 63.6855 69.8926 63.6307 69.7431C63.576 69.5919 63.5517 69.446 63.5576 69.3055C63.5627 69.164 63.5972 69.0322 63.661 68.9103C63.7257 68.7876 63.8175 68.6794 63.9364 68.5857C64.0589 68.4892 64.1868 68.4242 64.3203 68.3909C64.4545 68.3567 64.5906 68.3541 64.7282 68.3831C64.866 68.4104 65.0009 68.4692 65.133 68.5594C65.2652 68.6479 65.3908 68.7679 65.5097 68.9192ZM67.448 67.5501L67.878 67.124C68.0155 66.9877 68.1107 66.8513 68.1636 66.7145C68.2157 66.577 68.2255 66.4426 68.193 66.3112C68.1605 66.1799 68.0865 66.0558 67.971 65.939C67.8646 65.8314 67.7456 65.7602 67.614 65.7255C67.4816 65.69 67.3443 65.6955 67.2023 65.7421C67.0603 65.7887 66.9206 65.8801 66.783 66.0164L66.1119 66.6816L67.9132 68.5039L68.1544 68.2648L67.448 67.5501ZM71.1809 64.3947L71.3948 64.5695L70.3664 65.8316L68.3825 64.2105L69.3999 62.9621L69.6151 63.138L68.8124 64.1231L69.45 64.6442L70.1505 63.7846L70.3644 63.9594L69.664 64.8189L70.3671 65.3934L71.1809 64.3947ZM70.8403 60.8014L70.3769 61.5122L72.521 62.9138L72.7065 62.6292L71.8376 62.0612L72.166 61.5576L73.3391 61.659L73.5371 61.3551L73.5194 61.3436L72.2801 61.2527C72.2981 61.17 72.3043 61.0899 72.2988 61.0125C72.2905 60.9006 72.259 60.7987 72.2042 60.7067C72.1489 60.6131 72.0723 60.5342 71.974 60.4701C71.8347 60.379 71.6981 60.3317 71.5644 60.3285C71.4304 60.3235 71.3023 60.3612 71.1802 60.4411C71.0587 60.5201 70.9453 60.6402 70.8403 60.8014Z" fill="white"/>
</g>
</g>
<defs>
<clipPath id="clip0_2666_2291">
<rect width="88" height="89" fill="white"/>
</clipPath>
</defs>
</svg>
