<svg width="140" height="105" viewBox="0 0 140 105" fill="none" xmlns="http://www.w3.org/2000/svg">
<path d="M55.9901 62.4512V55.5926C55.9901 54.6938 55.9943 53.7964 55.9985 52.9018C56.0069 51.121 56.0153 49.3514 55.9901 47.5958C55.9719 46.7488 56.2631 46.4954 57.0807 46.55C57.8591 46.6116 58.6375 46.5948 59.4159 46.5766L59.8065 46.5682C60.2055 46.5682 60.5149 46.641 60.7319 47.0022C61.3857 48.0662 62.0451 49.1302 62.7031 50.1956C63.3611 51.2596 64.0205 52.3264 64.6743 53.3904C65.0929 54.0582 65.3659 54.0764 65.7831 53.4086C66.0631 52.9648 66.3459 52.521 66.6273 52.0786L66.6511 52.0408C67.6871 50.4084 68.7217 48.7788 69.7437 47.1268C69.9985 46.7124 70.2897 46.5318 70.7615 46.55C71.7233 46.5864 72.7047 46.5864 73.6679 46.55C74.2307 46.5318 74.4673 46.6942 74.4673 47.3074C74.4491 52.9028 74.4491 58.4981 74.4673 64.0934C74.4673 64.6898 74.2671 64.9236 73.6861 64.9054L73.3053 64.8956H73.3025C72.6736 64.8675 72.0438 64.8708 71.4153 64.9054C70.6523 64.96 70.4157 64.6534 70.4157 63.9128C70.4339 60.8749 70.4339 57.8368 70.4157 54.7988C70.4157 54.712 70.4269 54.614 70.4381 54.5146C70.4759 54.1912 70.5165 53.8384 70.1973 53.7698C69.9047 53.711 69.6947 54.0638 69.5113 54.3718C69.4692 54.443 69.4253 54.513 69.3797 54.5818L68.8715 55.3406C67.7697 56.9786 66.6735 58.6096 65.6193 60.2686C65.2553 60.8272 64.9837 60.6102 64.7471 60.2686C63.7671 58.8238 62.8221 57.3608 61.8771 55.9006L61.6503 55.538C61.327 55.0103 60.9842 54.4948 60.6227 53.9924C60.4981 53.8286 60.3259 53.6004 60.0781 53.7152C59.9101 53.7992 59.9255 53.9812 59.9423 54.152C59.9465 54.201 59.9507 54.25 59.9507 54.292C59.9507 55.2986 59.9535 56.3024 59.9549 57.3048C59.9591 59.3068 59.9633 61.3088 59.9507 63.3178C59.9507 63.532 59.9549 63.7168 59.9591 63.8778C59.9689 64.3538 59.9745 64.603 59.8527 64.7332C59.7169 64.8774 59.4257 64.876 58.8111 64.8718L58.4247 64.8704C55.9901 64.8886 55.9901 64.8704 55.9901 62.4512Z" fill="white"/>
<path fill-rule="evenodd" clip-rule="evenodd" d="M78.8154 57.9854C78.8126 57.2126 78.8084 56.4384 78.8084 55.6656L78.8112 53.6216C78.8154 51.572 78.8182 49.5154 78.7916 47.4714C78.7916 46.6944 79.0268 46.4956 79.7716 46.5138C81.0694 46.5348 82.3672 46.532 83.665 46.5278C84.638 46.5278 85.611 46.525 86.5854 46.532C89.2188 46.5502 91.3636 47.4882 92.7258 49.836C93.6708 51.4418 93.6708 53.2282 93.1976 54.8704C92.5256 57.1636 90.854 58.4992 88.4012 59.076C86.9676 59.419 85.5872 59.4008 84.19 59.384H84.1872C83.2772 59.384 83.0252 59.6724 83.0784 60.5208C83.1232 61.1648 83.1134 61.8158 83.1022 62.4668C83.0966 62.8714 83.0896 63.276 83.0966 63.6792C83.0966 64.473 82.8236 64.9252 81.9164 64.8692C81.2248 64.816 80.5164 64.816 79.8262 64.8692C78.9722 64.942 78.7734 64.5808 78.7902 63.787C78.8294 61.8536 78.8224 59.9188 78.8154 57.9854ZM85.7132 50.2742C86.5588 50.277 87.396 50.2798 88.1842 50.8258C89.0732 51.4404 89.3462 52.2524 89.2734 53.2268C89.1824 54.2558 88.6014 54.9964 87.6746 55.429C86.6708 55.9134 85.5984 55.891 84.5302 55.87C84.246 55.8644 83.9604 55.8588 83.6776 55.8616C83.224 55.8616 83.0966 55.555 83.0966 55.212C83.0882 54.491 83.0882 53.7686 83.0882 53.0462C83.0882 52.3238 83.0882 51.6028 83.0784 50.8804C83.0784 50.4646 83.2786 50.2854 83.6958 50.2854C84.1858 50.2672 84.659 50.2672 85.149 50.2672C85.338 50.2728 85.527 50.2742 85.7132 50.2742ZM38.4968 57.739L38.4954 55.6838V54.0794C38.4996 51.9388 38.5024 49.7954 38.459 47.687C38.459 46.8568 38.641 46.5138 39.5664 46.532C40.633 46.5566 41.7 46.5612 42.7668 46.546C44.1864 46.5334 45.6046 46.5222 47.0158 46.6048C49.3048 46.7308 51.2298 47.7052 52.3386 49.7996C53.81 52.5436 53.3186 56.0982 50.5396 58.0834C49.3412 58.9318 47.888 59.293 46.4166 59.4008C45.4795 59.479 44.5378 59.4851 43.5998 59.419C42.8732 59.3826 42.582 59.601 42.6198 60.3752C42.6478 61.036 42.6408 61.7024 42.6338 62.3688C42.6268 62.9386 42.6198 63.5098 42.6366 64.0768C42.6366 64.6536 42.4014 64.8888 41.8386 64.8888C41.0511 64.8617 40.2629 64.8617 39.4754 64.8888C38.7306 64.9238 38.4772 64.6354 38.4772 63.8948C38.5052 61.8382 38.501 59.7914 38.4968 57.739ZM42.6226 52.3462C42.6212 52.566 42.6184 52.7886 42.6184 53.0112V55.0874C42.6184 55.5214 42.764 55.863 43.2904 55.8448C43.6306 55.8308 43.9694 55.8336 44.3068 55.8364C45.1664 55.8448 46.0232 55.8532 46.8702 55.5564C48.287 55.0692 48.9422 54.1844 48.8862 52.6682C48.833 51.495 47.888 50.466 46.488 50.3218C45.8118 50.2518 45.1342 50.2504 44.4566 50.2476C44.08 50.2462 43.7034 50.2448 43.3282 50.2322C42.764 50.2322 42.6002 50.5024 42.6184 51.026C42.631 51.4698 42.6268 51.908 42.6226 52.3462Z" fill="white"/>
<path d="M103.087 76.9274C103.276 76.9274 103.479 76.9302 103.681 76.7286C103.482 76.5662 103.296 76.3968 103.11 76.2288C102.736 75.89 102.368 75.5568 101.92 75.302C101.61 75.1214 101.137 74.798 101.556 74.3094C101.906 73.9272 102.239 74.1806 102.538 74.4102L102.572 74.4354C103.243 74.9394 103.902 75.449 104.567 75.9628L105.443 76.6376L105.52 76.7034C105.772 76.9148 106.029 77.1304 105.897 77.5224C105.751 77.9564 105.334 78.0096 104.952 78.0278C104.434 78.0488 103.915 78.046 103.395 78.0418C103.006 78.0382 102.617 78.0396 102.228 78.046C102.172 78.046 102.11 78.039 102.046 78.0334C101.824 78.011 101.585 77.9872 101.5 78.2266C101.393 78.5038 101.6 78.6172 101.803 78.7292C101.876 78.7658 101.945 78.8089 102.009 78.858C102.398 79.1856 102.813 79.488 103.222 79.7876L103.481 79.9766C103.789 80.2118 103.754 80.5002 103.572 80.7718C103.371 81.0602 103.063 81.0056 102.844 80.8432C102.134 80.2986 101.43 79.747 100.73 79.1982L100.727 79.1954L99.5563 78.2798C99.5213 78.2518 99.4835 78.2252 99.4443 78.1972C99.2105 78.0278 98.9613 77.8472 99.1027 77.5042C99.2665 77.108 99.5927 76.9624 100.048 76.9624C100.797 76.9764 101.546 76.9596 102.295 76.9428L103.045 76.9274H103.087Z" fill="white"/>
<path fill-rule="evenodd" clip-rule="evenodd" d="M94.2159 83.2441C94.2159 81.8539 95.6873 80.2299 97.1951 80.4287C98.6847 80.4287 100.01 81.7825 100.083 83.2427C100.174 84.6511 98.4677 86.2583 97.0873 86.2037C95.6327 86.1505 94.2159 84.9409 94.2159 83.2441ZM95.3233 83.1699C95.3415 82.1591 96.1045 81.4199 97.1041 81.4381C98.0309 81.4745 98.9577 82.4489 98.9759 83.3701C98.9759 84.3431 98.2129 85.1383 97.2497 85.1383C96.0877 85.1551 95.3051 84.3431 95.3233 83.1699ZM48.5059 85.6451C48.5241 85.7347 48.5241 85.8243 48.5241 85.9153C48.5241 86.7455 47.9431 87.5211 47.1801 87.5393C46.2701 87.5393 46.1441 87.9901 46.1441 88.7307C46.1441 88.8175 46.1651 88.9239 46.1861 89.0345C46.2561 89.3845 46.3359 89.7821 45.7983 89.7961C45.2285 89.8115 45.1543 89.2599 45.0927 88.7951C45.0861 88.7437 45.0791 88.6924 45.0717 88.6411C45.0325 88.3695 45.0409 88.0909 45.0479 87.8081C45.0507 87.6961 45.0535 87.5813 45.0535 87.4679C45.0606 87.2991 45.0133 87.1324 44.9186 86.9925C44.8238 86.8526 44.6865 86.7469 44.5271 86.6909C44.1449 86.5467 43.9461 86.8351 43.7641 87.1431C43.6381 87.3587 43.5093 87.5757 43.3273 87.7199C43.1453 87.8641 42.8555 87.9551 42.6917 87.7199C42.6665 87.6877 42.6357 87.6583 42.6063 87.6289C42.4831 87.5099 42.3585 87.3881 42.5461 87.0703C43.0179 86.2863 43.5555 85.5485 44.0917 84.8121C44.4445 84.3291 44.7959 83.8461 45.1277 83.3519C45.2173 83.2259 45.4539 83.1531 45.6177 83.1531C46.3443 83.1531 48.3785 84.9409 48.5059 85.6451ZM46.5809 86.6531C47.1073 86.6363 47.4153 86.3829 47.3985 85.8229C47.3803 85.3371 46.3261 84.3431 45.8529 84.4509C45.3083 84.5783 45.1081 85.0837 45.0185 85.5709C44.9457 86.0049 45.9439 86.6699 46.5809 86.6531Z" fill="white"/>
<path d="M43.5063 81.4198L43.5273 81.4758C43.5001 81.537 43.4763 81.5996 43.4559 81.6634C43.3999 81.8258 43.3537 81.9644 43.1829 82.0162C42.9645 82.0708 42.8371 82.0344 42.6551 81.8174C42.4175 81.5311 42.1607 81.2612 41.8865 81.0096C41.6835 80.8136 41.4805 80.619 41.2929 80.4104C40.9289 80.0128 40.6573 80.1024 40.3129 80.4286C39.9671 80.7534 40.0217 81.0236 40.3297 81.3302C40.7119 81.7096 41.0927 82.089 41.4567 82.4852C41.6569 82.7022 41.6933 82.9906 41.4385 83.2076C41.2201 83.4064 40.9835 83.2986 40.8029 83.118C40.6391 82.9556 40.4753 82.7876 40.3129 82.621L39.8215 82.124C39.5303 81.8538 39.2951 81.6368 38.8765 82.0344C38.4957 82.4124 38.4229 82.7022 38.7855 83.0816L38.9941 83.2888C39.3441 83.6388 39.6969 83.993 40.0763 84.3094C40.3297 84.525 40.4025 84.8134 40.2387 85.0122C40.0399 85.2642 39.7305 85.2292 39.4575 84.9758C39.2069 84.7406 38.9507 84.5068 38.6945 84.273C38.2633 83.881 37.8335 83.489 37.4233 83.0816C37.1153 82.7932 37.0411 82.4138 37.3869 82.0526C38.3501 81.0418 39.3315 80.0128 40.3129 79.002C40.5845 78.7318 40.9289 78.7136 41.2019 78.9838C41.9299 79.7062 42.6551 80.4454 43.3817 81.186C43.4405 81.2448 43.4741 81.3386 43.5063 81.4198Z" fill="white"/>
<path fill-rule="evenodd" clip-rule="evenodd" d="M79.8084 90.066C79.8644 89.6684 80.0814 89.38 80.5168 89.471C80.9186 89.4038 81.1048 89.6432 81.2868 89.8784L81.3344 89.94C82.2976 91.06 83.2426 92.1954 84.1876 93.3336C84.3864 93.5492 84.5516 93.8376 84.3318 94.0364C84.0966 94.2716 83.741 94.2996 83.4596 94.0014C82.565 93.0494 82.0512 93.2426 81.1006 93.6024C80.9326 93.6654 80.7506 93.734 80.5546 93.8026C80.2886 93.993 80.2382 94.2912 80.1906 94.5796C80.1799 94.6456 80.1678 94.7115 80.1542 94.777C80.0632 95.1746 79.8994 95.4994 79.4458 95.4266C79.0496 95.3636 79.1098 95.0402 79.1546 94.791L79.1616 94.7574L79.1728 94.6874C79.373 93.1334 79.59 91.599 79.8084 90.066ZM80.8318 92.8198C80.3208 92.873 80.3852 92.4054 80.4398 92.0148L80.4454 91.9784L80.4524 91.9224L80.4608 91.8608C80.507 91.5178 80.5616 91.116 80.9354 91.1482C81.4072 91.2028 81.7166 91.7628 81.7894 92.159C81.844 92.7008 81.1944 92.7834 80.8318 92.8198Z" fill="white"/>
<path d="M71.324 93.8392V93.513C71.0874 90.9692 74.0316 90.139 75.503 90.9692C75.545 90.9972 75.5926 91.0224 75.6402 91.049C75.8362 91.1582 76.0406 91.2702 75.9384 91.546C75.8292 91.854 75.5394 91.9436 75.1936 91.889C74.7498 91.8104 74.3003 91.7683 73.8496 91.763C73.0866 91.7448 72.6134 92.141 72.4496 92.883C72.2508 93.7664 72.36 94.4888 73.2126 95.067C73.8678 95.5178 74.4306 95.4632 75.048 95.137C75.23 95.0474 75.4302 94.9396 75.5576 94.7954C75.846 94.4944 76.0196 94.6834 76.1694 94.8444C76.2086 94.8864 76.2464 94.9284 76.2842 94.9564C76.588 95.1888 76.3122 95.4016 76.147 95.529L76.1386 95.5346C75.3756 96.131 74.5566 96.726 73.522 96.4194C72.1416 96.0232 71.3604 95.0292 71.324 93.8392ZM34.8792 79.6698C33.7354 79.2736 32.8268 77.9548 32.845 76.7816C32.8632 75.2836 34.1708 74.0208 35.7332 73.9676C37.3684 73.9298 38.5318 75.3018 38.6592 76.5842L38.662 76.615L38.6718 76.685C38.7138 76.9958 38.7628 77.364 38.2406 77.3962C37.6946 77.4494 37.6232 77.0882 37.5868 76.6556C37.4776 75.663 36.9876 75.1394 36.1336 75.0498C35.2236 74.9588 34.3346 75.4642 34.0434 76.2594C33.7172 77.1792 34.007 78.0276 34.8246 78.5148C34.9016 78.561 34.9842 78.5974 35.0682 78.6324C35.1802 78.6814 35.2936 78.7304 35.3888 78.8032C35.6786 79.002 35.6058 79.3086 35.5148 79.5438C35.3888 79.8518 35.0794 79.7426 34.8792 79.6698Z" fill="white"/>
<path fill-rule="evenodd" clip-rule="evenodd" d="M97.0134 51.9454V50.4138C97.019 50.0526 97.0106 49.7558 97.0036 49.5136C96.9896 49.0292 96.9812 48.7604 97.1114 48.6162C97.2738 48.4342 97.6532 48.4482 98.5086 48.479L99.1386 48.5C100.411 48.5182 100.903 49.494 100.211 50.5762C99.9212 51.027 99.9562 51.3882 100.193 51.7844C100.221 51.8264 100.253 51.8684 100.287 51.9104C100.411 52.0616 100.532 52.21 100.302 52.3808C100.192 52.4643 100.058 52.5095 99.9205 52.5095C99.7827 52.5095 99.6487 52.4643 99.539 52.3808C99.4243 52.2785 99.326 52.159 99.2478 52.0266C99.2002 51.9552 99.154 51.8852 99.1022 51.8208C99.07 51.7746 99.0392 51.7256 99.007 51.6752C98.8656 51.4512 98.7186 51.2174 98.377 51.2622C97.9962 51.3042 98.02 51.5506 98.041 51.7774C98.0466 51.8446 98.0536 51.909 98.0494 51.965C98.013 52.308 97.8128 52.4354 97.523 52.4522C97.1954 52.4704 97.0134 52.2716 97.0134 51.9482V51.9454ZM98.685 49.221C99.0854 49.1846 99.4298 49.2742 99.3934 49.7614C99.357 50.2136 99.0126 50.3032 98.6122 50.3214C98.195 50.3396 98.0494 50.1226 98.0312 49.7264C98.0312 49.221 98.3224 49.2028 98.685 49.221Z" fill="white"/>
<path fill-rule="evenodd" clip-rule="evenodd" d="M98.6302 46.5682C100.338 46.5136 102.718 48.1922 102.482 50.484C102.7 52.4524 100.648 54.383 98.612 54.3284C96.414 54.3116 94.6878 52.3978 94.7242 50.5022C94.7802 48.2286 96.5582 46.641 98.6302 46.5682ZM98.612 53.914C100.393 53.914 102.083 52.325 101.992 50.484C101.973 48.5352 100.575 47.1996 98.5938 47.18C96.8312 47.18 95.2688 48.5352 95.287 50.6282C95.3052 52.4874 97.051 53.914 98.612 53.914Z" fill="white"/>
<path d="M61.6445 90.2022C61.74 90.2069 61.8357 90.2097 61.9314 90.2106C62.2856 90.2022 62.6692 90.324 63.0794 90.4556C63.4854 90.5858 63.9222 90.7258 64.3842 90.7524C64.6922 90.7706 64.9302 90.9876 64.7482 91.3838C64.6012 91.7086 64.4206 91.9074 64.0567 91.6918C63.7066 91.472 63.3203 91.437 62.9367 91.402C62.7826 91.388 62.6286 91.374 62.476 91.3474C62.0406 91.276 61.6948 91.3292 61.5857 91.8528C61.4947 92.305 61.6416 92.5038 62.1316 92.6648C62.6216 92.8286 63.1116 92.9364 63.6212 93.026C63.911 93.082 64.2932 93.1702 64.1476 93.5678C64.0748 93.7848 63.8396 94.0914 63.4392 93.9108C63.267 93.8408 63.0724 93.8128 62.882 93.7876L62.8232 93.7806C62.7924 93.7762 62.7616 93.7715 62.7308 93.7666C61.3308 93.586 61.314 93.586 61.0592 94.9762C60.9864 95.3542 60.9136 95.6986 60.4054 95.644C59.8062 95.5712 59.8594 95.1022 59.9686 94.7592C60.2836 93.81 60.4278 92.8314 60.572 91.8528C60.628 91.4748 60.6841 91.094 60.7499 90.716C60.8562 90.1728 61.1796 90.184 61.6458 90.2036L61.6445 90.2022ZM50.6306 86.8898C50.6866 86.656 50.8854 86.5818 51.1948 86.565C51.4496 86.6826 51.7184 86.796 51.9928 86.9122C52.5164 87.1334 53.0611 87.363 53.5749 87.6486C53.7121 87.7326 53.8646 87.7998 54.0158 87.8656C54.223 87.9566 54.4246 88.0462 54.573 88.1708C54.755 88.3248 54.881 88.4788 54.755 88.7126C54.629 88.9478 54.4092 89.001 54.1376 88.9646C53.9374 88.9044 53.7722 88.8386 53.6322 88.7812C52.9798 88.518 52.851 88.4648 52.1202 90.1742C51.885 90.8252 51.5574 91.4202 51.2298 92.0152C51.0478 92.3414 50.8658 92.5752 50.394 92.2672C49.9432 91.9634 50.1028 91.7478 50.3002 91.479L50.3044 91.4748C50.6264 91.0184 50.8378 90.5158 51.0492 90.0146C51.2312 89.582 51.4132 89.1494 51.6652 88.749C52.0656 88.1176 51.5938 87.7018 50.9932 87.503C50.6488 87.3952 50.576 87.1782 50.6306 86.8898ZM87.5472 86.565C87.9112 86.3844 88.2752 86.3298 88.3102 86.9808C88.3102 87.251 88.166 87.4498 87.802 87.5408C87.1664 87.7018 87.0027 88.063 87.3302 88.6762C87.7474 89.4532 88.1282 90.247 88.4922 91.059L88.5202 91.1206C88.684 91.4776 88.9038 91.9578 88.4922 92.1958C87.9896 92.4856 87.7628 92.0292 87.5906 91.6834C87.5706 91.6435 87.55 91.6038 87.529 91.5644C87.2392 91.0254 86.9746 90.4584 86.7128 89.8984C86.598 89.652 86.4832 89.4056 86.3671 89.1648C86.0591 88.4984 85.7146 88.6048 85.2456 88.7476L85.2401 88.749C85.1735 88.7725 85.1081 88.7991 85.044 88.8288C84.7668 88.9506 84.4784 89.078 84.3314 88.6412C84.169 88.1708 84.4952 87.9902 84.9138 87.811C85.3982 87.6038 85.8742 87.37 86.3489 87.1362C86.745 86.9402 87.1426 86.7442 87.5472 86.565ZM93.6359 88.5474L93.7786 88.7854C93.7646 88.875 93.7604 88.9618 93.7562 89.0402C93.7478 89.246 93.7394 89.4056 93.5434 89.4714C93.3251 89.5246 93.143 89.5246 92.9442 89.2544C92.0663 88.0336 91.2419 86.7752 90.4732 85.4828L90.4452 85.4324C90.3444 85.2532 90.252 85.088 90.4172 84.9228C90.6174 84.724 90.9996 84.6344 91.1634 84.8318C92.1182 86.019 92.8981 87.3168 93.6359 88.5474ZM57.5886 89.1634C57.9344 89.2894 58.1347 89.5428 57.989 90.0664C57.4991 91.3124 57.1168 92.7376 56.736 94.1642C56.6632 94.4344 56.372 94.6332 56.008 94.5072C55.644 94.3616 55.644 94.0368 55.7364 93.7484L55.847 93.3634C56.0808 92.5514 56.3146 91.7324 56.645 90.9694C56.715 90.8014 56.7388 90.6208 56.7626 90.4402C56.8004 90.1532 56.8396 89.8662 57.0622 89.6338C57.1123 89.5684 57.1498 89.4944 57.1728 89.4154C57.2372 89.239 57.3016 89.0654 57.5886 89.1634ZM67.9276 91.0226C68.454 91.0954 68.5072 91.5462 68.5254 91.7814C68.2902 92.7544 68.2748 93.6434 68.2594 94.5002C68.2524 94.8978 68.2454 95.2898 68.2174 95.6804C68.2104 95.7434 68.209 95.812 68.2076 95.882C68.202 96.2082 68.195 96.5512 67.6728 96.4924C67.1828 96.4378 67.0722 95.9506 67.1632 95.6076C67.3536 94.832 67.3578 94.0508 67.3634 93.2654C67.3662 92.7712 67.369 92.277 67.418 91.7814C67.4236 91.7296 67.4265 91.6736 67.4293 91.6176C67.4461 91.3082 67.4656 90.9778 67.9276 91.0226ZM64.6376 14.5854C64.6092 14.43 64.5909 14.2728 64.583 14.115C64.59 13.9848 64.5956 13.877 64.5984 13.7832C64.604 13.6446 64.6096 13.5368 64.6194 13.429C64.6754 12.9068 64.8742 12.4546 65.4734 12.4546C66.0726 12.4546 66.291 12.8886 66.3456 13.4122C66.382 13.7902 66.4002 14.1878 66.3456 14.5672C66.291 15.0712 66.0545 15.5052 65.4552 15.487C64.9093 15.4688 64.6922 15.0726 64.6376 14.5854ZM60.768 12.5092C60.2752 12.4294 60.2697 12.7248 60.2641 13.0412L60.2598 13.177C60.2416 13.5732 60.278 13.898 60.8226 13.8266C61.2412 13.7902 61.622 13.7006 61.622 13.1952C61.6402 12.6534 61.2776 12.5092 60.768 12.5092ZM51.8108 28.5896C51.8304 29.1314 51.4664 29.2938 51.0492 29.2756C50.5214 29.3666 50.4304 29.1132 50.4486 28.7156C50.4556 28.6498 50.4556 28.5798 50.457 28.5112C50.4584 28.206 50.4612 27.9148 50.9946 27.9582C51.43 27.9946 51.7912 28.1024 51.8108 28.5896ZM79.3614 29.3582C79.3516 29.1482 79.3419 28.9578 79.2999 28.7898C79.1907 28.3558 78.9918 27.996 78.4822 27.9778C77.9194 27.9414 77.6828 28.339 77.5918 28.808C77.4826 29.312 77.4826 29.8006 77.6283 30.306C77.7542 30.7204 77.9922 30.992 78.4459 31.0102C78.9176 31.0102 79.136 30.7022 79.2438 30.306C79.3055 30.1128 79.325 29.928 79.3432 29.767C79.3516 29.6872 79.36 29.613 79.3712 29.5472C79.3675 29.4842 79.3643 29.4212 79.3614 29.3582ZM56.5358 29.0502L56.554 29.2602C56.554 29.3778 56.5569 29.4744 56.5597 29.5542C56.5625 29.6844 56.5652 29.7782 56.554 29.8552L56.5526 29.8664C56.4798 30.369 56.4028 30.9024 55.7364 30.9556C54.9916 31.0102 54.8642 30.4684 54.7732 29.9084C54.7689 29.871 54.7642 29.8337 54.7592 29.7964C54.7357 29.6605 54.7282 29.5224 54.7368 29.3848C54.7508 29.2966 54.7592 29.2042 54.769 29.1118C54.8278 28.5378 54.8908 27.9316 55.7182 27.9778C56.4672 28.024 56.5064 28.6022 56.5358 29.0502ZM87.6872 29.2196C87.7656 29.088 87.8441 28.9536 87.8749 28.808L87.9239 28.8808C88.1646 29.2364 88.4068 29.5948 88.2206 29.9994C88.1296 30.18 87.7474 30.1618 87.6382 30.0358C87.3848 29.7348 87.5332 29.4828 87.6872 29.2196ZM63.3076 21.213C63.1117 21.5322 62.9086 21.857 63.0752 22.2196C63.1662 22.4184 63.6212 22.4002 63.7122 22.256C63.8802 21.9676 63.7444 21.71 63.6016 21.444C63.5249 21.3132 63.4643 21.1736 63.421 21.0282C63.3848 21.0909 63.3475 21.153 63.309 21.2144L63.3076 21.213ZM53.9921 21.01C53.9501 21.0884 53.9052 21.1654 53.859 21.2424C53.6686 21.5658 53.488 21.8724 53.6644 22.2364C53.7204 22.3274 54.174 22.3624 54.2469 22.2924C54.4778 21.9578 54.3168 21.6624 54.1587 21.3698C54.091 21.2556 54.0348 21.1351 53.9906 21.01H53.9921ZM57.2624 13.1588C57.2988 13.7006 56.9712 13.898 56.4448 13.863C55.9898 13.9344 55.7728 13.772 55.8078 13.2848C55.8148 13.2218 55.8162 13.1546 55.8176 13.0888C55.8232 12.7808 55.8302 12.4798 56.3538 12.5092C56.8074 12.5274 57.226 12.617 57.2624 13.1588ZM46.5608 27.9764C46.0708 27.8868 45.998 28.1934 45.998 28.626L46.0022 28.7394C46.012 29.095 46.0218 29.417 46.579 29.3834C47.0522 29.3484 47.4512 29.2756 47.433 28.717C47.433 28.1752 47.1068 27.9596 46.5608 27.9764Z" fill="white"/>
<path fill-rule="evenodd" clip-rule="evenodd" d="M69.4312 101.994C96.9538 101.994 119.264 79.79 119.264 52.3976C119.264 25.0038 96.9538 2.7998 69.4312 2.7998C41.91 2.7998 19.5996 25.0052 19.5996 52.3976C19.5996 79.7886 41.91 101.994 69.4312 101.994ZM41.2212 90.8528C38.5847 88.8819 36.1313 86.6773 33.8908 84.2658C26.2468 75.8266 21.5946 64.6518 21.5946 52.3976C21.5946 46.988 22.5004 41.7884 24.1706 36.943C24.3386 36.831 24.5458 36.7932 24.8146 36.8212C24.9966 36.8338 25.1786 36.8296 25.3606 36.8254L25.6322 36.8212H112.638C114.724 36.8212 114.762 36.9626 115.309 38.9436L115.326 39.0052C115.654 40.1784 115.89 41.3698 116.127 42.5626C116.327 43.5734 116.527 44.5842 116.783 45.5866C116.837 45.9548 116.886 46.3244 116.929 46.6954C116.95 47.6194 117.034 48.5392 117.117 49.4604C117.166 50.0036 117.215 50.5482 117.251 51.0928C117.28 52.1525 117.274 53.2129 117.233 54.2722C116.991 57.6266 116.569 60.9474 115.707 64.2024C115.162 66.224 114.545 68.2442 113.709 70.1762C112.219 73.6062 110.457 76.8542 108.277 79.9048C106.006 83.0814 103.353 85.8786 100.429 88.442C98.2124 90.374 95.7778 92.033 93.234 93.5142C90.7384 94.9615 88.1178 96.1816 85.4038 97.1598C83.2604 97.9354 81.0624 98.4954 78.8098 98.9462C75.1936 99.6504 71.5424 100.101 67.8534 99.8842C65.1654 99.7218 62.4774 99.5062 59.8062 98.9826C56.862 98.4044 53.992 97.5742 51.248 96.4374C49.5759 95.7483 47.9413 94.9716 46.3508 94.1106C44.5733 93.1343 42.8609 92.0462 41.2212 90.8528ZM76.9016 13.9158L76.9002 14.0908C76.896 14.4884 76.8918 14.8426 77.0822 15.1422C77.3916 15.6294 78.1364 15.6658 78.4262 15.124C78.7538 14.5472 79.2634 14.6018 79.5532 14.8356C79.8262 15.0526 79.4804 15.4852 79.2452 15.7568C78.6992 16.37 77.9908 16.4596 77.246 16.3168C76.5558 16.1712 76.084 15.7386 75.8838 15.0344C75.629 14.1678 75.6472 13.3194 76.084 12.5074C76.448 11.8214 77.0822 11.533 77.8088 11.5694C78.4808 11.6044 79.136 11.8396 79.4622 12.5074L79.4986 12.5774C79.6106 12.7902 79.7576 13.0674 79.4804 13.2298C79.2452 13.3558 78.8084 13.4286 78.6446 13.157C78.3548 12.6698 78.0636 12.2554 77.4462 12.5074C76.903 12.7412 76.9058 13.2088 76.9072 13.6274C76.9072 13.7282 76.9072 13.8248 76.9016 13.9158ZM65.4916 11.5694C64.2932 11.5694 63.4756 12.5256 63.4756 13.9508C63.4574 15.467 64.2204 16.3868 65.528 16.4064C66.7642 16.4064 67.5622 15.4852 67.5622 14.0404C67.5622 12.562 66.7278 11.5694 65.4916 11.5694ZM59.1692 14.0054L59.165 13.8584C59.1608 13.7562 59.1566 13.6512 59.1692 13.5546C59.1847 13.3189 59.1739 13.0823 59.137 12.849C59.0824 12.387 59.0306 11.939 59.3512 11.785C60.0232 11.4602 60.95 11.568 61.7494 11.7668C62.6762 11.9838 63.1844 13.157 62.5306 13.8248C61.9608 14.4058 62.161 14.8048 62.3906 15.264C62.4312 15.348 62.4746 15.432 62.5124 15.5216C62.5404 15.5874 62.5964 15.6602 62.651 15.7316C62.805 15.9374 62.9688 16.1558 62.6216 16.3154C62.294 16.4596 61.7676 16.5324 61.5492 15.9724C61.4806 15.8072 61.3952 15.6462 61.3126 15.488C61.2426 15.3536 61.1726 15.222 61.1138 15.0876C60.9864 14.8174 60.8226 14.6186 60.4964 14.6914C60.2654 14.7516 60.278 14.907 60.2892 15.0638C60.3011 15.1384 60.2973 15.2147 60.278 15.2878C60.236 15.4054 60.2612 15.5496 60.285 15.6938C60.3354 15.9934 60.3858 16.2902 59.8594 16.3518C59.4604 16.4064 59.151 16.3336 59.1692 15.81C59.1818 15.3998 59.1776 14.998 59.1734 14.599L59.1692 14.0054ZM49.7766 21.879C49.6492 22.2612 49.5218 22.6406 49.3594 23.0102C49.3146 23.1124 49.2908 23.2328 49.267 23.3532C49.2012 23.678 49.1326 24.0084 48.6692 24.021C48.1722 24.049 48.1022 23.7102 48.0336 23.3798C48.0084 23.2622 47.9846 23.146 47.9426 23.0466C47.8656 22.8688 47.7956 22.6882 47.7256 22.5048C47.5896 22.1174 47.419 21.7431 47.216 21.3862V23.3182C47.216 23.7158 47.216 24.0392 46.6336 24.0392C46.103 24.0224 46.1058 23.7326 46.1072 23.398V20.087C46.1072 20.038 46.103 19.9834 46.0974 19.9288C46.075 19.6796 46.0512 19.408 46.453 19.4374C46.5692 19.4458 46.6966 19.429 46.824 19.4122C47.1922 19.3632 47.566 19.3114 47.7424 19.8882C47.8824 20.3852 48.0504 20.8682 48.2366 21.4044C48.3612 21.7656 48.4942 22.1492 48.6328 22.5776C48.7434 22.243 48.8526 21.9336 48.9576 21.6396C49.1634 21.06 49.3482 20.542 49.4686 20.0156C49.6142 19.3506 50.0258 19.38 50.4458 19.408C50.5508 19.415 50.6558 19.422 50.758 19.4192C51.2536 19.4052 51.22 19.709 51.1892 19.9792C51.1786 20.0506 51.1739 20.1227 51.1752 20.1948C51.185 20.7366 51.185 21.2784 51.185 21.8188C51.185 22.3606 51.185 22.9024 51.1948 23.4428C51.1948 23.8586 51.0856 24.0392 50.6306 24.0392C50.177 24.0392 50.0496 23.8586 50.0678 23.4442C50.0804 22.9864 50.0762 22.53 50.072 22.0722L50.0678 21.3862C50.0503 21.3781 50.032 21.372 50.0132 21.368C49.995 21.3638 49.9768 21.3596 49.9586 21.3498C49.8956 21.5262 49.8368 21.7026 49.7766 21.8776V21.879ZM77.1018 22.2892C77.19 22.012 77.2838 21.7362 77.3776 21.4604C77.5512 20.9494 77.7234 20.4412 77.8648 19.9246C78.0272 19.345 78.4038 19.3898 78.7748 19.4346C78.898 19.45 79.0212 19.4654 79.136 19.4556C79.5882 19.4276 79.549 19.7356 79.5154 19.9974C79.507 20.0618 79.5 20.1234 79.5 20.178C79.5084 20.7184 79.5084 21.2602 79.5084 21.802C79.5084 22.3424 79.5084 22.8856 79.5182 23.426C79.5364 23.8782 79.409 24.077 78.919 24.077C78.429 24.0588 78.3912 23.8054 78.3912 23.4442C78.4094 22.7946 78.3912 22.145 78.2652 21.4422L78.0412 22.0624C77.8578 22.5706 77.6744 23.0746 77.519 23.5884C77.428 23.8782 77.302 24.0588 76.9562 24.0588C76.6104 24.0588 76.5026 23.8418 76.4102 23.5716C76.2772 23.1516 76.1316 22.7386 75.9776 22.3004C75.8532 21.949 75.7314 21.5966 75.6122 21.2434C75.44 21.7922 75.489 22.2934 75.5352 22.7764C75.5534 22.9598 75.5702 23.1404 75.5758 23.3182C75.594 23.734 75.5758 24.077 74.9766 24.077C74.3914 24.077 74.3928 23.769 74.3942 23.384V23.3182C74.3942 22.271 74.3942 21.2252 74.4124 20.1598C74.4124 20.108 74.4082 20.052 74.4026 19.9918C74.3774 19.7202 74.3494 19.4108 74.8128 19.4556C74.9262 19.4654 75.0508 19.45 75.1754 19.4346C75.545 19.3898 75.9216 19.345 76.0854 19.9246C76.2254 20.4426 76.399 20.9494 76.5712 21.4604C76.665 21.7362 76.7588 22.012 76.847 22.2892H77.1018ZM59.4828 21.2588L59.4786 21.8748C59.4394 21.8846 59.4016 21.8888 59.3596 21.8944C59.3202 21.8983 59.281 21.9039 59.242 21.9112C59.1643 21.7785 59.0864 21.646 59.0082 21.5136C58.6834 20.9592 58.3544 20.4006 58.0618 19.8182C57.8266 19.352 57.4374 19.408 57.0636 19.4612C57.0328 19.4661 57.002 19.4707 56.9712 19.4752C56.6002 19.5172 56.6324 19.772 56.6632 20.0114C56.673 20.0758 56.68 20.1388 56.68 20.1976C56.6618 21.2434 56.6618 22.2906 56.6618 23.3364C56.6618 23.7144 56.6618 24.042 57.2078 24.0588C57.7762 24.077 57.7888 23.7522 57.8042 23.3644L57.807 23.3014C57.8126 23.1334 57.8056 22.9654 57.7986 22.7918C57.7818 22.3508 57.765 21.8888 57.9344 21.3708L58.2522 21.9182C58.6106 22.5342 58.9312 23.0872 59.242 23.6626C59.501 24.1414 59.907 24.0854 60.2878 24.0322L60.3508 24.0238C60.7078 23.9678 60.6728 23.6976 60.6392 23.4624C60.6308 23.398 60.6224 23.3364 60.6224 23.2832C60.6322 22.7512 60.6322 22.2136 60.6322 21.6746C60.6322 21.1356 60.6322 20.5938 60.6406 20.052C60.6588 19.674 60.6224 19.422 60.1324 19.422C59.697 19.422 59.4604 19.5116 59.4786 20.017C59.4898 20.4258 59.487 20.8444 59.4828 21.2588ZM82.3336 29.2556C82.3336 29.46 82.3322 29.6658 82.3294 29.8702C82.3252 30.279 82.3224 30.6878 82.3336 31.0966C82.3518 31.5488 82.2076 31.7294 81.7176 31.7294C81.1716 31.7462 81.1534 31.4774 81.1534 31.0616C81.1604 30.6164 81.159 30.1684 81.1562 29.719V29.705C81.1534 29.103 81.1506 28.501 81.1702 27.9018C81.1685 27.8389 81.1624 27.7762 81.152 27.7142C81.1142 27.4608 81.0708 27.1682 81.516 27.1262H81.5202C81.936 27.0898 82.335 27.0562 82.5884 27.5602C82.846 28.0698 83.1386 28.5626 83.4564 29.0946C83.5866 29.3144 83.7224 29.5426 83.8596 29.7806C84.0136 29.2304 83.9954 28.7544 83.9786 28.2994C83.969 28.1129 83.9658 27.9261 83.9688 27.7394C83.987 27.3614 84.0416 27.1094 84.5148 27.1094C84.9138 27.1094 85.1308 27.2354 85.114 27.668C85.107 28.0404 85.1056 28.41 85.1028 28.7796C85.1 29.5216 85.0958 30.2608 85.0594 31.007C85.0594 31.049 85.0622 31.0938 85.0664 31.1414C85.0846 31.385 85.1056 31.6776 84.6954 31.693L84.6212 31.6972C84.2656 31.7154 83.917 31.735 83.6972 31.2954C83.462 30.8306 83.1974 30.3868 82.9328 29.943C82.7858 29.698 82.6388 29.453 82.4988 29.201C82.461 29.2374 82.4064 29.257 82.3336 29.257V29.2556ZM85.3086 22.1632L85.3128 21.5486C85.3548 21.5486 85.4108 21.5374 85.4766 21.5234L85.5312 21.5122C85.6586 21.7348 85.7888 21.9532 85.9176 22.173C86.2116 22.6686 86.5014 23.16 86.766 23.6612C87.0208 24.112 87.403 24.0756 87.7838 24.0392C88.1618 23.9972 88.1324 23.7312 88.1058 23.4988C88.0988 23.4414 88.0918 23.3868 88.0918 23.3364C88.1016 22.7764 88.1016 22.2164 88.1016 21.6606C88.1016 21.1034 88.1016 20.5476 88.1114 19.9974C88.1114 19.5816 87.984 19.4192 87.5472 19.4192C87.0754 19.401 86.9844 19.618 87.0026 20.0142C87.0152 20.4482 87.011 20.871 87.0068 21.298V21.3008C87.004 21.515 87.0026 21.7292 87.0026 21.9448C86.3852 21.242 85.9484 20.5196 85.5312 19.7622C85.3086 19.352 84.9614 19.3968 84.6352 19.4388L84.4952 19.4556C84.148 19.485 84.1648 19.7272 84.1802 19.9526C84.183 19.9988 84.1872 20.045 84.1872 20.087V23.426C84.169 23.804 84.2404 24.0574 84.7136 24.0574C85.2036 24.0574 85.331 23.8236 85.3128 23.3896C85.3002 22.9808 85.3044 22.572 85.3086 22.1632ZM51.3936 30.7732C51.6666 31.5124 52.0656 31.9814 53.0288 31.6202C52.9504 31.4662 52.8832 31.322 52.8202 31.1862C52.7704 31.0777 52.719 30.9699 52.6662 30.8628C52.3386 30.3392 52.1384 29.9416 52.7012 29.3284C53.3564 28.606 52.8468 27.4146 51.8654 27.2354C51.4874 27.157 51.1038 27.1542 50.7174 27.1514C50.471 27.15 50.2232 27.1472 49.9754 27.1262C49.4672 27.0898 49.2866 27.3082 49.3034 27.8122C49.323 28.8594 49.323 29.9066 49.3034 30.9524C49.3034 31.4046 49.3034 31.7476 49.9586 31.7294C50.478 31.7154 50.4766 31.4522 50.4738 31.175C50.4738 31.0938 50.4738 31.0126 50.485 30.9342C50.4907 30.8488 50.4845 30.7631 50.4668 30.6794C50.4304 30.4484 50.3912 30.2062 50.758 30.1404C51.1458 30.076 51.262 30.3994 51.3586 30.6752L51.3936 30.7732ZM69.8708 20.8458C69.343 20.9172 68.944 20.9718 68.58 20.4482C68.216 19.9246 67.4544 20.1416 67.236 20.7912C67.0176 21.4044 67.0358 22.0372 67.236 22.6504C67.3998 23.1558 67.7988 23.3182 68.3266 23.2454C68.5982 23.2104 68.7802 23.1012 68.7984 22.7946C68.8348 22.5062 68.7256 22.3256 68.4176 22.3256C68.0718 22.3256 68.0172 22.1086 68.0536 21.8384C68.09 21.5304 68.3616 21.5304 68.5436 21.5864C68.7004 21.6354 68.888 21.6004 69.0742 21.5654C69.4326 21.4968 69.7882 21.431 69.9072 21.9644C70.197 23.2636 69.9436 23.6794 68.9076 23.986C67.5818 24.364 66.4366 23.86 66.1104 22.7232C65.6372 21.116 66.2196 19.709 67.4726 19.366C68.6164 19.0762 69.5068 19.5816 69.8708 20.8458ZM76.4284 29.4376C76.4284 27.976 77.1914 27.0912 78.4276 27.0912C79.6806 27.0912 80.5346 28.0656 80.5164 29.4922C80.4982 30.9356 79.7184 31.8022 78.464 31.8204C77.1382 31.8204 76.4102 30.972 76.4284 29.4376ZM55.6272 31.8022C56.918 31.8204 57.7342 30.8992 57.7342 29.4376C57.7174 28.0306 56.918 27.073 55.7182 27.073C54.4288 27.073 53.593 28.011 53.6112 29.4558C53.6112 30.9174 54.3742 31.784 55.6272 31.8022ZM73.6858 16.3518C72.8878 16.3518 72.493 16.3518 72.297 16.1544C72.1052 15.9612 72.1052 15.5776 72.1052 14.8174V12.1994C72.1052 11.8942 72.1416 11.6772 72.5238 11.6772C73.0446 11.6898 73.5738 11.6856 74.1016 11.6814L74.8856 11.6772C75.1754 11.6772 75.3392 11.7668 75.321 12.0916C75.3028 12.4178 75.1026 12.4892 74.8492 12.4892C74.7148 12.4892 74.5832 12.492 74.4516 12.4934C74.1912 12.4976 73.9336 12.5018 73.6676 12.4892C73.2504 12.471 73.1776 12.688 73.1776 13.0492C73.1776 13.4272 73.3596 13.5 73.6858 13.4832C73.8398 13.4734 73.9896 13.4776 74.1408 13.4832C74.2906 13.486 74.4404 13.4916 74.5944 13.4832C74.9024 13.4636 75.0116 13.6092 75.0116 13.9158C75.0116 14.2042 74.9024 14.3666 74.5944 14.3484L74.3214 14.3526C74.1394 14.3568 73.9574 14.361 73.7754 14.3484C73.3596 14.312 73.1776 14.438 73.1776 14.8902C73.1776 15.341 73.3596 15.467 73.7768 15.4502C74.0428 15.4362 74.3004 15.4418 74.5608 15.4446C74.6924 15.4474 74.824 15.4488 74.957 15.4488C75.2846 15.4488 75.3392 15.6476 75.3392 15.936C75.3392 16.1894 75.2482 16.3336 74.9752 16.3336C74.5216 16.3518 74.103 16.3518 73.6858 16.3518ZM89.7368 31.721C89.8586 31.707 89.9832 31.693 90.1092 31.693L89.72 30.629L89.7172 30.6206C89.3294 29.5622 88.9514 28.5304 88.5832 27.4888C88.474 27.1808 88.2388 27.1276 87.9476 27.1276C87.62 27.1276 87.3484 27.164 87.2196 27.5252C86.9984 28.1244 86.7786 28.725 86.5588 29.3284L86.556 29.3354C86.2722 30.1169 85.9852 30.8971 85.695 31.6762C85.7874 31.6818 85.8784 31.6902 85.9666 31.7C86.451 31.7504 86.8612 31.7938 87.0754 31.1526C87.1846 30.8446 88.6014 30.8642 88.7106 31.189C88.9094 31.8106 89.2986 31.7686 89.7368 31.721ZM63.3846 23.2118L63.3426 23.2104C62.9408 23.1922 62.581 23.1754 62.4396 23.6808C62.294 24.2044 61.7858 24.0966 61.4414 23.9888C61.0662 23.8628 61.2216 23.6234 61.349 23.4288C61.3882 23.3686 61.4232 23.3126 61.4414 23.2664C61.6836 22.5202 61.958 21.7908 62.2324 21.06V21.0572C62.3696 20.6932 62.5068 20.3292 62.6398 19.9624C62.7658 19.6194 62.9128 19.4024 63.33 19.422C63.7486 19.4402 63.9838 19.5116 64.1294 19.9456C64.3562 20.619 64.6082 21.2882 64.8574 21.9532C65.031 22.4096 65.2018 22.8646 65.3656 23.3196C65.3867 23.3762 65.4125 23.431 65.4426 23.4834C65.5476 23.6752 65.6652 23.8894 65.3292 23.9874C65.0016 24.0966 64.4934 24.2044 64.366 23.7718C64.2204 23.1754 63.8368 23.1754 63.3846 23.2118ZM70.3062 31.1344C70.7234 31.6762 71.3422 31.8204 71.996 31.8204C72.9592 31.8204 73.5766 31.4592 73.704 30.7914C73.8482 29.9248 73.3218 29.4558 72.5952 29.1674C72.4692 29.1128 72.3404 29.068 72.2144 29.0232C72.087 28.977 71.9596 28.9322 71.8322 28.8776C71.5242 28.7516 71.1784 28.5528 71.4332 28.1566C71.6684 27.7954 72.0492 27.8318 72.395 28.0488C72.4594 28.0838 72.5 28.1524 72.5406 28.2196C72.5826 28.2868 72.6232 28.3554 72.6862 28.3904C72.9942 28.5724 73.3946 28.6074 73.6312 28.4086C73.8972 28.1944 73.6606 27.9186 73.48 27.7086L73.4492 27.6722L73.431 27.6512C72.885 27.0198 71.779 26.8742 70.925 27.3264C70.015 27.8136 69.9422 28.8608 70.8144 29.4194C71.0524 29.5706 71.3184 29.677 71.5844 29.7834C71.7664 29.8562 71.9484 29.9276 72.1234 30.0158L72.1514 30.0298C72.4356 30.1698 72.7702 30.3364 72.5588 30.755C72.3712 31.1106 72.0408 31.0532 71.7314 31L71.6684 30.9902C71.415 30.9356 71.2876 30.7382 71.1602 30.5212C70.9236 30.1236 70.47 30.2314 70.2152 30.377C69.8876 30.5562 70.1424 30.9174 70.3062 31.1344ZM51.7562 23.9692L51.9032 23.5758C52.3778 22.2906 52.8384 21.0446 53.2836 19.8C53.3928 19.4752 53.6098 19.4024 53.8996 19.4388L54.0424 19.443C54.2874 19.4458 54.524 19.4486 54.6458 19.7818C54.8726 20.4118 55.1078 21.039 55.3458 21.6662C55.581 22.2948 55.8176 22.922 56.0458 23.5548C56.1172 23.7522 56.19 24.0056 55.8638 24.0238C55.805 24.0266 55.7476 24.0336 55.6888 24.0406C55.434 24.0728 55.1764 24.1036 54.9552 23.825C54.3 22.9584 53.6644 22.9766 52.9742 23.8432C52.7922 24.0784 52.7558 24.0784 51.7562 23.9692ZM66.0558 31.0812C66.473 31.6594 67.0722 31.7854 67.5258 31.8036C68.671 31.8218 69.4158 31.3878 69.4886 30.7018C69.5796 29.8352 69.035 29.4026 68.2902 29.1324C68.0633 29.0563 67.8392 28.9722 67.6182 28.8804C67.2906 28.7348 66.9462 28.5542 67.1996 28.1566C67.418 27.7968 67.7988 27.815 68.1446 28.0488C68.209 28.0964 68.2594 28.1664 68.307 28.2322C68.3686 28.3162 68.4274 28.3974 68.5086 28.4282C68.7802 28.5542 69.1806 28.6088 69.3626 28.41C69.5796 28.1748 69.343 27.8682 69.1624 27.6344C68.7074 27.0744 67.6364 26.8756 66.8188 27.2186C66.3456 27.4174 65.983 27.7422 65.9284 28.2658C65.8738 28.7698 66.165 29.1324 66.5458 29.4026C66.8314 29.6056 67.1478 29.7176 67.4656 29.8296C67.572 29.866 67.6756 29.9038 67.782 29.9444C68.0718 30.034 68.363 30.1782 68.3448 30.5576C68.3448 30.7564 68.2356 30.9188 68.0368 30.9552C67.7456 31.0084 67.4362 31.0448 67.1828 30.8292C67.1189 30.7664 67.0663 30.693 67.0274 30.6122C66.9812 30.531 66.9364 30.4498 66.8734 30.3952C66.742 30.2933 66.582 30.2351 66.4158 30.2285C66.2497 30.222 66.0856 30.2676 65.9466 30.3588C65.71 30.5576 65.8906 30.8642 66.0558 31.0812ZM70.9152 19.702C70.6338 19.982 70.6338 20.5448 70.6338 21.676L70.638 22.2598V22.2738C70.6422 22.6784 70.6464 23.0886 70.6338 23.5002C70.6156 23.951 70.7976 24.0952 71.2148 24.077C71.6768 24.0658 72.1444 24.07 72.6106 24.0728L73.305 24.077H73.3372C73.6354 24.077 73.921 24.0784 73.9042 23.6262C73.8874 23.237 73.6662 23.2412 73.4226 23.2468H73.34L73.011 23.2426C72.788 23.2359 72.5648 23.2374 72.3418 23.2468C71.8518 23.2832 71.814 22.9766 71.814 22.6154C71.7958 22.2178 71.9596 22.11 72.3418 22.0554C72.4622 22.0358 72.6148 22.0596 72.7688 22.0834C73.151 22.145 73.5486 22.2094 73.522 21.6046C73.4968 21.0936 73.144 21.1594 72.7884 21.2252C72.6421 21.262 72.4907 21.2743 72.3404 21.2616C71.9596 21.1902 71.8154 21.081 71.8154 20.7016C71.8154 20.3054 72.0142 20.1794 72.3782 20.1976C72.6862 20.2144 72.9774 20.2144 73.2868 20.1976C73.3372 20.1934 73.3904 20.1948 73.445 20.1976C73.6802 20.2046 73.9182 20.2116 73.9042 19.8C73.8762 19.4164 73.6606 19.4276 73.438 19.4402C73.368 19.443 73.298 19.4472 73.2322 19.4388C73.1527 19.4295 73.0726 19.428 72.9928 19.4346C72.9522 19.4374 72.9116 19.4388 72.8682 19.4388C71.7552 19.4304 71.1966 19.4248 70.9152 19.702ZM62.0952 29.5104C62.1316 27.1108 62.1316 27.0926 64.5298 27.1458C64.5914 27.1458 64.66 27.1374 64.7314 27.129C65.0156 27.0926 65.3334 27.0534 65.3474 27.5434C65.3754 28.0194 65.0912 27.9928 64.8168 27.9662C64.7333 27.9554 64.6488 27.953 64.5648 27.9592C64.3478 27.9858 64.1196 27.9816 63.8886 27.9788L63.6576 27.976C63.2572 27.976 63.2572 28.2658 63.2572 28.536C63.2572 28.8062 63.33 29.005 63.6576 29.005C63.7612 29.005 63.862 29.0078 63.9628 29.0092C64.163 29.0134 64.3604 29.0176 64.5648 29.005C64.856 29.005 65.0198 29.096 65.0016 29.4208C64.9834 29.691 64.8378 29.782 64.6012 29.782L64.3632 29.7848C64.2004 29.792 64.0373 29.791 63.8746 29.782C63.4028 29.726 63.239 29.9444 63.239 30.3952C63.239 30.8642 63.421 31.0448 63.8928 31.0084C64.135 30.9972 64.3772 31 64.6208 31.0042C64.7412 31.007 64.8616 31.0084 64.9834 31.0084C65.2382 31.0084 65.3474 31.1176 65.3474 31.3878C65.3474 31.6762 65.2018 31.749 64.947 31.749L64.1308 31.7448C63.5918 31.7381 63.0514 31.7395 62.5124 31.749C62.1134 31.749 62.077 31.532 62.0952 31.2254C62.1064 30.839 62.1022 30.454 62.098 30.0732V30.0718L62.0952 29.5104ZM56.3454 11.6576L56.2992 11.6604C56.0682 11.6646 55.8708 11.6646 55.7028 11.6646C55.2226 11.6646 54.9818 11.6646 54.8586 11.785C54.7368 11.9054 54.7326 12.1462 54.7242 12.6278L54.7186 12.9414V15.649C54.7186 16.0466 54.755 16.3532 55.2996 16.335C55.8078 16.3168 55.8456 15.992 55.7896 15.6672C55.6818 14.8552 56.0276 14.6564 56.8074 14.6732C57.4794 14.6928 58.0982 14.403 58.3334 13.6456C58.5336 13.0324 58.3516 12.5088 57.9162 12.093C57.4262 11.6072 56.7514 11.6394 56.3454 11.659V11.6576ZM46.2164 27.1458H46.3984C47.797 27.164 48.5236 27.6498 48.5964 28.6074C48.6692 29.5818 48.0504 30.1054 46.5608 30.2314C45.991 30.2818 45.9938 30.5632 45.998 30.9174C45.9997 30.9879 46.0007 31.0583 46.0008 31.1288C46.0106 31.434 46.019 31.7308 45.4898 31.7308C44.913 31.7462 44.9186 31.4228 44.9256 31.0784V28.3722C44.9354 27.7548 44.9396 27.444 45.0978 27.2886C45.2574 27.1318 45.5752 27.136 46.2164 27.1458ZM80.6564 19.7118C80.3722 19.996 80.3722 20.5644 80.3722 21.6956C80.3722 22.2906 80.3722 22.8856 80.3358 23.5016C80.3358 23.7886 80.3722 24.042 80.753 24.042H83.2058C83.4606 24.042 83.5698 23.8796 83.5698 23.6262C83.5698 23.3742 83.4606 23.23 83.2058 23.23C83.0714 23.23 82.9398 23.2272 82.8096 23.2258C82.5483 23.2192 82.2868 23.2206 82.0256 23.23C81.6434 23.2482 81.516 23.0858 81.4978 22.7064C81.4796 22.2724 81.607 22.0932 82.097 22.0568C82.1992 22.047 82.321 22.0652 82.447 22.0848C82.7928 22.1366 83.161 22.194 83.1876 21.6788C83.2128 21.1286 82.8656 21.1846 82.5324 21.2392C82.4077 21.2681 82.279 21.2761 82.1516 21.263C82.0914 21.249 82.0312 21.2406 81.9724 21.2322C81.7204 21.1972 81.5132 21.1678 81.4978 20.7562C81.4796 20.2158 81.789 20.1962 82.188 20.2158C82.552 20.2158 82.916 20.2158 83.2786 20.1976C83.5152 20.1976 83.5866 20.0352 83.5866 19.8364C83.5866 19.6376 83.5516 19.4752 83.315 19.4584C83.0966 19.4388 82.8964 19.4388 82.6794 19.4388C81.5202 19.4304 80.9434 19.4248 80.6564 19.7118ZM58.4062 29.4558C58.4426 27.0198 58.4426 27.0198 60.8954 27.1458C60.9472 27.1486 61.0018 27.1472 61.0578 27.1458C61.293 27.1374 61.5338 27.1304 61.5492 27.5238C61.5786 27.9802 61.3084 27.969 61.0396 27.9592C60.9794 27.9564 60.9192 27.9564 60.859 27.9592C60.586 27.976 60.313 27.976 60.0414 27.9592C59.6242 27.9214 59.5332 28.1384 59.5332 28.4996C59.5332 28.8608 59.606 29.0778 60.0232 29.0414C60.229 29.0288 60.425 29.033 60.6252 29.0372C60.726 29.0386 60.8282 29.0414 60.9318 29.0414C61.2398 29.0414 61.349 29.1856 61.349 29.4754C61.349 29.7624 61.2762 29.943 60.95 29.9248C60.9192 29.9248 60.8898 29.9276 60.859 29.929C60.7984 29.9357 60.7372 29.9343 60.677 29.9248C59.7138 29.7456 59.3694 30.16 59.515 31.0812C59.5878 31.532 59.424 31.7112 58.9326 31.7112C58.4062 31.7112 58.3334 31.4774 58.3698 31.0448C58.4132 30.6402 58.4118 30.2132 58.4076 29.782L58.4062 29.4558ZM83.4424 11.6786H81.9892L81.6616 11.6758C81.3525 11.6669 81.0432 11.6735 80.7348 11.6954C80.6802 11.6996 80.6228 11.6982 80.564 11.6954C80.2924 11.6898 80.011 11.6842 80.0264 12.1294C80.0432 12.5718 80.368 12.5494 80.634 12.5298L80.6802 12.527C81.2626 12.471 81.3886 12.7244 81.3704 13.2662C81.3539 13.7443 81.3492 14.2228 81.3564 14.7012V14.704C81.3578 15.0624 81.3606 15.4208 81.3522 15.775C81.3522 16.153 81.3886 16.3882 81.88 16.3882C82.3882 16.3882 82.4974 16.1726 82.4792 15.7386C82.4722 15.4572 82.4764 15.1786 82.4806 14.9C82.4876 14.4856 82.4946 14.074 82.461 13.6638C82.4064 12.905 82.4974 12.3464 83.4788 12.5088C83.7686 12.5438 83.896 12.3828 83.896 12.0748C83.896 11.7318 83.714 11.6786 83.4424 11.6786ZM90.5824 19.4388H92.0342C92.3072 19.4388 92.5074 19.4934 92.4892 19.8364C92.4892 20.1066 92.3254 20.2326 92.0888 20.1976C91.0528 20.0156 91.0724 20.6666 91.1088 21.3708C91.1326 21.8146 91.1242 22.2514 91.1158 22.691C91.113 22.9108 91.1088 23.132 91.1088 23.356C91.1088 23.7522 91.0906 24.0602 90.5446 24.0602C90.0364 24.0602 89.9454 23.8068 89.9454 23.3924C89.9538 23.0606 89.951 22.726 89.9482 22.3914V22.3886C89.9454 21.9406 89.9426 21.4884 89.9636 21.0446C89.9818 20.4678 89.8908 20.1066 89.1824 20.1976C88.8912 20.2326 88.5468 20.269 88.5832 19.7818C88.6126 19.4192 88.8464 19.436 89.0606 19.4514C89.1026 19.4542 89.1446 19.457 89.1824 19.457C89.5506 19.429 89.8992 19.4332 90.2422 19.4374L90.581 19.4388H90.5824ZM70.092 13.0548C70.0906 13.1836 70.0878 13.3152 70.0878 13.4468V14.7292C70.0878 15.0372 70.0878 15.3606 69.7434 15.4866C69.455 15.5888 69.3234 15.4054 69.161 15.1758L69.126 15.1268C68.8894 14.7656 68.398 14.8188 68.1628 15.0176C67.8548 15.2528 68.1264 15.614 68.3448 15.866C68.7802 16.3714 69.3808 16.4806 69.9968 16.335C70.6338 16.1908 71.1238 15.8478 71.1784 15.145C71.2232 14.536 71.2344 13.9354 71.2442 13.3362C71.2498 12.9764 71.2554 12.6166 71.2694 12.2568C71.2876 11.7696 71.0692 11.6604 70.6156 11.6604C70.1256 11.6422 70.0696 11.8956 70.0878 12.275C70.1018 12.5382 70.0962 12.7958 70.092 13.0548ZM90.6174 29.4026C90.6174 29.2206 90.6202 29.0414 90.6216 28.8608C90.6283 28.5001 90.6268 28.1393 90.6174 27.7786C90.5992 27.3446 90.6902 27.1108 91.1984 27.1276C91.6716 27.1458 91.7444 27.3628 91.7262 27.7422C91.7192 28.067 91.7234 28.3932 91.7262 28.7166C91.7346 29.2024 91.7402 29.684 91.708 30.16C91.6716 30.7746 91.8718 31.063 92.5256 30.972C92.7076 30.9552 92.8896 30.9552 93.0716 30.972C93.1206 30.9762 93.1752 30.9748 93.2284 30.972C93.465 30.965 93.703 30.958 93.6876 31.3696C93.6736 31.7308 93.4608 31.7224 93.2564 31.7126C93.2046 31.7112 93.1542 31.7084 93.1066 31.7126C91.8564 31.7854 91.2334 31.8218 90.924 31.5278C90.6174 31.2366 90.6174 30.6234 90.6174 29.4026ZM75.6066 30.1096L75.6108 29.5482C75.6108 28.9154 75.6108 28.3022 75.629 27.6526C75.629 27.2746 75.4652 27.129 75.083 27.129C74.684 27.129 74.558 27.3096 74.558 27.6708V31.2618C74.558 31.623 74.7204 31.7322 75.048 31.7322C75.3924 31.7322 75.629 31.6594 75.6108 31.2436C75.6014 30.8666 75.6 30.4895 75.6066 30.1124V30.1096Z" fill="white"/>
</svg>
