<svg width="48" height="48" viewBox="0 0 48 48" fill="none" xmlns="http://www.w3.org/2000/svg">
<mask id="mask0_11470_11174" style="mask-type:luminance" maskUnits="userSpaceOnUse" x="6" y="6" width="36" height="36">
<path d="M6 6H42V42H6V6Z" fill="white"/>
</mask>
<g mask="url(#mask0_11470_11174)">
<path d="M21.4565 6.53617C21.8783 6.21265 22.4406 6.29681 22.877 6.01562H24.8453C26.3082 6.38146 27.6864 6.90152 28.8112 7.97033C28.8812 8.58914 29.0642 9.19384 28.9659 9.82676C28.9236 10.0515 28.9377 10.3191 28.6565 10.4032C28.3612 10.4879 28.2488 10.2627 28.1783 10.0379C28.1082 9.84087 27.9253 9.62973 27.8129 9.91141C27.5312 10.5862 27.0248 10.4879 26.5047 10.4174C26.083 10.1221 25.6612 9.89681 25.2253 10.3891C23.58 10.4879 23.5941 12.0344 22.9612 13.005C22.9047 13.1032 22.8629 13.2156 22.7642 13.2862C22.68 13.3562 22.5676 13.3844 22.4547 13.3844C21.8783 13.3144 21.8223 12.8926 21.7659 12.4285C21.6671 11.5421 21.8218 10.6703 21.9488 9.79854C21.9065 9.71438 22.0047 9.78444 21.9342 9.74211C21.0488 9.20795 21.4424 8.26562 21.2176 7.52033C21.0911 7.12627 21.2458 6.83146 21.4565 6.53617ZM22.8765 41.9874C22.7778 41.9456 22.6936 41.8891 22.5949 41.8468C22.4124 41.6926 22.2996 41.4956 22.2855 41.2562C22.2292 40.5167 22.2292 39.774 22.2855 39.0344C22.3 38.7674 22.4119 38.5421 22.6372 38.3874C22.8765 38.2332 23.1295 38.1627 23.4107 38.1909C23.959 38.3315 24.1983 38.7114 24.2124 39.2597C24.2124 39.5832 24.2265 39.9067 24.2265 40.2297C24.2119 40.7644 24.2825 41.2562 24.7466 41.608C24.859 41.6926 24.9154 41.8332 24.859 41.9738C24.1842 41.9879 23.5372 41.9874 22.8765 41.9874Z" fill="#ADADAD"/>
<path d="M24.8356 41.9863C23.8938 41.9303 23.7532 41.3393 23.8374 40.5521C23.8797 40.144 23.8374 39.7081 23.8515 39.3004C23.8656 38.9346 23.7532 38.668 23.4297 38.4846C23.528 38.3021 23.7109 38.2739 23.8938 38.2462C24.3579 38.1474 24.8079 38.1756 25.2438 38.4286C25.5532 39.5957 25.6938 40.7491 25.1309 41.8875C25.1309 41.9303 25.1309 41.9581 25.1168 42.0004C25.0186 41.9863 24.9344 41.9863 24.8356 41.9863ZM40.2772 19.0781V25.8281C40.1789 26.0529 40.249 26.2922 40.2349 26.517C40.193 27.3469 39.9255 28.0358 39.3071 28.6546C37.6896 30.2858 35.7772 31.5657 34.0054 32.9999C32.3883 34.3076 30.7289 35.5593 29.0977 36.8388C28.4084 37.3734 27.6918 37.8516 26.8896 38.1747C26.6366 38.3858 26.3272 38.3999 26.0178 38.3858C25.8913 38.3858 25.793 38.3299 25.6943 38.2452C25.399 37.8657 25.4977 37.4016 25.4836 36.9794C25.469 36.3323 25.526 35.6858 25.2443 35.0811C25.2302 35.0068 25.2302 34.9306 25.2443 34.8563C25.3148 34.6593 25.4695 34.561 25.6524 34.5046C27.1713 34.0123 28.4225 33.0422 29.6465 32.0722C32.4166 29.8922 35.2148 27.7264 37.9849 25.5469C39.2225 24.5764 39.996 23.4375 39.8272 21.7781C39.7713 21.1734 39.9537 20.5405 39.8131 19.9217C39.8836 19.5982 39.7289 19.1482 40.2772 19.0781Z" fill="#ADADAD"/>
<path d="M26.806 37.9076C29.2248 36.5435 31.2496 34.6452 33.4436 32.9858C34.9625 31.847 36.453 30.6935 37.9154 29.4846C39.0684 28.5282 40.1795 27.4876 40.2637 25.8282C40.2637 27.0235 40.306 28.2187 40.2637 29.4136C40.2355 30.6235 39.5889 31.5517 38.7167 32.297C36.2983 34.364 33.7248 36.2482 31.2219 38.2311C30.2372 39.0187 29.2248 39.7782 28.2125 40.5371C27.903 40.7764 27.5231 40.9311 27.186 41.114C26.7496 41.0858 26.7778 40.7482 26.7496 40.4529C26.7219 39.6093 26.7219 38.7658 26.806 37.9076ZM26.5248 10.2329C27.0595 10.247 27.4112 10.0358 27.5659 9.48756C27.6078 9.34648 27.7766 9.23459 27.903 9.13583C28.2825 8.84053 28.4936 8.89697 28.4936 9.41702C28.4936 9.62816 28.4936 9.82518 28.5501 10.0358C28.6625 9.57172 28.6625 9.10761 28.5783 8.64351C28.536 8.36232 28.5501 8.13756 28.803 7.96875C29.5065 8.43286 30.1813 8.92518 30.786 9.51578C30.8142 9.81107 30.5612 9.95167 30.4065 10.1482C30.2377 10.3593 30.1389 10.5705 30.1813 10.8517C30.28 11.5829 30.2377 11.6106 29.4924 11.5829C29.3377 11.5683 29.2248 11.6388 29.0983 11.6952C28.4936 11.9064 28.1424 11.5264 27.7766 11.147C27.6219 10.894 27.4112 10.9358 27.1719 10.9923C26.5813 11.1329 26.2159 10.9217 25.9766 10.3029C26.1176 9.92345 26.3142 9.92345 26.5248 10.2329ZM32.0523 10.4858C32.5023 10.7675 32.9241 11.0769 33.2899 11.4564C33.8382 12.947 33.7394 13.271 32.4176 14.171C32.1223 14.3816 31.8694 14.3111 31.6305 14.0581C31.4275 13.8419 31.1897 13.6611 30.927 13.5235C30.6035 13.397 30.3506 13.144 30.0416 12.9893C29.7176 12.8346 29.5352 12.5252 29.6894 12.1175C30.4211 11.8222 30.9694 11.3299 31.3775 10.6546C31.5176 10.4163 31.7852 10.4012 32.0523 10.4858ZM38.1407 15.2957C38.5347 15.6611 39.0548 15.9004 39.3219 16.4064C39.0825 17.0816 38.9142 17.7564 38.886 18.4739C38.8714 18.7128 38.7449 18.9658 38.4642 19.0645C37.606 18.9235 37.1142 18.2205 36.4389 17.7705C36.256 17.4893 35.7642 17.4333 35.7919 16.9692C36.0595 16.4633 36.453 16.1675 37.0013 16.2098C36.7625 15.9987 36.6919 15.9004 36.7766 15.7039C36.9172 15.3799 37.1842 15.1688 37.5219 15.1688C37.7325 15.1688 37.9578 15.1692 38.1407 15.2957Z" fill="#ADADAD"/>
<path d="M38.3248 18.9422C38.6206 18.5345 38.6343 18.0704 38.6065 17.6063C38.5642 17.0293 38.7607 16.6075 39.3236 16.411C39.8578 17.0016 40.2236 17.6481 40.1672 18.4781C40.1531 18.6751 40.2377 18.8858 40.2795 19.0828C40.1107 19.3922 40.1677 19.7298 40.1531 20.0669C39.9984 20.2781 40.1253 20.6434 39.7454 20.714C39.6753 20.714 39.5907 20.6999 39.5484 20.6575C39.1971 20.1516 38.7048 19.8986 38.1142 19.814C37.7484 19.4481 37.1996 19.5887 36.7924 19.3358C36.4971 19.1528 35.9625 19.0969 36.1454 18.5905C36.3424 18.0845 36.7642 18.3934 37.1018 18.4781C37.5377 18.5905 37.8607 18.9563 38.3248 18.9422ZM32.2929 14.0345C32.5036 13.7669 32.7147 13.4716 32.9399 13.2187C33.1929 12.9375 33.4882 12.7405 33.0941 12.3046C32.8694 12.0657 33.2488 11.7563 33.2912 11.461C33.9236 11.9251 34.5706 12.3464 35.1335 12.8952C34.9224 13.4439 34.613 13.9922 34.8941 14.6251C34.9365 14.7234 34.8518 14.8499 34.7677 14.9345C34.7141 14.9765 34.6514 15.0053 34.5847 15.0187C34.4018 15.0187 34.2053 14.9204 34.0365 15.0328C33.404 15.4687 32.8835 15.0328 32.3488 14.8358C31.8429 14.6533 32.2083 14.3016 32.2929 14.0345ZM32.0531 10.4905C31.5325 10.8563 31.336 11.4892 30.8719 11.8964C30.5343 12.1922 30.2112 12.3751 29.7612 12.1922C29.3954 12.3892 29.2125 12.1781 29.0578 11.8969C28.9877 11.7558 28.9595 11.6293 29.0578 11.4892C29.2407 10.9828 29.6065 11.2362 29.9578 11.3063C29.5078 10.5046 29.7612 9.98451 30.8018 9.49219C31.2495 9.78473 31.6684 10.119 32.0531 10.4905ZM38.1424 15.2999C37.7484 15.4546 37.1437 15.4409 37.0731 15.9328C37.0172 16.3969 37.6919 16.2845 37.9595 16.664C37.1437 16.0593 36.5954 16.8051 35.9343 16.9875C35.6813 17.114 35.5266 17.0016 35.386 16.7905C35.5125 16.2281 35.2449 15.764 35.0201 15.2858C35.2454 14.5687 35.9343 13.9917 36.5248 14.0063C37.1154 14.3858 37.6778 14.7798 38.1419 15.3003L38.1424 15.2999ZM25.8236 38.208H26.1048C26.33 38.3345 26.4142 38.5456 26.4142 38.7845C26.4424 39.7268 26.5553 40.6692 26.2459 41.5833C25.8941 41.7798 25.5142 41.8362 25.1206 41.8927C25.1206 40.7533 25.1206 39.6286 25.1065 38.4892C25.0808 38.4608 25.0654 38.4246 25.0629 38.3863C25.0603 38.3481 25.0707 38.3101 25.0924 38.2786C25.3177 37.9833 25.5706 38.0956 25.8236 38.208Z" fill="#ADADAD"/>
<path d="M26.2473 41.5685C25.9379 40.4579 26.1773 39.319 26.1067 38.1938C26.3461 38.0955 26.5709 38.0108 26.8102 37.9126C27.1196 38.1514 27.0773 38.4891 27.0914 38.8126C27.1332 39.5861 26.979 40.3596 27.1897 41.1185C26.9508 41.4143 26.5709 41.4279 26.2473 41.5685ZM36.5414 14.0061C36.3025 14.1608 36.0632 14.3297 35.9649 14.5826C35.8238 14.948 35.5709 15.1168 35.2337 15.2297C34.826 15.468 34.7696 15.1168 34.6713 14.8638C34.179 13.6826 34.2632 13.3314 35.1213 12.895C35.6309 13.2168 36.1063 13.5891 36.5414 14.0061ZM22.7315 38.4891C22.4362 39.6002 22.661 40.725 22.5909 41.8502C21.3392 41.7091 20.2986 41.0621 19.3285 40.3173C16.1226 37.842 12.9439 35.3391 9.75204 32.8643C8.24734 31.669 7.41739 30.2203 7.54388 28.2096C7.67036 26.1985 7.57209 24.1873 7.57209 22.1767C7.65674 22.1344 7.7268 22.1485 7.79734 22.1908C8.09264 22.4579 7.99388 22.8514 8.09264 23.1891C7.86739 24.0326 8.07804 24.8767 8.0362 25.7203C7.99388 26.7049 8.35972 27.4779 9.03447 28.1673C10.061 29.2361 11.2567 30.0938 12.4238 30.9938C15.2362 33.1596 17.9503 35.4655 20.9033 37.4626C21.0161 37.5467 21.1285 37.6455 21.255 37.6737C21.761 37.8561 22.3798 37.8284 22.7033 38.3908C22.7179 38.419 22.7179 38.4467 22.7315 38.4891ZM21.452 6.53906C21.452 6.96085 21.5085 7.36852 21.6491 7.76209C21.7756 8.12793 21.7897 8.47966 21.4944 8.90144C22.2533 8.76036 22.4362 9.05614 22.1691 9.67495C22.2815 9.95614 22.085 10.0544 21.8879 10.1391C21.4661 10.3215 21.0721 10.5891 20.6221 10.7297C19.1821 11.7609 17.7661 12.8251 16.3751 13.9215C14.7968 15.1622 13.2125 16.3951 11.6221 17.6203C10.4973 18.4779 9.3862 19.3638 8.4862 20.4891C8.38793 20.6155 8.26145 20.7279 8.07853 20.7279C7.61442 20.5732 7.81096 20.1091 7.65674 19.8279C7.5862 19.5891 7.68496 19.3356 7.5862 19.0967C7.45972 17.4232 8.41615 16.3262 9.58323 15.3703C11.0456 14.175 12.5508 13.0215 14.0409 11.8544C15.9674 10.3497 17.9085 8.85912 19.8491 7.36901C20.3409 6.98906 20.861 6.70739 21.452 6.53906Z" fill="#ADADAD"/>
<path d="M7.58594 19.0921C7.71242 19.3174 7.71242 19.5563 7.71242 19.7951C7.88123 20.2733 7.92307 20.7657 8.00772 21.258C8.06367 21.5951 8.09188 21.9751 7.69832 22.1857C7.65599 22.1857 7.62778 22.1721 7.58594 22.1721V19.0926V19.0921ZM20.4822 10.4998C20.9463 10.0357 21.6211 9.95155 22.1698 9.65625C22.5775 9.75452 22.4228 9.97928 22.3245 10.2327C21.9869 11.0063 21.9587 11.7934 22.1416 12.6092C22.1976 12.834 22.2258 13.0733 22.4792 13.1716C22.6057 13.3968 22.4929 13.5092 22.2963 13.5793C21.9869 13.6216 21.8463 13.3968 21.7334 13.2139C21.5087 13.7904 21.3822 14.4233 20.5523 14.5357C20.1023 14.5921 19.8634 14.9857 19.9476 15.4921C19.8493 15.8015 20.0181 16.111 19.9339 16.4204C19.751 16.7015 19.7651 16.9968 19.8352 17.3058C19.8898 17.5509 19.8653 17.8071 19.7651 18.0374C19.4416 18.361 19.2164 18.2481 18.9916 17.911C18.907 17.7699 19.1463 17.4468 18.7664 17.5028C18.457 17.5592 18.1057 17.6716 18.1193 18.0374C18.1476 18.5998 17.9228 18.811 17.3882 18.7964C17.1634 18.7964 17.0087 18.9515 16.8822 19.1204C16.5728 19.5563 16.1929 19.9498 15.8411 20.3434C15.574 20.5686 15.2792 20.4563 14.9976 20.3857C14.6882 20.2874 14.3792 20.2451 14.0835 20.4421C13.6198 20.6951 13.1835 20.9904 12.6629 21.0892C12.101 20.8639 11.9463 20.5263 12.3399 20.1892C13.057 19.5563 13.5634 18.7263 14.281 18.0934C14.6604 17.7563 14.857 17.8263 15.1245 18.3327C14.6745 17.531 14.6745 17.531 15.4198 16.8704C15.6587 16.6592 15.9258 16.4622 15.9117 16.0823C15.8976 15.8857 16.0104 15.6887 16.1792 15.6186C16.7976 15.3934 17.0228 14.831 17.3463 14.3392C17.6557 13.8887 18.007 13.4951 18.5557 13.3404C18.7104 13.2981 18.9211 13.2139 18.9211 13.0451C18.8792 12.061 19.751 11.6528 20.2005 10.9775C20.327 10.8374 20.4399 10.6827 20.4822 10.4998ZM26.5283 10.2327C26.3458 10.1627 26.1911 10.1486 26.1065 10.3738C26.0223 10.6968 25.9946 10.978 26.1629 11.3157C26.3877 11.7374 26.1206 12.2298 25.6706 12.258C25.15 12.2862 24.7424 12.5251 24.3347 12.7921C23.9129 12.7921 23.477 12.7921 23.1112 13.0733C22.9565 13.1862 22.7736 13.1862 22.6052 13.0592C22.9988 12.2439 23.3642 11.4139 23.7723 10.5986C24.0399 10.078 24.4047 9.62803 25.0664 10.1627C25.1783 9.89511 24.8411 9.92333 24.8693 9.67036C25.4458 9.76863 26.1347 9.48744 26.5283 10.2327ZM23.857 38.4704C23.7164 38.4704 23.5758 38.4704 23.4352 38.4845H22.7322V38.4699C22.6198 38.3298 22.4792 38.1892 22.4646 37.9921C22.3946 36.9657 22.2117 35.9246 22.6198 34.9263C22.7882 34.7298 23.0134 34.6592 23.2669 34.6733C23.5758 34.6733 23.801 34.8563 23.9976 35.0674C24.3634 36.0515 24.2087 37.0639 24.1386 38.0763C24.124 38.2592 23.9698 38.358 23.857 38.4704Z" fill="#ADADAD"/>
<path d="M23.8516 38.4707V35.0959C24.6679 34.6595 25.1174 34.8848 25.1602 35.7566C25.2021 36.6147 25.2162 37.4724 25.1179 38.3301V38.4712L23.8516 38.4707ZM39.7431 20.6249C39.8837 20.4424 40.0243 20.2454 40.1508 20.0625C40.1508 20.6672 40.0944 21.286 40.1649 21.8907C40.376 23.5501 39.5884 24.7318 38.3649 25.6877C34.9894 28.3501 31.5956 30.9892 28.1837 33.6048C27.3679 34.2236 26.4679 34.7437 25.3991 34.8283C24.8785 34.8424 24.8931 34.4907 24.8931 34.1254C24.8931 33.2954 25.0196 32.4519 24.6538 31.6501C24.7243 31.1296 25.076 30.7219 25.1743 30.2019C25.2025 30.0471 25.385 29.9766 25.5684 30.033C25.9619 30.1595 25.6525 30.7078 26.0461 30.8348C27.0025 30.666 27.7055 30.0613 28.4508 29.5125C29.4491 28.7954 30.4196 28.036 31.376 27.2625C31.9384 27.136 32.1632 26.5877 32.5855 26.2783C34.329 25.0266 35.9743 23.6348 37.676 22.3407C38.2243 21.933 38.6743 21.4266 39.1525 20.9484C39.3213 20.766 39.4619 20.5689 39.7431 20.6249Z" fill="#ADADAD"/>
<path d="M24.8429 31.5981C25.2082 31.6968 25.2647 31.9921 25.2647 32.3156C25.2647 32.9203 25.2647 33.525 25.2506 34.1156C25.2506 34.3686 25.1941 34.6216 25.4053 34.8327V34.9733C24.8429 35.2409 24.28 34.9733 23.7176 35.0015C23.38 33.8486 23.4082 32.6956 23.7322 31.5562C23.8023 31.4857 23.8723 31.4298 23.957 31.4015C24.3082 31.2605 24.6045 31.2605 24.8429 31.5981Z" fill="#ADADAD"/>
<path d="M23.7108 34.9606H25.3985C25.8061 35.073 25.8203 35.4106 25.8203 35.7482V38.1953C25.6091 38.3359 25.3561 38.3359 25.1168 38.3359C24.8497 38.1948 24.8356 37.9277 24.8356 37.6747V36.0717C24.8356 35.1294 24.8079 35.1153 23.8514 35.1012C23.6544 35.1012 23.4574 35.073 23.2891 34.9606C23.4297 34.8482 23.5703 34.8482 23.7108 34.9606ZM29.0549 11.5047C29.0972 11.6029 29.1532 11.6871 29.1955 11.7859C29.2514 12.3906 29.0967 12.9953 29.0544 13.5859C29.0267 13.9799 28.7032 14.1341 28.3655 14.1765C27.8173 14.2465 27.3391 14.4576 26.8608 14.7247C26.2985 14.7529 25.9049 14.5418 25.7502 13.9658C25.6797 13.867 25.8767 13.7688 25.7502 13.67C25.3561 13.4029 25.4972 13.1217 25.7502 12.8683C25.9891 12.6299 26.1297 12.3623 26.2143 12.0247C26.425 11.1393 26.9596 10.8153 27.9155 10.9277C28.3655 11.0123 28.6049 11.4765 29.0549 11.5047Z" fill="#ADADAD"/>
<path d="M27.9299 10.9359C27.6769 11.0482 27.4239 11.1611 27.1705 11.2594C26.9452 11.3576 26.6922 11.4705 26.6645 11.6953C26.594 12.3141 26.4111 12.8482 25.8764 13.2423C25.6799 13.397 25.7781 13.5094 26.4393 13.65C26.1863 13.7205 26.0034 13.7765 25.8205 13.8329C25.8059 13.8888 25.764 13.8888 25.7358 13.847C25.244 13.4388 24.7658 13.0171 24.2734 12.6094C24.4846 12.047 24.9764 11.9064 25.4828 11.85C25.9328 11.8076 26.0034 11.7235 25.7358 11.3294C25.2717 10.6688 25.3846 10.444 26.1017 10.3594C26.5375 10.4718 26.9452 10.7534 27.4517 10.6123C27.6346 10.5705 27.8311 10.7111 27.9299 10.9359ZM32.2893 14.0299C32.4021 14.6346 33.2316 14.9158 33.7658 14.5505C34.1598 14.2829 34.3286 14.6906 34.5393 14.8876C34.8205 15.2111 34.5539 15.4222 34.3846 15.6752C34.0051 16.2517 33.2598 16.3641 32.8375 16.8846C32.4021 17.4329 31.7974 17.7564 31.2487 18.1222C30.7145 18.4876 30.3633 17.9534 29.9833 17.6859C29.4774 17.1376 28.6752 16.8846 28.3098 16.1675C28.2957 16.097 28.2816 16.0265 28.2957 15.9705C28.7175 15.45 29.0833 14.9017 29.5474 14.4235C29.8004 14.1564 30.0816 14.1846 30.3769 14.3953C30.0675 13.8329 30.2081 13.6081 31.0239 13.3269C31.5722 13.3269 31.7551 13.974 32.2893 14.0299Z" fill="#ADADAD"/>
<path d="M31.0277 13.3283C30.9994 13.3983 30.9435 13.4548 30.9435 13.5248C30.9153 13.8483 30.3529 13.8765 30.4935 14.2283C30.6059 14.5236 31.0277 14.453 31.2388 14.7624C30.9994 14.6919 30.7465 14.636 30.5076 14.5513C30.0435 14.3966 29.5794 14.6077 29.5229 14.9736C29.4388 15.6765 28.9041 15.7607 28.4682 16.0283C28.0324 16.3654 27.8076 15.9295 27.4982 15.7753C27.1465 15.4513 26.7101 15.1983 26.7811 14.6077C27.0623 14.1718 27.4135 13.8765 27.9759 13.8907C28.5388 13.9048 28.7777 13.6095 28.7494 13.0466C28.7217 12.5825 28.7076 12.0907 29.1712 11.7812C29.3541 11.9218 29.5512 12.0624 29.7341 12.203C29.9029 12.5124 30.1418 12.7513 30.493 12.8218C30.7888 12.8783 30.9435 13.0748 31.0281 13.3278L31.0277 13.3283ZM35.514 16.6889C35.6546 16.7872 35.7952 16.8718 35.9358 16.9701C36.1747 17.153 36.3999 17.3496 36.6388 17.5325C36.6247 17.603 36.6247 17.6872 36.5828 17.7295C35.6965 18.6996 35.7811 19.9654 35.5564 21.1325C35.4435 21.709 35.0358 22.0466 34.5299 22.2855C33.8828 21.9761 33.2358 22.0748 32.617 22.3701C32.3781 22.4825 32.1529 22.5671 31.8999 22.4402C31.5482 21.9342 31.1546 21.456 30.9012 20.8931C30.7893 20.6402 30.6905 20.3872 30.7747 20.106C30.7747 19.8248 30.9012 19.6137 31.1123 19.459C32.3358 18.503 33.5734 17.5748 34.7828 16.5902C35.0499 16.5761 35.3034 16.4496 35.514 16.6889Z" fill="#ADADAD"/>
<path d="M34.5431 22.1718C35.4431 21.2159 35.2883 19.9077 35.6401 18.7689C35.823 18.1924 36.0619 17.7424 36.6383 17.5312C37.2564 17.929 37.8232 18.4012 38.326 18.9372C38.1572 19.2753 37.9042 19.1483 37.6648 19.0637C37.2572 18.9095 36.8495 18.7407 36.4136 18.6565C36.7648 18.98 37.2148 19.0783 37.623 19.2471C37.8336 19.3313 38.1854 19.2471 38.1713 19.6411C38.3123 20.0342 37.9742 20.1612 37.7636 20.2595C36.8213 20.6812 36.2448 21.4407 35.7106 22.2706C35.3589 22.833 35.0213 22.8612 34.4589 22.453C34.4419 22.4032 34.4408 22.3494 34.4559 22.299C34.471 22.2485 34.5015 22.2041 34.5431 22.1718Z" fill="#ADADAD"/>
<path d="M34.5406 22.4513C35.3423 22.4367 35.6936 21.9167 35.877 21.2419C35.9611 20.9607 36.1864 20.8479 36.3975 20.7073C36.9926 20.3429 37.5926 19.9868 38.1975 19.639C38.971 19.3296 39.3641 19.5825 39.7441 20.6231C39.1253 21.6778 38.1688 22.3949 37.227 23.1261C35.3564 24.589 33.4723 26.0372 31.5876 27.4996C31.1094 27.2607 31.0394 26.9937 31.377 26.5714C31.7988 26.0508 32.2206 25.5449 32.6423 25.0244C32.8535 24.7996 32.9235 24.5043 33.0082 24.2231C33.3876 23.8013 33.5564 23.2526 33.8936 22.8026C34.0488 22.5919 34.1611 22.2966 34.5406 22.4513ZM7.69531 22.1838C7.69531 21.3825 7.70942 20.5949 7.70942 19.7932C7.94829 20.0184 7.94829 20.3701 8.1171 20.6231C8.31412 20.5808 8.49656 20.609 8.60942 20.7778C9.10174 21.4667 9.80472 21.9167 10.4376 22.4654C10.8735 22.8872 11.4077 23.1825 11.8295 23.6184C12.3077 23.9419 12.8 24.2508 13.2077 24.659C14.1359 25.5026 14.4312 25.5731 15.1488 25.2073C15.3735 25.0954 15.5136 24.9684 15.5706 24.7154C15.6265 24.4343 15.753 24.1808 16.0765 24.1107C16.3295 24.1107 16.5688 24.0825 16.7936 24.2226C17.1171 24.5325 17.4829 24.7855 17.8483 25.039C18.0312 25.2919 18.4253 25.362 18.4389 25.756C18.397 26.3607 17.8765 26.7402 17.75 27.3449C17.6094 28.006 17.7923 28.3714 18.2847 28.6949C18.4248 28.7932 18.5376 28.906 18.6782 28.9902C19.353 29.4684 19.9577 30.0313 20.7171 30.3825C21.0406 30.6355 21.5329 30.7201 21.5329 31.2543C21.5183 32.2667 21.5753 33.2932 21.4201 34.306C21.1389 34.7979 20.7594 34.6432 20.3936 34.4466C19.3817 33.9261 18.5235 33.1949 17.6517 32.5056C14.9372 30.3543 12.1953 28.2449 9.4671 26.1073C8.52526 25.362 7.80818 24.5466 7.69531 23.2954V22.1838Z" fill="#ADADAD"/>
<path d="M7.69639 23.2969C8.24466 24.8157 9.49639 25.7016 10.6912 26.6293C13.6115 28.9197 16.5413 31.1979 19.4805 33.464C20.0011 33.858 20.5494 34.2229 21.1818 34.4063C21.3229 34.4204 21.4348 34.5046 21.4912 34.631C21.7865 35.531 21.66 36.4456 21.6323 37.3593C21.6177 37.6404 21.463 37.8234 21.1959 37.9075C20.057 37.4716 19.157 36.684 18.2288 35.9528C15.4383 33.7978 12.6634 31.6229 9.90406 29.4281C9.35531 28.9922 8.87758 28.4716 8.39936 27.9657C7.92115 27.431 7.68179 26.7704 7.6959 26.0392C7.7105 25.1246 7.69639 24.211 7.69639 23.2969Z" fill="#ADADAD"/>
<path d="M21.1813 37.9077C21.4766 36.797 21.2513 35.6577 21.3219 34.5329C21.8843 34.1535 22.2778 34.547 22.7001 34.8423C22.7142 34.8842 22.7278 34.9124 22.7278 34.9547V38.4564C22.2219 38.2876 21.7018 38.0906 21.1813 37.9077ZM10.2266 22.7346C9.43897 22.1158 8.63773 21.5111 8.11719 20.6248C8.18773 20.203 8.46892 19.9359 8.75011 19.6406C10.2825 17.9817 12.1813 16.7859 13.9249 15.3795C15.7813 13.8611 17.736 12.4547 19.6343 10.9923C19.8872 10.7953 20.1548 10.5842 20.4783 10.5C20.7172 10.8941 20.7736 11.1188 20.2813 11.4983C19.8454 11.8218 19.1702 12.2299 19.4236 13.1017C19.6484 13.8606 18.8471 13.7765 18.5377 13.8329C17.8484 13.9453 17.7078 14.5359 17.3702 14.9299C17.1318 15.2111 17.539 15.3376 17.7078 15.5483C17.1313 15.5765 16.5407 15.5205 16.2454 16.0688C16.0907 16.35 16.4702 16.35 16.6672 16.5748C15.9924 16.603 15.7249 17.1658 15.289 17.503C14.6706 17.9953 15.4578 18.5441 15.3172 19.0923C15.3172 19.0923 15.2471 19.0923 15.2471 19.0777C14.7548 17.9953 14.6565 17.9671 13.9112 18.9376C13.5454 19.4299 13.1801 19.8936 12.6736 20.2594C12.4625 20.4141 12.1954 20.6535 12.6031 20.9064C12.6595 20.9483 12.6877 21.0183 12.7018 21.0889C12.6736 21.3564 12.4489 21.4124 12.2801 21.5248C11.8437 21.6094 11.5065 21.7218 11.4078 22.2983C11.2954 22.9312 10.6625 22.6923 10.2266 22.7346ZM15.7112 20.2035C15.9083 19.5564 16.4424 19.1488 16.7523 18.5723C16.963 18.1641 17.3565 18.347 17.7642 18.5017C17.3848 18.0799 17.483 17.7564 17.8489 17.4894C18.2706 17.1941 18.8753 17.1517 19.0442 16.5329C19.0583 16.4911 19.1706 16.4488 19.213 16.4629C19.3253 16.4911 19.3395 16.5894 19.3253 16.6876C19.2971 16.9406 19.2412 17.1936 19.2271 17.447C19.2125 17.7 19.2271 17.953 19.4946 18.0941C19.9159 18.5859 19.8595 19.0641 19.2835 19.4723C18.6365 19.9223 18.1018 20.4988 17.4271 20.9205C17.1177 21.0329 16.8083 20.9346 16.4989 20.977C16.133 20.8082 15.6971 20.7376 15.7112 20.2035Z" fill="#ADADAD"/>
<path d="M17.3828 20.797C17.7063 20.1923 18.2546 19.7705 18.7888 19.4188C19.2952 19.0811 19.5345 18.7017 19.4922 18.1111C19.5345 17.5064 19.3798 16.8876 19.6046 16.2829C19.7457 16.2687 19.914 16.2829 19.9841 16.4093C20.2939 17.0423 20.8281 17.5346 21.0251 18.2239C21.0534 18.4346 21.2217 18.6034 21.1939 18.8282C20.9828 19.644 20.3922 20.2769 20.1529 21.0782C20.0264 21.4999 19.5204 21.4158 19.2675 21.6687C18.5081 21.6687 17.7628 21.6264 17.3828 20.797ZM22.2905 15.0457C21.4751 14.2158 20.7016 14.3705 19.9699 15.1722C19.8157 15.341 19.6051 15.4393 19.3516 15.4534C19.7034 14.9752 19.9704 14.4546 20.6457 14.244C20.814 14.1876 21.2781 13.6816 21.2217 13.1752C21.2081 13.0341 21.1939 12.894 21.2217 12.7675C21.2922 12.5282 21.3764 12.2188 21.6717 12.2188C21.9247 12.2188 21.8969 12.5282 21.9534 12.7252C22.0234 12.964 22.0798 13.2175 22.1499 13.4705C22.1645 13.6675 22.3328 13.7658 22.4452 13.8782C22.6982 14.2999 22.9234 14.7363 22.2905 15.0457Z" fill="#ADADAD"/>
<path d="M23.8585 14.8655C23.8731 14.9078 23.8731 14.936 23.8731 14.9783C24.1679 15.5548 23.732 15.7518 23.3526 15.9766C22.9167 16.0612 22.8179 15.7659 22.7202 15.4424C22.5791 15.3013 22.4385 15.1749 22.2979 15.0343C22.3543 14.6407 22.4103 14.2608 22.4667 13.8672C22.9308 14.2048 23.3944 14.5424 23.8585 14.8655ZM23.7189 34.9608H22.7347C22.3553 34.7637 22.2142 34.4548 22.2424 34.0325C22.313 33.1325 22.0454 32.2043 22.4954 31.3471C23.03 31.009 23.4518 31.2202 23.8595 31.5855C23.7895 32.7249 24.0142 33.8496 23.7189 34.9608ZM32.9996 25.2714C32.3531 25.6796 32.0996 26.4108 31.5796 26.9449C31.439 27.1001 31.4531 27.3249 31.5796 27.5219C29.7942 28.9137 28.1484 30.5172 25.9689 31.3184C25.6872 31.0937 25.7437 30.8266 25.856 30.5313C25.9689 30.236 26.1513 29.9548 26.4189 29.8419C27.656 29.2655 28.1343 28.0702 28.7954 27.0155C29.1471 26.4531 29.8078 26.1719 30.1172 25.5949C30.3847 25.1313 30.7642 24.8919 31.2283 24.7095C31.7625 24.4984 32.6489 24.7796 33.0001 25.2719L32.9996 25.2714Z" fill="#ADADAD"/>
<path d="M32.9929 25.2664C32.6135 25.1823 32.2194 25.0981 31.8399 24.9993C31.6006 24.9434 31.3758 24.8875 31.3194 25.2387C31.3053 25.3088 31.2771 25.3652 31.2493 25.4216C30.3211 24.9293 30.5323 26.0258 30.0964 26.2511C29.6182 26.504 29.1964 26.8417 28.957 27.404C28.6758 28.037 28.2399 28.5993 27.8882 29.1899C27.7053 29.4993 27.3959 29.5981 27.1147 29.7387C26.4677 30.0481 26.0182 30.5122 25.9758 31.2857C25.3147 31.1028 25.6382 30.554 25.554 30.1605C25.6382 30.0058 25.4694 29.8229 25.5959 29.6682C26.4682 29.134 26.8899 28.234 27.3959 27.4182C27.7335 26.8699 28.4224 26.6169 28.5912 25.9558C28.6058 25.8147 28.6758 25.7028 28.6617 25.5617C28.6053 24.8729 28.9293 24.4511 29.5758 24.2682C29.6182 24.0716 29.5335 23.8182 29.8434 23.7758C30.1664 23.6211 30.6023 23.6776 30.8135 23.2981C31.0664 22.8899 31.3053 22.2852 31.7694 22.3135C32.2053 22.3417 32.4587 22.9323 32.6694 23.3545C32.6976 23.4105 32.7258 23.481 32.754 23.5511C32.8241 23.9028 33.1335 24.1135 33.2746 24.4088C33.1758 24.704 33.0776 24.9852 32.9929 25.2669V25.2664Z" fill="#ADADAD"/>
<path d="M25.6828 29.7666C25.6404 29.9077 25.584 30.0478 25.5417 30.1884C25.3451 30.3149 25.3875 30.526 25.4016 30.6948C25.4575 31.1589 25.2469 31.4401 24.8387 31.5948H23.9951C23.6157 31.4119 23.3345 31.1589 23.4469 30.6807C23.5593 30.1748 24.1499 29.5136 24.5575 29.4713C24.8669 29.4295 25.1481 29.5277 25.4575 29.5277C25.584 29.5418 25.6546 29.626 25.6828 29.7666Z" fill="#ADADAD"/>
<path d="M25.5581 29.645C25.1358 29.8703 24.5875 29.6173 24.2217 30.0532C23.814 30.5314 23.5746 31.0096 23.9969 31.5856H23.8558C23.4345 31.5438 23.0128 31.4873 22.591 31.4455C22.3657 31.6703 22.1264 31.6985 21.8593 31.5297C21.4516 30.9673 21.7892 30.5455 22.1123 30.1373C22.2675 29.9549 22.5345 29.842 22.4781 29.5331C22.464 29.4626 22.464 29.392 22.464 29.322C22.3657 28.675 22.7452 28.225 23.2375 27.972C23.7999 27.6908 24.2217 28.1685 24.6581 28.4361C25.0939 28.6891 25.5016 28.9703 25.7405 29.4344C25.7405 29.5608 25.6986 29.6455 25.5576 29.6455L25.5581 29.645ZM28.9187 18.7891C29.2422 19.042 29.5939 19.2532 29.861 19.5772C30.1563 19.9284 30.5363 20.1113 31.014 20.0549C31.1128 20.9126 31.7875 21.5032 31.9986 22.3049C32.6593 22.8108 32.7863 23.3032 32.4204 23.8519C32.0687 23.4861 32.0969 22.9519 31.7593 22.4596C31.5345 22.9096 31.3516 23.3032 31.1546 23.7113C30.8734 23.7814 30.8316 23.5703 30.8452 23.3878C30.8875 22.7831 30.564 22.9237 30.241 23.0784C29.791 23.3032 29.3264 23.4725 28.8345 23.5425C28.511 23.5703 28.1175 23.8801 27.8922 23.4579C27.6392 22.9797 27.9068 22.5301 28.1875 22.122C28.8345 21.4049 29.0734 20.6878 28.1593 19.9844C28.0892 19.9284 28.1175 19.816 28.1316 19.7173C28.3281 19.3655 28.511 19.0002 28.9187 18.7891Z" fill="#ADADAD"/>
<path d="M32.4309 23.8617C32.2898 23.3412 32.1497 22.8352 32.0091 22.3147C32.6416 21.7523 33.4574 21.7942 34.2168 21.6677C34.6527 21.5976 34.5262 21.9489 34.5403 22.1741V22.4553C34.0057 23.0459 33.851 23.8612 33.2745 24.4241C32.9933 24.6917 32.7539 24.8036 32.642 24.2835C32.5997 24.1424 32.501 24.0023 32.4309 23.8617ZM35.3557 19.1088C35.201 19.7699 35.0745 20.4169 34.8916 21.0498C34.8074 21.3447 33.5557 21.7105 33.2604 21.5699C33.0775 21.4857 33.0775 21.331 33.1903 21.2464C33.9356 20.7258 34.1044 19.7417 34.8775 19.2494C34.9903 19.1652 35.0886 19.0528 35.3557 19.1088ZM20.4779 30.6117C19.7609 30.2323 19.072 29.81 18.5096 29.2058C18.3549 28.9947 18.3126 28.7835 18.495 28.5729C18.9032 28.1088 19.3814 27.7147 19.6767 27.1523C19.7326 27.0541 19.8737 27.04 19.9861 27.0258C20.6331 27.4199 21.3361 26.9976 22.0109 27.1664C22.3203 27.5459 22.1797 27.9541 21.9826 28.2771C21.6732 28.7976 21.6873 29.0929 22.3344 29.2053C22.5032 29.2335 22.6019 29.3882 22.7138 29.5006C22.7138 29.8382 22.4468 29.9365 22.2079 29.9365C21.5326 29.9088 20.9985 30.2182 20.4779 30.6117Z" fill="#ADADAD"/>
<path d="M20.0577 27.2383C19.9458 28.2089 18.75 28.3354 18.5106 29.2072C18.4547 29.1789 18.3841 29.1507 18.3282 29.1089C16.9641 28.2648 16.8517 27.4072 17.9341 26.1978C18.047 26.0713 18.1312 25.9448 18.2299 25.8183C18.5393 25.6072 18.7641 25.8183 18.9752 25.973C19.2564 26.1695 19.5658 26.3383 19.8188 26.5772C19.9735 26.7742 20.2406 26.9285 20.0577 27.2383ZM14.3059 22.8789C14.3483 22.8789 14.3906 22.893 14.4324 22.893C14.9106 22.8084 15.3047 23.0336 15.67 23.3148C15.923 23.5819 16.176 23.8631 16.1341 24.2849C15.8812 24.6507 15.7547 25.0302 16.2188 25.5084C15.5577 25.4383 15.1218 25.6208 14.6859 25.8319C14.2359 26.0567 13.9688 25.6349 13.6448 25.4379C13.4064 25.2836 13.1953 25.1007 13.0547 24.8619C13.4624 24.2002 13.5888 23.3431 14.3059 22.8789ZM21.8859 31.3025C22.1252 31.3443 22.35 31.4007 22.5893 31.443C22.5893 32.399 22.5893 33.3413 22.5611 34.2978C22.5611 34.5366 22.5893 34.7619 22.7299 34.9584C22.2658 34.8178 21.7876 34.6772 21.324 34.5366L21.1829 34.396C21.2252 33.3131 21.0846 32.2307 21.324 31.1619C21.5906 30.9366 21.7453 31.0913 21.8859 31.3025Z" fill="#ADADAD"/>
<path d="M14.3057 22.8789C14.2356 23.2165 14.2775 23.5541 13.9686 23.8353C13.6592 24.1024 14.0805 24.313 14.151 24.6224C13.7151 24.4819 13.3497 24.5665 13.0403 24.8618C12.5057 24.6366 12.098 24.2007 11.6344 23.8772C11.5916 22.6819 12.4215 21.9083 13.448 22.2036C13.7292 22.4148 14.0104 22.64 14.3057 22.8789Z" fill="#ADADAD"/>
<path d="M13.4461 22.1917C12.4479 22.3187 12.209 23.2751 11.6325 23.8652C11.1684 23.4858 10.6902 23.1204 10.2266 22.7405C10.4231 22.5716 10.606 22.3887 10.8872 22.3887C11.0696 22.3751 11.0838 22.3046 11.0838 22.1216C11.0419 21.3481 11.3654 21.1375 12.1949 21.3345C12.6308 21.5734 13.1654 21.6858 13.4466 22.1922L13.4461 22.1917ZM21.8838 31.3046C21.7008 31.2622 21.5043 31.2063 21.3214 31.1635C21.0402 30.9811 20.759 30.7986 20.4773 30.6016C20.5338 29.8699 20.9132 29.5469 21.659 29.6028C22.0102 29.6311 22.3902 29.6734 22.7273 29.4763C22.8961 29.5046 23.2479 29.4204 22.8961 29.7575C22.4602 30.2075 22.0239 30.6721 21.8838 31.3046ZM20.9979 18.8169C21.2367 19.2811 21.4902 19.7452 21.729 20.2093C21.6308 20.9828 21.4615 21.714 20.7167 22.164C20.0555 22.3469 19.7602 22.2199 19.3667 21.6011C19.3667 21.5593 19.3521 21.5169 19.3521 21.4746C19.9008 20.6028 20.4496 19.7028 20.9979 18.8169ZM24.7949 17.1152C24.3026 16.6934 23.7966 16.2716 23.3043 15.8499C23.5013 15.5687 23.6838 15.2734 23.8808 14.9922L25.9483 16.4687V16.5811C26.0184 17.2135 25.4701 17.2704 25.0902 17.4952C24.879 17.4528 24.7526 17.3405 24.7949 17.1157V17.1152ZM28.4936 22.1635C28.4377 22.29 28.3672 22.4028 28.3248 22.5434C28.2407 22.8246 28.0013 23.134 28.1983 23.3729C28.353 23.5699 28.6625 23.2746 28.9013 23.3028C29.056 23.5417 29.2808 23.4293 29.4924 23.4434C29.8013 23.4575 30.1107 23.5699 29.8719 24.0058C29.7454 24.5405 30.3501 24.2169 30.4342 24.5546C30.1389 24.5122 29.8578 24.4699 29.5907 24.4281C29.2248 24.4281 28.8736 24.5687 28.5077 24.4558C28.2125 24.3575 28.0154 24.5546 27.8048 24.7934C26.7637 25.961 25.8501 27.2259 24.9219 28.4635C24.8377 28.5763 24.7107 28.6464 24.5701 28.6887C24.0219 28.5476 23.7689 28.0276 23.3189 27.7464C23.136 27.634 23.1778 27.2964 23.3189 27.1699C24.036 26.5229 23.9377 25.5811 24.233 24.7934C24.6689 24.3152 25.3719 24.0622 25.5266 23.3311C25.9483 22.9093 26.4266 22.5575 26.5954 21.9105C26.6795 21.6011 27.0454 21.4605 27.3266 21.3058C27.8889 21.3905 28.3667 21.5452 28.4936 22.1635Z" fill="#ADADAD"/>
<path d="M24.563 28.642C24.9007 27.5313 25.8425 26.842 26.4331 25.9001C26.7848 25.3372 27.319 24.9014 27.6707 24.3108C27.8536 24.0014 28.1207 23.9172 28.4442 24.0155C28.8383 24.142 29.2318 24.283 29.6254 24.4236C29.1195 24.7471 28.9083 25.1825 29.1049 25.7872C29.1472 25.9283 29.0771 26.0967 29.063 26.2514C28.3318 26.1954 27.9237 26.7296 27.5724 27.2219C27.066 27.9108 26.4331 28.516 26.0536 29.3031C25.9831 29.4296 25.8566 29.486 25.7019 29.486C25.266 29.3595 24.9707 28.9937 24.5771 28.783C24.5207 28.7548 24.5066 28.7266 24.5207 28.6843C24.5348 28.6561 24.5489 28.642 24.563 28.642Z" fill="#ADADAD"/>
<path d="M25.6807 29.4705C26.0742 28.05 27.1289 27.1364 28.1836 26.25C28.4512 26.0252 28.7601 26.1235 29.0554 26.25C28.1554 26.8129 27.6072 27.6423 27.1713 28.5988C26.9183 29.147 26.3695 29.6111 25.6943 29.7663L25.5678 29.6398C25.596 29.5829 25.6388 29.527 25.6807 29.4705ZM29.8985 24.0005C29.575 23.4941 28.9985 23.8594 28.5485 23.6346C28.6896 23.5082 28.8015 23.3953 28.9143 23.297C29.5891 23.0017 30.2643 22.7064 30.9391 22.4252C31.0938 22.3547 31.2767 22.1577 31.4314 22.3406C31.5725 22.4953 31.4173 22.6923 31.3614 22.8611C31.2626 23.1423 31.0797 23.3953 31.1643 23.7188C30.7985 24.0705 30.3344 23.9869 29.8985 24.0005ZM24.5549 28.6406V28.7817C24.4708 28.753 24.3861 28.7111 24.302 28.6829C23.9785 28.5564 23.8379 27.9799 23.3874 28.247C22.9379 28.5146 22.7267 28.95 22.7408 29.4846H21.9109C21.1938 29.4564 20.9973 29.1188 21.4049 28.5141C21.6725 28.1201 21.9109 27.7552 21.8973 27.2629C21.672 26.9953 21.7708 26.7141 21.8408 26.4188C22.0938 26.0812 22.2349 25.6171 22.7691 25.5894C22.7832 25.5894 22.8391 25.6312 22.8114 25.5748C22.4032 24.9564 22.8532 24.5483 23.1626 24.1129C23.725 24.1129 24.2596 24.1688 24.4285 24.8441C24.5408 25.097 24.5549 25.3359 24.4139 25.5752C24.1473 26.0671 24.2596 26.4188 24.9626 26.6577C24.5126 26.7423 24.2037 26.4752 23.9502 26.8829C23.4297 27.6846 23.3879 27.6988 24.5549 28.6406ZM28.9153 18.7829C28.9576 19.247 28.6901 19.5282 28.3525 19.7671C28.1277 19.9641 27.9025 19.95 27.6636 19.7953C27.3542 19.2894 26.6794 19.2329 26.3695 18.7265C26.2431 18.5158 26.0183 18.3611 26.0888 18.0658C26.2995 17.7141 26.4683 17.3064 26.9606 17.25C27.5653 17.7141 28.17 18.1782 28.7747 18.6559C28.8166 18.6983 28.873 18.7411 28.9153 18.7829Z" fill="#ADADAD"/>
<path d="M26.9538 17.2514C26.8273 17.6308 26.6585 17.9689 26.2367 18.1095C26.0961 18.2214 25.9555 18.3202 25.7585 18.2501C25.4208 18.0531 25.126 17.8283 25.126 17.3783C25.2525 16.9561 25.6602 16.8296 25.9414 16.5625C26.3208 16.6608 26.5038 17.1108 26.9397 17.1249C26.9542 17.1672 26.9538 17.2095 26.9538 17.2514ZM22.032 26.5471C21.7085 26.4625 21.5114 26.2236 21.3149 25.9707C21.0901 25.8296 20.879 25.6754 20.6538 25.5348C20.5696 25.4642 20.5132 25.3236 20.5696 25.2954C21.1461 24.9301 20.9773 24.1566 21.4273 23.7348C21.4978 23.7066 21.5538 23.6783 21.6384 23.6783C22.0602 23.6219 22.482 23.636 22.8478 23.8895C23.0166 23.9877 23.1991 24.086 23.1854 24.3254C23.1708 24.466 23.2132 24.6348 23.1431 24.733C22.8196 25.2954 22.9884 25.6895 23.6072 26.0271C22.7213 25.3801 22.5102 26.3219 22.032 26.5471Z" fill="#ADADAD"/>
<path d="M21.4625 23.8592C21.4343 24.2533 21.1954 24.6887 21.7719 24.9563C21.3219 25.1528 20.8865 25.1528 20.633 25.5327C20.1971 25.1951 19.7184 24.8716 19.3672 24.4357C19.4937 23.9434 19.8031 23.5498 20.1125 23.1562C20.6471 23.2122 21.2801 23.1139 21.4625 23.8592Z" fill="#ADADAD"/>
<path d="M20.0596 23.3269C20.8891 24.3674 19.7079 24.1286 19.3703 24.4239C19.2297 24.3816 19.0891 24.3251 18.9344 24.2828C18.752 23.8469 18.2596 23.7769 17.9925 23.4392C17.9367 23.4145 17.8881 23.3758 17.8515 23.3269C17.7955 23.1157 17.7814 22.9051 17.9361 22.7221H18.3579C18.9344 22.5251 19.4549 22.6798 19.9331 23.0174C20.0455 23.1016 20.0737 23.2004 20.0596 23.3269ZM21.198 22.1593C21.0151 22.061 20.8322 21.9627 20.6356 21.864C21.0297 21.5687 21.1562 21.1187 21.3104 20.6969C21.395 20.4721 21.4792 20.2751 21.7322 20.2046C21.8168 20.3033 21.901 20.4016 21.9715 20.4999C22.5903 20.7816 22.7304 21.4422 23.0963 21.9204C23.3775 22.8345 23.2374 23.0734 22.4638 22.8905C22.2772 22.8075 22.0768 22.7598 21.8728 22.7499C21.4933 22.7499 21.2544 22.5533 21.198 22.1593ZM23.4475 19.6286C23.3916 19.5439 23.3351 19.4457 23.2787 19.361C23.0257 18.8551 22.6881 18.4051 22.5757 17.8286C22.5757 17.7863 22.5898 17.7298 22.5898 17.6875C23.0116 17.9969 23.4334 18.3063 23.8557 18.6298C24.1787 18.7286 24.3475 18.9957 24.5163 19.2627C24.5304 19.3333 24.5304 19.4038 24.5728 19.4598C24.7134 19.6986 25.0228 19.9098 24.7693 20.2333C24.4881 20.5704 24.1928 20.2892 23.8975 20.2333C23.6445 20.0922 23.5599 19.8538 23.4475 19.6286ZM26.0911 20.2187L27.3705 21.4563C27.1176 21.808 26.8364 22.1311 26.7522 22.5952C26.6535 23.158 26.0911 23.2563 25.6552 23.4392C25.5992 23.4811 25.5287 23.4952 25.4587 23.4811C25.0223 23.1721 24.8398 22.7221 24.8116 22.2016C25.0505 21.6392 25.1492 21.0063 25.5287 20.4999C25.6411 20.3452 25.7398 20.1905 25.9228 20.1345C25.9928 20.1345 26.0492 20.1627 26.0911 20.2187Z" fill="#ADADAD"/>
<path d="M24.6999 21.9014C24.6722 21.6766 24.5734 21.4937 24.4328 21.3249C24.0816 20.9732 23.8422 20.5796 23.8281 20.0732C24.7281 20.3685 24.5175 19.7219 24.5175 19.2578C24.644 19.3984 24.7846 19.4967 24.9816 19.5108C25.3046 19.7501 25.6422 20.0031 25.9657 20.242C25.7895 20.9611 25.4422 21.627 24.9534 22.1831C24.714 22.2249 24.8264 21.9578 24.6999 21.9014Z" fill="#ADADAD"/>
<path d="M24.6953 21.9062C24.78 22.005 24.8641 22.0892 24.9483 22.1874C25.1453 22.6097 25.3423 23.0174 25.5535 23.4392C25.0612 23.3127 25.0894 22.7785 24.8359 22.4691C24.78 22.2721 24.7376 22.0897 24.6953 21.9062Z" fill="#ADADAD"/>
<path fill-rule="evenodd" clip-rule="evenodd" d="M27.2265 29.2029C32.4305 29.2029 36.6488 24.9851 36.6488 19.7812C36.6488 14.5777 32.4305 10.3594 27.2265 10.3594C25.7213 10.3594 24.2989 10.7121 23.0369 11.3401C22.2914 11.1554 21.5262 11.0623 20.7582 11.0628C15.5543 11.0628 11.3359 15.2807 11.3359 20.4841C11.3359 25.6881 15.5543 29.9064 20.7582 29.9064C22.2634 29.9064 23.6859 29.5532 24.9478 28.9256C25.6776 29.1071 26.4413 29.2029 27.2265 29.2029Z" fill="#ADADAD"/>
<path d="M36.0058 17.6925C35.568 18.5448 35.4804 19.5704 34.8091 20.322C34.6339 20.3074 34.4442 20.2928 34.2691 20.2787C34.0501 20.0476 34.1231 19.8019 34.2253 19.5563C34.415 19.0649 34.6047 18.559 34.8237 17.9669C34.4296 18.0394 34.1523 18.0973 33.875 18.1406C33.2183 18.2413 32.5907 18.6027 31.8901 18.4437C31.8318 18.3425 31.7734 18.2559 31.715 18.1547C31.8172 17.8224 32.0799 17.7504 32.3718 17.6925C33.0723 17.5334 33.7583 17.3603 34.5901 17.1579C34.0939 16.7677 33.6999 16.4641 33.3204 16.1606C33.0723 15.9587 32.6929 15.8429 32.7512 15.4094C32.8242 15.3228 32.9118 15.2508 32.9847 15.1638C33.262 15.1205 33.5247 15.1784 33.7729 15.3374C34.4296 15.858 35.0718 16.3776 35.7431 16.8835C36.035 17.0859 36.2106 17.3165 36.0058 17.6925ZM23.5547 11.9418C23.6423 11.4796 24.0509 11.4796 24.3866 11.393C25.1309 11.2193 25.8752 11.0607 26.6346 10.9017C27.3206 10.6706 27.919 10.7572 28.4736 11.2918C28.926 11.7107 29.4519 12.0576 29.9481 12.4331C30.1524 12.5922 30.3859 12.7367 30.4005 13.0398C30.167 13.2713 29.9043 13.4158 29.554 13.3C29.1016 12.9391 28.6346 12.6063 28.1967 12.2307C27.8465 11.9131 27.6859 11.9418 27.5108 12.4044C27.2773 12.9965 27.2043 13.6756 26.6497 14.095C26.5179 14.095 26.3719 14.0804 26.2406 14.0804C25.9633 13.878 25.9487 13.6328 26.08 13.3287C26.299 12.8374 26.4741 12.3319 26.7076 11.754C25.6714 11.9277 24.7665 12.0863 23.8612 12.2307C23.759 12.1441 23.6568 12.043 23.5547 11.9418Z" fill="#E0E0E0"/>
<path d="M29.5528 13.2988C29.9031 13.4146 30.1658 13.2701 30.3993 13.0391C31.0999 13.9347 32.0923 14.4839 32.9685 15.1485C32.8955 15.2351 32.8079 15.3075 32.7349 15.3941C32.4722 15.4379 32.2825 15.293 32.0928 15.1485C31.2609 14.5272 30.3998 13.9206 29.5528 13.2988ZM14.4163 16.4634C14.3587 16.345 14.2954 16.2294 14.2266 16.1171C14.4601 15.5391 14.7666 14.9899 14.9271 14.3832C15.1606 13.5017 15.6714 13.0541 16.5622 12.9675C17.2919 12.8372 18.0216 12.6927 18.766 12.5628C19.0725 12.5049 19.3794 12.4037 19.6567 12.6494C19.6567 12.7939 19.6421 12.9384 19.6421 13.0828C18.8102 13.5163 17.8324 13.4151 16.9129 13.834C17.4967 14.2961 18.0221 14.7009 18.5475 15.1057C18.781 15.2934 19.0146 15.4666 18.8832 15.8135C18.7373 15.8719 18.6059 15.9293 18.46 15.9872C17.6865 15.7702 17.1756 15.1636 16.5768 14.7009C16.1681 14.3978 16.0076 14.3399 15.8033 14.8892C15.5989 15.4525 15.5114 16.1171 14.9714 16.5218C14.7816 16.5218 14.606 16.4926 14.4163 16.4634Z" fill="#E0E0E0"/>
<path d="M19.6386 13.0934C19.6386 12.9489 19.6532 12.8044 19.6532 12.6604L22.9813 12.01C23.171 11.9662 23.3607 11.9662 23.5505 11.9375L23.857 12.2411C22.4705 12.5733 21.0694 12.9202 19.6386 13.0934ZM24.6597 28.2504C24.4991 28.4523 24.2802 28.5393 24.0467 28.5826C23.7694 28.6405 23.4629 28.6692 23.2002 28.785C20.85 29.8971 19.3025 28.568 17.7992 27.0799C17.8722 26.9354 17.9598 26.7909 18.0327 26.6464C18.8938 26.5019 19.3171 27.2098 19.8571 27.6291C20.3825 28.0334 20.5722 28.0475 20.8057 27.3689C20.9809 26.8196 20.9809 26.0972 21.6819 25.8228C21.8132 25.8666 21.9592 25.9094 22.0905 25.9386C22.3094 26.1697 22.2073 26.4153 22.1051 26.661C21.9154 27.167 21.7403 27.6724 21.5213 28.2937C22.3386 28.12 23.0246 27.9614 23.7251 27.8023C24.09 27.7303 24.4553 27.6578 24.6743 28.0626C24.6743 28.1492 24.6597 28.1925 24.6597 28.2504ZM14.5296 24.6669C13.7706 24.0744 13.0263 23.4677 12.2523 22.8898C11.902 22.6295 11.8145 22.3838 12.0042 21.9796C12.2815 21.3437 12.515 20.6933 12.7485 20.0287C12.8653 19.7111 13.0112 19.4654 13.3761 19.4221C13.5804 19.4513 13.7556 19.552 13.9015 19.6965C13.6826 20.361 13.4491 21.0401 13.201 21.8205C13.741 21.7047 14.208 21.5894 14.675 21.5315C15.2004 21.4736 15.7409 21.1126 16.2809 21.4877V21.9217C15.4344 22.3692 14.4274 22.2685 13.4933 22.702C14.0479 23.135 14.5296 23.5256 15.0258 23.9012C15.3031 24.1036 15.4052 24.32 15.2155 24.6377C14.982 24.6231 14.7485 24.6377 14.5296 24.6669ZM33.6222 23.4964C33.6222 24.5511 33.0238 25.4326 32.7319 26.3861C32.6444 26.6897 32.3087 26.6751 32.0606 26.733C30.9655 27.0074 29.8558 27.2531 28.7612 27.5133C28.6445 27.3689 28.5131 27.2385 28.3964 27.094C29.0239 26.516 29.885 26.6751 30.6001 26.3861C30.8045 26.2996 31.0672 26.2417 31.111 26.0539C31.1693 25.8661 30.8774 25.7936 30.7461 25.6637C30.2937 25.2161 29.5931 25.0279 29.3742 24.3487C29.4326 24.2621 29.5056 24.1901 29.5639 24.1031C29.885 23.9878 30.1769 24.0457 30.4396 24.2767C30.6147 24.4358 30.8191 24.5803 31.0088 24.7243C32.0309 25.5192 32.0309 25.5192 32.4687 24.32C32.5855 23.9878 32.6585 23.6122 33.0525 23.4531L33.6217 23.4969L33.6222 23.4964Z" fill="#E0E0E0"/>
<path d="M14.5285 24.6679C14.7474 24.6533 14.9809 24.6387 15.1998 24.61C15.4625 24.6538 15.7106 24.7691 15.9149 24.9423C16.6155 25.5202 17.3165 26.0982 18.0316 26.6615C17.9587 26.806 17.8711 26.9505 17.7981 27.095C16.7035 26.286 15.6089 25.4774 14.5285 24.6679ZM33.6216 23.4974C33.4319 23.4828 33.2421 23.4687 33.0524 23.4687C33.4611 22.414 33.8551 21.3447 34.2638 20.29L34.8038 20.3338C34.405 21.3866 34.0109 22.4411 33.6216 23.4974ZM13.9004 19.6829C13.7545 19.5384 13.5793 19.4377 13.375 19.4085C13.6085 18.383 14.0901 17.4436 14.4258 16.4468C14.6155 16.476 14.8053 16.5047 14.9804 16.5334C14.7031 17.6168 14.0755 18.5849 13.9004 19.6829ZM28.3953 27.0955C28.512 27.2395 28.6434 27.3699 28.7601 27.5139C27.7677 27.5868 26.8332 27.9332 25.8699 28.121C25.4613 28.1935 25.0672 28.2801 24.6586 28.2509C24.6586 28.1935 24.6732 28.1502 24.6732 28.0923C24.8237 27.9409 25.0174 27.8399 25.2278 27.8033C26.2932 27.5863 27.344 27.3411 28.3948 27.095L28.3953 27.0955ZM24.8191 19.4226C26.1326 19.5238 27.3294 18.9896 28.585 18.7727C29.6358 18.599 30.6574 18.3679 31.7087 18.1514C31.7671 18.2521 31.8255 18.3392 31.8839 18.4404C30.8768 18.8447 29.8114 18.9604 28.7747 19.1915C27.5196 19.4805 26.2499 19.7549 24.9942 20.0297C24.6586 19.8994 24.6294 19.6975 24.8191 19.4226ZM25.0385 16.9522C25.4472 15.9987 25.6369 14.944 26.2353 14.0625C26.3666 14.0625 26.5126 14.0771 26.6439 14.0771C26.3082 15.1172 25.9872 16.1578 25.4764 17.1259L25.0385 16.9522ZM22.9948 19.7267C21.8126 18.5995 20.4407 17.7039 19.1705 16.6924C18.9224 16.4901 18.5867 16.3602 18.47 16.0133C18.6159 15.9554 18.7473 15.8975 18.8932 15.8401C20.3235 16.9381 21.7538 18.0361 23.1845 19.1482C23.3451 19.2786 23.5202 19.3219 23.7245 19.3219C23.6661 19.77 23.3013 19.6834 22.9948 19.7267ZM24.2937 20.7376C23.5932 21.9368 23.2867 23.295 22.7321 24.5516C22.5278 25.0289 22.4694 25.5635 22.0748 25.9537C21.9435 25.9099 21.7975 25.8671 21.6662 25.8379C22.2208 24.3639 22.7462 22.8762 23.33 21.4167C23.5051 20.9691 23.4759 20.7376 22.9797 20.6223C23.4467 20.4778 23.9142 20.2175 24.2937 20.7376ZM20.2646 20.9691C19.783 21.3301 19.1992 21.316 18.6441 21.4459C17.856 21.6483 17.0533 21.7495 16.2501 21.9081V21.4751C17.5491 21.2581 18.7901 20.7814 20.1182 20.7522C20.1766 20.8247 20.2208 20.8967 20.2646 20.9691ZM29.3741 24.3497C28.7757 24.3643 28.513 23.8438 28.1189 23.5694C27.5498 23.151 26.8925 22.8183 26.4693 22.2116C26.6006 22.1533 26.732 22.0813 26.8633 22.0239C27.8266 22.6451 28.7022 23.3675 29.5492 24.1041C29.5054 24.1907 29.4471 24.2631 29.3741 24.3497Z" fill="#E0E0E0"/>
<path d="M26.8843 22.0243C26.7529 22.0826 26.6216 22.1546 26.4902 22.2125C25.6292 21.9236 25.0892 21.1573 24.3152 20.7531C23.9211 20.2325 23.4541 20.4782 23.0017 20.6227C22.3449 20.7531 21.7022 20.883 21.0455 21.0129C20.7828 21.0712 20.5201 21.0712 20.272 20.9696L20.1406 20.7531C20.199 20.4062 20.4617 20.3337 20.7682 20.2617C21.5125 20.0885 22.2568 19.9007 23.0012 19.7271C23.3077 19.6979 23.6725 19.7709 23.7163 19.3082C23.9498 18.7303 24.2125 18.1669 24.4173 17.589C24.5341 17.2708 24.6946 17.0397 25.0449 16.9531C25.1908 17.011 25.3368 17.0684 25.4973 17.1263C25.5557 17.9645 24.9719 18.6291 24.8406 19.4235C24.6508 19.6984 24.68 19.9003 25.0011 20.0306C25.5411 20.4636 26.0665 20.8976 26.6065 21.3018C26.8546 21.5042 27.0307 21.692 26.8843 22.0243Z" fill="#E0E0E0"/>
</g>
</svg>
