<svg width="228" height="81" viewBox="0 0 228 81" fill="none" xmlns="http://www.w3.org/2000/svg">
<path d="M96.0165 74.2654C95.3677 74.2654 94.7631 74.1327 94.2028 73.8673C93.6424 73.596 93.1588 73.2244 92.7518 72.7525C92.3507 72.2807 92.0617 71.7321 91.8847 71.1069L93.9373 70.5584C94.0199 70.9005 94.1703 71.1954 94.3885 71.4431C94.6127 71.6908 94.8722 71.8825 95.1671 72.0182C95.4679 72.1538 95.7776 72.2217 96.0961 72.2217C96.509 72.2217 96.8865 72.1214 97.2286 71.9209C97.5707 71.7203 97.842 71.452 98.0425 71.1158C98.2431 70.7737 98.3433 70.3962 98.3433 69.9833C98.3433 69.5704 98.2401 69.1959 98.0337 68.8597C97.8331 68.5176 97.5618 68.2492 97.2197 68.0546C96.8776 67.854 96.5031 67.7537 96.0961 67.7537C95.6065 67.7537 95.1996 67.8422 94.8752 68.0192C94.5566 68.1961 94.3119 68.3849 94.1408 68.5854L92.3183 68.0015L92.7075 61.2598H99.6262V63.2593H93.8489L94.6451 62.5073L94.362 67.1964L93.9727 66.7186C94.303 66.4178 94.6864 66.1937 95.1229 66.0462C95.5593 65.8987 95.9811 65.825 96.3881 65.825C97.1843 65.825 97.8892 66.0079 98.5026 66.3736C99.1219 66.7334 99.6056 67.2259 99.9535 67.8511C100.307 68.4763 100.484 69.187 100.484 69.9833C100.484 70.7796 100.278 71.5021 99.8651 72.1509C99.4522 72.7938 98.9066 73.307 98.2283 73.6903C97.5559 74.0737 96.8186 74.2654 96.0165 74.2654ZM101.786 73.9823V72.1244L107.236 67.2671C107.661 66.8897 107.956 66.5328 108.121 66.1966C108.286 65.8604 108.369 65.536 108.369 65.2234C108.369 64.7987 108.277 64.4212 108.094 64.0909C107.912 63.7547 107.658 63.4893 107.334 63.2947C107.015 63.1 106.646 63.0027 106.228 63.0027C105.785 63.0027 105.393 63.1059 105.051 63.3124C104.715 63.5129 104.452 63.7813 104.263 64.1175C104.075 64.4537 103.986 64.8164 103.998 65.2057H101.804C101.804 64.3564 101.993 63.6161 102.37 62.985C102.754 62.3539 103.278 61.8643 103.945 61.5163C104.617 61.1684 105.393 60.9944 106.272 60.9944C107.086 60.9944 107.817 61.1772 108.466 61.5429C109.115 61.9027 109.625 62.404 109.997 63.0469C110.368 63.684 110.554 64.4183 110.554 65.2499C110.554 65.8575 110.471 66.3677 110.306 66.7805C110.141 67.1934 109.893 67.5739 109.563 67.9218C109.239 68.2698 108.835 68.6562 108.351 69.0809L104.485 72.5048L104.29 71.9739H110.554V73.9823H101.786ZM116.223 74V61.2598H121.488C121.611 61.2598 121.771 61.2657 121.965 61.2775C122.16 61.2834 122.34 61.3011 122.505 61.3306C123.242 61.4426 123.85 61.6874 124.328 62.0649C124.811 62.4424 125.168 62.9201 125.398 63.4982C125.634 64.0703 125.752 64.7073 125.752 65.4092C125.752 66.4473 125.489 67.3409 124.965 68.0899C124.44 68.8331 123.634 69.2932 122.549 69.4701L121.638 69.5498H118.356V74H116.223ZM123.54 74L121.027 68.8154L123.195 68.3377L125.955 74H123.54ZM118.356 67.5591H121.399C121.517 67.5591 121.65 67.5532 121.797 67.5414C121.945 67.5296 122.08 67.506 122.204 67.4706C122.558 67.3822 122.835 67.2259 123.036 67.0017C123.242 66.7776 123.387 66.524 123.469 66.2408C123.558 65.9577 123.602 65.6805 123.602 65.4092C123.602 65.1379 123.558 64.8607 123.469 64.5775C123.387 64.2885 123.242 64.032 123.036 63.8078C122.835 63.5837 122.558 63.4274 122.204 63.3389C122.08 63.3035 121.945 63.2829 121.797 63.277C121.65 63.2652 121.517 63.2593 121.399 63.2593H118.356V67.5591ZM127.905 74V61.2598H136.133V63.2593H130.037V66.4001H135.071V68.3996H130.037V72.0005H136.133V74H127.905ZM141.122 74L137.105 61.2598H139.299L142.661 71.9297L146.068 61.2598H148.262L144.245 74H141.122ZM149.768 74V61.2598H151.9V74H149.768ZM154.55 74V61.2598H162.779V63.2593H156.683V66.4001H161.717V68.3996H156.683V72.0005H162.779V74H154.55ZM167.591 74L163.866 61.2598H166.104L168.644 70.461L171.174 61.2775L173.412 61.2598L175.952 70.461L178.482 61.2598H180.72L177.004 74H174.899L172.289 64.9403L169.696 74H167.591ZM186.534 74.2654C185.602 74.2654 184.762 74.1032 184.013 73.7788C183.269 73.4544 182.656 72.9914 182.172 72.3898C181.694 71.7823 181.391 71.0627 181.261 70.231L183.473 69.8948C183.662 70.6498 184.048 71.2337 184.632 71.6466C185.222 72.0595 185.9 72.2659 186.667 72.2659C187.121 72.2659 187.549 72.1951 187.95 72.0536C188.351 71.912 188.675 71.7056 188.923 71.4343C189.176 71.1629 189.303 70.8297 189.303 70.4345C189.303 70.2576 189.274 70.0954 189.215 69.9479C189.156 69.7945 189.067 69.6589 188.949 69.5409C188.837 69.423 188.69 69.3168 188.507 69.2224C188.33 69.1221 188.124 69.0366 187.888 68.9658L184.596 67.9926C184.313 67.9101 184.007 67.8009 183.676 67.6653C183.352 67.5237 183.042 67.332 182.747 67.0902C182.458 66.8425 182.219 66.5299 182.031 66.1524C181.848 65.769 181.756 65.2971 181.756 64.7368C181.756 63.9169 181.963 63.2298 182.376 62.6754C182.795 62.115 183.355 61.6962 184.057 61.419C184.765 61.1418 185.549 61.0061 186.41 61.012C187.283 61.0179 188.062 61.1683 188.746 61.4633C189.43 61.7523 190.002 62.174 190.462 62.7284C190.922 63.2829 191.247 63.9523 191.435 64.7368L189.144 65.1349C189.05 64.6867 188.867 64.3062 188.595 63.9936C188.33 63.6751 188.003 63.4333 187.613 63.2681C187.23 63.103 186.82 63.0145 186.384 63.0027C185.959 62.9968 185.564 63.0617 185.198 63.1973C184.838 63.3271 184.546 63.5159 184.322 63.7636C184.104 64.0113 183.995 64.3003 183.995 64.6306C183.995 64.9432 184.089 65.1998 184.278 65.4003C184.467 65.595 184.7 65.7513 184.977 65.8693C185.26 65.9813 185.546 66.0757 185.835 66.1524L188.118 66.7894C188.43 66.872 188.781 66.984 189.171 67.1256C189.56 67.2671 189.934 67.4647 190.294 67.7184C190.654 67.972 190.949 68.3052 191.179 68.7181C191.415 69.131 191.533 69.6559 191.533 70.2929C191.533 70.9536 191.394 71.5345 191.117 72.0359C190.846 72.5313 190.477 72.9442 190.011 73.2745C189.545 73.6048 189.011 73.8525 188.41 74.0177C187.814 74.1828 187.189 74.2654 186.534 74.2654Z" fill="#17313B"/>
<path d="M98.5294 20V17.8943H92.8847V15.9037L96.9634 7.25977H99.3964L95.3178 15.9037H98.5294V12.5859H100.688V15.9037H101.883V17.8943H100.688V20H98.5294ZM104.012 20V17.8147H106.198V20H104.012ZM113.147 7.01205C113.978 7.01205 114.727 7.20964 115.394 7.60482C116.06 7.99411 116.585 8.53674 116.969 9.23274C117.358 9.92283 117.553 10.7191 117.553 11.6215V15.5055C117.553 16.4669 117.358 17.3074 116.969 18.027C116.585 18.7407 116.046 19.2922 115.35 19.6815C114.654 20.0708 113.84 20.2654 112.908 20.2654C112.265 20.2654 111.657 20.1563 111.085 19.9381C110.513 19.7139 110 19.3718 109.546 18.9118L111.076 17.4166C111.306 17.682 111.581 17.8914 111.899 18.0447C112.224 18.1922 112.56 18.2659 112.908 18.2659C113.403 18.2659 113.837 18.1509 114.208 17.9209C114.58 17.6849 114.869 17.3812 115.075 17.0096C115.282 16.6321 115.385 16.2281 115.385 15.7975V13.683L115.765 14.1076C115.406 14.5323 114.969 14.8656 114.456 15.1074C113.943 15.3433 113.403 15.4613 112.837 15.4613C112.041 15.4613 111.333 15.2784 110.714 14.9128C110.1 14.5471 109.617 14.0516 109.263 13.4264C108.915 12.7953 108.741 12.0816 108.741 11.2853C108.741 10.4891 108.941 9.76948 109.342 9.12657C109.743 8.47776 110.277 7.96461 110.944 7.58713C111.616 7.20374 112.35 7.01205 113.147 7.01205ZM113.147 9.04694C112.734 9.04694 112.356 9.14721 112.014 9.34775C111.672 9.54829 111.401 9.81961 111.2 10.1617C111 10.4979 110.899 10.8725 110.899 11.2853C110.899 11.6982 110.997 12.0757 111.191 12.4178C111.392 12.7599 111.66 13.0312 111.996 13.2318C112.339 13.4323 112.716 13.5326 113.129 13.5326C113.542 13.5326 113.919 13.4323 114.261 13.2318C114.603 13.0312 114.875 12.7599 115.075 12.4178C115.282 12.0757 115.385 11.6982 115.385 11.2853C115.385 10.8842 115.285 10.5156 115.084 10.1794C114.884 9.83731 114.612 9.56304 114.27 9.3566C113.934 9.15016 113.559 9.04694 113.147 9.04694ZM128.953 20.2654C127.679 20.2654 126.588 19.9882 125.68 19.4338C124.771 18.8734 124.072 18.0949 123.583 17.0981C123.099 16.1013 122.857 14.9452 122.857 13.6299C122.857 12.3146 123.099 11.1585 123.583 10.1617C124.072 9.16491 124.771 8.38929 125.68 7.83485C126.588 7.27452 127.679 6.99435 128.953 6.99435C130.227 6.99435 131.318 7.27452 132.227 7.83485C133.141 8.38929 133.84 9.16491 134.324 10.1617C134.813 11.1585 135.058 12.3146 135.058 13.6299C135.058 14.9452 134.813 16.1013 134.324 17.0981C133.84 18.0949 133.141 18.8734 132.227 19.4338C131.318 19.9882 130.227 20.2654 128.953 20.2654ZM128.953 18.2571C129.808 18.263 130.519 18.0742 131.085 17.6908C131.658 17.3074 132.085 16.7678 132.368 16.0718C132.657 15.3758 132.802 14.5618 132.802 13.6299C132.802 12.698 132.657 11.8899 132.368 11.2057C132.085 10.5156 131.658 9.97887 131.085 9.59548C130.519 9.21209 129.808 9.0145 128.953 9.00271C128.098 8.99681 127.387 9.18555 126.821 9.56894C126.255 9.95233 125.827 10.492 125.538 11.188C125.255 11.884 125.113 12.698 125.113 13.6299C125.113 14.5618 125.255 15.3728 125.538 16.0629C125.821 16.7471 126.246 17.2809 126.812 17.6643C127.384 18.0477 128.098 18.2453 128.953 18.2571ZM136.819 20V7.25977H138.978L144.888 16.2399V7.25977H147.046V20H144.888L138.978 11.0199V20H136.819ZM158.45 20.2654C157.176 20.2654 156.085 19.9882 155.177 19.4338C154.268 18.8734 153.569 18.0949 153.08 17.0981C152.596 16.1013 152.354 14.9452 152.354 13.6299C152.354 12.3146 152.596 11.1585 153.08 10.1617C153.569 9.16491 154.268 8.38929 155.177 7.83485C156.085 7.27452 157.176 6.99435 158.45 6.99435C159.919 6.99435 161.143 7.36299 162.122 8.10027C163.101 8.83166 163.788 9.81961 164.183 11.0641L162.033 11.6569C161.786 10.8253 161.364 10.1765 160.768 9.7105C160.172 9.23864 159.4 9.00271 158.45 9.00271C157.595 9.00271 156.881 9.1944 156.309 9.57779C155.743 9.96117 155.315 10.5009 155.026 11.1969C154.743 11.887 154.599 12.698 154.593 13.6299C154.593 14.5618 154.734 15.3758 155.017 16.0718C155.306 16.7619 155.737 17.2986 156.309 17.682C156.881 18.0654 157.595 18.2571 158.45 18.2571C159.4 18.2571 160.172 18.0211 160.768 17.5493C161.364 17.0774 161.786 16.4286 162.033 15.6029L164.183 16.1956C163.788 17.4402 163.101 18.4311 162.122 19.1683C161.143 19.8997 159.919 20.2654 158.45 20.2654ZM166.303 20V7.25977H168.435V18.0005H174.062V20H166.303ZM180.692 20.2654C179.678 20.2654 178.784 20.059 178.011 19.6461C177.245 19.2332 176.643 18.6522 176.207 17.9032C175.776 17.1541 175.561 16.2753 175.561 15.2667V7.27747L177.719 7.25977V15.2136C177.719 15.6913 177.799 16.1189 177.958 16.4964C178.124 16.8739 178.345 17.1954 178.622 17.4608C178.899 17.7203 179.218 17.9179 179.577 18.0536C179.937 18.1892 180.309 18.2571 180.692 18.2571C181.087 18.2571 181.462 18.1892 181.816 18.0536C182.176 17.912 182.494 17.7115 182.771 17.452C183.049 17.1865 183.267 16.8651 183.426 16.4876C183.585 16.1101 183.665 15.6854 183.665 15.2136V7.25977H185.824V15.2667C185.824 16.2753 185.605 17.1541 185.169 17.9032C184.738 18.6522 184.137 19.2332 183.364 19.6461C182.597 20.059 181.707 20.2654 180.692 20.2654ZM191.357 20V9.25928H187.234V7.25977H197.612V9.25928H193.49V20H191.357ZM204.415 20.2654C203.141 20.2654 202.05 19.9882 201.142 19.4338C200.233 18.8734 199.534 18.0949 199.045 17.0981C198.561 16.1013 198.319 14.9452 198.319 13.6299C198.319 12.3146 198.561 11.1585 199.045 10.1617C199.534 9.16491 200.233 8.38929 201.142 7.83485C202.05 7.27452 203.141 6.99435 204.415 6.99435C205.884 6.99435 207.108 7.36299 208.087 8.10027C209.066 8.83166 209.753 9.81961 210.148 11.0641L207.998 11.6569C207.751 10.8253 207.329 10.1765 206.733 9.7105C206.137 9.23864 205.365 9.00271 204.415 9.00271C203.56 9.00271 202.846 9.1944 202.274 9.57779C201.708 9.96117 201.28 10.5009 200.991 11.1969C200.708 11.887 200.564 12.698 200.558 13.6299C200.558 14.5618 200.699 15.3758 200.982 16.0718C201.271 16.7619 201.702 17.2986 202.274 17.682C202.846 18.0654 203.56 18.2571 204.415 18.2571C205.365 18.2571 206.137 18.0211 206.733 17.5493C207.329 17.0774 207.751 16.4286 207.998 15.6029L210.148 16.1956C209.753 17.4402 209.066 18.4311 208.087 19.1683C207.108 19.8997 205.884 20.2654 204.415 20.2654ZM212.091 20V7.25977H214.223V12.6213H220.257V7.25977H222.38V20H220.257V14.6208H214.223V20H212.091Z" fill="#17313B"/>
<path d="M103.453 29L106.249 37.6049H115.297L107.977 42.923L110.773 51.5279L103.453 46.2098L96.1334 51.5279L98.9293 42.923L91.6095 37.6049H100.657L103.453 29Z" fill="#EF4335"/>
<path d="M131.398 29L134.194 37.6049H143.242L135.922 42.923L138.718 51.5279L131.398 46.2098L124.079 51.5279L126.875 42.923L119.555 37.6049H128.603L131.398 29Z" fill="#EF4335"/>
<path d="M159.344 29L162.14 37.6049H171.187L163.868 42.923L166.663 51.5279L159.344 46.2098L152.024 51.5279L154.82 42.923L147.5 37.6049H156.548L159.344 29Z" fill="#EF4335"/>
<path d="M187.303 29L190.099 37.6049H199.146L191.827 42.923L194.622 51.5279L187.303 46.2098L179.983 51.5279L182.779 42.923L175.459 37.6049H184.507L187.303 29Z" fill="#EF4335"/>
<path d="M215.248 29L218.044 37.6049H227.092L219.772 42.923L222.568 51.5279L215.248 46.2098L207.928 51.5279L210.724 42.923L203.404 37.6049H212.452L215.248 29Z" fill="#EF4335"/>
<path d="M56.2615 56.1227C51.9016 59.6806 46.4324 61.5833 40.8011 61.4895C27.67 61.4895 18.0371 52.4794 18.0371 40.1077C18.0371 27.736 27.252 19.1184 40.8011 19.1184C46.4495 19.016 51.9528 20.8846 56.3725 24.3913L59.2307 26.695L71.9438 14.8096L68.7613 12.1391C60.869 5.62897 50.9118 2.12221 40.6817 2.25872C17.1156 2.25872 0 18.1798 0 40.0394C0 61.899 17.5337 78.2809 40.6817 78.2809C50.963 78.443 60.9628 74.9021 68.8551 68.3067L71.9182 65.6105L59.0174 53.7251L56.253 56.1227H56.2615Z" fill="#17313B"/>
<path d="M40.0642 53.0567C47.5849 53.0567 53.6816 47.342 53.6816 40.2926C53.6816 33.2431 47.5849 27.5283 40.0642 27.5283C32.5435 27.5283 26.4468 33.2431 26.4468 40.2926C26.4468 47.342 32.5435 53.0567 40.0642 53.0567Z" fill="#FF3D2E"/>
</svg>
