<svg width="118" height="69" viewBox="0 0 118 69" fill="none" xmlns="http://www.w3.org/2000/svg">
<path d="M113.438 34.5818L113.157 34.5018C112.328 34.2804 111.842 34.0452 111.842 33.6501C111.842 33.2551 112.301 32.9628 112.954 32.9628C113.961 32.9628 114.408 33.5222 114.689 34.0452L115.251 33.9903C115.111 33.4514 115.022 33.0655 114.97 32.7573C114.803 32.7253 114.6 32.6933 114.305 32.6454C113.935 32.5837 113.527 32.5518 113.132 32.5518C111.125 32.5518 110.079 33.2779 110.079 34.1707C110.079 35.0156 111.252 35.4335 112.312 35.7281L112.504 35.7829C113.296 35.9884 113.78 36.2647 113.78 36.7305C113.78 37.2443 113.271 37.5115 112.607 37.5115C111.355 37.5115 110.602 36.6369 110.334 36.1756L109.77 36.2807C109.907 36.7511 110.056 37.1415 110.156 37.4795C109.734 37.4315 109.394 37.3105 108.798 36.8104C108.008 36.146 107.176 35.4221 106.395 34.6708C106.925 34.2826 107.553 33.883 108.231 33.472C108.884 33.0678 109.275 32.9719 109.992 32.924V32.6751H106.619V32.924L107.096 32.9559C107.437 32.9811 107.297 33.1957 107.122 33.3373C106.393 33.9378 105.626 34.5224 104.708 35.1709V33.9401C104.708 33.0861 104.808 32.9742 105.637 32.9262V32.6773H101.712V32.9262C102.593 32.9742 102.694 33.0861 102.694 33.9401V36.5478C102.694 37.0502 102.657 37.3334 102.461 37.443C102.171 37.5754 101.959 37.4909 101.742 37.3311C101.538 37.1758 101.26 36.847 100.831 36.4291C100.465 36.066 99.9949 35.5226 99.819 35.2988C100.758 35.0704 101.452 34.6594 101.452 33.9652C101.452 33.4971 101.073 33.1432 100.566 32.9445C100.072 32.7481 99.4126 32.6773 98.4261 32.6773H94.4003L94.4734 32.9262C95.3229 32.9742 95.3503 33.0861 95.3503 33.9401V36.5478C95.3503 37.4019 95.2475 37.5138 94.3501 37.5617V37.8106H98.4261V37.5617C97.5515 37.5138 97.4511 37.4019 97.4511 36.5478V35.6002H97.6155C97.8552 35.6002 98.0333 35.7189 98.1475 35.8834C98.4626 36.3241 98.8189 36.815 99.1979 37.1552C99.7049 37.6142 100.116 37.9065 101.879 37.8723C102.013 37.8723 102.514 37.838 102.63 37.8106H105.701V37.5617C104.808 37.5138 104.683 37.4019 104.708 36.5478V35.2828H104.733C105.653 36.1437 106.966 37.306 107.441 37.8106H110.334V37.6485C110.494 37.6873 110.711 37.7375 110.992 37.7969C111.337 37.8677 111.86 37.9316 112.371 37.9316C114.351 37.9316 115.616 37.2192 115.616 36.2487C115.616 35.2782 114.605 34.9152 113.433 34.5909M98.5814 35.0978C98.3393 35.2074 98.0379 35.2303 97.6315 35.2303H97.4533V33.4149C97.4533 33.0975 97.4899 33.0176 98.0219 33.0176C98.5152 33.0176 99.2893 33.3281 99.2893 34.0863C99.2893 34.4744 99.0997 34.8444 98.5791 35.0978" fill="#0B0C0D"/>
<path d="M91.1721 32.5533C89.3156 32.5533 88.0711 33.0876 87.3747 33.7932C87.8017 32.9826 88.0848 32.4688 88.1236 32.4071C88.7265 31.4526 88.884 31.3613 89.8751 31.2745V30.9115H85.6483V31.2745L86.322 31.3202C87.0824 31.3613 87.1349 31.5394 86.9065 32.1582C86.6599 32.7976 86.0046 34.3253 85.3857 35.5926L85.3515 35.5332L82.6638 30.916H81.4262L79.1107 35.5332L79.0742 35.5926L77.3959 31.9504C77.1835 31.5052 77.236 31.3727 77.8891 31.3179L78.4554 31.2723V30.9092H72.9408V31.2723C73.7537 31.3385 74.0734 31.4389 74.5506 32.3386L74.7676 32.7497H72.1324L70.1618 35.9191L67.908 32.7497H64.8824V33.0031C65.9008 33.0579 66.0036 33.2064 65.9122 34.2134L65.7707 35.8301C65.7044 36.5585 65.6291 36.9809 65.5629 37.2298C65.5423 37.3143 65.5263 37.4171 65.451 37.4354C65.3642 37.4468 65.1678 37.1476 64.9988 36.8531C64.5285 36.0379 63.9964 35.0925 63.4644 34.1403L62.6218 32.6286L61.7677 32.7405L59.2902 36.8759C59.2628 36.9239 59.2354 36.9695 59.208 37.0083C59.1143 37.1294 59.0161 37.2846 58.9202 37.3509C58.6439 37.5427 57.9269 37.5906 57.4246 37.5906C57.0341 37.5906 56.7441 37.5815 56.5454 37.5198C56.3194 37.4468 56.2942 37.1887 56.2942 36.7732V35.4693H56.9222C58.0023 35.4693 58.0411 35.515 58.1667 36.2205H58.7193V34.3321H58.1667C58.0411 34.9395 58.0023 34.9875 56.9222 34.9875H56.2942V33.4438C56.2942 33.1653 56.3194 33.1082 56.7966 33.1082H57.009C57.6757 33.1082 58.089 33.1561 58.2923 33.2908C58.4932 33.4187 58.6302 33.6996 58.7581 34.0946L59.3107 34.0695C59.2468 33.469 59.1851 32.8867 59.1714 32.7497H53.2115V33.0031C54.0519 33.0511 54.1546 33.1653 54.1546 34.0284V36.6704C54.1546 37.4308 54.077 37.5655 53.3965 37.618C53.2755 37.5632 53.1636 37.4924 53.0471 37.4057C52.8485 37.2435 52.5744 36.9718 52.152 36.5494C51.7912 36.1794 51.3322 35.6291 51.1564 35.4031C52.0766 35.1701 52.7617 34.7546 52.7617 34.0512C52.7617 33.5808 52.3872 33.2178 51.8917 33.0191C51.4053 32.8182 50.7591 32.7474 49.7886 32.7474H45.9843C45.7103 32.398 45.345 32.0966 44.9453 31.8682C43.7511 31.1718 41.9334 30.916 39.7413 30.916H34.535V31.3339C35.695 31.3956 35.8366 31.4732 35.8366 32.6286V36.1635C35.8366 37.3189 35.695 37.4513 34.3911 37.5176V37.8784H38.99C43.1094 37.8784 46.4776 36.7298 46.4776 34.0649C46.4776 33.6905 46.3611 33.3434 46.1716 33.0237C46.7607 33.0876 46.8406 33.2657 46.8406 34.0284V36.6704C46.8406 37.5335 46.7402 37.65 45.8565 37.6957V37.9491H49.7863V37.6957C48.93 37.6477 48.8295 37.5335 48.8295 36.6704V35.7113H48.9917C49.2292 35.7113 49.4027 35.8301 49.5123 35.9991C49.8229 36.4466 50.1722 36.9421 50.5444 37.2869C51.0422 37.7528 51.4533 37.9925 53.2184 38.0154C53.4741 38.0062 53.6385 37.9788 53.7253 37.9514H60.9457V37.698L60.5872 37.6728C60.0186 37.634 60.0049 37.4947 60.1784 37.1499L60.5484 36.3827H62.5784L63.0236 37.2002C63.1858 37.4879 63.1584 37.6249 62.7017 37.6637L62.3295 37.6957V37.9491H67.7961V37.6957C66.9581 37.6569 66.6726 37.5244 66.6224 37.2298C66.5722 36.9809 66.5585 36.5973 66.595 35.91L66.6841 34.1335H66.7092L69.068 37.8624H69.7622L72.2489 33.8526H72.2991L72.3379 36.6704C72.3494 37.5564 72.3105 37.6409 71.3469 37.6957V37.9491H75.3795V37.6957C74.4525 37.6409 74.425 37.5564 74.3862 36.6704L74.2584 33.9896C74.2264 33.2634 74.2584 33.099 74.9023 33.0305L77.526 38.0268H78.887L81.2572 33.6265H81.2937L83.8923 38.0268H85.2556C85.7625 36.9513 86.2649 35.942 86.701 35.0811C86.6919 35.1564 86.6873 35.2318 86.6873 35.3072C86.6873 36.7594 88.3794 37.9217 90.9871 37.9217C93.5948 37.9217 95.3508 36.8645 95.3508 35.1724C95.3508 33.6082 93.5309 32.551 91.1675 32.551M40.1067 37.3691C39.2526 37.3691 38.8599 37.1294 38.8599 36.1772V32.0646C38.8599 31.7975 38.8781 31.5531 38.9672 31.5303C39.0905 31.4869 39.3234 31.4549 39.7345 31.4549C41.2484 31.4549 43.1916 32.0966 43.1916 34.4006C43.1916 36.2959 41.6412 37.3691 40.1067 37.3691ZM49.9302 35.2021C49.695 35.314 49.3958 35.3368 48.9985 35.3368H48.825V33.4964C48.825 33.1767 48.8638 33.0922 49.3844 33.0922C49.8685 33.0922 50.6266 33.4073 50.6266 34.1768C50.6266 34.5673 50.4417 34.9441 49.9302 35.2021ZM60.7561 35.9054L61.5257 34.3778H61.5622L62.3409 35.9054H60.7561ZM91.2337 37.5107C89.9687 37.5107 89.0918 36.4694 89.0918 35.04C89.0918 33.6105 89.9162 32.962 90.9118 32.962C92.0215 32.962 92.9509 33.8389 92.9509 35.4259C92.9509 36.8554 92.3435 37.5107 91.2337 37.5107Z" fill="#0B0C0D"/>
<path d="M60.7014 39.8496H34.4482V40.2789H60.7014V39.8496Z" fill="#0B0C0D"/>
<path d="M115.637 39.8496H89.5371V40.2789H115.637V39.8496Z" fill="#0B0C0D"/>
<path d="M62.2487 41.0806L62.3698 41.0714C62.5205 41.0577 62.5296 41.0326 62.4748 40.939L62.3287 40.6741H61.6619L61.5409 40.923C61.4838 41.0349 61.4883 41.06 61.6756 41.0737L61.7943 41.0806V41.1833H60.8467V41.0806C61.0545 41.0623 61.1138 41.0532 61.2486 40.834L62.0615 39.4913L62.3424 39.457L62.6187 39.9457C62.7945 40.254 62.968 40.5622 63.1233 40.8271C63.2535 41.0532 63.3265 41.0646 63.5252 41.0806V41.1833H62.2487V41.0806ZM61.7327 40.5166H62.2533L61.9976 40.0211H61.9839L61.7327 40.5166Z" fill="#0B0C0D"/>
<path d="M65.9659 41.2005H65.6165L64.1117 39.9766H64.1026V40.4538C64.1026 40.7256 64.1209 40.8672 64.1368 40.9494C64.1574 41.0407 64.267 41.075 64.5365 41.0818V41.1846H63.5226V41.0818C63.703 41.0772 63.808 41.0407 63.8286 40.9494C63.8446 40.8694 63.8605 40.7279 63.8605 40.4538V39.9766C63.8605 39.7848 63.8514 39.7528 63.7715 39.6797C63.7098 39.6249 63.6094 39.6067 63.4609 39.5975V39.4971H64.3606L65.717 40.5726H65.7239V40.2255C65.7239 39.9515 65.7079 39.8099 65.6919 39.73C65.6713 39.6386 65.5617 39.6067 65.2923 39.5975V39.4971H66.329V39.5975C66.1258 39.6021 66.0207 39.6386 65.9979 39.73C65.9819 39.8099 65.9659 39.9515 65.9659 40.2255V41.2005Z" fill="#0B0C0D"/>
<path d="M67.327 40.767C67.327 41.0479 67.359 41.0639 67.6398 41.0798V41.1826H66.3223V41.0798C66.6031 41.0639 66.6374 41.0479 66.6374 40.767V39.9107C66.6374 39.6298 66.6054 39.6116 66.3223 39.5956V39.4951H67.6398V39.5956C67.359 39.6116 67.327 39.6298 67.327 39.9107V40.767Z" fill="#0B0C0D"/>
<path d="M70.8982 39.4971V39.5975C70.59 39.6158 70.5717 39.6249 70.5831 39.899L70.6242 40.7667C70.6379 41.0544 70.6448 41.0613 70.937 41.0795V41.1823H69.6651V41.0795C69.9711 41.0613 69.9826 41.0521 69.978 40.7667L69.9643 39.8533H69.9483L69.1628 41.1549H68.9436L68.1992 39.9446H68.19L68.1603 40.5201C68.1489 40.7416 68.1512 40.8672 68.1695 40.9471C68.1855 41.0453 68.2745 41.0658 68.5394 41.0795V41.1823H67.5347V41.0795C67.731 41.0704 67.8064 41.0453 67.8315 40.9471C67.8521 40.8672 67.8772 40.7301 67.8977 40.495L67.9434 39.972C67.9708 39.6455 67.9388 39.6181 67.6169 39.5975V39.4971H68.5736L69.2861 40.5246L69.9072 39.4971H70.8982Z" fill="#0B0C0D"/>
<path d="M72.3142 41.0806L72.4375 41.0714C72.5882 41.0577 72.5973 41.0326 72.5425 40.939L72.3964 40.6741H71.7296L71.6063 40.923C71.5492 41.0349 71.5538 41.06 71.741 41.0737L71.8598 41.0806V41.1833H70.9121V41.0806C71.1199 41.0623 71.1793 41.0532 71.314 40.834L72.1269 39.4913L72.4078 39.457L72.6841 39.9457C72.8599 40.254 73.0357 40.5622 73.1887 40.8271C73.3189 41.0532 73.392 41.0646 73.5929 41.0806V41.1833H72.3142V41.0806ZM71.7981 40.5166H72.3187L72.063 40.0211H72.0493L71.7981 40.5166Z" fill="#0B0C0D"/>
<path d="M76.2438 40.767C76.2438 41.0479 76.2758 41.0639 76.5567 41.0798V41.1826H75.2368V41.0798C75.5177 41.0639 75.5497 41.0479 75.5497 40.767V39.9107C75.5497 39.6298 75.5177 39.6116 75.2368 39.5956V39.4951H76.5567V39.5956C76.2758 39.6116 76.2438 39.6298 76.2438 39.9107V40.767Z" fill="#0B0C0D"/>
<path d="M79.0525 40.3199C79.0525 40.8747 78.4588 41.2218 77.6778 41.2218C76.8558 41.2218 76.3237 40.8405 76.3237 40.3632C76.3237 39.9431 76.7644 39.459 77.7349 39.459C78.4793 39.459 79.0548 39.8061 79.0548 40.3199M77.0818 40.2742C77.0818 40.7446 77.3582 41.0871 77.7555 41.0871C78.1071 41.0871 78.2967 40.8725 78.2967 40.4021C78.2967 39.8791 78.0021 39.5937 77.6527 39.5937C77.3399 39.5937 77.0796 39.8198 77.0796 40.2742H77.0818Z" fill="#0B0C0D"/>
<path d="M81.2355 41.2005H80.8838L79.379 39.9766H79.3699V40.4538C79.3699 40.7256 79.3858 40.8672 79.4018 40.9494C79.4224 41.0407 79.532 41.075 79.7991 41.0818V41.1846H78.7853V41.0818C78.9634 41.0772 79.0707 41.0407 79.089 40.9494C79.1073 40.8694 79.1232 40.7279 79.1232 40.4538V39.9766C79.1232 39.7848 79.1164 39.7528 79.0319 39.6797C78.9725 39.6249 78.8698 39.6067 78.7236 39.5975V39.4971H79.621L80.9774 40.5726H80.9843V40.2255C80.9843 39.9515 80.9683 39.8099 80.95 39.73C80.9318 39.6386 80.8199 39.6067 80.5527 39.5975V39.4971H81.5894V39.5975C81.3862 39.6021 81.2811 39.6386 81.2583 39.73C81.2423 39.8099 81.2263 39.9515 81.2263 40.2255V41.2005" fill="#0B0C0D"/>
<path d="M75.2416 39.4951C75.2507 39.6139 75.2644 39.792 75.2827 39.9541L75.1023 39.9632C75.0429 39.808 74.9973 39.7394 74.9356 39.6961C74.8671 39.6481 74.7324 39.6321 74.536 39.6321H74.4401V40.7693C74.4401 41.0479 74.4721 41.0661 74.8146 41.0821V41.1826H73.3897V41.0821C73.7162 41.0661 73.7482 41.0479 73.7482 40.7693V39.6321H73.6797C73.408 39.6321 73.2983 39.6641 73.2321 39.7098C73.1842 39.7486 73.1339 39.8171 73.0814 39.9609H72.9102C72.9239 39.776 72.9421 39.6207 72.9535 39.4951H75.2416Z" fill="#0B0C0D"/>
<path d="M82.6654 40.6526C82.743 40.8033 82.9668 41.0933 83.339 41.0933C83.5354 41.0933 83.6884 41.0043 83.6884 40.8353C83.6884 40.68 83.5445 40.5909 83.3116 40.5224L83.2545 40.5042C82.9394 40.4083 82.5923 40.269 82.5923 39.9904C82.5923 39.6958 82.9029 39.4561 83.4989 39.4561C83.6176 39.4561 83.7363 39.4675 83.8459 39.488C83.9327 39.504 83.9944 39.5131 84.0446 39.5223C84.0606 39.625 84.0857 39.7529 84.1291 39.9287L83.9624 39.947C83.8802 39.7757 83.7455 39.5908 83.4463 39.5908C83.2522 39.5908 83.1152 39.6935 83.1152 39.8168C83.1152 39.9402 83.2591 40.0246 83.5057 40.0977L83.5902 40.1228C83.9396 40.2302 84.2387 40.3649 84.2387 40.6686C84.2387 40.9883 83.8642 41.2235 83.2751 41.2235C83.1244 41.2235 82.9691 41.2029 82.8663 41.1801C82.7522 41.155 82.6745 41.1321 82.6266 41.1184C82.5969 40.9974 82.5466 40.8581 82.501 40.6823L82.67 40.6503" fill="#0B0C0D"/>
<path d="M85.1997 40.7726C85.1928 41.0534 85.2294 41.0717 85.4988 41.0877V41.1904H84.316V41.0877C84.5603 41.0717 84.5923 41.0557 84.5923 40.7726V39.914C84.5923 39.6331 84.5626 39.6126 84.2954 39.5988V39.4961H85.4782V39.5988C85.2271 39.6148 85.1974 39.6331 85.1974 39.914V40.3204C85.4737 40.1058 85.7043 39.914 85.9258 39.7153C85.9783 39.6674 86.0194 39.6171 85.919 39.6103L85.7728 39.5988V39.4961H86.7912V39.5988C86.5766 39.6148 86.4579 39.6285 86.2615 39.7587C86.056 39.8957 85.8664 40.0281 85.7066 40.156C85.9418 40.4026 86.193 40.6424 86.4327 40.8616C86.636 41.0489 86.7045 41.074 86.8598 41.0877V41.1904H85.9898C85.8436 41.0237 85.4851 40.6424 85.2065 40.357H85.1997V40.7726Z" fill="#0B0C0D"/>
<path d="M88.7893 40.006C88.6751 39.6612 88.3623 39.5927 88.1157 39.5927C87.7138 39.5927 87.3804 39.8668 87.3804 40.3097C87.3804 40.7139 87.6316 41.093 88.1545 41.093C88.2504 41.093 88.3098 41.0724 88.3098 40.9491V40.7002C88.3098 40.5267 88.2938 40.5061 87.8965 40.4879V40.3691H89.1638V40.4879C88.9697 40.5107 88.9537 40.5175 88.9537 40.7002V40.8875C88.9537 40.9811 88.9583 41.0633 88.9765 41.1249C88.7413 41.1706 88.4354 41.23 88.1202 41.23C87.2137 41.23 86.6748 40.8943 86.6748 40.3623C86.6748 39.7663 87.3667 39.458 88.175 39.458C88.465 39.458 88.7665 39.5014 88.8989 39.5242C88.9103 39.6133 88.9286 39.748 88.9606 39.9992L88.7939 40.0083" fill="#0B0C0D"/>
<path d="M31.9201 25.8201C29.6663 20.9974 23.7635 17.1543 17.21 18.6431C21.1375 19.0656 25.2432 21.6619 26.9467 25.3589C28.1044 27.8707 28.3099 30.3985 27.8236 33.0108C27.3714 35.4427 26.522 36.9909 25.8643 37.8814C25.9374 37.3106 25.8141 36.3721 25.7045 36.194C25.652 35.002 24.8528 34.4859 24.5902 34.4859C24.6701 34.3466 24.8528 33.9835 24.8528 33.9835C24.6906 33.9219 24.2865 34.0795 24.2865 34.0795C24.2682 34.0201 24.2933 33.915 24.2933 33.915C24.629 33.915 24.6906 33.6753 24.6906 33.6753C24.6792 33.7529 24.6587 33.8146 24.6587 33.8146C25.0971 33.4812 24.9738 32.4787 24.903 32.1659C24.7454 31.4809 24.5376 31.3621 24.3321 31.4032C24.3435 31.3119 24.565 31.1931 24.6769 31.1817C24.6061 31.0812 24.4029 31.1338 24.291 31.2023C24.3824 31.0424 24.1997 30.789 23.9759 30.8027C24.3755 30.9123 24.1586 31.3324 24.1586 31.3324C24.323 30.8027 23.2612 30.8323 22.583 30.9831C22.2153 31.063 20.8453 31.5516 20.7128 32.7162C20.7128 32.7162 20.8156 32.5358 20.8772 32.4742C20.8361 32.5838 20.7653 32.8053 20.8886 33.0245C20.8886 33.0245 20.98 32.8053 21.1627 32.7847C21.0805 32.8875 21.1284 33.1683 21.2129 33.3236C21.3157 33.5109 21.2791 33.6159 21.1855 33.6753C21.0942 33.7369 21.0028 33.8534 21.012 33.9447C21.0234 34.0361 21.133 34.0543 21.1855 34.0749C21.2357 34.0954 21.3522 34.2256 21.2266 34.2758C21.2449 34.3215 21.2837 34.3854 21.3705 34.3854C21.3225 34.4517 21.3408 34.5635 21.4253 34.5521C21.528 34.5361 21.5623 34.6298 21.5143 34.7691C21.4732 34.8832 21.6422 35.0956 21.8957 34.9677C21.9756 34.9266 22.4049 34.7257 22.3478 34.8741V34.865C22.309 34.9312 22.3204 35.2806 22.2131 35.3331C22.1035 35.3856 22.0418 35.5363 21.9642 35.6002C21.8317 35.7121 21.834 35.8195 21.6536 35.8697C21.4709 35.9199 21.2654 36.1026 20.8384 36.1483C20.4114 36.1962 20.6169 36.4223 20.3703 36.3447C20.1077 36.0364 19.8177 35.9519 19.466 35.9519C18.9089 35.9519 18.8586 36.0136 18.7125 36.2396C18.4271 36.2396 17.1049 36.2602 16.8172 35.977C16.8172 35.8765 16.6962 35.3765 16.3925 35.2737C16.0865 35.171 15.8216 34.7919 15.8833 34.6115C15.6229 34.5841 15.5407 34.7462 15.5978 35.0339C15.5316 35.0476 15.4631 35.0728 15.3969 35.0956C12.353 31.5516 5.86108 26.6102 2.36279 26.1878V26.4823C2.46327 26.4823 2.57744 26.4915 2.69846 26.512V50.6826H2.87429V26.5463C5.48659 27.1194 11.8529 31.5402 14.995 35.2098C14.9082 35.292 14.8625 35.4747 15.0749 35.5706C15.2987 35.671 15.2576 35.6916 15.4403 35.9702C15.7006 36.3721 15.6229 36.5182 15.9883 36.5114C16.2326 36.8813 16.429 37.2375 16.5683 37.5709C16.4884 37.596 16.4199 37.6166 16.3788 37.6577C16.2966 37.6988 16.2349 37.7559 16.1961 37.8997C16.155 38.0413 16.3605 38.0276 16.4199 38.16C16.5021 38.3404 16.5021 38.4614 16.582 38.7218C16.6345 38.8976 16.7738 38.9364 17.0227 38.8702C17.0684 38.9889 17.1186 39.1191 17.1232 39.1556C17.1346 39.215 17.5228 39.2812 17.4406 39.0049C17.4109 38.9044 17.3789 38.8154 17.3515 38.7377C17.4771 38.6692 17.5525 38.6099 17.6781 38.6099C17.8608 38.6099 17.943 38.5962 17.943 38.5962C17.8653 38.8611 17.7557 39.3406 17.6301 39.6123C17.3356 39.5963 17.2305 39.6123 17.1963 39.7242C17.1643 39.8384 17.0478 40.3042 17.0478 40.5965C17.0478 40.8888 17.178 40.8089 17.3424 40.8682C17.6324 40.9733 17.6598 40.9527 17.6552 40.9984C17.6301 41.2062 17.5913 41.3752 17.5274 41.5008C17.2145 42.0922 16.9885 42.1378 16.6939 42.3502C16.3993 42.5603 15.9723 42.6585 15.76 42.7772C15.5704 42.8823 15.4494 42.9256 15.2896 42.8845C15.0498 42.816 15.1274 42.7247 15.0178 42.7841C14.6913 42.9667 15.084 43.2659 15.084 43.2659C15.1206 43.2796 15.1663 43.2887 15.2142 43.2979C13.7299 43.1266 12.2 42.5649 11.33 42.0488C12.4215 43.0444 14.2917 44.0674 15.0886 44.4145C15.7508 44.7045 16.3148 44.9237 16.4747 44.9876L16.3422 44.9762C16.3422 44.9762 16.1664 45.2365 16.0043 45.4146C15.8422 45.595 15.7919 45.6887 15.9061 45.7549C16.0203 45.8211 16.1207 45.901 16.3628 46.0631C16.2966 46.4513 16.0203 47.0496 15.8376 47.4035C15.6549 47.7552 15.4426 48.132 15.2667 48.3101C15.0886 48.4905 14.6753 48.8444 14.415 49.1047C14.1547 49.3628 13.8487 49.5546 13.6706 49.5843C13.344 49.6391 13.2436 49.3925 13.2002 49.4518C12.9992 49.7281 13.1066 50.0136 13.4788 50.0638C13.6044 50.0821 13.6797 50.2077 13.9081 50.3081C14.1364 50.404 14.4835 50.3218 14.6776 50.2259C14.8717 50.1254 15.2987 49.872 15.6092 49.7099C15.9198 49.5523 16.2372 49.5614 16.598 49.5317C16.8971 49.5043 16.9291 48.9997 16.8195 48.7508C16.6619 48.3763 16.7852 48.1023 16.9725 47.657C17.1597 47.214 17.6461 46.7299 17.6461 46.7299C17.6461 46.7299 17.7763 46.6637 17.9955 46.8213C18.2056 46.972 18.2489 46.7299 18.5184 46.4079C18.7376 46.1476 18.9728 45.8645 18.8358 45.7412C18.6714 45.5905 18.7148 45.5265 18.7148 45.5265C18.7148 45.5265 18.797 45.4215 18.9066 45.3096C25.8986 45.4375 29.8376 40.9459 30.5318 40.0096C33.9227 35.4199 34.11 30.5058 31.9178 25.811M18.0845 37.8495C17.9224 37.8814 17.6667 37.9408 17.5982 37.8495C17.4589 37.6736 17.436 37.6554 17.3744 37.5298C17.3013 37.3814 17.1711 37.1667 16.9474 37.3699C16.8537 37.1256 16.7122 36.8516 16.5272 36.557C16.7122 36.6392 16.9496 36.7785 17.2351 36.9247C17.7032 37.1644 18.1325 37.2466 18.233 37.2672L18.0914 37.8495H18.0845ZM19.4249 41.8136C19.2286 41.8935 19.023 42.1036 18.7627 42.1698C18.6714 41.7725 18.765 41.3044 18.765 41.3044C18.765 41.3044 19.0778 41.3752 19.3085 41.4231C19.4957 41.4619 19.514 41.503 19.5551 41.398C19.6076 41.2678 19.7515 40.4709 19.7903 40.3293C19.8223 40.2174 19.6099 40.1832 19.6099 40.1832C19.6099 40.1832 19.5962 40.2974 19.6259 39.9617C19.6533 39.6877 19.6716 39.0529 19.7264 39.03C19.8063 38.9958 19.8839 39.5301 19.8839 39.5301C20.0917 40.2928 20.3018 41.0052 20.4 41.1491C20.5301 41.3455 20.5256 41.414 20.5256 41.414C20.1602 41.5967 19.619 41.7314 19.4204 41.8113M22.293 39.2173C22.0053 38.9478 21.7335 38.3085 21.5029 37.9956L22.2747 37.7741C22.2747 37.7741 22.4414 38.1509 22.4209 38.635C22.3706 38.9798 22.4026 39.0437 22.2953 39.2173" fill="#0B0C0D"/>
</svg>
